%FSLAX43Y43*%
%MOMM*%
G71*
G01*
G75*
G04 Layer_Color=2752767*
%ADD10C,1.500*%
%ADD11C,1.000*%
%ADD12C,0.500*%
%ADD13C,0.800*%
%ADD14C,0.300*%
%ADD15P,3.299X8X202.5*%
%ADD16C,3.048*%
%ADD17R,1.600X1.600*%
%ADD18C,1.600*%
%ADD19R,1.600X1.600*%
%ADD20P,5.412X8X202.5*%
G04:AMPARAMS|DCode=21|XSize=2.032mm|YSize=2.54mm|CornerRadius=0mm|HoleSize=0mm|Usage=FLASHONLY|Rotation=180.000|XOffset=0mm|YOffset=0mm|HoleType=Round|Shape=Octagon|*
%AMOCTAGOND21*
4,1,8,0.508,-1.270,-0.508,-1.270,-1.016,-0.762,-1.016,0.762,-0.508,1.270,0.508,1.270,1.016,0.762,1.016,-0.762,0.508,-1.270,0.0*
%
%ADD21OCTAGOND21*%

%ADD22C,1.524*%
%ADD23P,1.650X8X202.5*%
%ADD24R,2.000X2.000*%
%ADD25C,2.000*%
%ADD26C,1.219*%
%ADD27O,2.000X1.000*%
%ADD28O,2.000X1.000*%
%ADD29R,1.350X1.350*%
%ADD30C,1.350*%
%ADD31R,2.000X2.000*%
%ADD32R,1.350X1.350*%
%ADD33C,1.400*%
%ADD34P,4.330X8X22.5*%
%ADD35P,1.650X8X112.5*%
%ADD36C,1.270*%
%ADD37C,0.800*%
%ADD38C,1.000*%
%ADD39C,0.700*%
%ADD40C,1.500*%
%ADD41C,0.200*%
%ADD42C,0.250*%
%ADD43C,0.600*%
%ADD44C,0.254*%
%ADD45C,0.305*%
%ADD46C,0.127*%
%ADD47C,0.150*%
%ADD48C,0.120*%
%ADD49C,0.100*%
%ADD50C,0.203*%
%ADD51R,0.800X2.800*%
%ADD52R,2.800X0.800*%
%ADD53R,0.800X2.800*%
%ADD54P,3.519X8X202.5*%
%ADD55C,3.251*%
%ADD56R,1.803X1.803*%
%ADD57C,1.803*%
%ADD58R,1.803X1.803*%
%ADD59P,5.632X8X202.5*%
G04:AMPARAMS|DCode=60|XSize=2.235mm|YSize=2.743mm|CornerRadius=0mm|HoleSize=0mm|Usage=FLASHONLY|Rotation=180.000|XOffset=0mm|YOffset=0mm|HoleType=Round|Shape=Octagon|*
%AMOCTAGOND60*
4,1,8,0.559,-1.372,-0.559,-1.372,-1.118,-0.813,-1.118,0.813,-0.559,1.372,0.559,1.372,1.118,0.813,1.118,-0.813,0.559,-1.372,0.0*
%
%ADD60OCTAGOND60*%

%ADD61C,1.727*%
%ADD62P,1.870X8X202.5*%
%ADD63R,2.203X2.203*%
%ADD64C,2.203*%
%ADD65C,1.422*%
%ADD66O,2.203X1.203*%
%ADD67O,2.203X1.203*%
%ADD68R,1.553X1.553*%
%ADD69C,1.553*%
%ADD70R,2.203X2.203*%
%ADD71R,1.553X1.553*%
%ADD72C,1.603*%
%ADD73P,4.550X8X22.5*%
%ADD74P,1.870X8X112.5*%
%ADD75C,1.473*%
%ADD76C,1.003*%
%ADD77C,1.203*%
%ADD78C,0.903*%
%ADD79C,1.703*%
%ADD80C,0.169*%
%ADD81C,0.102*%
D46*
X258458Y66942D02*
Y67958D01*
X259474D01*
Y66942D01*
X258458D01*
X253378D02*
Y67958D01*
X254394D01*
Y66942D01*
X253378D01*
X273952Y62878D02*
X273444Y63894D01*
X274460D01*
X273952Y62878D01*
X271412Y80658D02*
X271666Y80912D01*
X271920D01*
X271666Y81166D01*
X271920Y81420D01*
X271666D01*
X271412Y81674D01*
X271158Y81420D01*
X270904D01*
X271158Y81166D01*
X270904Y80912D01*
X271158D01*
X271412Y80658D01*
X273952D02*
X274206Y80912D01*
X274460D01*
X274206Y81166D01*
X274460Y81420D01*
X274206D01*
X273952Y81674D01*
X273698Y81420D01*
X273444D01*
X273698Y81166D01*
X273444Y80912D01*
X273698D01*
X273952Y80658D01*
X276492D02*
X276746Y80912D01*
X277000D01*
X276746Y81166D01*
X277000Y81420D01*
X276746D01*
X276492Y81674D01*
X276238Y81420D01*
X275984D01*
X276238Y81166D01*
X275984Y80912D01*
X276238D01*
X276492Y80658D01*
X218580Y62878D02*
X218072Y63894D01*
X219088D01*
X218580Y62878D01*
X216040Y80658D02*
X216294Y80912D01*
X216548D01*
X216294Y81166D01*
X216548Y81420D01*
X216294D01*
X216040Y81674D01*
X215786Y81420D01*
X215532D01*
X215786Y81166D01*
X215532Y80912D01*
X215786D01*
X216040Y80658D01*
X218580D02*
X218834Y80912D01*
X219088D01*
X218834Y81166D01*
X219088Y81420D01*
X218834D01*
X218580Y81674D01*
X218326Y81420D01*
X218072D01*
X218326Y81166D01*
X218072Y80912D01*
X218326D01*
X218580Y80658D01*
X221120D02*
X221374Y80912D01*
X221628D01*
X221374Y81166D01*
X221628Y81420D01*
X221374D01*
X221120Y81674D01*
X220866Y81420D01*
X220612D01*
X220866Y81166D01*
X220612Y80912D01*
X220866D01*
X221120Y80658D01*
X188214Y189103D02*
X188468Y189611D01*
X188214Y190119D01*
X188722Y189865D01*
X189230Y190119D01*
X188976Y189611D01*
X189230Y189103D01*
X188722Y189357D01*
X188214Y189103D01*
X190754D02*
X191008Y189611D01*
X190754Y190119D01*
X191262Y189865D01*
X191770Y190119D01*
X191516Y189611D01*
X191770Y189103D01*
X191262Y189357D01*
X190754Y189103D01*
X198651Y242189D02*
Y241935D01*
X199159D01*
Y242189D01*
X199413D01*
Y242697D01*
X199159D01*
Y242951D01*
X198651D01*
Y242697D01*
X198397D01*
Y242189D01*
X198651D01*
X188191D02*
Y241935D01*
X188699D01*
Y242189D01*
X188953D01*
Y242697D01*
X188699D01*
Y242951D01*
X188191D01*
Y242697D01*
X187937D01*
Y242189D01*
X188191D01*
X194437Y246634D02*
X194691Y247142D01*
X194437Y247650D01*
X194945Y247396D01*
X195453Y247650D01*
X195199Y247142D01*
X195453Y246634D01*
X194945Y246888D01*
X194437Y246634D01*
X191897D02*
X192151Y247142D01*
X191897Y247650D01*
X192405Y247396D01*
X192913Y247650D01*
X192659Y247142D01*
X192913Y246634D01*
X192405Y246888D01*
X191897Y246634D01*
X266319Y131826D02*
X266573D01*
X266827Y132080D01*
X267081Y131826D01*
X267335D01*
Y132080D01*
X267081Y132334D01*
X267335Y132588D01*
Y132842D01*
X267081D01*
X266827Y132588D01*
X266573Y132842D01*
X266319D01*
Y132588D01*
X266573Y132334D01*
X266319Y132080D01*
Y131826D01*
Y129286D02*
X266573D01*
X266827Y129540D01*
X267081Y129286D01*
X267335D01*
Y129540D01*
X267081Y129794D01*
X267335Y130048D01*
Y130302D01*
X267081D01*
X266827Y130048D01*
X266573Y130302D01*
X266319D01*
Y130048D01*
X266573Y129794D01*
X266319Y129540D01*
Y129286D01*
Y126746D02*
X266573D01*
X266827Y127000D01*
X267081Y126746D01*
X267335D01*
Y127000D01*
X267081Y127254D01*
X267335Y127508D01*
Y127762D01*
X267081D01*
X266827Y127508D01*
X266573Y127762D01*
X266319D01*
Y127508D01*
X266573Y127254D01*
X266319Y127000D01*
Y126746D01*
Y124206D02*
X266573D01*
X266827Y124460D01*
X267081Y124206D01*
X267335D01*
Y124460D01*
X267081Y124714D01*
X267335Y124968D01*
Y125222D01*
X267081D01*
X266827Y124968D01*
X266573Y125222D01*
X266319D01*
Y124968D01*
X266573Y124714D01*
X266319Y124460D01*
Y124206D01*
Y121666D02*
X266573D01*
X266827Y121920D01*
X267081Y121666D01*
X267335D01*
Y121920D01*
X267081Y122174D01*
X267335Y122428D01*
Y122682D01*
X267081D01*
X266827Y122428D01*
X266573Y122682D01*
X266319D01*
Y122428D01*
X266573Y122174D01*
X266319Y121920D01*
Y121666D01*
Y119126D02*
X266573D01*
X266827Y119380D01*
X267081Y119126D01*
X267335D01*
Y119380D01*
X267081Y119634D01*
X267335Y119888D01*
Y120142D01*
X267081D01*
X266827Y119888D01*
X266573Y120142D01*
X266319D01*
Y119888D01*
X266573Y119634D01*
X266319Y119380D01*
Y119126D01*
X276479D02*
X276733D01*
X276987Y119380D01*
X277241Y119126D01*
X277495D01*
Y119380D01*
X277241Y119634D01*
X277495Y119888D01*
Y120142D01*
X277241D01*
X276987Y119888D01*
X276733Y120142D01*
X276479D01*
Y119888D01*
X276733Y119634D01*
X276479Y119380D01*
Y119126D01*
Y121666D02*
X276733D01*
X276987Y121920D01*
X277241Y121666D01*
X277495D01*
Y121920D01*
X277241Y122174D01*
X277495Y122428D01*
Y122682D01*
X277241D01*
X276987Y122428D01*
X276733Y122682D01*
X276479D01*
Y122428D01*
X276733Y122174D01*
X276479Y121920D01*
Y121666D01*
Y124206D02*
X276733D01*
X276987Y124460D01*
X277241Y124206D01*
X277495D01*
Y124460D01*
X277241Y124714D01*
X277495Y124968D01*
Y125222D01*
X277241D01*
X276987Y124968D01*
X276733Y125222D01*
X276479D01*
Y124968D01*
X276733Y124714D01*
X276479Y124460D01*
Y124206D01*
Y126746D02*
X276733D01*
X276987Y127000D01*
X277241Y126746D01*
X277495D01*
Y127000D01*
X277241Y127254D01*
X277495Y127508D01*
Y127762D01*
X277241D01*
X276987Y127508D01*
X276733Y127762D01*
X276479D01*
Y127508D01*
X276733Y127254D01*
X276479Y127000D01*
Y126746D01*
Y129286D02*
X276733D01*
X276987Y129540D01*
X277241Y129286D01*
X277495D01*
Y129540D01*
X277241Y129794D01*
X277495Y130048D01*
Y130302D01*
X277241D01*
X276987Y130048D01*
X276733Y130302D01*
X276479D01*
Y130048D01*
X276733Y129794D01*
X276479Y129540D01*
Y129286D01*
Y131826D02*
X276733D01*
X276987Y132080D01*
X277241Y131826D01*
X277495D01*
Y132080D01*
X277241Y132334D01*
X277495Y132588D01*
Y132842D01*
X277241D01*
X276987Y132588D01*
X276733Y132842D01*
X276479D01*
Y132588D01*
X276733Y132334D01*
X276479Y132080D01*
Y131826D01*
X280797Y179070D02*
X281051D01*
X281305Y179324D01*
X281559Y179070D01*
X281813D01*
Y179324D01*
X281559Y179578D01*
X281813Y179832D01*
Y180086D01*
X281559D01*
X281305Y179832D01*
X281051Y180086D01*
X280797D01*
Y179832D01*
X281051Y179578D01*
X280797Y179324D01*
Y179070D01*
Y176530D02*
X281051D01*
X281305Y176784D01*
X281559Y176530D01*
X281813D01*
Y176784D01*
X281559Y177038D01*
X281813Y177292D01*
Y177546D01*
X281559D01*
X281305Y177292D01*
X281051Y177546D01*
X280797D01*
Y177292D01*
X281051Y177038D01*
X280797Y176784D01*
Y176530D01*
Y173990D02*
X281051D01*
X281305Y174244D01*
X281559Y173990D01*
X281813D01*
Y174244D01*
X281559Y174498D01*
X281813Y174752D01*
Y175006D01*
X281559D01*
X281305Y174752D01*
X281051Y175006D01*
X280797D01*
Y174752D01*
X281051Y174498D01*
X280797Y174244D01*
Y173990D01*
Y171450D02*
X281051D01*
X281305Y171704D01*
X281559Y171450D01*
X281813D01*
Y171704D01*
X281559Y171958D01*
X281813Y172212D01*
Y172466D01*
X281559D01*
X281305Y172212D01*
X281051Y172466D01*
X280797D01*
Y172212D01*
X281051Y171958D01*
X280797Y171704D01*
Y171450D01*
Y168910D02*
X281051D01*
X281305Y169164D01*
X281559Y168910D01*
X281813D01*
Y169164D01*
X281559Y169418D01*
X281813Y169672D01*
Y169926D01*
X281559D01*
X281305Y169672D01*
X281051Y169926D01*
X280797D01*
Y169672D01*
X281051Y169418D01*
X280797Y169164D01*
Y168910D01*
Y166370D02*
X281051D01*
X281305Y166624D01*
X281559Y166370D01*
X281813D01*
Y166624D01*
X281559Y166878D01*
X281813Y167132D01*
Y167386D01*
X281559D01*
X281305Y167132D01*
X281051Y167386D01*
X280797D01*
Y167132D01*
X281051Y166878D01*
X280797Y166624D01*
Y166370D01*
X290957D02*
X291211D01*
X291465Y166624D01*
X291719Y166370D01*
X291973D01*
Y166624D01*
X291719Y166878D01*
X291973Y167132D01*
Y167386D01*
X291719D01*
X291465Y167132D01*
X291211Y167386D01*
X290957D01*
Y167132D01*
X291211Y166878D01*
X290957Y166624D01*
Y166370D01*
Y168910D02*
X291211D01*
X291465Y169164D01*
X291719Y168910D01*
X291973D01*
Y169164D01*
X291719Y169418D01*
X291973Y169672D01*
Y169926D01*
X291719D01*
X291465Y169672D01*
X291211Y169926D01*
X290957D01*
Y169672D01*
X291211Y169418D01*
X290957Y169164D01*
Y168910D01*
Y171450D02*
X291211D01*
X291465Y171704D01*
X291719Y171450D01*
X291973D01*
Y171704D01*
X291719Y171958D01*
X291973Y172212D01*
Y172466D01*
X291719D01*
X291465Y172212D01*
X291211Y172466D01*
X290957D01*
Y172212D01*
X291211Y171958D01*
X290957Y171704D01*
Y171450D01*
Y173990D02*
X291211D01*
X291465Y174244D01*
X291719Y173990D01*
X291973D01*
Y174244D01*
X291719Y174498D01*
X291973Y174752D01*
Y175006D01*
X291719D01*
X291465Y174752D01*
X291211Y175006D01*
X290957D01*
Y174752D01*
X291211Y174498D01*
X290957Y174244D01*
Y173990D01*
Y176530D02*
X291211D01*
X291465Y176784D01*
X291719Y176530D01*
X291973D01*
Y176784D01*
X291719Y177038D01*
X291973Y177292D01*
Y177546D01*
X291719D01*
X291465Y177292D01*
X291211Y177546D01*
X290957D01*
Y177292D01*
X291211Y177038D01*
X290957Y176784D01*
Y176530D01*
Y179070D02*
X291211D01*
X291465Y179324D01*
X291719Y179070D01*
X291973D01*
Y179324D01*
X291719Y179578D01*
X291973Y179832D01*
Y180086D01*
X291719D01*
X291465Y179832D01*
X291211Y180086D01*
X290957D01*
Y179832D01*
X291211Y179578D01*
X290957Y179324D01*
Y179070D01*
X280670Y208915D02*
X280924D01*
X281178Y209169D01*
X281432Y208915D01*
X281686D01*
Y209169D01*
X281432Y209423D01*
X281686Y209677D01*
Y209931D01*
X281432D01*
X281178Y209677D01*
X280924Y209931D01*
X280670D01*
Y209677D01*
X280924Y209423D01*
X280670Y209169D01*
Y208915D01*
Y206375D02*
X280924D01*
X281178Y206629D01*
X281432Y206375D01*
X281686D01*
Y206629D01*
X281432Y206883D01*
X281686Y207137D01*
Y207391D01*
X281432D01*
X281178Y207137D01*
X280924Y207391D01*
X280670D01*
Y207137D01*
X280924Y206883D01*
X280670Y206629D01*
Y206375D01*
Y203835D02*
X280924D01*
X281178Y204089D01*
X281432Y203835D01*
X281686D01*
Y204089D01*
X281432Y204343D01*
X281686Y204597D01*
Y204851D01*
X281432D01*
X281178Y204597D01*
X280924Y204851D01*
X280670D01*
Y204597D01*
X280924Y204343D01*
X280670Y204089D01*
Y203835D01*
Y201295D02*
X280924D01*
X281178Y201549D01*
X281432Y201295D01*
X281686D01*
Y201549D01*
X281432Y201803D01*
X281686Y202057D01*
Y202311D01*
X281432D01*
X281178Y202057D01*
X280924Y202311D01*
X280670D01*
Y202057D01*
X280924Y201803D01*
X280670Y201549D01*
Y201295D01*
Y198755D02*
X280924D01*
X281178Y199009D01*
X281432Y198755D01*
X281686D01*
Y199009D01*
X281432Y199263D01*
X281686Y199517D01*
Y199771D01*
X281432D01*
X281178Y199517D01*
X280924Y199771D01*
X280670D01*
Y199517D01*
X280924Y199263D01*
X280670Y199009D01*
Y198755D01*
Y196215D02*
X280924D01*
X281178Y196469D01*
X281432Y196215D01*
X281686D01*
Y196469D01*
X281432Y196723D01*
X281686Y196977D01*
Y197231D01*
X281432D01*
X281178Y196977D01*
X280924Y197231D01*
X280670D01*
Y196977D01*
X280924Y196723D01*
X280670Y196469D01*
Y196215D01*
X290830D02*
X291084D01*
X291338Y196469D01*
X291592Y196215D01*
X291846D01*
Y196469D01*
X291592Y196723D01*
X291846Y196977D01*
Y197231D01*
X291592D01*
X291338Y196977D01*
X291084Y197231D01*
X290830D01*
Y196977D01*
X291084Y196723D01*
X290830Y196469D01*
Y196215D01*
Y198755D02*
X291084D01*
X291338Y199009D01*
X291592Y198755D01*
X291846D01*
Y199009D01*
X291592Y199263D01*
X291846Y199517D01*
Y199771D01*
X291592D01*
X291338Y199517D01*
X291084Y199771D01*
X290830D01*
Y199517D01*
X291084Y199263D01*
X290830Y199009D01*
Y198755D01*
Y201295D02*
X291084D01*
X291338Y201549D01*
X291592Y201295D01*
X291846D01*
Y201549D01*
X291592Y201803D01*
X291846Y202057D01*
Y202311D01*
X291592D01*
X291338Y202057D01*
X291084Y202311D01*
X290830D01*
Y202057D01*
X291084Y201803D01*
X290830Y201549D01*
Y201295D01*
Y203835D02*
X291084D01*
X291338Y204089D01*
X291592Y203835D01*
X291846D01*
Y204089D01*
X291592Y204343D01*
X291846Y204597D01*
Y204851D01*
X291592D01*
X291338Y204597D01*
X291084Y204851D01*
X290830D01*
Y204597D01*
X291084Y204343D01*
X290830Y204089D01*
Y203835D01*
Y206375D02*
X291084D01*
X291338Y206629D01*
X291592Y206375D01*
X291846D01*
Y206629D01*
X291592Y206883D01*
X291846Y207137D01*
Y207391D01*
X291592D01*
X291338Y207137D01*
X291084Y207391D01*
X290830D01*
Y207137D01*
X291084Y206883D01*
X290830Y206629D01*
Y206375D01*
Y208915D02*
X291084D01*
X291338Y209169D01*
X291592Y208915D01*
X291846D01*
Y209169D01*
X291592Y209423D01*
X291846Y209677D01*
Y209931D01*
X291592D01*
X291338Y209677D01*
X291084Y209931D01*
X290830D01*
Y209677D01*
X291084Y209423D01*
X290830Y209169D01*
Y208915D01*
X280670Y240411D02*
X280924D01*
X281178Y240665D01*
X281432Y240411D01*
X281686D01*
Y240665D01*
X281432Y240919D01*
X281686Y241173D01*
Y241427D01*
X281432D01*
X281178Y241173D01*
X280924Y241427D01*
X280670D01*
Y241173D01*
X280924Y240919D01*
X280670Y240665D01*
Y240411D01*
Y237871D02*
X280924D01*
X281178Y238125D01*
X281432Y237871D01*
X281686D01*
Y238125D01*
X281432Y238379D01*
X281686Y238633D01*
Y238887D01*
X281432D01*
X281178Y238633D01*
X280924Y238887D01*
X280670D01*
Y238633D01*
X280924Y238379D01*
X280670Y238125D01*
Y237871D01*
Y235331D02*
X280924D01*
X281178Y235585D01*
X281432Y235331D01*
X281686D01*
Y235585D01*
X281432Y235839D01*
X281686Y236093D01*
Y236347D01*
X281432D01*
X281178Y236093D01*
X280924Y236347D01*
X280670D01*
Y236093D01*
X280924Y235839D01*
X280670Y235585D01*
Y235331D01*
Y232791D02*
X280924D01*
X281178Y233045D01*
X281432Y232791D01*
X281686D01*
Y233045D01*
X281432Y233299D01*
X281686Y233553D01*
Y233807D01*
X281432D01*
X281178Y233553D01*
X280924Y233807D01*
X280670D01*
Y233553D01*
X280924Y233299D01*
X280670Y233045D01*
Y232791D01*
Y230251D02*
X280924D01*
X281178Y230505D01*
X281432Y230251D01*
X281686D01*
Y230505D01*
X281432Y230759D01*
X281686Y231013D01*
Y231267D01*
X281432D01*
X281178Y231013D01*
X280924Y231267D01*
X280670D01*
Y231013D01*
X280924Y230759D01*
X280670Y230505D01*
Y230251D01*
Y227711D02*
X280924D01*
X281178Y227965D01*
X281432Y227711D01*
X281686D01*
Y227965D01*
X281432Y228219D01*
X281686Y228473D01*
Y228727D01*
X281432D01*
X281178Y228473D01*
X280924Y228727D01*
X280670D01*
Y228473D01*
X280924Y228219D01*
X280670Y227965D01*
Y227711D01*
X290830D02*
X291084D01*
X291338Y227965D01*
X291592Y227711D01*
X291846D01*
Y227965D01*
X291592Y228219D01*
X291846Y228473D01*
Y228727D01*
X291592D01*
X291338Y228473D01*
X291084Y228727D01*
X290830D01*
Y228473D01*
X291084Y228219D01*
X290830Y227965D01*
Y227711D01*
Y230251D02*
X291084D01*
X291338Y230505D01*
X291592Y230251D01*
X291846D01*
Y230505D01*
X291592Y230759D01*
X291846Y231013D01*
Y231267D01*
X291592D01*
X291338Y231013D01*
X291084Y231267D01*
X290830D01*
Y231013D01*
X291084Y230759D01*
X290830Y230505D01*
Y230251D01*
Y232791D02*
X291084D01*
X291338Y233045D01*
X291592Y232791D01*
X291846D01*
Y233045D01*
X291592Y233299D01*
X291846Y233553D01*
Y233807D01*
X291592D01*
X291338Y233553D01*
X291084Y233807D01*
X290830D01*
Y233553D01*
X291084Y233299D01*
X290830Y233045D01*
Y232791D01*
Y235331D02*
X291084D01*
X291338Y235585D01*
X291592Y235331D01*
X291846D01*
Y235585D01*
X291592Y235839D01*
X291846Y236093D01*
Y236347D01*
X291592D01*
X291338Y236093D01*
X291084Y236347D01*
X290830D01*
Y236093D01*
X291084Y235839D01*
X290830Y235585D01*
Y235331D01*
Y237871D02*
X291084D01*
X291338Y238125D01*
X291592Y237871D01*
X291846D01*
Y238125D01*
X291592Y238379D01*
X291846Y238633D01*
Y238887D01*
X291592D01*
X291338Y238633D01*
X291084Y238887D01*
X290830D01*
Y238633D01*
X291084Y238379D01*
X290830Y238125D01*
Y237871D01*
Y240411D02*
X291084D01*
X291338Y240665D01*
X291592Y240411D01*
X291846D01*
Y240665D01*
X291592Y240919D01*
X291846Y241173D01*
Y241427D01*
X291592D01*
X291338Y241173D01*
X291084Y241427D01*
X290830D01*
Y241173D01*
X291084Y240919D01*
X290830Y240665D01*
Y240411D01*
X314706Y117094D02*
X315214Y117602D01*
X315722Y117094D01*
X315214Y116586D01*
X314706Y117094D01*
Y115824D02*
X315214Y116332D01*
X315722Y115824D01*
X315214Y115316D01*
X314706Y115824D01*
Y114554D02*
X315214Y115062D01*
X315722Y114554D01*
X315214Y114046D01*
X314706Y114554D01*
X302260Y117094D02*
X302768Y117602D01*
X303276Y117094D01*
X302768Y116586D01*
X302260Y117094D01*
Y115824D02*
X302768Y116332D01*
X303276Y115824D01*
X302768Y115316D01*
X302260Y115824D01*
Y114554D02*
X302768Y115062D01*
X303276Y114554D01*
X302768Y114046D01*
X302260Y114554D01*
X218226Y99441D02*
Y100457D01*
X219242D01*
Y99441D01*
X218226D01*
X218429Y99644D02*
Y100254D01*
X219039D01*
Y99644D01*
X218429D01*
X223226Y99441D02*
Y100457D01*
X224242D01*
Y99441D01*
X223226D01*
X223429Y99644D02*
Y100254D01*
X224039D01*
Y99644D01*
X223429D01*
X223226Y113855D02*
Y114871D01*
X224242D01*
Y113855D01*
X223226D01*
X223429Y114059D02*
Y114668D01*
X224039D01*
Y114059D01*
X223429D01*
X218226Y113855D02*
Y114871D01*
X219242D01*
Y113855D01*
X218226D01*
X218429Y114059D02*
Y114668D01*
X219039D01*
Y114059D01*
X218429D01*
X218226Y106648D02*
Y107664D01*
X219242D01*
Y106648D01*
X218226D01*
X218429Y106851D02*
Y107461D01*
X219039D01*
Y106851D01*
X218429D01*
X223226Y106648D02*
Y107664D01*
X224242D01*
Y106648D01*
X223226D01*
X223429Y106851D02*
Y107461D01*
X224039D01*
Y106851D01*
X223429D01*
X314706Y134112D02*
X315214Y134620D01*
X315722Y134112D01*
X315214Y133604D01*
X314706Y134112D01*
Y132842D02*
X315214Y133350D01*
X315722Y132842D01*
X315214Y132334D01*
X314706Y132842D01*
Y131572D02*
X315214Y132080D01*
X315722Y131572D01*
X315214Y131064D01*
X314706Y131572D01*
X223226Y128270D02*
Y129286D01*
X224242D01*
Y128270D01*
X223226D01*
X223429Y128473D02*
Y129083D01*
X224039D01*
Y128473D01*
X223429D01*
X218226Y128270D02*
Y129286D01*
X219242D01*
Y128270D01*
X218226D01*
X218429Y128473D02*
Y129083D01*
X219039D01*
Y128473D01*
X218429D01*
X223226Y121063D02*
Y122079D01*
X224242D01*
Y121063D01*
X223226D01*
X223429Y121266D02*
Y121876D01*
X224039D01*
Y121266D01*
X223429D01*
X218226Y121063D02*
Y122079D01*
X219242D01*
Y121063D01*
X218226D01*
X218429Y121266D02*
Y121876D01*
X219039D01*
Y121266D01*
X218429D01*
X302260Y134112D02*
X302768Y134620D01*
X303276Y134112D01*
X302768Y133604D01*
X302260Y134112D01*
Y132842D02*
X302768Y133350D01*
X303276Y132842D01*
X302768Y132334D01*
X302260Y132842D01*
Y131572D02*
X302768Y132080D01*
X303276Y131572D01*
X302768Y131064D01*
X302260Y131572D01*
X254294Y120555D02*
Y121571D01*
X255310D01*
Y120555D01*
X254294D01*
X254497Y120758D02*
Y121368D01*
X255107D01*
Y120758D01*
X254497D01*
X259294Y120555D02*
Y121571D01*
X260310D01*
Y120555D01*
X259294D01*
X259497Y120758D02*
Y121368D01*
X260107D01*
Y120758D01*
X259497D01*
X245618Y134366D02*
X245872D01*
X246126Y134620D01*
X246380Y134366D01*
X246634D01*
Y134620D01*
X246380Y134874D01*
X246634Y135128D01*
Y135382D01*
X246380D01*
X246126Y135128D01*
X245872Y135382D01*
X245618D01*
Y135128D01*
X245872Y134874D01*
X245618Y134620D01*
Y134366D01*
X243078D02*
X243332D01*
X243586Y134620D01*
X243840Y134366D01*
X244094D01*
Y134620D01*
X243840Y134874D01*
X244094Y135128D01*
Y135382D01*
X243840D01*
X243586Y135128D01*
X243332Y135382D01*
X243078D01*
Y135128D01*
X243332Y134874D01*
X243078Y134620D01*
Y134366D01*
X240538D02*
X240792D01*
X241046Y134620D01*
X241300Y134366D01*
X241554D01*
Y134620D01*
X241300Y134874D01*
X241554Y135128D01*
Y135382D01*
X241300D01*
X241046Y135128D01*
X240792Y135382D01*
X240538D01*
Y135128D01*
X240792Y134874D01*
X240538Y134620D01*
Y134366D01*
X237998D02*
X238252D01*
X238506Y134620D01*
X238760Y134366D01*
X239014D01*
Y134620D01*
X238760Y134874D01*
X239014Y135128D01*
Y135382D01*
X238760D01*
X238506Y135128D01*
X238252Y135382D01*
X237998D01*
Y135128D01*
X238252Y134874D01*
X237998Y134620D01*
Y134366D01*
X235458D02*
X235712D01*
X235966Y134620D01*
X236220Y134366D01*
X236474D01*
Y134620D01*
X236220Y134874D01*
X236474Y135128D01*
Y135382D01*
X236220D01*
X235966Y135128D01*
X235712Y135382D01*
X235458D01*
Y135128D01*
X235712Y134874D01*
X235458Y134620D01*
Y134366D01*
X232918D02*
X233172D01*
X233426Y134620D01*
X233680Y134366D01*
X233934D01*
Y134620D01*
X233680Y134874D01*
X233934Y135128D01*
Y135382D01*
X233680D01*
X233426Y135128D01*
X233172Y135382D01*
X232918D01*
Y135128D01*
X233172Y134874D01*
X232918Y134620D01*
Y134366D01*
Y124206D02*
X233172D01*
X233426Y124460D01*
X233680Y124206D01*
X233934D01*
Y124460D01*
X233680Y124714D01*
X233934Y124968D01*
Y125222D01*
X233680D01*
X233426Y124968D01*
X233172Y125222D01*
X232918D01*
Y124968D01*
X233172Y124714D01*
X232918Y124460D01*
Y124206D01*
X235458D02*
X235712D01*
X235966Y124460D01*
X236220Y124206D01*
X236474D01*
Y124460D01*
X236220Y124714D01*
X236474Y124968D01*
Y125222D01*
X236220D01*
X235966Y124968D01*
X235712Y125222D01*
X235458D01*
Y124968D01*
X235712Y124714D01*
X235458Y124460D01*
Y124206D01*
X237998D02*
X238252D01*
X238506Y124460D01*
X238760Y124206D01*
X239014D01*
Y124460D01*
X238760Y124714D01*
X239014Y124968D01*
Y125222D01*
X238760D01*
X238506Y124968D01*
X238252Y125222D01*
X237998D01*
Y124968D01*
X238252Y124714D01*
X237998Y124460D01*
Y124206D01*
X240538D02*
X240792D01*
X241046Y124460D01*
X241300Y124206D01*
X241554D01*
Y124460D01*
X241300Y124714D01*
X241554Y124968D01*
Y125222D01*
X241300D01*
X241046Y124968D01*
X240792Y125222D01*
X240538D01*
Y124968D01*
X240792Y124714D01*
X240538Y124460D01*
Y124206D01*
X243078D02*
X243332D01*
X243586Y124460D01*
X243840Y124206D01*
X244094D01*
Y124460D01*
X243840Y124714D01*
X244094Y124968D01*
Y125222D01*
X243840D01*
X243586Y124968D01*
X243332Y125222D01*
X243078D01*
Y124968D01*
X243332Y124714D01*
X243078Y124460D01*
Y124206D01*
X245618D02*
X245872D01*
X246126Y124460D01*
X246380Y124206D01*
X246634D01*
Y124460D01*
X246380Y124714D01*
X246634Y124968D01*
Y125222D01*
X246380D01*
X246126Y124968D01*
X245872Y125222D01*
X245618D01*
Y124968D01*
X245872Y124714D01*
X245618Y124460D01*
Y124206D01*
X259294Y113348D02*
Y114364D01*
X260310D01*
Y113348D01*
X259294D01*
X259497Y113551D02*
Y114160D01*
X260107D01*
Y113551D01*
X259497D01*
X254294Y113348D02*
Y114364D01*
X255310D01*
Y113348D01*
X254294D01*
X254497Y113551D02*
Y114160D01*
X255107D01*
Y113551D01*
X254497D01*
X259294Y127762D02*
Y128778D01*
X260310D01*
Y127762D01*
X259294D01*
X259497Y127965D02*
Y128575D01*
X260107D01*
Y127965D01*
X259497D01*
X254294Y127762D02*
Y128778D01*
X255310D01*
Y127762D01*
X254294D01*
X254497Y127965D02*
Y128575D01*
X255107D01*
Y127965D01*
X254497D01*
X314706Y150114D02*
X315214Y150622D01*
X315722Y150114D01*
X315214Y149606D01*
X314706Y150114D01*
Y148844D02*
X315214Y149352D01*
X315722Y148844D01*
X315214Y148336D01*
X314706Y148844D01*
Y147574D02*
X315214Y148082D01*
X315722Y147574D01*
X315214Y147066D01*
X314706Y147574D01*
X259294Y106648D02*
Y107664D01*
X260310D01*
Y106648D01*
X259294D01*
X259497Y106851D02*
Y107461D01*
X260107D01*
Y106851D01*
X259497D01*
X254294Y106648D02*
Y107664D01*
X255310D01*
Y106648D01*
X254294D01*
X254497Y106851D02*
Y107461D01*
X255107D01*
Y106851D01*
X254497D01*
X254294Y99441D02*
Y100457D01*
X255310D01*
Y99441D01*
X254294D01*
X254497Y99644D02*
Y100254D01*
X255107D01*
Y99644D01*
X254497D01*
X259294Y99441D02*
Y100457D01*
X260310D01*
Y99441D01*
X259294D01*
X259497Y99644D02*
Y100254D01*
X260107D01*
Y99644D01*
X259497D01*
X302260Y150241D02*
X302768Y150749D01*
X303276Y150241D01*
X302768Y149733D01*
X302260Y150241D01*
Y148971D02*
X302768Y149479D01*
X303276Y148971D01*
X302768Y148463D01*
X302260Y148971D01*
Y147701D02*
X302768Y148209D01*
X303276Y147701D01*
X302768Y147193D01*
X302260Y147701D01*
X180213Y205001D02*
Y204747D01*
X180721D01*
Y205001D01*
X180975D01*
Y205509D01*
X180721D01*
Y205763D01*
X180213D01*
Y205509D01*
X179959D01*
Y205001D01*
X180213D01*
Y194541D02*
Y194287D01*
X180721D01*
Y194541D01*
X180975D01*
Y195049D01*
X180721D01*
Y195303D01*
X180213D01*
Y195049D01*
X179959D01*
Y194541D01*
X180213D01*
X289433Y77684D02*
Y78700D01*
X290449D01*
Y77684D01*
X289433D01*
X289636Y77887D02*
Y78497D01*
X290246D01*
Y77887D01*
X289636D01*
X289433Y72684D02*
Y73700D01*
X290449D01*
Y72684D01*
X289433D01*
X289636Y72887D02*
Y73497D01*
X290246D01*
Y72887D01*
X289636D01*
X257770Y83439D02*
Y84455D01*
X258786D01*
Y83439D01*
X257770D01*
X257973Y83642D02*
Y84252D01*
X258583D01*
Y83642D01*
X257973D01*
X252770Y83439D02*
Y84455D01*
X253786D01*
Y83439D01*
X252770D01*
X252973Y83642D02*
Y84252D01*
X253583D01*
Y83642D01*
X252973D01*
X191008Y209169D02*
X191262Y209677D01*
X191008Y210185D01*
X191516Y209931D01*
X192024Y210185D01*
X191770Y209677D01*
X192024Y209169D01*
X191516Y209423D01*
X191008Y209169D01*
X188468D02*
X188722Y209677D01*
X188468Y210185D01*
X188976Y209931D01*
X189484Y210185D01*
X189230Y209677D01*
X189484Y209169D01*
X188976Y209423D01*
X188468Y209169D01*
X183919Y209423D02*
Y209169D01*
X184427D01*
Y209423D01*
X184681D01*
Y209931D01*
X184427D01*
Y210185D01*
X183919D01*
Y209931D01*
X183665D01*
Y209423D01*
X183919D01*
X173459D02*
Y209169D01*
X173967D01*
Y209423D01*
X174221D01*
Y209931D01*
X173967D01*
Y210185D01*
X173459D01*
Y209931D01*
X173205D01*
Y209423D01*
X173459D01*
X248298Y66942D02*
Y67958D01*
X249314D01*
Y66942D01*
X248298D01*
X243218D02*
Y67958D01*
X244234D01*
Y66942D01*
X243218D01*
X238138D02*
Y67958D01*
X239154D01*
Y66942D01*
X238138D01*
X233058D02*
Y67958D01*
X234074D01*
Y66942D01*
X233058D01*
X236561Y83439D02*
Y84455D01*
X237577D01*
Y83439D01*
X236561D01*
X236764Y83642D02*
Y84252D01*
X237374D01*
Y83642D01*
X236764D01*
X231561Y83439D02*
Y84455D01*
X232577D01*
Y83439D01*
X231561D01*
X231764Y83642D02*
Y84252D01*
X232374D01*
Y83642D01*
X231764D01*
X202311Y77684D02*
Y78700D01*
X203327D01*
Y77684D01*
X202311D01*
X202514Y77887D02*
Y78497D01*
X203124D01*
Y77887D01*
X202514D01*
X202311Y72684D02*
Y73700D01*
X203327D01*
Y72684D01*
X202311D01*
X202514Y72887D02*
Y73497D01*
X203124D01*
Y72887D01*
X202514D01*
X310261Y86106D02*
X310515Y86614D01*
X310261Y87122D01*
X310769Y86868D01*
X311277Y87122D01*
X311023Y86614D01*
X311277Y86106D01*
X310769Y86360D01*
X310261Y86106D01*
X312801D02*
X313055Y86614D01*
X312801Y87122D01*
X313309Y86868D01*
X313817Y87122D01*
X313563Y86614D01*
X313817Y86106D01*
X313309Y86360D01*
X312801Y86106D01*
X184277Y153162D02*
X184531D01*
X184785Y153416D01*
X185039Y153162D01*
X185293D01*
Y153416D01*
X185039Y153670D01*
X185293Y153924D01*
Y154178D01*
X185039D01*
X184785Y153924D01*
X184531Y154178D01*
X184277D01*
Y153924D01*
X184531Y153670D01*
X184277Y153416D01*
Y153162D01*
X181737D02*
X181991D01*
X182245Y153416D01*
X182499Y153162D01*
X182753D01*
Y153416D01*
X182499Y153670D01*
X182753Y153924D01*
Y154178D01*
X182499D01*
X182245Y153924D01*
X181991Y154178D01*
X181737D01*
Y153924D01*
X181991Y153670D01*
X181737Y153416D01*
Y153162D01*
X179197D02*
X179451D01*
X179705Y153416D01*
X179959Y153162D01*
X180213D01*
Y153416D01*
X179959Y153670D01*
X180213Y153924D01*
Y154178D01*
X179959D01*
X179705Y153924D01*
X179451Y154178D01*
X179197D01*
Y153924D01*
X179451Y153670D01*
X179197Y153416D01*
Y153162D01*
X176657D02*
X176911D01*
X177165Y153416D01*
X177419Y153162D01*
X177673D01*
Y153416D01*
X177419Y153670D01*
X177673Y153924D01*
Y154178D01*
X177419D01*
X177165Y153924D01*
X176911Y154178D01*
X176657D01*
Y153924D01*
X176911Y153670D01*
X176657Y153416D01*
Y153162D01*
X174117D02*
X174371D01*
X174625Y153416D01*
X174879Y153162D01*
X175133D01*
Y153416D01*
X174879Y153670D01*
X175133Y153924D01*
Y154178D01*
X174879D01*
X174625Y153924D01*
X174371Y154178D01*
X174117D01*
Y153924D01*
X174371Y153670D01*
X174117Y153416D01*
Y153162D01*
X171577D02*
X171831D01*
X172085Y153416D01*
X172339Y153162D01*
X172593D01*
Y153416D01*
X172339Y153670D01*
X172593Y153924D01*
Y154178D01*
X172339D01*
X172085Y153924D01*
X171831Y154178D01*
X171577D01*
Y153924D01*
X171831Y153670D01*
X171577Y153416D01*
Y153162D01*
Y143002D02*
X171831D01*
X172085Y143256D01*
X172339Y143002D01*
X172593D01*
Y143256D01*
X172339Y143510D01*
X172593Y143764D01*
Y144018D01*
X172339D01*
X172085Y143764D01*
X171831Y144018D01*
X171577D01*
Y143764D01*
X171831Y143510D01*
X171577Y143256D01*
Y143002D01*
X174117D02*
X174371D01*
X174625Y143256D01*
X174879Y143002D01*
X175133D01*
Y143256D01*
X174879Y143510D01*
X175133Y143764D01*
Y144018D01*
X174879D01*
X174625Y143764D01*
X174371Y144018D01*
X174117D01*
Y143764D01*
X174371Y143510D01*
X174117Y143256D01*
Y143002D01*
X176657D02*
X176911D01*
X177165Y143256D01*
X177419Y143002D01*
X177673D01*
Y143256D01*
X177419Y143510D01*
X177673Y143764D01*
Y144018D01*
X177419D01*
X177165Y143764D01*
X176911Y144018D01*
X176657D01*
Y143764D01*
X176911Y143510D01*
X176657Y143256D01*
Y143002D01*
X179197D02*
X179451D01*
X179705Y143256D01*
X179959Y143002D01*
X180213D01*
Y143256D01*
X179959Y143510D01*
X180213Y143764D01*
Y144018D01*
X179959D01*
X179705Y143764D01*
X179451Y144018D01*
X179197D01*
Y143764D01*
X179451Y143510D01*
X179197Y143256D01*
Y143002D01*
X181737D02*
X181991D01*
X182245Y143256D01*
X182499Y143002D01*
X182753D01*
Y143256D01*
X182499Y143510D01*
X182753Y143764D01*
Y144018D01*
X182499D01*
X182245Y143764D01*
X181991Y144018D01*
X181737D01*
Y143764D01*
X181991Y143510D01*
X181737Y143256D01*
Y143002D01*
X184277D02*
X184531D01*
X184785Y143256D01*
X185039Y143002D01*
X185293D01*
Y143256D01*
X185039Y143510D01*
X185293Y143764D01*
Y144018D01*
X185039D01*
X184785Y143764D01*
X184531Y144018D01*
X184277D01*
Y143764D01*
X184531Y143510D01*
X184277Y143256D01*
Y143002D01*
X183261Y235585D02*
X183515D01*
X183769Y235839D01*
X184023Y235585D01*
X184277D01*
Y235839D01*
X184023Y236093D01*
X184277Y236347D01*
Y236601D01*
X184023D01*
X183769Y236347D01*
X183515Y236601D01*
X183261D01*
Y236347D01*
X183515Y236093D01*
X183261Y235839D01*
Y235585D01*
Y238125D02*
X183515D01*
X183769Y238379D01*
X184023Y238125D01*
X184277D01*
Y238379D01*
X184023Y238633D01*
X184277Y238887D01*
Y239141D01*
X184023D01*
X183769Y238887D01*
X183515Y239141D01*
X183261D01*
Y238887D01*
X183515Y238633D01*
X183261Y238379D01*
Y238125D01*
Y240665D02*
X183515D01*
X183769Y240919D01*
X184023Y240665D01*
X184277D01*
Y240919D01*
X184023Y241173D01*
X184277Y241427D01*
Y241681D01*
X184023D01*
X183769Y241427D01*
X183515Y241681D01*
X183261D01*
Y241427D01*
X183515Y241173D01*
X183261Y240919D01*
Y240665D01*
Y243205D02*
X183515D01*
X183769Y243459D01*
X184023Y243205D01*
X184277D01*
Y243459D01*
X184023Y243713D01*
X184277Y243967D01*
Y244221D01*
X184023D01*
X183769Y243967D01*
X183515Y244221D01*
X183261D01*
Y243967D01*
X183515Y243713D01*
X183261Y243459D01*
Y243205D01*
Y245745D02*
X183515D01*
X183769Y245999D01*
X184023Y245745D01*
X184277D01*
Y245999D01*
X184023Y246253D01*
X184277Y246507D01*
Y246761D01*
X184023D01*
X183769Y246507D01*
X183515Y246761D01*
X183261D01*
Y246507D01*
X183515Y246253D01*
X183261Y245999D01*
Y245745D01*
Y248285D02*
X183515D01*
X183769Y248539D01*
X184023Y248285D01*
X184277D01*
Y248539D01*
X184023Y248793D01*
X184277Y249047D01*
Y249301D01*
X184023D01*
X183769Y249047D01*
X183515Y249301D01*
X183261D01*
Y249047D01*
X183515Y248793D01*
X183261Y248539D01*
Y248285D01*
X173101D02*
X173355D01*
X173609Y248539D01*
X173863Y248285D01*
X174117D01*
Y248539D01*
X173863Y248793D01*
X174117Y249047D01*
Y249301D01*
X173863D01*
X173609Y249047D01*
X173355Y249301D01*
X173101D01*
Y249047D01*
X173355Y248793D01*
X173101Y248539D01*
Y248285D01*
Y245745D02*
X173355D01*
X173609Y245999D01*
X173863Y245745D01*
X174117D01*
Y245999D01*
X173863Y246253D01*
X174117Y246507D01*
Y246761D01*
X173863D01*
X173609Y246507D01*
X173355Y246761D01*
X173101D01*
Y246507D01*
X173355Y246253D01*
X173101Y245999D01*
Y245745D01*
Y243205D02*
X173355D01*
X173609Y243459D01*
X173863Y243205D01*
X174117D01*
Y243459D01*
X173863Y243713D01*
X174117Y243967D01*
Y244221D01*
X173863D01*
X173609Y243967D01*
X173355Y244221D01*
X173101D01*
Y243967D01*
X173355Y243713D01*
X173101Y243459D01*
Y243205D01*
Y240665D02*
X173355D01*
X173609Y240919D01*
X173863Y240665D01*
X174117D01*
Y240919D01*
X173863Y241173D01*
X174117Y241427D01*
Y241681D01*
X173863D01*
X173609Y241427D01*
X173355Y241681D01*
X173101D01*
Y241427D01*
X173355Y241173D01*
X173101Y240919D01*
Y240665D01*
Y238125D02*
X173355D01*
X173609Y238379D01*
X173863Y238125D01*
X174117D01*
Y238379D01*
X173863Y238633D01*
X174117Y238887D01*
Y239141D01*
X173863D01*
X173609Y238887D01*
X173355Y239141D01*
X173101D01*
Y238887D01*
X173355Y238633D01*
X173101Y238379D01*
Y238125D01*
Y235585D02*
X173355D01*
X173609Y235839D01*
X173863Y235585D01*
X174117D01*
Y235839D01*
X173863Y236093D01*
X174117Y236347D01*
Y236601D01*
X173863D01*
X173609Y236347D01*
X173355Y236601D01*
X173101D01*
Y236347D01*
X173355Y236093D01*
X173101Y235839D01*
Y235585D01*
X184277Y174371D02*
X184531D01*
X184785Y174625D01*
X185039Y174371D01*
X185293D01*
Y174625D01*
X185039Y174879D01*
X185293Y175133D01*
Y175387D01*
X185039D01*
X184785Y175133D01*
X184531Y175387D01*
X184277D01*
Y175133D01*
X184531Y174879D01*
X184277Y174625D01*
Y174371D01*
X181737D02*
X181991D01*
X182245Y174625D01*
X182499Y174371D01*
X182753D01*
Y174625D01*
X182499Y174879D01*
X182753Y175133D01*
Y175387D01*
X182499D01*
X182245Y175133D01*
X181991Y175387D01*
X181737D01*
Y175133D01*
X181991Y174879D01*
X181737Y174625D01*
Y174371D01*
X179197D02*
X179451D01*
X179705Y174625D01*
X179959Y174371D01*
X180213D01*
Y174625D01*
X179959Y174879D01*
X180213Y175133D01*
Y175387D01*
X179959D01*
X179705Y175133D01*
X179451Y175387D01*
X179197D01*
Y175133D01*
X179451Y174879D01*
X179197Y174625D01*
Y174371D01*
X176657D02*
X176911D01*
X177165Y174625D01*
X177419Y174371D01*
X177673D01*
Y174625D01*
X177419Y174879D01*
X177673Y175133D01*
Y175387D01*
X177419D01*
X177165Y175133D01*
X176911Y175387D01*
X176657D01*
Y175133D01*
X176911Y174879D01*
X176657Y174625D01*
Y174371D01*
X174117D02*
X174371D01*
X174625Y174625D01*
X174879Y174371D01*
X175133D01*
Y174625D01*
X174879Y174879D01*
X175133Y175133D01*
Y175387D01*
X174879D01*
X174625Y175133D01*
X174371Y175387D01*
X174117D01*
Y175133D01*
X174371Y174879D01*
X174117Y174625D01*
Y174371D01*
X171577D02*
X171831D01*
X172085Y174625D01*
X172339Y174371D01*
X172593D01*
Y174625D01*
X172339Y174879D01*
X172593Y175133D01*
Y175387D01*
X172339D01*
X172085Y175133D01*
X171831Y175387D01*
X171577D01*
Y175133D01*
X171831Y174879D01*
X171577Y174625D01*
Y174371D01*
Y164211D02*
X171831D01*
X172085Y164465D01*
X172339Y164211D01*
X172593D01*
Y164465D01*
X172339Y164719D01*
X172593Y164973D01*
Y165227D01*
X172339D01*
X172085Y164973D01*
X171831Y165227D01*
X171577D01*
Y164973D01*
X171831Y164719D01*
X171577Y164465D01*
Y164211D01*
X174117D02*
X174371D01*
X174625Y164465D01*
X174879Y164211D01*
X175133D01*
Y164465D01*
X174879Y164719D01*
X175133Y164973D01*
Y165227D01*
X174879D01*
X174625Y164973D01*
X174371Y165227D01*
X174117D01*
Y164973D01*
X174371Y164719D01*
X174117Y164465D01*
Y164211D01*
X176657D02*
X176911D01*
X177165Y164465D01*
X177419Y164211D01*
X177673D01*
Y164465D01*
X177419Y164719D01*
X177673Y164973D01*
Y165227D01*
X177419D01*
X177165Y164973D01*
X176911Y165227D01*
X176657D01*
Y164973D01*
X176911Y164719D01*
X176657Y164465D01*
Y164211D01*
X179197D02*
X179451D01*
X179705Y164465D01*
X179959Y164211D01*
X180213D01*
Y164465D01*
X179959Y164719D01*
X180213Y164973D01*
Y165227D01*
X179959D01*
X179705Y164973D01*
X179451Y165227D01*
X179197D01*
Y164973D01*
X179451Y164719D01*
X179197Y164465D01*
Y164211D01*
X181737D02*
X181991D01*
X182245Y164465D01*
X182499Y164211D01*
X182753D01*
Y164465D01*
X182499Y164719D01*
X182753Y164973D01*
Y165227D01*
X182499D01*
X182245Y164973D01*
X181991Y165227D01*
X181737D01*
Y164973D01*
X181991Y164719D01*
X181737Y164465D01*
Y164211D01*
X184277D02*
X184531D01*
X184785Y164465D01*
X185039Y164211D01*
X185293D01*
Y164465D01*
X185039Y164719D01*
X185293Y164973D01*
Y165227D01*
X185039D01*
X184785Y164973D01*
X184531Y165227D01*
X184277D01*
Y164973D01*
X184531Y164719D01*
X184277Y164465D01*
Y164211D01*
X205232Y116967D02*
X205486D01*
X205740Y117221D01*
X205994Y116967D01*
X206248D01*
Y117221D01*
X205994Y117475D01*
X206248Y117729D01*
Y117983D01*
X205994D01*
X205740Y117729D01*
X205486Y117983D01*
X205232D01*
Y117729D01*
X205486Y117475D01*
X205232Y117221D01*
Y116967D01*
Y119507D02*
X205486D01*
X205740Y119761D01*
X205994Y119507D01*
X206248D01*
Y119761D01*
X205994Y120015D01*
X206248Y120269D01*
Y120523D01*
X205994D01*
X205740Y120269D01*
X205486Y120523D01*
X205232D01*
Y120269D01*
X205486Y120015D01*
X205232Y119761D01*
Y119507D01*
Y122047D02*
X205486D01*
X205740Y122301D01*
X205994Y122047D01*
X206248D01*
Y122301D01*
X205994Y122555D01*
X206248Y122809D01*
Y123063D01*
X205994D01*
X205740Y122809D01*
X205486Y123063D01*
X205232D01*
Y122809D01*
X205486Y122555D01*
X205232Y122301D01*
Y122047D01*
Y124587D02*
X205486D01*
X205740Y124841D01*
X205994Y124587D01*
X206248D01*
Y124841D01*
X205994Y125095D01*
X206248Y125349D01*
Y125603D01*
X205994D01*
X205740Y125349D01*
X205486Y125603D01*
X205232D01*
Y125349D01*
X205486Y125095D01*
X205232Y124841D01*
Y124587D01*
Y127127D02*
X205486D01*
X205740Y127381D01*
X205994Y127127D01*
X206248D01*
Y127381D01*
X205994Y127635D01*
X206248Y127889D01*
Y128143D01*
X205994D01*
X205740Y127889D01*
X205486Y128143D01*
X205232D01*
Y127889D01*
X205486Y127635D01*
X205232Y127381D01*
Y127127D01*
Y129667D02*
X205486D01*
X205740Y129921D01*
X205994Y129667D01*
X206248D01*
Y129921D01*
X205994Y130175D01*
X206248Y130429D01*
Y130683D01*
X205994D01*
X205740Y130429D01*
X205486Y130683D01*
X205232D01*
Y130429D01*
X205486Y130175D01*
X205232Y129921D01*
Y129667D01*
X195072D02*
X195326D01*
X195580Y129921D01*
X195834Y129667D01*
X196088D01*
Y129921D01*
X195834Y130175D01*
X196088Y130429D01*
Y130683D01*
X195834D01*
X195580Y130429D01*
X195326Y130683D01*
X195072D01*
Y130429D01*
X195326Y130175D01*
X195072Y129921D01*
Y129667D01*
Y127127D02*
X195326D01*
X195580Y127381D01*
X195834Y127127D01*
X196088D01*
Y127381D01*
X195834Y127635D01*
X196088Y127889D01*
Y128143D01*
X195834D01*
X195580Y127889D01*
X195326Y128143D01*
X195072D01*
Y127889D01*
X195326Y127635D01*
X195072Y127381D01*
Y127127D01*
Y124587D02*
X195326D01*
X195580Y124841D01*
X195834Y124587D01*
X196088D01*
Y124841D01*
X195834Y125095D01*
X196088Y125349D01*
Y125603D01*
X195834D01*
X195580Y125349D01*
X195326Y125603D01*
X195072D01*
Y125349D01*
X195326Y125095D01*
X195072Y124841D01*
Y124587D01*
Y122047D02*
X195326D01*
X195580Y122301D01*
X195834Y122047D01*
X196088D01*
Y122301D01*
X195834Y122555D01*
X196088Y122809D01*
Y123063D01*
X195834D01*
X195580Y122809D01*
X195326Y123063D01*
X195072D01*
Y122809D01*
X195326Y122555D01*
X195072Y122301D01*
Y122047D01*
Y119507D02*
X195326D01*
X195580Y119761D01*
X195834Y119507D01*
X196088D01*
Y119761D01*
X195834Y120015D01*
X196088Y120269D01*
Y120523D01*
X195834D01*
X195580Y120269D01*
X195326Y120523D01*
X195072D01*
Y120269D01*
X195326Y120015D01*
X195072Y119761D01*
Y119507D01*
Y116967D02*
X195326D01*
X195580Y117221D01*
X195834Y116967D01*
X196088D01*
Y117221D01*
X195834Y117475D01*
X196088Y117729D01*
Y117983D01*
X195834D01*
X195580Y117729D01*
X195326Y117983D01*
X195072D01*
Y117729D01*
X195326Y117475D01*
X195072Y117221D01*
Y116967D01*
X205232Y99949D02*
X205486D01*
X205740Y100203D01*
X205994Y99949D01*
X206248D01*
Y100203D01*
X205994Y100457D01*
X206248Y100711D01*
Y100965D01*
X205994D01*
X205740Y100711D01*
X205486Y100965D01*
X205232D01*
Y100711D01*
X205486Y100457D01*
X205232Y100203D01*
Y99949D01*
Y102489D02*
X205486D01*
X205740Y102743D01*
X205994Y102489D01*
X206248D01*
Y102743D01*
X205994Y102997D01*
X206248Y103251D01*
Y103505D01*
X205994D01*
X205740Y103251D01*
X205486Y103505D01*
X205232D01*
Y103251D01*
X205486Y102997D01*
X205232Y102743D01*
Y102489D01*
Y105029D02*
X205486D01*
X205740Y105283D01*
X205994Y105029D01*
X206248D01*
Y105283D01*
X205994Y105537D01*
X206248Y105791D01*
Y106045D01*
X205994D01*
X205740Y105791D01*
X205486Y106045D01*
X205232D01*
Y105791D01*
X205486Y105537D01*
X205232Y105283D01*
Y105029D01*
Y107569D02*
X205486D01*
X205740Y107823D01*
X205994Y107569D01*
X206248D01*
Y107823D01*
X205994Y108077D01*
X206248Y108331D01*
Y108585D01*
X205994D01*
X205740Y108331D01*
X205486Y108585D01*
X205232D01*
Y108331D01*
X205486Y108077D01*
X205232Y107823D01*
Y107569D01*
Y110109D02*
X205486D01*
X205740Y110363D01*
X205994Y110109D01*
X206248D01*
Y110363D01*
X205994Y110617D01*
X206248Y110871D01*
Y111125D01*
X205994D01*
X205740Y110871D01*
X205486Y111125D01*
X205232D01*
Y110871D01*
X205486Y110617D01*
X205232Y110363D01*
Y110109D01*
Y112649D02*
X205486D01*
X205740Y112903D01*
X205994Y112649D01*
X206248D01*
Y112903D01*
X205994Y113157D01*
X206248Y113411D01*
Y113665D01*
X205994D01*
X205740Y113411D01*
X205486Y113665D01*
X205232D01*
Y113411D01*
X205486Y113157D01*
X205232Y112903D01*
Y112649D01*
X195072D02*
X195326D01*
X195580Y112903D01*
X195834Y112649D01*
X196088D01*
Y112903D01*
X195834Y113157D01*
X196088Y113411D01*
Y113665D01*
X195834D01*
X195580Y113411D01*
X195326Y113665D01*
X195072D01*
Y113411D01*
X195326Y113157D01*
X195072Y112903D01*
Y112649D01*
Y110109D02*
X195326D01*
X195580Y110363D01*
X195834Y110109D01*
X196088D01*
Y110363D01*
X195834Y110617D01*
X196088Y110871D01*
Y111125D01*
X195834D01*
X195580Y110871D01*
X195326Y111125D01*
X195072D01*
Y110871D01*
X195326Y110617D01*
X195072Y110363D01*
Y110109D01*
Y107569D02*
X195326D01*
X195580Y107823D01*
X195834Y107569D01*
X196088D01*
Y107823D01*
X195834Y108077D01*
X196088Y108331D01*
Y108585D01*
X195834D01*
X195580Y108331D01*
X195326Y108585D01*
X195072D01*
Y108331D01*
X195326Y108077D01*
X195072Y107823D01*
Y107569D01*
Y105029D02*
X195326D01*
X195580Y105283D01*
X195834Y105029D01*
X196088D01*
Y105283D01*
X195834Y105537D01*
X196088Y105791D01*
Y106045D01*
X195834D01*
X195580Y105791D01*
X195326Y106045D01*
X195072D01*
Y105791D01*
X195326Y105537D01*
X195072Y105283D01*
Y105029D01*
Y102489D02*
X195326D01*
X195580Y102743D01*
X195834Y102489D01*
X196088D01*
Y102743D01*
X195834Y102997D01*
X196088Y103251D01*
Y103505D01*
X195834D01*
X195580Y103251D01*
X195326Y103505D01*
X195072D01*
Y103251D01*
X195326Y102997D01*
X195072Y102743D01*
Y102489D01*
Y99949D02*
X195326D01*
X195580Y100203D01*
X195834Y99949D01*
X196088D01*
Y100203D01*
X195834Y100457D01*
X196088Y100711D01*
Y100965D01*
X195834D01*
X195580Y100711D01*
X195326Y100965D01*
X195072D01*
Y100711D01*
X195326Y100457D01*
X195072Y100203D01*
Y99949D01*
X310261Y91440D02*
X310515Y91948D01*
X310261Y92456D01*
X310769Y92202D01*
X311277Y92456D01*
X311023Y91948D01*
X311277Y91440D01*
X310769Y91694D01*
X310261Y91440D01*
X312801D02*
X313055Y91948D01*
X312801Y92456D01*
X313309Y92202D01*
X313817Y92456D01*
X313563Y91948D01*
X313817Y91440D01*
X313309Y91694D01*
X312801Y91440D01*
X287909Y98171D02*
X288163D01*
X288417Y98425D01*
X288671Y98171D01*
X288925D01*
Y98425D01*
X288671Y98679D01*
X288925Y98933D01*
Y99187D01*
X288671D01*
X288417Y98933D01*
X288163Y99187D01*
X287909D01*
Y98933D01*
X288163Y98679D01*
X287909Y98425D01*
Y98171D01*
Y95631D02*
X288163D01*
X288417Y95885D01*
X288671Y95631D01*
X288925D01*
Y95885D01*
X288671Y96139D01*
X288925Y96393D01*
Y96647D01*
X288671D01*
X288417Y96393D01*
X288163Y96647D01*
X287909D01*
Y96393D01*
X288163Y96139D01*
X287909Y95885D01*
Y95631D01*
Y93091D02*
X288163D01*
X288417Y93345D01*
X288671Y93091D01*
X288925D01*
Y93345D01*
X288671Y93599D01*
X288925Y93853D01*
Y94107D01*
X288671D01*
X288417Y93853D01*
X288163Y94107D01*
X287909D01*
Y93853D01*
X288163Y93599D01*
X287909Y93345D01*
Y93091D01*
Y90551D02*
X288163D01*
X288417Y90805D01*
X288671Y90551D01*
X288925D01*
Y90805D01*
X288671Y91059D01*
X288925Y91313D01*
Y91567D01*
X288671D01*
X288417Y91313D01*
X288163Y91567D01*
X287909D01*
Y91313D01*
X288163Y91059D01*
X287909Y90805D01*
Y90551D01*
Y88011D02*
X288163D01*
X288417Y88265D01*
X288671Y88011D01*
X288925D01*
Y88265D01*
X288671Y88519D01*
X288925Y88773D01*
Y89027D01*
X288671D01*
X288417Y88773D01*
X288163Y89027D01*
X287909D01*
Y88773D01*
X288163Y88519D01*
X287909Y88265D01*
Y88011D01*
Y85471D02*
X288163D01*
X288417Y85725D01*
X288671Y85471D01*
X288925D01*
Y85725D01*
X288671Y85979D01*
X288925Y86233D01*
Y86487D01*
X288671D01*
X288417Y86233D01*
X288163Y86487D01*
X287909D01*
Y86233D01*
X288163Y85979D01*
X287909Y85725D01*
Y85471D01*
X298069D02*
X298323D01*
X298577Y85725D01*
X298831Y85471D01*
X299085D01*
Y85725D01*
X298831Y85979D01*
X299085Y86233D01*
Y86487D01*
X298831D01*
X298577Y86233D01*
X298323Y86487D01*
X298069D01*
Y86233D01*
X298323Y85979D01*
X298069Y85725D01*
Y85471D01*
Y88011D02*
X298323D01*
X298577Y88265D01*
X298831Y88011D01*
X299085D01*
Y88265D01*
X298831Y88519D01*
X299085Y88773D01*
Y89027D01*
X298831D01*
X298577Y88773D01*
X298323Y89027D01*
X298069D01*
Y88773D01*
X298323Y88519D01*
X298069Y88265D01*
Y88011D01*
Y90551D02*
X298323D01*
X298577Y90805D01*
X298831Y90551D01*
X299085D01*
Y90805D01*
X298831Y91059D01*
X299085Y91313D01*
Y91567D01*
X298831D01*
X298577Y91313D01*
X298323Y91567D01*
X298069D01*
Y91313D01*
X298323Y91059D01*
X298069Y90805D01*
Y90551D01*
Y93091D02*
X298323D01*
X298577Y93345D01*
X298831Y93091D01*
X299085D01*
Y93345D01*
X298831Y93599D01*
X299085Y93853D01*
Y94107D01*
X298831D01*
X298577Y93853D01*
X298323Y94107D01*
X298069D01*
Y93853D01*
X298323Y93599D01*
X298069Y93345D01*
Y93091D01*
Y95631D02*
X298323D01*
X298577Y95885D01*
X298831Y95631D01*
X299085D01*
Y95885D01*
X298831Y96139D01*
X299085Y96393D01*
Y96647D01*
X298831D01*
X298577Y96393D01*
X298323Y96647D01*
X298069D01*
Y96393D01*
X298323Y96139D01*
X298069Y95885D01*
Y95631D01*
Y98171D02*
X298323D01*
X298577Y98425D01*
X298831Y98171D01*
X299085D01*
Y98425D01*
X298831Y98679D01*
X299085Y98933D01*
Y99187D01*
X298831D01*
X298577Y98933D01*
X298323Y99187D01*
X298069D01*
Y98933D01*
X298323Y98679D01*
X298069Y98425D01*
Y98171D01*
X175895Y205001D02*
Y204747D01*
X176403D01*
Y205001D01*
X176657D01*
Y205509D01*
X176403D01*
Y205763D01*
X175895D01*
Y205509D01*
X175641D01*
Y205001D01*
X175895D01*
Y194541D02*
Y194287D01*
X176403D01*
Y194541D01*
X176657D01*
Y195049D01*
X176403D01*
Y195303D01*
X175895D01*
Y195049D01*
X175641D01*
Y194541D01*
X175895D01*
X329311Y252222D02*
X328803Y253238D01*
X329819D01*
X329311Y252222D01*
X163322D02*
X162814Y253238D01*
X163830D01*
X163322Y252222D01*
X165227Y63881D02*
X164719Y64897D01*
X165735D01*
X165227Y63881D01*
X327406D02*
X326898Y64897D01*
X327914D01*
X327406Y63881D01*
X173459Y189357D02*
Y189103D01*
X173967D01*
Y189357D01*
X174221D01*
Y189865D01*
X173967D01*
Y190119D01*
X173459D01*
Y189865D01*
X173205D01*
Y189357D01*
X173459D01*
X183919D02*
Y189103D01*
X184427D01*
Y189357D01*
X184681D01*
Y189865D01*
X184427D01*
Y190119D01*
X183919D01*
Y189865D01*
X183665D01*
Y189357D01*
X183919D01*
X294386Y150241D02*
X294640Y150749D01*
X294386Y151257D01*
X294894Y151003D01*
X295402Y151257D01*
X295148Y150749D01*
X295402Y150241D01*
X294894Y150495D01*
X294386Y150241D01*
Y147701D02*
X294640Y148209D01*
X294386Y148717D01*
X294894Y148463D01*
X295402Y148717D01*
X295148Y148209D01*
X295402Y147701D01*
X294894Y147955D01*
X294386Y147701D01*
Y133731D02*
X294640Y134239D01*
X294386Y134747D01*
X294894Y134493D01*
X295402Y134747D01*
X295148Y134239D01*
X295402Y133731D01*
X294894Y133985D01*
X294386Y133731D01*
Y131191D02*
X294640Y131699D01*
X294386Y132207D01*
X294894Y131953D01*
X295402Y132207D01*
X295148Y131699D01*
X295402Y131191D01*
X294894Y131445D01*
X294386Y131191D01*
Y116713D02*
X294640Y117221D01*
X294386Y117729D01*
X294894Y117475D01*
X295402Y117729D01*
X295148Y117221D01*
X295402Y116713D01*
X294894Y116967D01*
X294386Y116713D01*
Y114173D02*
X294640Y114681D01*
X294386Y115189D01*
X294894Y114935D01*
X295402Y115189D01*
X295148Y114681D01*
X295402Y114173D01*
X294894Y114427D01*
X294386Y114173D01*
X188445Y219583D02*
Y219329D01*
X188953D01*
Y219583D01*
X189207D01*
Y220091D01*
X188953D01*
Y220345D01*
X188445D01*
Y220091D01*
X188191D01*
Y219583D01*
X188445D01*
X198905D02*
Y219329D01*
X199413D01*
Y219583D01*
X199667D01*
Y220091D01*
X199413D01*
Y220345D01*
X198905D01*
Y220091D01*
X198651D01*
Y219583D01*
X198905D01*
X171069Y94488D02*
X170561Y95504D01*
X171577D01*
X171069Y94488D01*
Y94691D02*
X170764Y95301D01*
X171374D01*
X171069Y94691D01*
X295656Y106807D02*
X295148Y107823D01*
X296164D01*
X295656Y106807D01*
Y107010D02*
X295351Y107620D01*
X295961D01*
X295656Y107010D01*
X268859Y99441D02*
X268351Y100457D01*
X269367D01*
X268859Y99441D01*
Y99644D02*
X268554Y100254D01*
X269164D01*
X268859Y99644D01*
X276492Y91808D02*
X275984Y92824D01*
X277000D01*
X276492Y91808D01*
Y92011D02*
X276187Y92621D01*
X276797D01*
X276492Y92011D01*
X204597Y152654D02*
X204089Y153670D01*
X205105D01*
X204597Y152654D01*
Y152857D02*
X204292Y153467D01*
X204902D01*
X204597Y152857D01*
X233299Y143129D02*
X232791Y144145D01*
X233807D01*
X233299Y143129D01*
Y143332D02*
X232994Y143942D01*
X233604D01*
X233299Y143332D01*
X190119Y153035D02*
X189611Y154051D01*
X190627D01*
X190119Y153035D01*
Y153238D02*
X189814Y153848D01*
X190424D01*
X190119Y153238D01*
X188214Y160528D02*
X187706Y161544D01*
X188722D01*
X188214Y160528D01*
Y160731D02*
X187909Y161341D01*
X188519D01*
X188214Y160731D01*
X295148Y227203D02*
X294640Y228219D01*
X295656D01*
X295148Y227203D01*
Y227406D02*
X294843Y228016D01*
X295453D01*
X295148Y227406D01*
X290449Y152781D02*
X289941Y153797D01*
X290957D01*
X290449Y152781D01*
Y152984D02*
X290144Y153594D01*
X290754D01*
X290449Y152984D01*
X289433Y215138D02*
X288925Y216154D01*
X289941D01*
X289433Y215138D01*
Y215341D02*
X289128Y215951D01*
X289738D01*
X289433Y215341D01*
X251206Y231775D02*
X250698Y232791D01*
X251714D01*
X251206Y231775D01*
Y231978D02*
X250901Y232588D01*
X251511D01*
X251206Y231978D01*
X268351Y137668D02*
X267843Y138684D01*
X268859D01*
X268351Y137668D01*
Y137871D02*
X268046Y138481D01*
X268656D01*
X268351Y137871D01*
X278765Y138049D02*
X278257Y139065D01*
X279273D01*
X278765Y138049D01*
Y138252D02*
X278460Y138862D01*
X279070D01*
X278765Y138252D01*
X272796Y182880D02*
X273050Y183134D01*
X273304D01*
X273050Y183388D01*
X273304Y183642D01*
X273050D01*
X272796Y183896D01*
X272542Y183642D01*
X272288D01*
X272542Y183388D01*
X272288Y183134D01*
X272542D01*
X272796Y182880D01*
Y183083D02*
X272948Y183236D01*
X273101D01*
X272948Y183388D01*
X273101Y183540D01*
X272948D01*
X272796Y183693D01*
X272644Y183540D01*
X272491D01*
X272644Y183388D01*
X272491Y183236D01*
X272644D01*
X272796Y183083D01*
Y179324D02*
X273050Y179578D01*
X273304D01*
X273050Y179832D01*
X273304Y180086D01*
X273050D01*
X272796Y180340D01*
X272542Y180086D01*
X272288D01*
X272542Y179832D01*
X272288Y179578D01*
X272542D01*
X272796Y179324D01*
Y179527D02*
X272948Y179680D01*
X273101D01*
X272948Y179832D01*
X273101Y179984D01*
X272948D01*
X272796Y180137D01*
X272644Y179984D01*
X272491D01*
X272644Y179832D01*
X272491Y179680D01*
X272644D01*
X272796Y179527D01*
X260858Y144145D02*
X261112Y144399D01*
X261366D01*
X261112Y144653D01*
X261366Y144907D01*
X261112D01*
X260858Y145161D01*
X260604Y144907D01*
X260350D01*
X260604Y144653D01*
X260350Y144399D01*
X260604D01*
X260858Y144145D01*
Y144348D02*
X261010Y144501D01*
X261163D01*
X261010Y144653D01*
X261163Y144805D01*
X261010D01*
X260858Y144958D01*
X260706Y144805D01*
X260553D01*
X260706Y144653D01*
X260553Y144501D01*
X260706D01*
X260858Y144348D01*
X260985Y145542D02*
X261239Y145796D01*
X261493D01*
X261239Y146050D01*
X261493Y146304D01*
X261239D01*
X260985Y146558D01*
X260731Y146304D01*
X260477D01*
X260731Y146050D01*
X260477Y145796D01*
X260731D01*
X260985Y145542D01*
Y145745D02*
X261137Y145898D01*
X261290D01*
X261137Y146050D01*
X261290Y146202D01*
X261137D01*
X260985Y146355D01*
X260833Y146202D01*
X260680D01*
X260833Y146050D01*
X260680Y145898D01*
X260833D01*
X260985Y145745D01*
X261112Y146939D02*
X261366Y147193D01*
X261620D01*
X261366Y147447D01*
X261620Y147701D01*
X261366D01*
X261112Y147955D01*
X260858Y147701D01*
X260604D01*
X260858Y147447D01*
X260604Y147193D01*
X260858D01*
X261112Y146939D01*
Y147142D02*
X261264Y147295D01*
X261417D01*
X261264Y147447D01*
X261417Y147599D01*
X261264D01*
X261112Y147752D01*
X260960Y147599D01*
X260807D01*
X260960Y147447D01*
X260807Y147295D01*
X260960D01*
X261112Y147142D01*
X246507Y144145D02*
X246761Y144399D01*
X247015D01*
X246761Y144653D01*
X247015Y144907D01*
X246761D01*
X246507Y145161D01*
X246253Y144907D01*
X245999D01*
X246253Y144653D01*
X245999Y144399D01*
X246253D01*
X246507Y144145D01*
Y144348D02*
X246659Y144501D01*
X246812D01*
X246659Y144653D01*
X246812Y144805D01*
X246659D01*
X246507Y144958D01*
X246355Y144805D01*
X246202D01*
X246355Y144653D01*
X246202Y144501D01*
X246355D01*
X246507Y144348D01*
X246634Y146939D02*
X246888Y147193D01*
X247142D01*
X246888Y147447D01*
X247142Y147701D01*
X246888D01*
X246634Y147955D01*
X246380Y147701D01*
X246126D01*
X246380Y147447D01*
X246126Y147193D01*
X246380D01*
X246634Y146939D01*
Y147142D02*
X246786Y147295D01*
X246939D01*
X246786Y147447D01*
X246939Y147599D01*
X246786D01*
X246634Y147752D01*
X246482Y147599D01*
X246329D01*
X246482Y147447D01*
X246329Y147295D01*
X246482D01*
X246634Y147142D01*
X255397Y153797D02*
X255651Y154051D01*
X255905D01*
X255651Y154305D01*
X255905Y154559D01*
X255651D01*
X255397Y154813D01*
X255143Y154559D01*
X254889D01*
X255143Y154305D01*
X254889Y154051D01*
X255143D01*
X255397Y153797D01*
Y154000D02*
X255549Y154153D01*
X255702D01*
X255549Y154305D01*
X255702Y154457D01*
X255549D01*
X255397Y154610D01*
X255245Y154457D01*
X255092D01*
X255245Y154305D01*
X255092Y154153D01*
X255245D01*
X255397Y154000D01*
Y151892D02*
X255651Y152146D01*
X255905D01*
X255651Y152400D01*
X255905Y152654D01*
X255651D01*
X255397Y152908D01*
X255143Y152654D01*
X254889D01*
X255143Y152400D01*
X254889Y152146D01*
X255143D01*
X255397Y151892D01*
Y152095D02*
X255549Y152248D01*
X255702D01*
X255549Y152400D01*
X255702Y152552D01*
X255549D01*
X255397Y152705D01*
X255245Y152552D01*
X255092D01*
X255245Y152400D01*
X255092Y152248D01*
X255245D01*
X255397Y152095D01*
X208534Y161290D02*
X208788Y161544D01*
X209042D01*
X208788Y161798D01*
X209042Y162052D01*
X208788D01*
X208534Y162306D01*
X208280Y162052D01*
X208026D01*
X208280Y161798D01*
X208026Y161544D01*
X208280D01*
X208534Y161290D01*
Y161493D02*
X208686Y161646D01*
X208839D01*
X208686Y161798D01*
X208839Y161950D01*
X208686D01*
X208534Y162103D01*
X208382Y161950D01*
X208229D01*
X208382Y161798D01*
X208229Y161646D01*
X208382D01*
X208534Y161493D01*
X209931Y162179D02*
X210185Y162433D01*
X210439D01*
X210185Y162687D01*
X210439Y162941D01*
X210185D01*
X209931Y163195D01*
X209677Y162941D01*
X209423D01*
X209677Y162687D01*
X209423Y162433D01*
X209677D01*
X209931Y162179D01*
Y162382D02*
X210083Y162535D01*
X210236D01*
X210083Y162687D01*
X210236Y162839D01*
X210083D01*
X209931Y162992D01*
X209779Y162839D01*
X209626D01*
X209779Y162687D01*
X209626Y162535D01*
X209779D01*
X209931Y162382D01*
X193675Y172339D02*
X193929Y172593D01*
X194183D01*
X193929Y172847D01*
X194183Y173101D01*
X193929D01*
X193675Y173355D01*
X193421Y173101D01*
X193167D01*
X193421Y172847D01*
X193167Y172593D01*
X193421D01*
X193675Y172339D01*
Y172542D02*
X193827Y172695D01*
X193980D01*
X193827Y172847D01*
X193980Y172999D01*
X193827D01*
X193675Y173152D01*
X193523Y172999D01*
X193370D01*
X193523Y172847D01*
X193370Y172695D01*
X193523D01*
X193675Y172542D01*
X200787Y174371D02*
X201041Y174625D01*
X201295D01*
X201041Y174879D01*
X201295Y175133D01*
X201041D01*
X200787Y175387D01*
X200533Y175133D01*
X200279D01*
X200533Y174879D01*
X200279Y174625D01*
X200533D01*
X200787Y174371D01*
Y174574D02*
X200939Y174727D01*
X201092D01*
X200939Y174879D01*
X201092Y175031D01*
X200939D01*
X200787Y175184D01*
X200635Y175031D01*
X200482D01*
X200635Y174879D01*
X200482Y174727D01*
X200635D01*
X200787Y174574D01*
X202438Y175768D02*
X202692Y176022D01*
X202946D01*
X202692Y176276D01*
X202946Y176530D01*
X202692D01*
X202438Y176784D01*
X202184Y176530D01*
X201930D01*
X202184Y176276D01*
X201930Y176022D01*
X202184D01*
X202438Y175768D01*
Y175971D02*
X202590Y176124D01*
X202743D01*
X202590Y176276D01*
X202743Y176428D01*
X202590D01*
X202438Y176581D01*
X202286Y176428D01*
X202133D01*
X202286Y176276D01*
X202133Y176124D01*
X202286D01*
X202438Y175971D01*
X204978Y176657D02*
X205232Y176911D01*
X205486D01*
X205232Y177165D01*
X205486Y177419D01*
X205232D01*
X204978Y177673D01*
X204724Y177419D01*
X204470D01*
X204724Y177165D01*
X204470Y176911D01*
X204724D01*
X204978Y176657D01*
Y176860D02*
X205130Y177013D01*
X205283D01*
X205130Y177165D01*
X205283Y177317D01*
X205130D01*
X204978Y177470D01*
X204826Y177317D01*
X204673D01*
X204826Y177165D01*
X204673Y177013D01*
X204826D01*
X204978Y176860D01*
X321183Y164338D02*
X321437Y164846D01*
X321183Y165354D01*
X321691Y165100D01*
X322199Y165354D01*
X321945Y164846D01*
X322199Y164338D01*
X321691Y164592D01*
X321183Y164338D01*
X321386Y164541D02*
X321539Y164846D01*
X321386Y165151D01*
X321691Y164998D01*
X321996Y165151D01*
X321843Y164846D01*
X321996Y164541D01*
X321691Y164694D01*
X321386Y164541D01*
X313055Y164084D02*
X313309Y164592D01*
X313055Y165100D01*
X313563Y164846D01*
X314071Y165100D01*
X313817Y164592D01*
X314071Y164084D01*
X313563Y164338D01*
X313055Y164084D01*
X313258Y164287D02*
X313411Y164592D01*
X313258Y164897D01*
X313563Y164744D01*
X313868Y164897D01*
X313715Y164592D01*
X313868Y164287D01*
X313563Y164440D01*
X313258Y164287D01*
X316865Y166624D02*
X316357Y167640D01*
X317373D01*
X316865Y166624D01*
Y166827D02*
X316560Y167437D01*
X317170D01*
X316865Y166827D01*
X307467Y202692D02*
X307721Y203200D01*
X307467Y203708D01*
X307975Y203454D01*
X308483Y203708D01*
X308229Y203200D01*
X308483Y202692D01*
X307975Y202946D01*
X307467Y202692D01*
X307670Y202895D02*
X307823Y203200D01*
X307670Y203505D01*
X307975Y203352D01*
X308280Y203505D01*
X308127Y203200D01*
X308280Y202895D01*
X307975Y203048D01*
X307670Y202895D01*
X303022Y202692D02*
X303276Y203200D01*
X303022Y203708D01*
X303530Y203454D01*
X304038Y203708D01*
X303784Y203200D01*
X304038Y202692D01*
X303530Y202946D01*
X303022Y202692D01*
X303225Y202895D02*
X303378Y203200D01*
X303225Y203505D01*
X303530Y203352D01*
X303835Y203505D01*
X303682Y203200D01*
X303835Y202895D01*
X303530Y203048D01*
X303225Y202895D01*
X310642Y194564D02*
X310896Y195072D01*
X310642Y195580D01*
X311150Y195326D01*
X311658Y195580D01*
X311404Y195072D01*
X311658Y194564D01*
X311150Y194818D01*
X310642Y194564D01*
X310845Y194767D02*
X310998Y195072D01*
X310845Y195377D01*
X311150Y195224D01*
X311455Y195377D01*
X311302Y195072D01*
X311455Y194767D01*
X311150Y194920D01*
X310845Y194767D01*
X317119Y197104D02*
X316611Y198120D01*
X317627D01*
X317119Y197104D01*
Y197307D02*
X316814Y197917D01*
X317424D01*
X317119Y197307D01*
X310304Y223393D02*
X310558Y223901D01*
X310304Y224409D01*
X310812Y224155D01*
X311320Y224409D01*
X311066Y223901D01*
X311320Y223393D01*
X310812Y223647D01*
X310304Y223393D01*
X310507Y223596D02*
X310660Y223901D01*
X310507Y224206D01*
X310812Y224053D01*
X311117Y224206D01*
X310964Y223901D01*
X311117Y223596D01*
X310812Y223749D01*
X310507Y223596D01*
X321183Y225171D02*
X321437Y225679D01*
X321183Y226187D01*
X321691Y225933D01*
X322199Y226187D01*
X321945Y225679D01*
X322199Y225171D01*
X321691Y225425D01*
X321183Y225171D01*
X321386Y225374D02*
X321539Y225679D01*
X321386Y225984D01*
X321691Y225831D01*
X321996Y225984D01*
X321843Y225679D01*
X321996Y225374D01*
X321691Y225527D01*
X321386Y225374D01*
X317207Y226226D02*
X316699Y227242D01*
X317715D01*
X317207Y226226D01*
Y226429D02*
X316902Y227039D01*
X317512D01*
X317207Y226429D01*
X319913Y194564D02*
X320167Y195072D01*
X319913Y195580D01*
X320421Y195326D01*
X320929Y195580D01*
X320675Y195072D01*
X320929Y194564D01*
X320421Y194818D01*
X319913Y194564D01*
X320116Y194767D02*
X320269Y195072D01*
X320116Y195377D01*
X320421Y195224D01*
X320726Y195377D01*
X320573Y195072D01*
X320726Y194767D01*
X320421Y194920D01*
X320116Y194767D01*
X318643Y208788D02*
X318897Y209296D01*
X318643Y209804D01*
X319151Y209550D01*
X319659Y209804D01*
X319405Y209296D01*
X319659Y208788D01*
X319151Y209042D01*
X318643Y208788D01*
X318846Y208991D02*
X318999Y209296D01*
X318846Y209601D01*
X319151Y209448D01*
X319456Y209601D01*
X319303Y209296D01*
X319456Y208991D01*
X319151Y209144D01*
X318846Y208991D01*
X316738Y207645D02*
X316992Y207899D01*
X317246D01*
X316992Y208153D01*
X317246Y208407D01*
X316992D01*
X316738Y208661D01*
X316484Y208407D01*
X316230D01*
X316484Y208153D01*
X316230Y207899D01*
X316484D01*
X316738Y207645D01*
Y207848D02*
X316890Y208001D01*
X317043D01*
X316890Y208153D01*
X317043Y208305D01*
X316890D01*
X316738Y208458D01*
X316586Y208305D01*
X316433D01*
X316586Y208153D01*
X316433Y208001D01*
X316586D01*
X316738Y207848D01*
X315722Y176911D02*
X315976Y177419D01*
X315722Y177927D01*
X316230Y177673D01*
X316738Y177927D01*
X316484Y177419D01*
X316738Y176911D01*
X316230Y177165D01*
X315722Y176911D01*
X315925Y177114D02*
X316078Y177419D01*
X315925Y177724D01*
X316230Y177571D01*
X316535Y177724D01*
X316382Y177419D01*
X316535Y177114D01*
X316230Y177267D01*
X315925Y177114D01*
X317627Y179578D02*
X317881Y180086D01*
X317627Y180594D01*
X318135Y180340D01*
X318643Y180594D01*
X318389Y180086D01*
X318643Y179578D01*
X318135Y179832D01*
X317627Y179578D01*
X317830Y179781D02*
X317983Y180086D01*
X317830Y180391D01*
X318135Y180238D01*
X318440Y180391D01*
X318287Y180086D01*
X318440Y179781D01*
X318135Y179934D01*
X317830Y179781D01*
X317373Y238633D02*
X317627Y238887D01*
X317881D01*
X317627Y239141D01*
X317881Y239395D01*
X317627D01*
X317373Y239649D01*
X317119Y239395D01*
X316865D01*
X317119Y239141D01*
X316865Y238887D01*
X317119D01*
X317373Y238633D01*
Y238836D02*
X317525Y238989D01*
X317678D01*
X317525Y239141D01*
X317678Y239293D01*
X317525D01*
X317373Y239446D01*
X317221Y239293D01*
X317068D01*
X317221Y239141D01*
X317068Y238989D01*
X317221D01*
X317373Y238836D01*
X321437Y242443D02*
Y242189D01*
X321945D01*
Y242443D01*
X322199D01*
Y242951D01*
X321945D01*
Y243205D01*
X321437D01*
Y242951D01*
X321183D01*
Y242443D01*
X321437D01*
X321539Y242545D02*
Y242392D01*
X321843D01*
Y242545D01*
X321996D01*
Y242849D01*
X321843D01*
Y243002D01*
X321539D01*
Y242849D01*
X321386D01*
Y242545D01*
X321539D01*
X186817Y85217D02*
X186309Y86233D01*
X187325D01*
X186817Y85217D01*
Y85420D02*
X186512Y86030D01*
X187122D01*
X186817Y85420D01*
X272796Y188722D02*
X273050Y188976D01*
X273304D01*
X273050Y189230D01*
X273304Y189484D01*
X273050D01*
X272796Y189738D01*
X272542Y189484D01*
X272288D01*
X272542Y189230D01*
X272288Y188976D01*
X272542D01*
X272796Y188722D01*
Y188925D02*
X272948Y189078D01*
X273101D01*
X272948Y189230D01*
X273101Y189382D01*
X272948D01*
X272796Y189535D01*
X272644Y189382D01*
X272491D01*
X272644Y189230D01*
X272491Y189078D01*
X272644D01*
X272796Y188925D01*
X217551Y179451D02*
X217805Y179959D01*
X217551Y180467D01*
X218059Y180213D01*
X218567Y180467D01*
X218313Y179959D01*
X218567Y179451D01*
X218059Y179705D01*
X217551Y179451D01*
X217754Y179654D02*
X217907Y179959D01*
X217754Y180264D01*
X218059Y180111D01*
X218364Y180264D01*
X218211Y179959D01*
X218364Y179654D01*
X218059Y179807D01*
X217754Y179654D01*
X220599Y180340D02*
X220853Y180848D01*
X220599Y181356D01*
X221107Y181102D01*
X221615Y181356D01*
X221361Y180848D01*
X221615Y180340D01*
X221107Y180594D01*
X220599Y180340D01*
X220802Y180543D02*
X220955Y180848D01*
X220802Y181153D01*
X221107Y181000D01*
X221412Y181153D01*
X221259Y180848D01*
X221412Y180543D01*
X221107Y180696D01*
X220802Y180543D01*
X258191Y214122D02*
X258445Y214376D01*
X258699D01*
X258445Y214630D01*
X258699Y214884D01*
X258445D01*
X258191Y215138D01*
X257937Y214884D01*
X257683D01*
X257937Y214630D01*
X257683Y214376D01*
X257937D01*
X258191Y214122D01*
Y214325D02*
X258343Y214478D01*
X258496D01*
X258343Y214630D01*
X258496Y214782D01*
X258343D01*
X258191Y214935D01*
X258039Y214782D01*
X257886D01*
X258039Y214630D01*
X257886Y214478D01*
X258039D01*
X258191Y214325D01*
X256921Y212471D02*
X257175Y212725D01*
X257429D01*
X257175Y212979D01*
X257429Y213233D01*
X257175D01*
X256921Y213487D01*
X256667Y213233D01*
X256413D01*
X256667Y212979D01*
X256413Y212725D01*
X256667D01*
X256921Y212471D01*
Y212674D02*
X257073Y212827D01*
X257226D01*
X257073Y212979D01*
X257226Y213131D01*
X257073D01*
X256921Y213284D01*
X256769Y213131D01*
X256616D01*
X256769Y212979D01*
X256616Y212827D01*
X256769D01*
X256921Y212674D01*
X255778Y211455D02*
X256032Y211709D01*
X256286D01*
X256032Y211963D01*
X256286Y212217D01*
X256032D01*
X255778Y212471D01*
X255524Y212217D01*
X255270D01*
X255524Y211963D01*
X255270Y211709D01*
X255524D01*
X255778Y211455D01*
Y211658D02*
X255930Y211811D01*
X256083D01*
X255930Y211963D01*
X256083Y212115D01*
X255930D01*
X255778Y212268D01*
X255626Y212115D01*
X255473D01*
X255626Y211963D01*
X255473Y211811D01*
X255626D01*
X255778Y211658D01*
X254635Y210185D02*
X254889Y210439D01*
X255143D01*
X254889Y210693D01*
X255143Y210947D01*
X254889D01*
X254635Y211201D01*
X254381Y210947D01*
X254127D01*
X254381Y210693D01*
X254127Y210439D01*
X254381D01*
X254635Y210185D01*
Y210388D02*
X254787Y210541D01*
X254940D01*
X254787Y210693D01*
X254940Y210845D01*
X254787D01*
X254635Y210998D01*
X254483Y210845D01*
X254330D01*
X254483Y210693D01*
X254330Y210541D01*
X254483D01*
X254635Y210388D01*
X245872Y225806D02*
X246126Y226314D01*
X245872Y226822D01*
X246380Y226568D01*
X246888Y226822D01*
X246634Y226314D01*
X246888Y225806D01*
X246380Y226060D01*
X245872Y225806D01*
X246075Y226009D02*
X246228Y226314D01*
X246075Y226619D01*
X246380Y226466D01*
X246685Y226619D01*
X246532Y226314D01*
X246685Y226009D01*
X246380Y226162D01*
X246075Y226009D01*
X248666Y227330D02*
X248920Y227584D01*
X249174D01*
X248920Y227838D01*
X249174Y228092D01*
X248920D01*
X248666Y228346D01*
X248412Y228092D01*
X248158D01*
X248412Y227838D01*
X248158Y227584D01*
X248412D01*
X248666Y227330D01*
Y227533D02*
X248818Y227686D01*
X248971D01*
X248818Y227838D01*
X248971Y227990D01*
X248818D01*
X248666Y228143D01*
X248514Y227990D01*
X248361D01*
X248514Y227838D01*
X248361Y227686D01*
X248514D01*
X248666Y227533D01*
X246380Y228473D02*
X246634Y228727D01*
X246888D01*
X246634Y228981D01*
X246888Y229235D01*
X246634D01*
X246380Y229489D01*
X246126Y229235D01*
X245872D01*
X246126Y228981D01*
X245872Y228727D01*
X246126D01*
X246380Y228473D01*
Y228676D02*
X246532Y228829D01*
X246685D01*
X246532Y228981D01*
X246685Y229133D01*
X246532D01*
X246380Y229286D01*
X246228Y229133D01*
X246075D01*
X246228Y228981D01*
X246075Y228829D01*
X246228D01*
X246380Y228676D01*
X248793Y229489D02*
X249047Y229743D01*
X249301D01*
X249047Y229997D01*
X249301Y230251D01*
X249047D01*
X248793Y230505D01*
X248539Y230251D01*
X248285D01*
X248539Y229997D01*
X248285Y229743D01*
X248539D01*
X248793Y229489D01*
Y229692D02*
X248945Y229845D01*
X249098D01*
X248945Y229997D01*
X249098Y230149D01*
X248945D01*
X248793Y230302D01*
X248641Y230149D01*
X248488D01*
X248641Y229997D01*
X248488Y229845D01*
X248641D01*
X248793Y229692D01*
X217297Y241554D02*
X217551Y241808D01*
X217805D01*
X217551Y242062D01*
X217805Y242316D01*
X217551D01*
X217297Y242570D01*
X217043Y242316D01*
X216789D01*
X217043Y242062D01*
X216789Y241808D01*
X217043D01*
X217297Y241554D01*
Y241757D02*
X217449Y241910D01*
X217602D01*
X217449Y242062D01*
X217602Y242214D01*
X217449D01*
X217297Y242367D01*
X217145Y242214D01*
X216992D01*
X217145Y242062D01*
X216992Y241910D01*
X217145D01*
X217297Y241757D01*
X219075Y239776D02*
X219329Y240030D01*
X219583D01*
X219329Y240284D01*
X219583Y240538D01*
X219329D01*
X219075Y240792D01*
X218821Y240538D01*
X218567D01*
X218821Y240284D01*
X218567Y240030D01*
X218821D01*
X219075Y239776D01*
Y239979D02*
X219227Y240132D01*
X219380D01*
X219227Y240284D01*
X219380Y240436D01*
X219227D01*
X219075Y240589D01*
X218923Y240436D01*
X218770D01*
X218923Y240284D01*
X218770Y240132D01*
X218923D01*
X219075Y239979D01*
X323723Y157480D02*
Y158496D01*
X324739D01*
Y157480D01*
X323723D01*
X323926Y157683D02*
Y158293D01*
X324536D01*
Y157683D01*
X323926D01*
X177165Y119507D02*
X176657Y120523D01*
X177673D01*
X177165Y119507D01*
Y119710D02*
X176860Y120320D01*
X177470D01*
X177165Y119710D01*
X198755Y143637D02*
X198247Y144653D01*
X199263D01*
X198755Y143637D01*
Y143840D02*
X198450Y144450D01*
X199060D01*
X198755Y143840D01*
X251714Y153162D02*
X251968Y153416D01*
X252222D01*
X251968Y153670D01*
X252222Y153924D01*
X251968D01*
X251714Y154178D01*
X251460Y153924D01*
X251206D01*
X251460Y153670D01*
X251206Y153416D01*
X251460D01*
X251714Y153162D01*
Y153365D02*
X251866Y153518D01*
X252019D01*
X251866Y153670D01*
X252019Y153822D01*
X251866D01*
X251714Y153975D01*
X251562Y153822D01*
X251409D01*
X251562Y153670D01*
X251409Y153518D01*
X251562D01*
X251714Y153365D01*
X250698Y154432D02*
X250952Y154686D01*
X251206D01*
X250952Y154940D01*
X251206Y155194D01*
X250952D01*
X250698Y155448D01*
X250444Y155194D01*
X250190D01*
X250444Y154940D01*
X250190Y154686D01*
X250444D01*
X250698Y154432D01*
Y154635D02*
X250850Y154788D01*
X251003D01*
X250850Y154940D01*
X251003Y155092D01*
X250850D01*
X250698Y155245D01*
X250546Y155092D01*
X250393D01*
X250546Y154940D01*
X250393Y154788D01*
X250546D01*
X250698Y154635D01*
X246634Y145542D02*
X246888Y145796D01*
X247142D01*
X246888Y146050D01*
X247142Y146304D01*
X246888D01*
X246634Y146558D01*
X246380Y146304D01*
X246126D01*
X246380Y146050D01*
X246126Y145796D01*
X246380D01*
X246634Y145542D01*
Y145745D02*
X246786Y145898D01*
X246939D01*
X246786Y146050D01*
X246939Y146202D01*
X246786D01*
X246634Y146355D01*
X246482Y146202D01*
X246329D01*
X246482Y146050D01*
X246329Y145898D01*
X246482D01*
X246634Y145745D01*
X186792Y101473D02*
X187046Y101727D01*
X187300D01*
X187046Y101981D01*
X187300Y102235D01*
X187046D01*
X186792Y102489D01*
X186538Y102235D01*
X186284D01*
X186538Y101981D01*
X186284Y101727D01*
X186538D01*
X186792Y101473D01*
Y101676D02*
X186944Y101829D01*
X187097D01*
X186944Y101981D01*
X187097Y102133D01*
X186944D01*
X186792Y102286D01*
X186639Y102133D01*
X186487D01*
X186639Y101981D01*
X186487Y101829D01*
X186639D01*
X186792Y101676D01*
X185839Y96012D02*
X185331Y97028D01*
X186347D01*
X185839Y96012D01*
Y96215D02*
X185534Y96825D01*
X186143D01*
X185839Y96215D01*
D80*
X317842Y170307D02*
G03*
X317842Y170307I-508J0D01*
G01*
X315302D02*
G03*
X315302Y170307I-508J0D01*
G01*
X312762D02*
G03*
X312762Y170307I-508J0D01*
G01*
X310222D02*
G03*
X310222Y170307I-508J0D01*
G01*
X307682D02*
G03*
X307682Y170307I-508J0D01*
G01*
X305142D02*
G03*
X305142Y170307I-508J0D01*
G01*
X302602D02*
G03*
X302602Y170307I-508J0D01*
G01*
X300062D02*
G03*
X300062Y170307I-508J0D01*
G01*
X317842Y162687D02*
G03*
X317842Y162687I-508J0D01*
G01*
X315302D02*
G03*
X315302Y162687I-508J0D01*
G01*
X312762D02*
G03*
X312762Y162687I-508J0D01*
G01*
X310222D02*
G03*
X310222Y162687I-508J0D01*
G01*
X307682D02*
G03*
X307682Y162687I-508J0D01*
G01*
X305142D02*
G03*
X305142Y162687I-508J0D01*
G01*
X302602D02*
G03*
X302602Y162687I-508J0D01*
G01*
X300062D02*
G03*
X300062Y162687I-508J0D01*
G01*
X317715Y200787D02*
G03*
X317715Y200787I-508J0D01*
G01*
X315175D02*
G03*
X315175Y200787I-508J0D01*
G01*
X312635D02*
G03*
X312635Y200787I-508J0D01*
G01*
X310095D02*
G03*
X310095Y200787I-508J0D01*
G01*
X307555D02*
G03*
X307555Y200787I-508J0D01*
G01*
X305015D02*
G03*
X305015Y200787I-508J0D01*
G01*
X302475D02*
G03*
X302475Y200787I-508J0D01*
G01*
X299935D02*
G03*
X299935Y200787I-508J0D01*
G01*
X317715Y193167D02*
G03*
X317715Y193167I-508J0D01*
G01*
X315175D02*
G03*
X315175Y193167I-508J0D01*
G01*
X312635D02*
G03*
X312635Y193167I-508J0D01*
G01*
X310095D02*
G03*
X310095Y193167I-508J0D01*
G01*
X307555D02*
G03*
X307555Y193167I-508J0D01*
G01*
X305015D02*
G03*
X305015Y193167I-508J0D01*
G01*
X302475D02*
G03*
X302475Y193167I-508J0D01*
G01*
X299935D02*
G03*
X299935Y193167I-508J0D01*
G01*
X317715Y229997D02*
G03*
X317715Y229997I-508J0D01*
G01*
X315175D02*
G03*
X315175Y229997I-508J0D01*
G01*
X312635D02*
G03*
X312635Y229997I-508J0D01*
G01*
X310095D02*
G03*
X310095Y229997I-508J0D01*
G01*
X307555D02*
G03*
X307555Y229997I-508J0D01*
G01*
X305015D02*
G03*
X305015Y229997I-508J0D01*
G01*
X302475D02*
G03*
X302475Y229997I-508J0D01*
G01*
X299935D02*
G03*
X299935Y229997I-508J0D01*
G01*
X317715Y222377D02*
G03*
X317715Y222377I-508J0D01*
G01*
X315175D02*
G03*
X315175Y222377I-508J0D01*
G01*
X312635D02*
G03*
X312635Y222377I-508J0D01*
G01*
X310095D02*
G03*
X310095Y222377I-508J0D01*
G01*
X307555D02*
G03*
X307555Y222377I-508J0D01*
G01*
X305015D02*
G03*
X305015Y222377I-508J0D01*
G01*
X302475D02*
G03*
X302475Y222377I-508J0D01*
G01*
X299935D02*
G03*
X299935Y222377I-508J0D01*
G01*
X308483Y104013D02*
G03*
X308483Y104013I-508J0D01*
G01*
Y101473D02*
G03*
X308483Y101473I-508J0D01*
G01*
Y98933D02*
G03*
X308483Y98933I-508J0D01*
G01*
Y96393D02*
G03*
X308483Y96393I-508J0D01*
G01*
X316103Y104013D02*
G03*
X316103Y104013I-508J0D01*
G01*
Y101473D02*
G03*
X316103Y101473I-508J0D01*
G01*
Y98933D02*
G03*
X316103Y98933I-508J0D01*
G01*
Y96393D02*
G03*
X316103Y96393I-508J0D01*
G01*
X308483Y82804D02*
G03*
X308483Y82804I-508J0D01*
G01*
Y80264D02*
G03*
X308483Y80264I-508J0D01*
G01*
Y77724D02*
G03*
X308483Y77724I-508J0D01*
G01*
Y75184D02*
G03*
X308483Y75184I-508J0D01*
G01*
X316103Y82804D02*
G03*
X316103Y82804I-508J0D01*
G01*
Y80264D02*
G03*
X316103Y80264I-508J0D01*
G01*
Y77724D02*
G03*
X316103Y77724I-508J0D01*
G01*
Y75184D02*
G03*
X316103Y75184I-508J0D01*
G01*
X329438Y147320D02*
G03*
X329438Y147320I-508J0D01*
G01*
Y149860D02*
G03*
X329438Y149860I-508J0D01*
G01*
Y152400D02*
G03*
X329438Y152400I-508J0D01*
G01*
Y130302D02*
G03*
X329438Y130302I-508J0D01*
G01*
Y132842D02*
G03*
X329438Y132842I-508J0D01*
G01*
Y135382D02*
G03*
X329438Y135382I-508J0D01*
G01*
Y113284D02*
G03*
X329438Y113284I-508J0D01*
G01*
Y115824D02*
G03*
X329438Y115824I-508J0D01*
G01*
Y118364D02*
G03*
X329438Y118364I-508J0D01*
G01*
X281559Y134112D02*
G03*
X281559Y134112I-508J0D01*
G01*
Y131572D02*
G03*
X281559Y131572I-508J0D01*
G01*
Y129032D02*
G03*
X281559Y129032I-508J0D01*
G01*
Y126492D02*
G03*
X281559Y126492I-508J0D01*
G01*
Y123952D02*
G03*
X281559Y123952I-508J0D01*
G01*
Y121412D02*
G03*
X281559Y121412I-508J0D01*
G01*
Y118872D02*
G03*
X281559Y118872I-508J0D01*
G01*
X289179Y134112D02*
G03*
X289179Y134112I-508J0D01*
G01*
Y131572D02*
G03*
X289179Y131572I-508J0D01*
G01*
Y129032D02*
G03*
X289179Y129032I-508J0D01*
G01*
Y126492D02*
G03*
X289179Y126492I-508J0D01*
G01*
Y123952D02*
G03*
X289179Y123952I-508J0D01*
G01*
Y121412D02*
G03*
X289179Y121412I-508J0D01*
G01*
Y118872D02*
G03*
X289179Y118872I-508J0D01*
G01*
X182499Y80645D02*
G03*
X182499Y80645I-508J0D01*
G01*
X179959D02*
G03*
X179959Y80645I-508J0D01*
G01*
X182499Y83185D02*
G03*
X182499Y83185I-508J0D01*
G01*
X179959D02*
G03*
X179959Y83185I-508J0D01*
G01*
X182499Y85725D02*
G03*
X182499Y85725I-508J0D01*
G01*
X179959D02*
G03*
X179959Y85725I-508J0D01*
G01*
X182499Y88265D02*
G03*
X182499Y88265I-508J0D01*
G01*
X179959D02*
G03*
X179959Y88265I-508J0D01*
G01*
X182499Y90805D02*
G03*
X182499Y90805I-508J0D01*
G01*
X179959D02*
G03*
X179959Y90805I-508J0D01*
G01*
X181864Y130683D02*
G03*
X181864Y130683I-508J0D01*
G01*
Y128143D02*
G03*
X181864Y128143I-508J0D01*
G01*
Y125603D02*
G03*
X181864Y125603I-508J0D01*
G01*
Y123063D02*
G03*
X181864Y123063I-508J0D01*
G01*
X189484Y130683D02*
G03*
X189484Y130683I-508J0D01*
G01*
Y128143D02*
G03*
X189484Y128143I-508J0D01*
G01*
Y125603D02*
G03*
X189484Y125603I-508J0D01*
G01*
Y123063D02*
G03*
X189484Y123063I-508J0D01*
G01*
X249428Y98044D02*
G03*
X249428Y98044I-508J0D01*
G01*
Y100584D02*
G03*
X249428Y100584I-508J0D01*
G01*
Y103124D02*
G03*
X249428Y103124I-508J0D01*
G01*
Y105664D02*
G03*
X249428Y105664I-508J0D01*
G01*
Y108204D02*
G03*
X249428Y108204I-508J0D01*
G01*
Y110744D02*
G03*
X249428Y110744I-508J0D01*
G01*
Y113284D02*
G03*
X249428Y113284I-508J0D01*
G01*
Y115824D02*
G03*
X249428Y115824I-508J0D01*
G01*
X241808Y98044D02*
G03*
X241808Y98044I-508J0D01*
G01*
Y100584D02*
G03*
X241808Y100584I-508J0D01*
G01*
Y103124D02*
G03*
X241808Y103124I-508J0D01*
G01*
Y105664D02*
G03*
X241808Y105664I-508J0D01*
G01*
Y108204D02*
G03*
X241808Y108204I-508J0D01*
G01*
Y110744D02*
G03*
X241808Y110744I-508J0D01*
G01*
Y113284D02*
G03*
X241808Y113284I-508J0D01*
G01*
Y115824D02*
G03*
X241808Y115824I-508J0D01*
G01*
X229362Y115892D02*
G03*
X229362Y115892I-508J0D01*
G01*
Y113352D02*
G03*
X229362Y113352I-508J0D01*
G01*
Y110812D02*
G03*
X229362Y110812I-508J0D01*
G01*
Y108272D02*
G03*
X229362Y108272I-508J0D01*
G01*
Y105732D02*
G03*
X229362Y105732I-508J0D01*
G01*
Y103192D02*
G03*
X229362Y103192I-508J0D01*
G01*
Y100652D02*
G03*
X229362Y100652I-508J0D01*
G01*
Y98112D02*
G03*
X229362Y98112I-508J0D01*
G01*
X236982Y115892D02*
G03*
X236982Y115892I-508J0D01*
G01*
Y113352D02*
G03*
X236982Y113352I-508J0D01*
G01*
Y110812D02*
G03*
X236982Y110812I-508J0D01*
G01*
Y108272D02*
G03*
X236982Y108272I-508J0D01*
G01*
Y105732D02*
G03*
X236982Y105732I-508J0D01*
G01*
Y103192D02*
G03*
X236982Y103192I-508J0D01*
G01*
Y100652D02*
G03*
X236982Y100652I-508J0D01*
G01*
Y98112D02*
G03*
X236982Y98112I-508J0D01*
G01*
X163703Y228473D02*
G03*
X163703Y228473I-508J0D01*
G01*
Y231013D02*
G03*
X163703Y231013I-508J0D01*
G01*
Y233553D02*
G03*
X163703Y233553I-508J0D01*
G01*
Y236093D02*
G03*
X163703Y236093I-508J0D01*
G01*
Y238633D02*
G03*
X163703Y238633I-508J0D01*
G01*
Y241173D02*
G03*
X163703Y241173I-508J0D01*
G01*
X198120Y225044D02*
G03*
X198120Y225044I-508J0D01*
G01*
Y227584D02*
G03*
X198120Y227584I-508J0D01*
G01*
Y230124D02*
G03*
X198120Y230124I-508J0D01*
G01*
Y232664D02*
G03*
X198120Y232664I-508J0D01*
G01*
X190500Y225044D02*
G03*
X190500Y225044I-508J0D01*
G01*
Y227584D02*
G03*
X190500Y227584I-508J0D01*
G01*
Y230124D02*
G03*
X190500Y230124I-508J0D01*
G01*
Y232664D02*
G03*
X190500Y232664I-508J0D01*
G01*
X181991Y114681D02*
G03*
X181991Y114681I-508J0D01*
G01*
Y112141D02*
G03*
X181991Y112141I-508J0D01*
G01*
Y109601D02*
G03*
X181991Y109601I-508J0D01*
G01*
Y107061D02*
G03*
X181991Y107061I-508J0D01*
G01*
Y104521D02*
G03*
X181991Y104521I-508J0D01*
G01*
Y101981D02*
G03*
X181991Y101981I-508J0D01*
G01*
Y99441D02*
G03*
X181991Y99441I-508J0D01*
G01*
X189611Y114681D02*
G03*
X189611Y114681I-508J0D01*
G01*
Y112141D02*
G03*
X189611Y112141I-508J0D01*
G01*
Y109601D02*
G03*
X189611Y109601I-508J0D01*
G01*
Y107061D02*
G03*
X189611Y107061I-508J0D01*
G01*
Y104521D02*
G03*
X189611Y104521I-508J0D01*
G01*
Y101981D02*
G03*
X189611Y101981I-508J0D01*
G01*
Y99441D02*
G03*
X189611Y99441I-508J0D01*
G01*
X163703Y163449D02*
G03*
X163703Y163449I-508J0D01*
G01*
Y165989D02*
G03*
X163703Y165989I-508J0D01*
G01*
Y168529D02*
G03*
X163703Y168529I-508J0D01*
G01*
Y171069D02*
G03*
X163703Y171069I-508J0D01*
G01*
Y173609D02*
G03*
X163703Y173609I-508J0D01*
G01*
Y176149D02*
G03*
X163703Y176149I-508J0D01*
G01*
Y194310D02*
G03*
X163703Y194310I-508J0D01*
G01*
Y191770D02*
G03*
X163703Y191770I-508J0D01*
G01*
Y189230D02*
G03*
X163703Y189230I-508J0D01*
G01*
Y209423D02*
G03*
X163703Y209423I-508J0D01*
G01*
Y206883D02*
G03*
X163703Y206883I-508J0D01*
G01*
Y204343D02*
G03*
X163703Y204343I-508J0D01*
G01*
X216535Y150749D02*
G03*
X216535Y150749I-508J0D01*
G01*
X213995D02*
G03*
X213995Y150749I-508J0D01*
G01*
X216535Y153289D02*
G03*
X216535Y153289I-508J0D01*
G01*
X213995D02*
G03*
X213995Y153289I-508J0D01*
G01*
X216535Y155829D02*
G03*
X216535Y155829I-508J0D01*
G01*
X213995D02*
G03*
X213995Y155829I-508J0D01*
G01*
X216535Y158369D02*
G03*
X216535Y158369I-508J0D01*
G01*
X213995D02*
G03*
X213995Y158369I-508J0D01*
G01*
X216535Y160909D02*
G03*
X216535Y160909I-508J0D01*
G01*
X213995D02*
G03*
X213995Y160909I-508J0D01*
G01*
X216535Y163449D02*
G03*
X216535Y163449I-508J0D01*
G01*
X213995D02*
G03*
X213995Y163449I-508J0D01*
G01*
X216535Y165989D02*
G03*
X216535Y165989I-508J0D01*
G01*
X213995D02*
G03*
X213995Y165989I-508J0D01*
G01*
X216535Y168529D02*
G03*
X216535Y168529I-508J0D01*
G01*
X213995D02*
G03*
X213995Y168529I-508J0D01*
G01*
X216535Y171069D02*
G03*
X216535Y171069I-508J0D01*
G01*
X213995D02*
G03*
X213995Y171069I-508J0D01*
G01*
X216535Y173609D02*
G03*
X216535Y173609I-508J0D01*
G01*
X213995D02*
G03*
X213995Y173609I-508J0D01*
G01*
X216535Y176149D02*
G03*
X216535Y176149I-508J0D01*
G01*
X213995D02*
G03*
X213995Y176149I-508J0D01*
G01*
X216535Y178689D02*
G03*
X216535Y178689I-508J0D01*
G01*
X213995D02*
G03*
X213995Y178689I-508J0D01*
G01*
X216535Y181229D02*
G03*
X216535Y181229I-508J0D01*
G01*
X213995D02*
G03*
X213995Y181229I-508J0D01*
G01*
X216535Y183769D02*
G03*
X216535Y183769I-508J0D01*
G01*
X213995D02*
G03*
X213995Y183769I-508J0D01*
G01*
X216535Y186309D02*
G03*
X216535Y186309I-508J0D01*
G01*
X213995D02*
G03*
X213995Y186309I-508J0D01*
G01*
X216535Y188849D02*
G03*
X216535Y188849I-508J0D01*
G01*
X213995D02*
G03*
X213995Y188849I-508J0D01*
G01*
X216535Y191389D02*
G03*
X216535Y191389I-508J0D01*
G01*
X213995D02*
G03*
X213995Y191389I-508J0D01*
G01*
X216535Y193929D02*
G03*
X216535Y193929I-508J0D01*
G01*
X213995D02*
G03*
X213995Y193929I-508J0D01*
G01*
X216535Y196469D02*
G03*
X216535Y196469I-508J0D01*
G01*
X213995D02*
G03*
X213995Y196469I-508J0D01*
G01*
X216535Y199009D02*
G03*
X216535Y199009I-508J0D01*
G01*
X213995D02*
G03*
X213995Y199009I-508J0D01*
G01*
X216535Y201549D02*
G03*
X216535Y201549I-508J0D01*
G01*
X213995D02*
G03*
X213995Y201549I-508J0D01*
G01*
X216535Y204089D02*
G03*
X216535Y204089I-508J0D01*
G01*
X213995D02*
G03*
X213995Y204089I-508J0D01*
G01*
X216535Y206629D02*
G03*
X216535Y206629I-508J0D01*
G01*
X213995D02*
G03*
X213995Y206629I-508J0D01*
G01*
X216535Y209169D02*
G03*
X216535Y209169I-508J0D01*
G01*
X213995D02*
G03*
X213995Y209169I-508J0D01*
G01*
X216535Y211709D02*
G03*
X216535Y211709I-508J0D01*
G01*
X213995D02*
G03*
X213995Y211709I-508J0D01*
G01*
X267335Y150749D02*
G03*
X267335Y150749I-508J0D01*
G01*
X264795D02*
G03*
X264795Y150749I-508J0D01*
G01*
X267335Y153289D02*
G03*
X267335Y153289I-508J0D01*
G01*
X264795D02*
G03*
X264795Y153289I-508J0D01*
G01*
X267335Y155829D02*
G03*
X267335Y155829I-508J0D01*
G01*
X264795D02*
G03*
X264795Y155829I-508J0D01*
G01*
X267335Y158369D02*
G03*
X267335Y158369I-508J0D01*
G01*
X264795D02*
G03*
X264795Y158369I-508J0D01*
G01*
X267335Y160909D02*
G03*
X267335Y160909I-508J0D01*
G01*
X264795D02*
G03*
X264795Y160909I-508J0D01*
G01*
X267335Y163449D02*
G03*
X267335Y163449I-508J0D01*
G01*
X264795D02*
G03*
X264795Y163449I-508J0D01*
G01*
X267335Y165989D02*
G03*
X267335Y165989I-508J0D01*
G01*
X264795D02*
G03*
X264795Y165989I-508J0D01*
G01*
X267335Y168529D02*
G03*
X267335Y168529I-508J0D01*
G01*
X264795D02*
G03*
X264795Y168529I-508J0D01*
G01*
X267335Y171069D02*
G03*
X267335Y171069I-508J0D01*
G01*
X264795D02*
G03*
X264795Y171069I-508J0D01*
G01*
X267335Y173609D02*
G03*
X267335Y173609I-508J0D01*
G01*
X264795D02*
G03*
X264795Y173609I-508J0D01*
G01*
X267335Y176149D02*
G03*
X267335Y176149I-508J0D01*
G01*
X264795D02*
G03*
X264795Y176149I-508J0D01*
G01*
X267335Y178689D02*
G03*
X267335Y178689I-508J0D01*
G01*
X264795D02*
G03*
X264795Y178689I-508J0D01*
G01*
X267335Y181229D02*
G03*
X267335Y181229I-508J0D01*
G01*
X264795D02*
G03*
X264795Y181229I-508J0D01*
G01*
X267335Y183769D02*
G03*
X267335Y183769I-508J0D01*
G01*
X264795D02*
G03*
X264795Y183769I-508J0D01*
G01*
X267335Y186309D02*
G03*
X267335Y186309I-508J0D01*
G01*
X264795D02*
G03*
X264795Y186309I-508J0D01*
G01*
X267335Y188849D02*
G03*
X267335Y188849I-508J0D01*
G01*
X264795D02*
G03*
X264795Y188849I-508J0D01*
G01*
X267335Y191389D02*
G03*
X267335Y191389I-508J0D01*
G01*
X264795D02*
G03*
X264795Y191389I-508J0D01*
G01*
X267335Y193929D02*
G03*
X267335Y193929I-508J0D01*
G01*
X264795D02*
G03*
X264795Y193929I-508J0D01*
G01*
X267335Y196469D02*
G03*
X267335Y196469I-508J0D01*
G01*
X264795D02*
G03*
X264795Y196469I-508J0D01*
G01*
X267335Y199009D02*
G03*
X267335Y199009I-508J0D01*
G01*
X264795D02*
G03*
X264795Y199009I-508J0D01*
G01*
X267335Y201549D02*
G03*
X267335Y201549I-508J0D01*
G01*
X264795D02*
G03*
X264795Y201549I-508J0D01*
G01*
X267335Y204089D02*
G03*
X267335Y204089I-508J0D01*
G01*
X264795D02*
G03*
X264795Y204089I-508J0D01*
G01*
X267335Y206629D02*
G03*
X267335Y206629I-508J0D01*
G01*
X264795D02*
G03*
X264795Y206629I-508J0D01*
G01*
X267335Y209169D02*
G03*
X267335Y209169I-508J0D01*
G01*
X264795D02*
G03*
X264795Y209169I-508J0D01*
G01*
X267335Y211709D02*
G03*
X267335Y211709I-508J0D01*
G01*
X264795D02*
G03*
X264795Y211709I-508J0D01*
G01*
X163703Y144780D02*
G03*
X163703Y144780I-508J0D01*
G01*
Y147320D02*
G03*
X163703Y147320I-508J0D01*
G01*
Y149860D02*
G03*
X163703Y149860I-508J0D01*
G01*
Y152400D02*
G03*
X163703Y152400I-508J0D01*
G01*
X320167Y75311D02*
G03*
X320167Y75311I-508J0D01*
G01*
Y82931D02*
G03*
X320167Y82931I-508J0D01*
G01*
X300482Y175006D02*
G03*
X300482Y175006I-508J0D01*
G01*
X303022D02*
G03*
X303022Y175006I-508J0D01*
G01*
X305562D02*
G03*
X305562Y175006I-508J0D01*
G01*
X308102D02*
G03*
X308102Y175006I-508J0D01*
G01*
X310642D02*
G03*
X310642Y175006I-508J0D01*
G01*
X313182D02*
G03*
X313182Y175006I-508J0D01*
G01*
X315722D02*
G03*
X315722Y175006I-508J0D01*
G01*
X300482Y182626D02*
G03*
X300482Y182626I-508J0D01*
G01*
X303022D02*
G03*
X303022Y182626I-508J0D01*
G01*
X305562D02*
G03*
X305562Y182626I-508J0D01*
G01*
X308102D02*
G03*
X308102Y182626I-508J0D01*
G01*
X310642D02*
G03*
X310642Y182626I-508J0D01*
G01*
X313182D02*
G03*
X313182Y182626I-508J0D01*
G01*
X315722D02*
G03*
X315722Y182626I-508J0D01*
G01*
X329438Y163068D02*
G03*
X329438Y163068I-508J0D01*
G01*
Y165608D02*
G03*
X329438Y165608I-508J0D01*
G01*
Y168148D02*
G03*
X329438Y168148I-508J0D01*
G01*
Y170688D02*
G03*
X329438Y170688I-508J0D01*
G01*
Y173228D02*
G03*
X329438Y173228I-508J0D01*
G01*
Y175768D02*
G03*
X329438Y175768I-508J0D01*
G01*
Y178308D02*
G03*
X329438Y178308I-508J0D01*
G01*
Y180848D02*
G03*
X329438Y180848I-508J0D01*
G01*
X300355Y205740D02*
G03*
X300355Y205740I-508J0D01*
G01*
X302895D02*
G03*
X302895Y205740I-508J0D01*
G01*
X305435D02*
G03*
X305435Y205740I-508J0D01*
G01*
X307975D02*
G03*
X307975Y205740I-508J0D01*
G01*
X310515D02*
G03*
X310515Y205740I-508J0D01*
G01*
X313055D02*
G03*
X313055Y205740I-508J0D01*
G01*
X315595D02*
G03*
X315595Y205740I-508J0D01*
G01*
X300355Y213360D02*
G03*
X300355Y213360I-508J0D01*
G01*
X302895D02*
G03*
X302895Y213360I-508J0D01*
G01*
X305435D02*
G03*
X305435Y213360I-508J0D01*
G01*
X307975D02*
G03*
X307975Y213360I-508J0D01*
G01*
X310515D02*
G03*
X310515Y213360I-508J0D01*
G01*
X313055D02*
G03*
X313055Y213360I-508J0D01*
G01*
X315595D02*
G03*
X315595Y213360I-508J0D01*
G01*
X329438Y101346D02*
G03*
X329438Y101346I-508J0D01*
G01*
Y98806D02*
G03*
X329438Y98806I-508J0D01*
G01*
Y96266D02*
G03*
X329438Y96266I-508J0D01*
G01*
Y93726D02*
G03*
X329438Y93726I-508J0D01*
G01*
Y81788D02*
G03*
X329438Y81788I-508J0D01*
G01*
Y79248D02*
G03*
X329438Y79248I-508J0D01*
G01*
Y76708D02*
G03*
X329438Y76708I-508J0D01*
G01*
Y74168D02*
G03*
X329438Y74168I-508J0D01*
G01*
X319913Y92456D02*
G03*
X319913Y92456I-508J0D01*
G01*
Y100076D02*
G03*
X319913Y100076I-508J0D01*
G01*
X182499Y63373D02*
G03*
X182499Y63373I-508J0D01*
G01*
X179959D02*
G03*
X179959Y63373I-508J0D01*
G01*
X182499Y65913D02*
G03*
X182499Y65913I-508J0D01*
G01*
X179959D02*
G03*
X179959Y65913I-508J0D01*
G01*
X182499Y68453D02*
G03*
X182499Y68453I-508J0D01*
G01*
X179959D02*
G03*
X179959Y68453I-508J0D01*
G01*
X182499Y70993D02*
G03*
X182499Y70993I-508J0D01*
G01*
X179959D02*
G03*
X179959Y70993I-508J0D01*
G01*
X182499Y73533D02*
G03*
X182499Y73533I-508J0D01*
G01*
X179959D02*
G03*
X179959Y73533I-508J0D01*
G01*
X177673Y124079D02*
G03*
X177673Y124079I-508J0D01*
G01*
Y131699D02*
G03*
X177673Y131699I-508J0D01*
G01*
X173990D02*
G03*
X173990Y131699I-508J0D01*
G01*
Y124079D02*
G03*
X173990Y124079I-508J0D01*
G01*
X163703Y120650D02*
G03*
X163703Y120650I-508J0D01*
G01*
Y123190D02*
G03*
X163703Y123190I-508J0D01*
G01*
Y125730D02*
G03*
X163703Y125730I-508J0D01*
G01*
Y128270D02*
G03*
X163703Y128270I-508J0D01*
G01*
Y130810D02*
G03*
X163703Y130810I-508J0D01*
G01*
X170180Y124079D02*
G03*
X170180Y124079I-508J0D01*
G01*
Y131699D02*
G03*
X170180Y131699I-508J0D01*
G01*
X163703Y98552D02*
G03*
X163703Y98552I-508J0D01*
G01*
Y101092D02*
G03*
X163703Y101092I-508J0D01*
G01*
Y103632D02*
G03*
X163703Y103632I-508J0D01*
G01*
Y106172D02*
G03*
X163703Y106172I-508J0D01*
G01*
Y108712D02*
G03*
X163703Y108712I-508J0D01*
G01*
X207645Y197358D02*
G03*
X207645Y197358I-508J0D01*
G01*
Y204978D02*
G03*
X207645Y204978I-508J0D01*
G01*
X186817Y196215D02*
G03*
X186817Y196215I-508J0D01*
G01*
X189357D02*
G03*
X189357Y196215I-508J0D01*
G01*
X191897D02*
G03*
X191897Y196215I-508J0D01*
G01*
X194437D02*
G03*
X194437Y196215I-508J0D01*
G01*
X186817Y203835D02*
G03*
X186817Y203835I-508J0D01*
G01*
X189357D02*
G03*
X189357Y203835I-508J0D01*
G01*
X191897D02*
G03*
X191897Y203835I-508J0D01*
G01*
X194437D02*
G03*
X194437Y203835I-508J0D01*
G01*
X199136Y197358D02*
G03*
X199136Y197358I-508J0D01*
G01*
Y204978D02*
G03*
X199136Y204978I-508J0D01*
G01*
X202057D02*
G03*
X202057Y204978I-508J0D01*
G01*
Y197358D02*
G03*
X202057Y197358I-508J0D01*
G01*
X204851Y204978D02*
G03*
X204851Y204978I-508J0D01*
G01*
Y197358D02*
G03*
X204851Y197358I-508J0D01*
G01*
X169418Y229489D02*
G03*
X169418Y229489I-508J0D01*
G01*
Y221869D02*
G03*
X169418Y221869I-508J0D01*
G01*
X300355Y236601D02*
G03*
X300355Y236601I-508J0D01*
G01*
X302895D02*
G03*
X302895Y236601I-508J0D01*
G01*
X305435D02*
G03*
X305435Y236601I-508J0D01*
G01*
X307975D02*
G03*
X307975Y236601I-508J0D01*
G01*
X310515D02*
G03*
X310515Y236601I-508J0D01*
G01*
X313055D02*
G03*
X313055Y236601I-508J0D01*
G01*
X315595D02*
G03*
X315595Y236601I-508J0D01*
G01*
X300355Y244221D02*
G03*
X300355Y244221I-508J0D01*
G01*
X302895D02*
G03*
X302895Y244221I-508J0D01*
G01*
X305435D02*
G03*
X305435Y244221I-508J0D01*
G01*
X307975D02*
G03*
X307975Y244221I-508J0D01*
G01*
X310515D02*
G03*
X310515Y244221I-508J0D01*
G01*
X313055D02*
G03*
X313055Y244221I-508J0D01*
G01*
X315595D02*
G03*
X315595Y244221I-508J0D01*
G01*
X329438Y224028D02*
G03*
X329438Y224028I-508J0D01*
G01*
Y226568D02*
G03*
X329438Y226568I-508J0D01*
G01*
Y229108D02*
G03*
X329438Y229108I-508J0D01*
G01*
Y231648D02*
G03*
X329438Y231648I-508J0D01*
G01*
Y234188D02*
G03*
X329438Y234188I-508J0D01*
G01*
Y236728D02*
G03*
X329438Y236728I-508J0D01*
G01*
Y239268D02*
G03*
X329438Y239268I-508J0D01*
G01*
Y241808D02*
G03*
X329438Y241808I-508J0D01*
G01*
Y193802D02*
G03*
X329438Y193802I-508J0D01*
G01*
Y196342D02*
G03*
X329438Y196342I-508J0D01*
G01*
Y198882D02*
G03*
X329438Y198882I-508J0D01*
G01*
Y201422D02*
G03*
X329438Y201422I-508J0D01*
G01*
Y203962D02*
G03*
X329438Y203962I-508J0D01*
G01*
Y206502D02*
G03*
X329438Y206502I-508J0D01*
G01*
Y209042D02*
G03*
X329438Y209042I-508J0D01*
G01*
Y211582D02*
G03*
X329438Y211582I-508J0D01*
G01*
X311404Y145415D02*
G03*
X311404Y145415I-508J0D01*
G01*
Y153035D02*
G03*
X311404Y153035I-508J0D01*
G01*
X320802D02*
G03*
X320802Y153035I-508J0D01*
G01*
Y145415D02*
G03*
X320802Y145415I-508J0D01*
G01*
X308229Y153035D02*
G03*
X308229Y153035I-508J0D01*
G01*
Y145415D02*
G03*
X308229Y145415I-508J0D01*
G01*
X298958D02*
G03*
X298958Y145415I-508J0D01*
G01*
Y153035D02*
G03*
X298958Y153035I-508J0D01*
G01*
X308229Y129032D02*
G03*
X308229Y129032I-508J0D01*
G01*
Y136652D02*
G03*
X308229Y136652I-508J0D01*
G01*
X311404Y129032D02*
G03*
X311404Y129032I-508J0D01*
G01*
Y136652D02*
G03*
X311404Y136652I-508J0D01*
G01*
X298958Y129032D02*
G03*
X298958Y129032I-508J0D01*
G01*
Y136652D02*
G03*
X298958Y136652I-508J0D01*
G01*
X320802D02*
G03*
X320802Y136652I-508J0D01*
G01*
Y129032D02*
G03*
X320802Y129032I-508J0D01*
G01*
X298958Y112014D02*
G03*
X298958Y112014I-508J0D01*
G01*
Y119634D02*
G03*
X298958Y119634I-508J0D01*
G01*
X308229Y112014D02*
G03*
X308229Y112014I-508J0D01*
G01*
Y119634D02*
G03*
X308229Y119634I-508J0D01*
G01*
X311404Y112014D02*
G03*
X311404Y112014I-508J0D01*
G01*
Y119634D02*
G03*
X311404Y119634I-508J0D01*
G01*
X320802D02*
G03*
X320802Y119634I-508J0D01*
G01*
Y112014D02*
G03*
X320802Y112014I-508J0D01*
G01*
X190246Y237363D02*
G03*
X190246Y237363I-508J0D01*
G01*
X197866D02*
G03*
X197866Y237363I-508J0D01*
G01*
X172180Y221869D02*
G03*
X172180Y221869I-508J0D01*
G01*
Y229489D02*
G03*
X172180Y229489I-508J0D01*
G01*
X174943Y221869D02*
G03*
X174943Y221869I-508J0D01*
G01*
Y229489D02*
G03*
X174943Y229489I-508J0D01*
G01*
X177705Y221869D02*
G03*
X177705Y221869I-508J0D01*
G01*
Y229489D02*
G03*
X177705Y229489I-508J0D01*
G01*
X180467D02*
G03*
X180467Y229489I-508J0D01*
G01*
Y221869D02*
G03*
X180467Y221869I-508J0D01*
G01*
X175514Y106426D02*
G03*
X175514Y106426I-508J0D01*
G01*
Y114046D02*
G03*
X175514Y114046I-508J0D01*
G01*
X177673Y116840D02*
G03*
X177673Y116840I-508J0D01*
G01*
X170053D02*
G03*
X170053Y116840I-508J0D01*
G01*
X171831Y106426D02*
G03*
X171831Y106426I-508J0D01*
G01*
Y114046D02*
G03*
X171831Y114046I-508J0D01*
G01*
D81*
X207442Y197358D02*
G03*
X207442Y197358I-305J0D01*
G01*
Y204978D02*
G03*
X207442Y204978I-305J0D01*
G01*
X198933Y197358D02*
G03*
X198933Y197358I-305J0D01*
G01*
Y204978D02*
G03*
X198933Y204978I-305J0D01*
G01*
X201854D02*
G03*
X201854Y204978I-305J0D01*
G01*
Y197358D02*
G03*
X201854Y197358I-305J0D01*
G01*
X204648Y204978D02*
G03*
X204648Y204978I-305J0D01*
G01*
Y197358D02*
G03*
X204648Y197358I-305J0D01*
G01*
M02*
