%FSLAX44Y44*%
%MOMM*%
G71*
G01*
G75*
G04 Layer_Color=48896*
%ADD10P,3.2472X8X22.5*%
%ADD11C,2.0000*%
%ADD12C,3.0480*%
%ADD13P,3.2992X8X112.5*%
%ADD14C,1.4000*%
%ADD15C,1.5240*%
%ADD16P,1.6496X8X202.5*%
%ADD17C,3.0000*%
%ADD18P,4.3296X8X202.5*%
%ADD19C,1.0000*%
%ADD20C,2.0000*%
%ADD21C,0.1524*%
%ADD22C,0.2540*%
%ADD23C,0.2000*%
%ADD24C,0.3000*%
%ADD25P,3.4671X8X22.5*%
%ADD26C,2.2032*%
%ADD27C,3.2512*%
%ADD28P,3.5191X8X112.5*%
%ADD29C,1.6032*%
%ADD30C,1.7272*%
%ADD31P,1.8695X8X202.5*%
%ADD32C,3.2032*%
%ADD33P,4.5495X8X202.5*%
D21*
X2321812Y2175902D02*
Y2180980D01*
Y2178441D01*
X2306577D01*
X2309116Y2175902D01*
Y2188598D02*
X2306577Y2191137D01*
Y2196215D01*
X2309116Y2198754D01*
X2319272D01*
X2321812Y2196215D01*
Y2191137D01*
X2319272Y2188598D01*
X2309116D01*
X2321812Y2203833D02*
X2319272D01*
Y2206372D01*
X2321812D01*
Y2203833D01*
X2309116Y2216528D02*
X2306577Y2219068D01*
Y2224146D01*
X2309116Y2226685D01*
X2319272D01*
X2321812Y2224146D01*
Y2219068D01*
X2319272Y2216528D01*
X2309116D01*
Y2231764D02*
X2306577Y2234303D01*
Y2239381D01*
X2309116Y2241920D01*
X2311655D01*
X2314194Y2239381D01*
Y2236842D01*
Y2239381D01*
X2316733Y2241920D01*
X2319272D01*
X2321812Y2239381D01*
Y2234303D01*
X2319272Y2231764D01*
X1357385Y2308609D02*
Y2323844D01*
X1349767Y2316226D01*
X1359924D01*
X1365002Y2311148D02*
X1367541Y2308609D01*
X1372620D01*
X1375159Y2311148D01*
Y2321304D01*
X1372620Y2323844D01*
X1367541D01*
X1365002Y2321304D01*
Y2318765D01*
X1367541Y2316226D01*
X1375159D01*
X1380237Y2308609D02*
Y2311148D01*
X1382776D01*
Y2308609D01*
X1380237D01*
X1392933Y2321304D02*
X1395472Y2323844D01*
X1400551D01*
X1403090Y2321304D01*
Y2311148D01*
X1400551Y2308609D01*
X1395472D01*
X1392933Y2311148D01*
Y2321304D01*
X1418325Y2308609D02*
X1408168D01*
X1418325Y2318765D01*
Y2321304D01*
X1415786Y2323844D01*
X1410707D01*
X1408168Y2321304D01*
X552778Y215648D02*
X557856D01*
X555317D01*
Y230884D01*
X552778Y228344D01*
X575630Y230884D02*
X565474D01*
Y223266D01*
X570552Y225805D01*
X573091D01*
X575630Y223266D01*
Y218188D01*
X573091Y215648D01*
X568013D01*
X565474Y218188D01*
X580709Y215648D02*
Y218188D01*
X583248D01*
Y215648D01*
X580709D01*
X593405D02*
X598483D01*
X595944D01*
Y230884D01*
X593405Y228344D01*
X606101D02*
X608640Y230884D01*
X613718D01*
X616257Y228344D01*
Y218188D01*
X613718Y215648D01*
X608640D01*
X606101Y218188D01*
Y228344D01*
X1345958Y2355598D02*
X1351037D01*
X1348497D01*
Y2370833D01*
X1345958Y2368294D01*
X1358654Y2370833D02*
X1368811D01*
Y2368294D01*
X1358654Y2358138D01*
Y2355598D01*
X1384046Y2370833D02*
X1373889D01*
Y2363216D01*
X1378968Y2365755D01*
X1381507D01*
X1384046Y2363216D01*
Y2358138D01*
X1381507Y2355598D01*
X1376429D01*
X1373889Y2358138D01*
X1389124Y2355598D02*
Y2358138D01*
X1391664D01*
Y2355598D01*
X1389124D01*
X1401820Y2368294D02*
X1404359Y2370833D01*
X1409438D01*
X1411977Y2368294D01*
Y2358138D01*
X1409438Y2355598D01*
X1404359D01*
X1401820Y2358138D01*
Y2368294D01*
X1417055Y2355598D02*
X1422134D01*
X1419595D01*
Y2370833D01*
X1417055Y2368294D01*
X2460242Y1248804D02*
Y1253883D01*
Y1251343D01*
X2445007D01*
X2447546Y1248804D01*
X2457702Y1261500D02*
X2460242Y1264039D01*
Y1269118D01*
X2457702Y1271657D01*
X2447546D01*
X2445007Y1269118D01*
Y1264039D01*
X2447546Y1261500D01*
X2450085D01*
X2452624Y1264039D01*
Y1271657D01*
X2447546Y1276735D02*
X2445007Y1279274D01*
Y1284353D01*
X2447546Y1286892D01*
X2450085D01*
X2452624Y1284353D01*
Y1281813D01*
Y1284353D01*
X2455163Y1286892D01*
X2457702D01*
X2460242Y1284353D01*
Y1279274D01*
X2457702Y1276735D01*
X2460242Y1291970D02*
X2457702D01*
Y1294509D01*
X2460242D01*
Y1291970D01*
X2457702Y1304666D02*
X2460242Y1307205D01*
Y1312284D01*
X2457702Y1314823D01*
X2447546D01*
X2445007Y1312284D01*
Y1307205D01*
X2447546Y1304666D01*
X2450085D01*
X2452624Y1307205D01*
Y1314823D01*
X2447546Y1319901D02*
X2445007Y1322440D01*
Y1327519D01*
X2447546Y1330058D01*
X2450085D01*
X2452624Y1327519D01*
Y1324980D01*
Y1327519D01*
X2455163Y1330058D01*
X2457702D01*
X2460242Y1327519D01*
Y1322440D01*
X2457702Y1319901D01*
X2151835Y257558D02*
X2156913D01*
X2154374D01*
Y272794D01*
X2151835Y270254D01*
X2174687Y272794D02*
X2164531D01*
Y265176D01*
X2169609Y267715D01*
X2172148D01*
X2174687Y265176D01*
Y260098D01*
X2172148Y257558D01*
X2167070D01*
X2164531Y260098D01*
X2179766Y257558D02*
Y260098D01*
X2182305D01*
Y257558D01*
X2179766D01*
X2192462D02*
X2197540D01*
X2195001D01*
Y272794D01*
X2192462Y270254D01*
X2205157D02*
X2207697Y272794D01*
X2212775D01*
X2215314Y270254D01*
Y260098D01*
X2212775Y257558D01*
X2207697D01*
X2205157Y260098D01*
Y270254D01*
X2023724Y2290829D02*
Y2306064D01*
X2016107Y2298446D01*
X2026263D01*
X2031342Y2290829D02*
X2036420D01*
X2033881D01*
Y2306064D01*
X2031342Y2303524D01*
X2044038Y2290829D02*
Y2293368D01*
X2046577D01*
Y2290829D01*
X2044038D01*
X2056734Y2293368D02*
X2059273Y2290829D01*
X2064351D01*
X2066890Y2293368D01*
Y2303524D01*
X2064351Y2306064D01*
X2059273D01*
X2056734Y2303524D01*
Y2300985D01*
X2059273Y2298446D01*
X2066890D01*
X2071969Y2293368D02*
X2074508Y2290829D01*
X2079586D01*
X2082125Y2293368D01*
Y2303524D01*
X2079586Y2306064D01*
X2074508D01*
X2071969Y2303524D01*
Y2300985D01*
X2074508Y2298446D01*
X2082125D01*
X693584Y2311149D02*
Y2326384D01*
X685967Y2318766D01*
X696123D01*
X701202Y2311149D02*
X706280D01*
X703741D01*
Y2326384D01*
X701202Y2323844D01*
X713898Y2311149D02*
Y2313688D01*
X716437D01*
Y2311149D01*
X713898D01*
X726593Y2313688D02*
X729133Y2311149D01*
X734211D01*
X736750Y2313688D01*
Y2323844D01*
X734211Y2326384D01*
X729133D01*
X726593Y2323844D01*
Y2321305D01*
X729133Y2318766D01*
X736750D01*
X741829Y2313688D02*
X744368Y2311149D01*
X749446D01*
X751985Y2313688D01*
Y2323844D01*
X749446Y2326384D01*
X744368D01*
X741829Y2323844D01*
Y2321305D01*
X744368Y2318766D01*
X751985D01*
X435862Y366215D02*
Y371293D01*
Y368754D01*
X420626D01*
X423166Y366215D01*
X420626Y389068D02*
Y378911D01*
X428244D01*
X425705Y383989D01*
Y386529D01*
X428244Y389068D01*
X433322D01*
X435862Y386529D01*
Y381450D01*
X433322Y378911D01*
X435862Y394146D02*
X433322D01*
Y396685D01*
X435862D01*
Y394146D01*
X423166Y406842D02*
X420626Y409381D01*
Y414459D01*
X423166Y416999D01*
X425705D01*
X428244Y414459D01*
X430783Y416999D01*
X433322D01*
X435862Y414459D01*
Y409381D01*
X433322Y406842D01*
X430783D01*
X428244Y409381D01*
X425705Y406842D01*
X423166D01*
X428244Y409381D02*
Y414459D01*
X433322Y422077D02*
X435862Y424616D01*
Y429695D01*
X433322Y432234D01*
X423166D01*
X420626Y429695D01*
Y424616D01*
X423166Y422077D01*
X425705D01*
X428244Y424616D01*
Y432234D01*
X2390392Y366723D02*
Y371801D01*
Y369262D01*
X2375157D01*
X2377696Y366723D01*
X2375157Y389576D02*
Y379419D01*
X2382774D01*
X2380235Y384497D01*
Y387037D01*
X2382774Y389576D01*
X2387852D01*
X2390392Y387037D01*
Y381958D01*
X2387852Y379419D01*
X2390392Y394654D02*
X2387852D01*
Y397193D01*
X2390392D01*
Y394654D01*
X2387852Y407350D02*
X2390392Y409889D01*
Y414967D01*
X2387852Y417507D01*
X2377696D01*
X2375157Y414967D01*
Y409889D01*
X2377696Y407350D01*
X2380235D01*
X2382774Y409889D01*
Y417507D01*
X2387852Y422585D02*
X2390392Y425124D01*
Y430203D01*
X2387852Y432742D01*
X2377696D01*
X2375157Y430203D01*
Y425124D01*
X2377696Y422585D01*
X2380235D01*
X2382774Y425124D01*
Y432742D01*
X2433571Y336942D02*
Y342020D01*
Y339481D01*
X2418336D01*
X2420876Y336942D01*
Y349638D02*
X2418336Y352177D01*
Y357255D01*
X2420876Y359794D01*
X2431032D01*
X2433571Y357255D01*
Y352177D01*
X2431032Y349638D01*
X2420876D01*
X2433571Y364873D02*
X2431032D01*
Y367412D01*
X2433571D01*
Y364873D01*
X2420876Y377569D02*
X2418336Y380108D01*
Y385186D01*
X2420876Y387725D01*
X2431032D01*
X2433571Y385186D01*
Y380108D01*
X2431032Y377569D01*
X2420876D01*
Y392804D02*
X2418336Y395343D01*
Y400421D01*
X2420876Y402960D01*
X2423415D01*
X2425954Y400421D01*
Y397882D01*
Y400421D01*
X2428493Y402960D01*
X2431032D01*
X2433571Y400421D01*
Y395343D01*
X2431032Y392804D01*
X404112Y2141675D02*
Y2146754D01*
Y2144214D01*
X388876D01*
X391416Y2141675D01*
X388876Y2164528D02*
X391416Y2159449D01*
X396494Y2154371D01*
X401572D01*
X404112Y2156910D01*
Y2161989D01*
X401572Y2164528D01*
X399033D01*
X396494Y2161989D01*
Y2154371D01*
X404112Y2169606D02*
X401572D01*
Y2172145D01*
X404112D01*
Y2169606D01*
X391416Y2182302D02*
X388876Y2184841D01*
Y2189919D01*
X391416Y2192459D01*
X393955D01*
X396494Y2189919D01*
X399033Y2192459D01*
X401572D01*
X404112Y2189919D01*
Y2184841D01*
X401572Y2182302D01*
X399033D01*
X396494Y2184841D01*
X393955Y2182302D01*
X391416D01*
X396494Y2184841D02*
Y2189919D01*
X391416Y2197537D02*
X388876Y2200076D01*
Y2205155D01*
X391416Y2207694D01*
X393955D01*
X396494Y2205155D01*
X399033Y2207694D01*
X401572D01*
X404112Y2205155D01*
Y2200076D01*
X401572Y2197537D01*
X399033D01*
X396494Y2200076D01*
X393955Y2197537D01*
X391416D01*
X396494Y2200076D02*
Y2205155D01*
X2352292Y2141548D02*
Y2146626D01*
Y2144087D01*
X2337056D01*
X2339596Y2141548D01*
X2337056Y2164401D02*
X2339596Y2159322D01*
X2344674Y2154244D01*
X2349752D01*
X2352292Y2156783D01*
Y2161862D01*
X2349752Y2164401D01*
X2347213D01*
X2344674Y2161862D01*
Y2154244D01*
X2352292Y2169479D02*
X2349752D01*
Y2172018D01*
X2352292D01*
Y2169479D01*
X2349752Y2182175D02*
X2352292Y2184714D01*
Y2189792D01*
X2349752Y2192332D01*
X2339596D01*
X2337056Y2189792D01*
Y2184714D01*
X2339596Y2182175D01*
X2342135D01*
X2344674Y2184714D01*
Y2192332D01*
X2339596Y2197410D02*
X2337056Y2199949D01*
Y2205028D01*
X2339596Y2207567D01*
X2349752D01*
X2352292Y2205028D01*
Y2199949D01*
X2349752Y2197410D01*
X2339596D01*
X452892Y2213361D02*
X455431Y2208283D01*
X460509Y2203204D01*
X465588D01*
X468127Y2205743D01*
Y2210822D01*
X465588Y2213361D01*
X463049D01*
X460509Y2210822D01*
Y2203204D01*
X468127Y2218439D02*
X465588D01*
Y2220979D01*
X468127D01*
Y2218439D01*
Y2231135D02*
Y2236214D01*
Y2233674D01*
X452892D01*
X455431Y2231135D01*
Y2243831D02*
X452892Y2246370D01*
Y2251449D01*
X455431Y2253988D01*
X465588D01*
X468127Y2251449D01*
Y2246370D01*
X465588Y2243831D01*
X455431D01*
X522360Y2449059D02*
X524899Y2451598D01*
X529977D01*
X532516Y2449059D01*
Y2446520D01*
X529977Y2443981D01*
X532516Y2441441D01*
Y2438902D01*
X529977Y2436363D01*
X524899D01*
X522360Y2438902D01*
Y2441441D01*
X524899Y2443981D01*
X522360Y2446520D01*
Y2449059D01*
X524899Y2443981D02*
X529977D01*
X537595Y2436363D02*
Y2438902D01*
X540134D01*
Y2436363D01*
X537595D01*
X550291Y2449059D02*
X552830Y2451598D01*
X557908D01*
X560447Y2449059D01*
Y2438902D01*
X557908Y2436363D01*
X552830D01*
X550291Y2438902D01*
Y2449059D01*
X565526D02*
X568065Y2451598D01*
X573143D01*
X575682Y2449059D01*
Y2438902D01*
X573143Y2436363D01*
X568065D01*
X565526Y2438902D01*
Y2449059D01*
X2192410Y284740D02*
X2194949Y287279D01*
X2200027D01*
X2202566Y284740D01*
Y282201D01*
X2200027Y279661D01*
X2202566Y277122D01*
Y274583D01*
X2200027Y272044D01*
X2194949D01*
X2192410Y274583D01*
Y277122D01*
X2194949Y279661D01*
X2192410Y282201D01*
Y284740D01*
X2194949Y279661D02*
X2200027D01*
X2207645Y272044D02*
Y274583D01*
X2210184D01*
Y272044D01*
X2207645D01*
X2220341Y284740D02*
X2222880Y287279D01*
X2227958D01*
X2230497Y284740D01*
Y274583D01*
X2227958Y272044D01*
X2222880D01*
X2220341Y274583D01*
Y284740D01*
X2235576D02*
X2238115Y287279D01*
X2243193D01*
X2245732Y284740D01*
Y274583D01*
X2243193Y272044D01*
X2238115D01*
X2235576Y274583D01*
Y284740D01*
X2336541Y335031D02*
X2339080Y329953D01*
X2344159Y324874D01*
X2349237D01*
X2351776Y327413D01*
Y332492D01*
X2349237Y335031D01*
X2346698D01*
X2344159Y332492D01*
Y324874D01*
X2351776Y340109D02*
X2349237D01*
Y342649D01*
X2351776D01*
Y340109D01*
Y352805D02*
Y357883D01*
Y355344D01*
X2336541D01*
X2339080Y352805D01*
Y365501D02*
X2336541Y368040D01*
Y373119D01*
X2339080Y375658D01*
X2349237D01*
X2351776Y373119D01*
Y368040D01*
X2349237Y365501D01*
X2339080D01*
D22*
X2266950Y2263140D02*
X2315210D01*
X1493106Y2162810D02*
X2315210D01*
X2312670Y2245984D02*
Y2263140D01*
Y2162810D02*
Y2171838D01*
X2307590Y2247900D02*
X2312670Y2263140D01*
X2317750Y2247900D01*
X2312670Y2162810D02*
X2317750Y2178050D01*
X2307590D02*
X2312670Y2162810D01*
X1633220Y2189004D02*
Y2320290D01*
X1143000Y2177322D02*
Y2320290D01*
X1422389Y2317750D02*
X1633220D01*
X1143000D02*
X1345703D01*
X1617980Y2322830D02*
X1633220Y2317750D01*
X1617980Y2312670D02*
X1633220Y2317750D01*
X1143000D02*
X1158240Y2312670D01*
X1143000Y2317750D02*
X1158240Y2322830D01*
X664083Y222250D02*
Y463931D01*
X513080Y222250D02*
Y320040D01*
X620321Y224790D02*
X664083D01*
X513080D02*
X548714D01*
X648843Y229870D02*
X664083Y224790D01*
X648843Y219710D02*
X664083Y224790D01*
X513080D02*
X528320Y219710D01*
X513080Y224790D02*
X528320Y229870D01*
X513080Y2266950D02*
Y2367280D01*
X2263140Y2266950D02*
Y2367280D01*
X513080Y2364740D02*
X1341894D01*
X1426198D02*
X2263140D01*
X513080D02*
X528320Y2359660D01*
X513080Y2364740D02*
X528320Y2369820D01*
X2247900D02*
X2263140Y2364740D01*
X2247900Y2359660D02*
X2263140Y2364740D01*
X2266950Y323850D02*
X2453640D01*
X2266950Y2263140D02*
X2453640D01*
X2451100Y323850D02*
Y1244740D01*
Y1334122D02*
Y2263140D01*
Y323850D02*
X2456180Y339090D01*
X2446020D02*
X2451100Y323850D01*
X2446020Y2247900D02*
X2451100Y2263140D01*
X2456180Y2247900D01*
X2263140Y264160D02*
Y320040D01*
X2112137Y264160D02*
Y464947D01*
X2219378Y266700D02*
X2263140D01*
X2112137D02*
X2147771D01*
X2247900Y271780D02*
X2263140Y266700D01*
X2247900Y261620D02*
X2263140Y266700D01*
X2112137D02*
X2127377Y261620D01*
X2112137Y266700D02*
X2127377Y271780D01*
X2263140Y2266950D02*
Y2302510D01*
X1843220Y2189004D02*
Y2302510D01*
X2086189Y2299970D02*
X2263140D01*
X1843220D02*
X2012043D01*
X2247900Y2305050D02*
X2263140Y2299970D01*
X2247900Y2294890D02*
X2263140Y2299970D01*
X1843220D02*
X1858460Y2294890D01*
X1843220Y2299970D02*
X1858460Y2305050D01*
X933000Y2177322D02*
Y2322830D01*
X513080Y2266950D02*
Y2322830D01*
X756049Y2320290D02*
X933000D01*
X513080D02*
X681903D01*
X917760Y2325370D02*
X933000Y2320290D01*
X917760Y2315210D02*
X933000Y2320290D01*
X513080D02*
X528320Y2315210D01*
X513080Y2320290D02*
X528320Y2325370D01*
X424180Y323850D02*
X509270D01*
X424180Y482727D02*
X645287D01*
X426720Y323850D02*
Y362151D01*
Y436298D02*
Y482727D01*
Y323850D02*
X431800Y339090D01*
X421640D02*
X426720Y323850D01*
X421640Y467487D02*
X426720Y482727D01*
X431800Y467487D01*
X2266950Y323850D02*
X2383790D01*
X2130933Y483743D02*
X2383790D01*
X2381250Y323850D02*
Y362659D01*
Y436806D02*
Y483743D01*
Y323850D02*
X2386330Y339090D01*
X2376170D02*
X2381250Y323850D01*
X2376170Y468503D02*
X2381250Y483743D01*
X2386330Y468503D01*
X2266950Y323850D02*
X2426970D01*
X1433106Y424180D02*
X2426970D01*
X2424430Y323850D02*
Y332878D01*
Y407024D02*
Y424180D01*
Y323850D02*
X2429510Y339090D01*
X2419350D02*
X2424430Y323850D01*
X2419350Y408940D02*
X2424430Y424180D01*
X2429510Y408940D01*
X392430Y2263140D02*
X509270D01*
X392430Y2094357D02*
X645287D01*
X394970Y2211758D02*
Y2263140D01*
Y2094357D02*
Y2137611D01*
X389890Y2247900D02*
X394970Y2263140D01*
X400050Y2247900D01*
X394970Y2094357D02*
X400050Y2109597D01*
X389890D02*
X394970Y2094357D01*
X2266950Y2263140D02*
X2345690D01*
X2130933Y2094103D02*
X2345690D01*
X2343150Y2211631D02*
Y2263140D01*
Y2094103D02*
Y2137484D01*
X2338070Y2247900D02*
X2343150Y2263140D01*
X2348230Y2247900D01*
X2343150Y2094103D02*
X2348230Y2109343D01*
X2338070D02*
X2343150Y2094103D01*
X483870Y2263140D02*
X509270D01*
X483870Y2202180D02*
X569534D01*
X486410Y2176780D02*
Y2202180D01*
Y2263140D02*
Y2288540D01*
X481330Y2186940D02*
X486410Y2202180D01*
X491490Y2186940D01*
X486410Y2263140D02*
X491490Y2278380D01*
X481330D02*
X486410Y2263140D01*
X513080Y2266950D02*
Y2420620D01*
X593090Y2225736D02*
Y2420620D01*
Y2418080D02*
X618490D01*
X487680D02*
X513080D01*
X593090D02*
X608330Y2413000D01*
X593090Y2418080D02*
X608330Y2423160D01*
X497840D02*
X513080Y2418080D01*
X497840Y2413000D02*
X513080Y2418080D01*
X2263140Y306070D02*
Y320040D01*
X2183130Y306070D02*
Y361254D01*
X2157730Y308610D02*
X2183130D01*
X2263140D02*
X2288540D01*
X2167890Y313690D02*
X2183130Y308610D01*
X2167890Y303530D02*
X2183130Y308610D01*
X2263140D02*
X2278380Y303530D01*
X2263140Y308610D02*
X2278380Y313690D01*
X2266950Y323850D02*
X2317750D01*
X2206686Y384810D02*
X2317750D01*
X2315210D02*
Y410210D01*
Y298450D02*
Y323850D01*
Y384810D02*
X2320290Y400050D01*
X2310130D02*
X2315210Y384810D01*
X2310130Y308610D02*
X2315210Y323850D01*
X2320290Y308610D01*
M02*
