%FSLAX44Y44*%
%MOMM*%
G71*
G01*
G75*
G04 Layer_Color=16711935*
%ADD10P,3.2472X8X22.5*%
%ADD11C,2.0000*%
%ADD12C,3.0480*%
%ADD13P,3.2992X8X112.5*%
%ADD14C,1.4000*%
%ADD15C,1.5240*%
%ADD16P,1.6496X8X202.5*%
%ADD17C,3.0000*%
%ADD18P,4.3296X8X202.5*%
%ADD19C,1.0000*%
%ADD20C,2.0000*%
%ADD21C,0.1524*%
%ADD22C,0.2540*%
%ADD23C,0.2000*%
%ADD24C,0.3000*%
%ADD25P,3.4671X8X22.5*%
%ADD26C,2.2032*%
%ADD27C,3.2512*%
%ADD28P,3.5191X8X112.5*%
%ADD29C,1.6032*%
%ADD30C,1.7272*%
%ADD31P,1.8695X8X202.5*%
%ADD32C,3.2032*%
%ADD33P,4.5495X8X202.5*%
D25*
X1539550Y424180D02*
D03*
X1239550D02*
D03*
X1539550Y2162810D02*
D03*
X1239550D02*
D03*
D26*
X1479550Y424180D02*
D03*
X1419550D02*
D03*
X1359550D02*
D03*
X1299550D02*
D03*
X1479550Y2162810D02*
D03*
X1419550D02*
D03*
X1359550D02*
D03*
X1299550D02*
D03*
D27*
X2112137Y1687703D02*
D03*
Y1586103D02*
D03*
X664083Y1637157D02*
D03*
Y1535557D02*
D03*
Y482727D02*
D03*
Y584327D02*
D03*
Y685927D02*
D03*
Y787527D02*
D03*
Y889127D02*
D03*
Y990727D02*
D03*
Y1092327D02*
D03*
Y1193927D02*
D03*
Y1295527D02*
D03*
Y1397127D02*
D03*
X2112137Y534543D02*
D03*
Y636143D02*
D03*
Y737743D02*
D03*
Y839343D02*
D03*
Y940943D02*
D03*
Y1042543D02*
D03*
Y1144143D02*
D03*
Y1245743D02*
D03*
Y1347343D02*
D03*
Y1448943D02*
D03*
Y1789303D02*
D03*
Y1890903D02*
D03*
Y1992503D02*
D03*
Y2094103D02*
D03*
X664083Y1738757D02*
D03*
Y1840357D02*
D03*
Y1941957D02*
D03*
Y2043557D02*
D03*
D28*
X2112137Y1636903D02*
D03*
Y1535303D02*
D03*
X664083Y1687957D02*
D03*
Y1586357D02*
D03*
Y533527D02*
D03*
Y635127D02*
D03*
Y736727D02*
D03*
Y838327D02*
D03*
Y939927D02*
D03*
Y1041527D02*
D03*
Y1143127D02*
D03*
Y1244727D02*
D03*
Y1346327D02*
D03*
Y1447927D02*
D03*
X2112137Y483743D02*
D03*
Y585343D02*
D03*
Y686943D02*
D03*
Y788543D02*
D03*
Y890143D02*
D03*
Y991743D02*
D03*
Y1093343D02*
D03*
Y1194943D02*
D03*
Y1296543D02*
D03*
Y1398143D02*
D03*
Y1738503D02*
D03*
Y1840103D02*
D03*
Y1941703D02*
D03*
Y2043303D02*
D03*
X664083Y1789557D02*
D03*
Y1891157D02*
D03*
Y1992757D02*
D03*
Y2094357D02*
D03*
D29*
X1983740Y367030D02*
D03*
Y443230D02*
D03*
Y502920D02*
D03*
Y579120D02*
D03*
Y638810D02*
D03*
Y715010D02*
D03*
Y774700D02*
D03*
Y850900D02*
D03*
Y910590D02*
D03*
Y986790D02*
D03*
Y1046480D02*
D03*
Y1122680D02*
D03*
Y1182370D02*
D03*
Y1258570D02*
D03*
Y1318260D02*
D03*
Y1394460D02*
D03*
Y1454150D02*
D03*
Y1530350D02*
D03*
Y1666240D02*
D03*
Y1590040D02*
D03*
X800100Y360680D02*
D03*
Y436880D02*
D03*
Y495723D02*
D03*
Y571923D02*
D03*
Y630767D02*
D03*
Y706967D02*
D03*
Y765810D02*
D03*
Y842010D02*
D03*
Y900853D02*
D03*
Y977053D02*
D03*
Y1035897D02*
D03*
Y1112097D02*
D03*
Y1170940D02*
D03*
Y1247140D02*
D03*
Y1305983D02*
D03*
Y1382183D02*
D03*
Y1441026D02*
D03*
Y1517227D02*
D03*
Y1648460D02*
D03*
Y1572260D02*
D03*
X1983740Y1725930D02*
D03*
Y1802130D02*
D03*
Y1938443D02*
D03*
Y1862243D02*
D03*
Y2074757D02*
D03*
Y1998557D02*
D03*
Y2211070D02*
D03*
Y2134870D02*
D03*
X800100Y1709420D02*
D03*
Y1785620D02*
D03*
Y1924050D02*
D03*
Y1847850D02*
D03*
Y2062480D02*
D03*
Y1986280D02*
D03*
Y2200910D02*
D03*
Y2124710D02*
D03*
D30*
X1913890Y1764030D02*
D03*
Y1899920D02*
D03*
Y2035810D02*
D03*
Y2171700D02*
D03*
X863600Y1751330D02*
D03*
Y1887220D02*
D03*
Y2023110D02*
D03*
Y2159000D02*
D03*
X1913890Y406400D02*
D03*
Y542149D02*
D03*
Y677898D02*
D03*
Y813647D02*
D03*
Y949396D02*
D03*
Y1085144D02*
D03*
Y1220893D02*
D03*
Y1356642D02*
D03*
Y1492391D02*
D03*
Y1628140D02*
D03*
X863600Y394970D02*
D03*
Y530578D02*
D03*
Y666186D02*
D03*
Y801793D02*
D03*
Y937401D02*
D03*
Y1073009D02*
D03*
Y1208616D02*
D03*
Y1344224D02*
D03*
Y1479832D02*
D03*
Y1615440D02*
D03*
D31*
X1939290Y1764030D02*
D03*
Y1899920D02*
D03*
Y2035810D02*
D03*
Y2171700D02*
D03*
X838200Y1751330D02*
D03*
Y1887220D02*
D03*
Y2023110D02*
D03*
Y2159000D02*
D03*
X1939290Y406400D02*
D03*
Y542149D02*
D03*
Y677898D02*
D03*
Y813647D02*
D03*
Y949396D02*
D03*
Y1085144D02*
D03*
Y1220893D02*
D03*
Y1356642D02*
D03*
Y1492391D02*
D03*
Y1628140D02*
D03*
X838200Y394970D02*
D03*
Y530578D02*
D03*
Y666186D02*
D03*
Y801793D02*
D03*
Y937401D02*
D03*
Y1073009D02*
D03*
Y1208616D02*
D03*
Y1344224D02*
D03*
Y1479832D02*
D03*
Y1615440D02*
D03*
D32*
X1633220Y407156D02*
D03*
X1843220D02*
D03*
X1633220Y542794D02*
D03*
X1843220D02*
D03*
X1633220Y678432D02*
D03*
X1843220D02*
D03*
X1633220Y814070D02*
D03*
X1843220D02*
D03*
X1633220Y949708D02*
D03*
X1843220D02*
D03*
X1633220Y1763535D02*
D03*
X1843220D02*
D03*
X1633220Y1899173D02*
D03*
X1843220D02*
D03*
X1633220Y2034810D02*
D03*
X1843220D02*
D03*
X1633220Y2170448D02*
D03*
X1843220D02*
D03*
X1143000Y1751853D02*
D03*
X933000D02*
D03*
X1143000Y1887491D02*
D03*
X933000D02*
D03*
X1143000Y2023128D02*
D03*
X933000D02*
D03*
X1143000Y2158766D02*
D03*
X933000D02*
D03*
X1143000Y395474D02*
D03*
X933000D02*
D03*
X1143000Y531112D02*
D03*
X933000D02*
D03*
X1143000Y666750D02*
D03*
X933000D02*
D03*
X1143000Y1344939D02*
D03*
X933000D02*
D03*
X1143000Y1480577D02*
D03*
X933000D02*
D03*
X1143000Y1616215D02*
D03*
X933000D02*
D03*
X1633220Y1085346D02*
D03*
X1843220D02*
D03*
X1633220Y1220984D02*
D03*
X1843220D02*
D03*
X1633220Y1356621D02*
D03*
X1843220D02*
D03*
X1633220Y1492259D02*
D03*
X1843220D02*
D03*
X1633220Y1627897D02*
D03*
X1843220D02*
D03*
X1143000Y802388D02*
D03*
X933000D02*
D03*
X1143000Y938026D02*
D03*
X933000D02*
D03*
X1143000Y1073663D02*
D03*
X933000D02*
D03*
X1143000Y1209301D02*
D03*
X933000D02*
D03*
D33*
X593090Y2202180D02*
D03*
Y384810D02*
D03*
X2183130Y2202180D02*
D03*
Y384810D02*
D03*
M02*
