%FSLAX44Y44*%
%MOMM*%
G71*
G01*
G75*
%ADD10P,3.2472X8X22.5*%
%ADD11C,2.0000*%
%ADD12C,3.0480*%
%ADD13P,3.2992X8X112.5*%
%ADD14C,1.4000*%
%ADD15C,1.5240*%
%ADD16P,1.6496X8X202.5*%
%ADD17C,3.0000*%
%ADD18P,4.3296X8X202.5*%
%ADD19C,1.0000*%
%ADD20C,2.0000*%
%ADD21C,0.1524*%
%ADD22C,0.2540*%
%ADD23C,0.2000*%
%ADD24C,0.3000*%
D21*
X937768Y1764030D02*
G03*
X934236Y1773786I-15240J0D01*
G01*
X933919Y1753906D02*
G03*
X937768Y1764031I-11391J10124D01*
G01*
X910957Y1773948D02*
G03*
X907288Y1764030I11571J-9918D01*
G01*
D02*
G03*
X910820Y1754274I15240J0D01*
G01*
X922528Y1779270D02*
G03*
X910127Y1772888I0J-15240D01*
G01*
X934720Y1773174D02*
G03*
X922528Y1779270I-12192J-9144D01*
G01*
X910498Y1754674D02*
G03*
X922528Y1748790I12030J9356D01*
G01*
D02*
G03*
X934558Y1754674I0J15240D01*
G01*
X928878Y1764030D02*
G03*
X922528Y1770380I-6350J0D01*
G01*
X932688Y1764030D02*
G03*
X922528Y1774190I-10160J0D01*
G01*
X916178Y1764030D02*
G03*
X922528Y1757680I6350J0D01*
G01*
X912368Y1764030D02*
G03*
X922528Y1753870I10160J0D01*
G01*
X937768Y1899920D02*
G03*
X934236Y1909676I-15240J0D01*
G01*
X933919Y1889796D02*
G03*
X937768Y1899921I-11391J10124D01*
G01*
X910957Y1909838D02*
G03*
X907288Y1899920I11571J-9918D01*
G01*
D02*
G03*
X910820Y1890164I15240J0D01*
G01*
X922528Y1915160D02*
G03*
X910127Y1908778I0J-15240D01*
G01*
X934720Y1909064D02*
G03*
X922528Y1915160I-12192J-9144D01*
G01*
X910498Y1890564D02*
G03*
X922528Y1884680I12030J9356D01*
G01*
D02*
G03*
X934558Y1890564I0J15240D01*
G01*
X928878Y1899920D02*
G03*
X922528Y1906270I-6350J0D01*
G01*
X932688Y1899920D02*
G03*
X922528Y1910080I-10160J0D01*
G01*
X916178Y1899920D02*
G03*
X922528Y1893570I6350J0D01*
G01*
X912368Y1899920D02*
G03*
X922528Y1889760I10160J0D01*
G01*
X937768Y2035810D02*
G03*
X934236Y2045566I-15240J0D01*
G01*
X933919Y2025686D02*
G03*
X937768Y2035811I-11391J10124D01*
G01*
X910957Y2045728D02*
G03*
X907288Y2035810I11571J-9918D01*
G01*
D02*
G03*
X910820Y2026054I15240J0D01*
G01*
X922528Y2051050D02*
G03*
X910127Y2044668I0J-15240D01*
G01*
X934720Y2044954D02*
G03*
X922528Y2051050I-12192J-9144D01*
G01*
X910498Y2026454D02*
G03*
X922528Y2020570I12030J9356D01*
G01*
D02*
G03*
X934558Y2026454I0J15240D01*
G01*
X928878Y2035810D02*
G03*
X922528Y2042160I-6350J0D01*
G01*
X932688Y2035810D02*
G03*
X922528Y2045970I-10160J0D01*
G01*
X916178Y2035810D02*
G03*
X922528Y2029460I6350J0D01*
G01*
X912368Y2035810D02*
G03*
X922528Y2025650I10160J0D01*
G01*
X937768Y2171700D02*
G03*
X934236Y2181456I-15240J0D01*
G01*
X933919Y2161576D02*
G03*
X937768Y2171701I-11391J10124D01*
G01*
X910957Y2181618D02*
G03*
X907288Y2171700I11571J-9918D01*
G01*
D02*
G03*
X910820Y2161944I15240J0D01*
G01*
X922528Y2186940D02*
G03*
X910127Y2180558I0J-15240D01*
G01*
X934720Y2180844D02*
G03*
X922528Y2186940I-12192J-9144D01*
G01*
X910498Y2162344D02*
G03*
X922528Y2156460I12030J9356D01*
G01*
D02*
G03*
X934558Y2162344I0J15240D01*
G01*
X928878Y2171700D02*
G03*
X922528Y2178050I-6350J0D01*
G01*
X932688Y2171700D02*
G03*
X922528Y2181860I-10160J0D01*
G01*
X916178Y2171700D02*
G03*
X922528Y2165350I6350J0D01*
G01*
X912368Y2171700D02*
G03*
X922528Y2161540I10160J0D01*
G01*
X1982978Y1751330D02*
G03*
X1986510Y1741574I15240J0D01*
G01*
X1986827Y1761454D02*
G03*
X1982978Y1751329I11391J-10124D01*
G01*
X2009789Y1741412D02*
G03*
X2013458Y1751330I-11571J9918D01*
G01*
D02*
G03*
X2009926Y1761086I-15240J0D01*
G01*
X1998218Y1736090D02*
G03*
X2010619Y1742472I0J15240D01*
G01*
X1986026Y1742186D02*
G03*
X1998218Y1736090I12192J9144D01*
G01*
X2010248Y1760686D02*
G03*
X1998218Y1766570I-12030J-9356D01*
G01*
D02*
G03*
X1986188Y1760686I0J-15240D01*
G01*
X1991868Y1751330D02*
G03*
X1998218Y1744980I6350J0D01*
G01*
X1988058Y1751330D02*
G03*
X1998218Y1741170I10160J0D01*
G01*
X2004568Y1751330D02*
G03*
X1998218Y1757680I-6350J0D01*
G01*
X2008378Y1751330D02*
G03*
X1998218Y1761490I-10160J0D01*
G01*
X1982978Y1887220D02*
G03*
X1986510Y1877464I15240J0D01*
G01*
X1986827Y1897344D02*
G03*
X1982978Y1887219I11391J-10124D01*
G01*
X2009789Y1877302D02*
G03*
X2013458Y1887220I-11571J9918D01*
G01*
D02*
G03*
X2009926Y1896976I-15240J0D01*
G01*
X1998218Y1871980D02*
G03*
X2010619Y1878362I0J15240D01*
G01*
X1986026Y1878076D02*
G03*
X1998218Y1871980I12192J9144D01*
G01*
X2010248Y1896576D02*
G03*
X1998218Y1902460I-12030J-9356D01*
G01*
D02*
G03*
X1986188Y1896576I0J-15240D01*
G01*
X1991868Y1887220D02*
G03*
X1998218Y1880870I6350J0D01*
G01*
X1988058Y1887220D02*
G03*
X1998218Y1877060I10160J0D01*
G01*
X2004568Y1887220D02*
G03*
X1998218Y1893570I-6350J0D01*
G01*
X2008378Y1887220D02*
G03*
X1998218Y1897380I-10160J0D01*
G01*
X1982978Y2023110D02*
G03*
X1986510Y2013354I15240J0D01*
G01*
X1986827Y2033234D02*
G03*
X1982978Y2023109I11391J-10124D01*
G01*
X2009789Y2013192D02*
G03*
X2013458Y2023110I-11571J9918D01*
G01*
D02*
G03*
X2009926Y2032866I-15240J0D01*
G01*
X1998218Y2007870D02*
G03*
X2010619Y2014252I0J15240D01*
G01*
X1986026Y2013966D02*
G03*
X1998218Y2007870I12192J9144D01*
G01*
X2010248Y2032466D02*
G03*
X1998218Y2038350I-12030J-9356D01*
G01*
D02*
G03*
X1986188Y2032466I0J-15240D01*
G01*
X1991868Y2023110D02*
G03*
X1998218Y2016760I6350J0D01*
G01*
X1988058Y2023110D02*
G03*
X1998218Y2012950I10160J0D01*
G01*
X2004568Y2023110D02*
G03*
X1998218Y2029460I-6350J0D01*
G01*
X2008378Y2023110D02*
G03*
X1998218Y2033270I-10160J0D01*
G01*
X1982978Y2159000D02*
G03*
X1986510Y2149244I15240J0D01*
G01*
X1986827Y2169124D02*
G03*
X1982978Y2158999I11391J-10124D01*
G01*
X2009789Y2149082D02*
G03*
X2013458Y2159000I-11571J9918D01*
G01*
D02*
G03*
X2009926Y2168756I-15240J0D01*
G01*
X1998218Y2143760D02*
G03*
X2010619Y2150142I0J15240D01*
G01*
X1986026Y2149856D02*
G03*
X1998218Y2143760I12192J9144D01*
G01*
X2010248Y2168356D02*
G03*
X1998218Y2174240I-12030J-9356D01*
G01*
D02*
G03*
X1986188Y2168356I0J-15240D01*
G01*
X1991868Y2159000D02*
G03*
X1998218Y2152650I6350J0D01*
G01*
X1988058Y2159000D02*
G03*
X1998218Y2148840I10160J0D01*
G01*
X2004568Y2159000D02*
G03*
X1998218Y2165350I-6350J0D01*
G01*
X2008378Y2159000D02*
G03*
X1998218Y2169160I-10160J0D01*
G01*
X937768Y406400D02*
G03*
X934236Y416156I-15240J0D01*
G01*
X933919Y396276D02*
G03*
X937768Y406401I-11391J10124D01*
G01*
X910957Y416318D02*
G03*
X907288Y406400I11571J-9918D01*
G01*
D02*
G03*
X910820Y396644I15240J0D01*
G01*
X922528Y421640D02*
G03*
X910127Y415258I0J-15240D01*
G01*
X934720Y415544D02*
G03*
X922528Y421640I-12192J-9144D01*
G01*
X910498Y397044D02*
G03*
X922528Y391160I12030J9356D01*
G01*
D02*
G03*
X934558Y397044I0J15240D01*
G01*
X928878Y406400D02*
G03*
X922528Y412750I-6350J0D01*
G01*
X932688Y406400D02*
G03*
X922528Y416560I-10160J0D01*
G01*
X916178Y406400D02*
G03*
X922528Y400050I6350J0D01*
G01*
X912368Y406400D02*
G03*
X922528Y396240I10160J0D01*
G01*
X937768Y542149D02*
G03*
X934236Y551905I-15240J0D01*
G01*
X933919Y532025D02*
G03*
X937768Y542150I-11391J10124D01*
G01*
X910957Y552067D02*
G03*
X907288Y542149I11571J-9918D01*
G01*
D02*
G03*
X910820Y532393I15240J0D01*
G01*
X922528Y557389D02*
G03*
X910127Y551007I0J-15240D01*
G01*
X934720Y551293D02*
G03*
X922528Y557389I-12192J-9144D01*
G01*
X910498Y532793D02*
G03*
X922528Y526909I12030J9356D01*
G01*
D02*
G03*
X934558Y532793I0J15240D01*
G01*
X928878Y542149D02*
G03*
X922528Y548499I-6350J0D01*
G01*
X932688Y542149D02*
G03*
X922528Y552309I-10160J0D01*
G01*
X916178Y542149D02*
G03*
X922528Y535799I6350J0D01*
G01*
X912368Y542149D02*
G03*
X922528Y531989I10160J0D01*
G01*
X937768Y677898D02*
G03*
X934236Y687654I-15240J0D01*
G01*
X933919Y667774D02*
G03*
X937768Y677899I-11391J10124D01*
G01*
X910957Y687816D02*
G03*
X907288Y677898I11571J-9918D01*
G01*
D02*
G03*
X910820Y668142I15240J0D01*
G01*
X922528Y693138D02*
G03*
X910127Y686756I0J-15240D01*
G01*
X934720Y687042D02*
G03*
X922528Y693138I-12192J-9144D01*
G01*
X910498Y668542D02*
G03*
X922528Y662658I12030J9356D01*
G01*
D02*
G03*
X934558Y668542I0J15240D01*
G01*
X928878Y677898D02*
G03*
X922528Y684248I-6350J0D01*
G01*
X932688Y677898D02*
G03*
X922528Y688058I-10160J0D01*
G01*
X916178Y677898D02*
G03*
X922528Y671548I6350J0D01*
G01*
X912368Y677898D02*
G03*
X922528Y667738I10160J0D01*
G01*
X937768Y813647D02*
G03*
X934236Y823403I-15240J0D01*
G01*
X933919Y803522D02*
G03*
X937768Y813648I-11391J10124D01*
G01*
X910957Y823565D02*
G03*
X907288Y813647I11571J-9918D01*
G01*
D02*
G03*
X910820Y803891I15240J0D01*
G01*
X922528Y828887D02*
G03*
X910127Y822505I0J-15240D01*
G01*
X934720Y822791D02*
G03*
X922528Y828887I-12192J-9144D01*
G01*
X910498Y804291D02*
G03*
X922528Y798407I12030J9356D01*
G01*
D02*
G03*
X934558Y804291I0J15240D01*
G01*
X928878Y813647D02*
G03*
X922528Y819997I-6350J0D01*
G01*
X932688Y813647D02*
G03*
X922528Y823807I-10160J0D01*
G01*
X916178Y813647D02*
G03*
X922528Y807297I6350J0D01*
G01*
X912368Y813647D02*
G03*
X922528Y803487I10160J0D01*
G01*
X937768Y949396D02*
G03*
X934236Y959152I-15240J0D01*
G01*
X933919Y939271D02*
G03*
X937768Y949397I-11391J10124D01*
G01*
X910957Y959314D02*
G03*
X907288Y949396I11571J-9918D01*
G01*
D02*
G03*
X910820Y939639I15240J0D01*
G01*
X922528Y964635D02*
G03*
X910127Y958254I0J-15240D01*
G01*
X934720Y958540D02*
G03*
X922528Y964635I-12192J-9144D01*
G01*
X910498Y940040D02*
G03*
X922528Y934156I12030J9356D01*
G01*
D02*
G03*
X934558Y940040I0J15240D01*
G01*
X928878Y949396D02*
G03*
X922528Y955745I-6350J0D01*
G01*
X932688Y949396D02*
G03*
X922528Y959556I-10160J0D01*
G01*
X916178Y949396D02*
G03*
X922528Y943046I6350J0D01*
G01*
X912368Y949396D02*
G03*
X922528Y939236I10160J0D01*
G01*
X937768Y1085144D02*
G03*
X934236Y1094901I-15240J0D01*
G01*
X933919Y1075020D02*
G03*
X937768Y1085145I-11391J10124D01*
G01*
X910957Y1095062D02*
G03*
X907288Y1085144I11571J-9918D01*
G01*
D02*
G03*
X910820Y1075388I15240J0D01*
G01*
X922528Y1100384D02*
G03*
X910127Y1094003I0J-15240D01*
G01*
X934720Y1094288D02*
G03*
X922528Y1100384I-12192J-9144D01*
G01*
X910498Y1075788D02*
G03*
X922528Y1069904I12030J9356D01*
G01*
D02*
G03*
X934558Y1075788I0J15240D01*
G01*
X928878Y1085144D02*
G03*
X922528Y1091494I-6350J0D01*
G01*
X932688Y1085144D02*
G03*
X922528Y1095304I-10160J0D01*
G01*
X916178Y1085144D02*
G03*
X922528Y1078794I6350J0D01*
G01*
X912368Y1085144D02*
G03*
X922528Y1074984I10160J0D01*
G01*
X937768Y1220893D02*
G03*
X934236Y1230649I-15240J0D01*
G01*
X933919Y1210769D02*
G03*
X937768Y1220894I-11391J10124D01*
G01*
X910957Y1230811D02*
G03*
X907288Y1220893I11571J-9918D01*
G01*
D02*
G03*
X910820Y1211137I15240J0D01*
G01*
X922528Y1236133D02*
G03*
X910127Y1229751I0J-15240D01*
G01*
X934720Y1230037D02*
G03*
X922528Y1236133I-12192J-9144D01*
G01*
X910498Y1211537D02*
G03*
X922528Y1205653I12030J9356D01*
G01*
D02*
G03*
X934558Y1211537I0J15240D01*
G01*
X928878Y1220893D02*
G03*
X922528Y1227243I-6350J0D01*
G01*
X932688Y1220893D02*
G03*
X922528Y1231053I-10160J0D01*
G01*
X916178Y1220893D02*
G03*
X922528Y1214543I6350J0D01*
G01*
X912368Y1220893D02*
G03*
X922528Y1210733I10160J0D01*
G01*
X937768Y1356642D02*
G03*
X934236Y1366398I-15240J0D01*
G01*
X933919Y1346518D02*
G03*
X937768Y1356643I-11391J10124D01*
G01*
X910957Y1366560D02*
G03*
X907288Y1356642I11571J-9918D01*
G01*
D02*
G03*
X910820Y1346886I15240J0D01*
G01*
X922528Y1371882D02*
G03*
X910127Y1365500I0J-15240D01*
G01*
X934720Y1365786D02*
G03*
X922528Y1371882I-12192J-9144D01*
G01*
X910498Y1347286D02*
G03*
X922528Y1341402I12030J9356D01*
G01*
D02*
G03*
X934558Y1347286I0J15240D01*
G01*
X928878Y1356642D02*
G03*
X922528Y1362992I-6350J0D01*
G01*
X932688Y1356642D02*
G03*
X922528Y1366802I-10160J0D01*
G01*
X916178Y1356642D02*
G03*
X922528Y1350292I6350J0D01*
G01*
X912368Y1356642D02*
G03*
X922528Y1346482I10160J0D01*
G01*
X937768Y1492391D02*
G03*
X934236Y1502147I-15240J0D01*
G01*
X933919Y1482267D02*
G03*
X937768Y1492392I-11391J10124D01*
G01*
X910957Y1502309D02*
G03*
X907288Y1492391I11571J-9918D01*
G01*
D02*
G03*
X910820Y1482635I15240J0D01*
G01*
X922528Y1507631D02*
G03*
X910127Y1501249I0J-15240D01*
G01*
X934720Y1501535D02*
G03*
X922528Y1507631I-12192J-9144D01*
G01*
X910498Y1483035D02*
G03*
X922528Y1477151I12030J9356D01*
G01*
D02*
G03*
X934558Y1483035I0J15240D01*
G01*
X928878Y1492391D02*
G03*
X922528Y1498741I-6350J0D01*
G01*
X932688Y1492391D02*
G03*
X922528Y1502551I-10160J0D01*
G01*
X916178Y1492391D02*
G03*
X922528Y1486041I6350J0D01*
G01*
X912368Y1492391D02*
G03*
X922528Y1482231I10160J0D01*
G01*
X937768Y1628140D02*
G03*
X934236Y1637896I-15240J0D01*
G01*
X933919Y1618016D02*
G03*
X937768Y1628141I-11391J10124D01*
G01*
X910957Y1638058D02*
G03*
X907288Y1628140I11571J-9918D01*
G01*
D02*
G03*
X910820Y1618384I15240J0D01*
G01*
X922528Y1643380D02*
G03*
X910127Y1636998I0J-15240D01*
G01*
X934720Y1637284D02*
G03*
X922528Y1643380I-12192J-9144D01*
G01*
X910498Y1618784D02*
G03*
X922528Y1612900I12030J9356D01*
G01*
D02*
G03*
X934558Y1618784I0J15240D01*
G01*
X928878Y1628140D02*
G03*
X922528Y1634490I-6350J0D01*
G01*
X932688Y1628140D02*
G03*
X922528Y1638300I-10160J0D01*
G01*
X916178Y1628140D02*
G03*
X922528Y1621790I6350J0D01*
G01*
X912368Y1628140D02*
G03*
X922528Y1617980I10160J0D01*
G01*
X1982978Y394970D02*
G03*
X1986510Y385214I15240J0D01*
G01*
X1986827Y405094D02*
G03*
X1982978Y394969I11391J-10124D01*
G01*
X2009789Y385052D02*
G03*
X2013458Y394970I-11571J9918D01*
G01*
D02*
G03*
X2009926Y404726I-15240J0D01*
G01*
X1998218Y379730D02*
G03*
X2010619Y386112I0J15240D01*
G01*
X1986026Y385826D02*
G03*
X1998218Y379730I12192J9144D01*
G01*
X2010248Y404326D02*
G03*
X1998218Y410210I-12030J-9356D01*
G01*
D02*
G03*
X1986188Y404326I0J-15240D01*
G01*
X1991868Y394970D02*
G03*
X1998218Y388620I6350J0D01*
G01*
X1988058Y394970D02*
G03*
X1998218Y384810I10160J0D01*
G01*
X2004568Y394970D02*
G03*
X1998218Y401320I-6350J0D01*
G01*
X2008378Y394970D02*
G03*
X1998218Y405130I-10160J0D01*
G01*
X1982978Y530578D02*
G03*
X1986510Y520822I15240J0D01*
G01*
X1986827Y540702D02*
G03*
X1982978Y530577I11391J-10124D01*
G01*
X2009789Y520660D02*
G03*
X2013458Y530578I-11571J9918D01*
G01*
D02*
G03*
X2009926Y540334I-15240J0D01*
G01*
X1998218Y515338D02*
G03*
X2010619Y521720I0J15240D01*
G01*
X1986026Y521434D02*
G03*
X1998218Y515338I12192J9144D01*
G01*
X2010248Y539934D02*
G03*
X1998218Y545818I-12030J-9356D01*
G01*
D02*
G03*
X1986188Y539934I0J-15240D01*
G01*
X1991868Y530578D02*
G03*
X1998218Y524228I6350J0D01*
G01*
X1988058Y530578D02*
G03*
X1998218Y520418I10160J0D01*
G01*
X2004568Y530578D02*
G03*
X1998218Y536928I-6350J0D01*
G01*
X2008378Y530578D02*
G03*
X1998218Y540738I-10160J0D01*
G01*
X1982978Y666186D02*
G03*
X1986510Y656429I15240J0D01*
G01*
X1986827Y676310D02*
G03*
X1982978Y666184I11391J-10124D01*
G01*
X2009789Y656267D02*
G03*
X2013458Y666186I-11571J9918D01*
G01*
D02*
G03*
X2009926Y675942I-15240J0D01*
G01*
X1998218Y650946D02*
G03*
X2010619Y657327I0J15240D01*
G01*
X1986026Y657041D02*
G03*
X1998218Y650946I12192J9144D01*
G01*
X2010248Y675542D02*
G03*
X1998218Y681425I-12030J-9356D01*
G01*
D02*
G03*
X1986188Y675542I0J-15240D01*
G01*
X1991868Y666186D02*
G03*
X1998218Y659836I6350J0D01*
G01*
X1988058Y666186D02*
G03*
X1998218Y656025I10160J0D01*
G01*
X2004568Y666186D02*
G03*
X1998218Y672535I-6350J0D01*
G01*
X2008378Y666186D02*
G03*
X1998218Y676346I-10160J0D01*
G01*
X1982978Y801793D02*
G03*
X1986510Y792037I15240J0D01*
G01*
X1986827Y811917D02*
G03*
X1982978Y801792I11391J-10124D01*
G01*
X2009789Y791875D02*
G03*
X2013458Y801793I-11571J9918D01*
G01*
D02*
G03*
X2009926Y811549I-15240J0D01*
G01*
X1998218Y786553D02*
G03*
X2010619Y792935I0J15240D01*
G01*
X1986026Y792649D02*
G03*
X1998218Y786553I12192J9144D01*
G01*
X2010248Y811149D02*
G03*
X1998218Y817033I-12030J-9356D01*
G01*
D02*
G03*
X1986188Y811149I0J-15240D01*
G01*
X1991868Y801793D02*
G03*
X1998218Y795443I6350J0D01*
G01*
X1988058Y801793D02*
G03*
X1998218Y791633I10160J0D01*
G01*
X2004568Y801793D02*
G03*
X1998218Y808143I-6350J0D01*
G01*
X2008378Y801793D02*
G03*
X1998218Y811953I-10160J0D01*
G01*
X1982978Y937401D02*
G03*
X1986510Y927645I15240J0D01*
G01*
X1986827Y947525D02*
G03*
X1982978Y937400I11391J-10124D01*
G01*
X2009789Y927483D02*
G03*
X2013458Y937401I-11571J9918D01*
G01*
D02*
G03*
X2009926Y947157I-15240J0D01*
G01*
X1998218Y922161D02*
G03*
X2010619Y928543I0J15240D01*
G01*
X1986026Y928257D02*
G03*
X1998218Y922161I12192J9144D01*
G01*
X2010248Y946757D02*
G03*
X1998218Y952641I-12030J-9356D01*
G01*
D02*
G03*
X1986188Y946757I0J-15240D01*
G01*
X1991868Y937401D02*
G03*
X1998218Y931051I6350J0D01*
G01*
X1988058Y937401D02*
G03*
X1998218Y927241I10160J0D01*
G01*
X2004568Y937401D02*
G03*
X1998218Y943751I-6350J0D01*
G01*
X2008378Y937401D02*
G03*
X1998218Y947561I-10160J0D01*
G01*
X1982978Y1073009D02*
G03*
X1986510Y1063253I15240J0D01*
G01*
X1986827Y1083133D02*
G03*
X1982978Y1073008I11391J-10124D01*
G01*
X2009789Y1063091D02*
G03*
X2013458Y1073009I-11571J9918D01*
G01*
D02*
G03*
X2009926Y1082765I-15240J0D01*
G01*
X1998218Y1057769D02*
G03*
X2010619Y1064151I0J15240D01*
G01*
X1986026Y1063865D02*
G03*
X1998218Y1057769I12192J9144D01*
G01*
X2010248Y1082365D02*
G03*
X1998218Y1088249I-12030J-9356D01*
G01*
D02*
G03*
X1986188Y1082365I0J-15240D01*
G01*
X1991868Y1073009D02*
G03*
X1998218Y1066659I6350J0D01*
G01*
X1988058Y1073009D02*
G03*
X1998218Y1062849I10160J0D01*
G01*
X2004568Y1073009D02*
G03*
X1998218Y1079359I-6350J0D01*
G01*
X2008378Y1073009D02*
G03*
X1998218Y1083169I-10160J0D01*
G01*
X1982978Y1208616D02*
G03*
X1986510Y1198860I15240J0D01*
G01*
X1986827Y1218741D02*
G03*
X1982978Y1208615I11391J-10124D01*
G01*
X2009789Y1198699D02*
G03*
X2013458Y1208616I-11571J9918D01*
G01*
D02*
G03*
X2009926Y1218373I-15240J0D01*
G01*
X1998218Y1193376D02*
G03*
X2010619Y1199758I0J15240D01*
G01*
X1986026Y1199473D02*
G03*
X1998218Y1193376I12192J9144D01*
G01*
X2010248Y1217973D02*
G03*
X1998218Y1223857I-12030J-9356D01*
G01*
D02*
G03*
X1986188Y1217973I0J-15240D01*
G01*
X1991868Y1208616D02*
G03*
X1998218Y1202266I6350J0D01*
G01*
X1988058Y1208616D02*
G03*
X1998218Y1198456I10160J0D01*
G01*
X2004568Y1208616D02*
G03*
X1998218Y1214967I-6350J0D01*
G01*
X2008378Y1208616D02*
G03*
X1998218Y1218776I-10160J0D01*
G01*
X1982978Y1344224D02*
G03*
X1986510Y1334468I15240J0D01*
G01*
X1986827Y1354348D02*
G03*
X1982978Y1344223I11391J-10124D01*
G01*
X2009789Y1334306D02*
G03*
X2013458Y1344224I-11571J9918D01*
G01*
D02*
G03*
X2009926Y1353980I-15240J0D01*
G01*
X1998218Y1328984D02*
G03*
X2010619Y1335366I0J15240D01*
G01*
X1986026Y1335080D02*
G03*
X1998218Y1328984I12192J9144D01*
G01*
X2010248Y1353580D02*
G03*
X1998218Y1359464I-12030J-9356D01*
G01*
D02*
G03*
X1986188Y1353580I0J-15240D01*
G01*
X1991868Y1344224D02*
G03*
X1998218Y1337874I6350J0D01*
G01*
X1988058Y1344224D02*
G03*
X1998218Y1334064I10160J0D01*
G01*
X2004568Y1344224D02*
G03*
X1998218Y1350574I-6350J0D01*
G01*
X2008378Y1344224D02*
G03*
X1998218Y1354384I-10160J0D01*
G01*
X1982978Y1479832D02*
G03*
X1986510Y1470076I15240J0D01*
G01*
X1986827Y1489956D02*
G03*
X1982978Y1479831I11391J-10124D01*
G01*
X2009789Y1469914D02*
G03*
X2013458Y1479832I-11571J9918D01*
G01*
D02*
G03*
X2009926Y1489588I-15240J0D01*
G01*
X1998218Y1464592D02*
G03*
X2010619Y1470974I0J15240D01*
G01*
X1986026Y1470688D02*
G03*
X1998218Y1464592I12192J9144D01*
G01*
X2010248Y1489188D02*
G03*
X1998218Y1495072I-12030J-9356D01*
G01*
D02*
G03*
X1986188Y1489188I0J-15240D01*
G01*
X1991868Y1479832D02*
G03*
X1998218Y1473482I6350J0D01*
G01*
X1988058Y1479832D02*
G03*
X1998218Y1469672I10160J0D01*
G01*
X2004568Y1479832D02*
G03*
X1998218Y1486182I-6350J0D01*
G01*
X2008378Y1479832D02*
G03*
X1998218Y1489992I-10160J0D01*
G01*
X1982978Y1615440D02*
G03*
X1986510Y1605684I15240J0D01*
G01*
X1986827Y1625564D02*
G03*
X1982978Y1615439I11391J-10124D01*
G01*
X2009789Y1605522D02*
G03*
X2013458Y1615440I-11571J9918D01*
G01*
D02*
G03*
X2009926Y1625196I-15240J0D01*
G01*
X1998218Y1600200D02*
G03*
X2010619Y1606582I0J15240D01*
G01*
X1986026Y1606296D02*
G03*
X1998218Y1600200I12192J9144D01*
G01*
X2010248Y1624796D02*
G03*
X1998218Y1630680I-12030J-9356D01*
G01*
D02*
G03*
X1986188Y1624796I0J-15240D01*
G01*
X1991868Y1615440D02*
G03*
X1998218Y1609090I6350J0D01*
G01*
X1988058Y1615440D02*
G03*
X1998218Y1605280I10160J0D01*
G01*
X2004568Y1615440D02*
G03*
X1998218Y1621790I-6350J0D01*
G01*
X2008378Y1615440D02*
G03*
X1998218Y1625600I-10160J0D01*
G01*
D22*
X922528Y1784350D02*
G03*
X906918Y1777039I0J-20320D01*
G01*
X940457Y1773592D02*
G03*
X922528Y1784350I-17930J-9562D01*
G01*
X907016Y1750904D02*
G03*
X922528Y1743710I15512J13126D01*
G01*
X922528D02*
G03*
X940171Y1753948I1J20320D01*
G01*
X942848Y1764030D02*
G03*
X940419Y1773664I-20320J0D01*
G01*
X939834Y1753381D02*
G03*
X942848Y1764031I-17306J10649D01*
G01*
X922528Y1920240D02*
G03*
X906918Y1912929I0J-20320D01*
G01*
X940457Y1909482D02*
G03*
X922528Y1920240I-17930J-9562D01*
G01*
X907016Y1886794D02*
G03*
X922528Y1879600I15512J13126D01*
G01*
X922528D02*
G03*
X940171Y1889838I1J20320D01*
G01*
X942848Y1899920D02*
G03*
X940419Y1909554I-20320J0D01*
G01*
X939834Y1889271D02*
G03*
X942848Y1899921I-17306J10649D01*
G01*
X922528Y2056130D02*
G03*
X906918Y2048819I0J-20320D01*
G01*
X940457Y2045372D02*
G03*
X922528Y2056130I-17930J-9562D01*
G01*
X907016Y2022684D02*
G03*
X922528Y2015490I15512J13126D01*
G01*
X922528D02*
G03*
X940171Y2025728I1J20320D01*
G01*
X942848Y2035810D02*
G03*
X940419Y2045444I-20320J0D01*
G01*
X939834Y2025161D02*
G03*
X942848Y2035811I-17306J10649D01*
G01*
X922528Y2192020D02*
G03*
X906918Y2184709I0J-20320D01*
G01*
X940457Y2181262D02*
G03*
X922528Y2192020I-17930J-9562D01*
G01*
X907016Y2158574D02*
G03*
X922528Y2151380I15512J13126D01*
G01*
X922528D02*
G03*
X940171Y2161618I1J20320D01*
G01*
X942848Y2171700D02*
G03*
X940419Y2181334I-20320J0D01*
G01*
X939834Y2161051D02*
G03*
X942848Y2171701I-17306J10649D01*
G01*
X1998218Y1731010D02*
G03*
X2013828Y1738321I0J20320D01*
G01*
X1980289Y1741768D02*
G03*
X1998218Y1731010I17930J9562D01*
G01*
X2013730Y1764456D02*
G03*
X1998218Y1771650I-15512J-13126D01*
G01*
X1998218D02*
G03*
X1980575Y1761412I-1J-20320D01*
G01*
X1977898Y1751330D02*
G03*
X1980327Y1741696I20320J0D01*
G01*
X1980912Y1761979D02*
G03*
X1977898Y1751329I17306J-10649D01*
G01*
X1998218Y1866900D02*
G03*
X2013828Y1874211I0J20320D01*
G01*
X1980289Y1877658D02*
G03*
X1998218Y1866900I17930J9562D01*
G01*
X2013730Y1900346D02*
G03*
X1998218Y1907540I-15512J-13126D01*
G01*
X1998218D02*
G03*
X1980575Y1897302I-1J-20320D01*
G01*
X1977898Y1887220D02*
G03*
X1980327Y1877586I20320J0D01*
G01*
X1980912Y1897869D02*
G03*
X1977898Y1887219I17306J-10649D01*
G01*
X1998218Y2002790D02*
G03*
X2013828Y2010101I0J20320D01*
G01*
X1980289Y2013548D02*
G03*
X1998218Y2002790I17930J9562D01*
G01*
X2013730Y2036236D02*
G03*
X1998218Y2043430I-15512J-13126D01*
G01*
X1998218D02*
G03*
X1980575Y2033192I-1J-20320D01*
G01*
X1977898Y2023110D02*
G03*
X1980327Y2013476I20320J0D01*
G01*
X1980912Y2033759D02*
G03*
X1977898Y2023109I17306J-10649D01*
G01*
X1998218Y2138680D02*
G03*
X2013828Y2145991I0J20320D01*
G01*
X1980289Y2149438D02*
G03*
X1998218Y2138680I17930J9562D01*
G01*
X2013730Y2172126D02*
G03*
X1998218Y2179320I-15512J-13126D01*
G01*
X1998218D02*
G03*
X1980575Y2169082I-1J-20320D01*
G01*
X1977898Y2159000D02*
G03*
X1980327Y2149366I20320J0D01*
G01*
X1980912Y2169649D02*
G03*
X1977898Y2158999I17306J-10649D01*
G01*
X922528Y426720D02*
G03*
X906918Y419409I0J-20320D01*
G01*
X940457Y415962D02*
G03*
X922528Y426720I-17930J-9562D01*
G01*
X907016Y393274D02*
G03*
X922528Y386080I15512J13126D01*
G01*
X922528D02*
G03*
X940171Y396318I1J20320D01*
G01*
X942848Y406400D02*
G03*
X940419Y416034I-20320J0D01*
G01*
X939834Y395751D02*
G03*
X942848Y406401I-17306J10649D01*
G01*
X922528Y562469D02*
G03*
X906918Y555158I0J-20320D01*
G01*
X940457Y551711D02*
G03*
X922528Y562469I-17930J-9562D01*
G01*
X907016Y529023D02*
G03*
X922528Y521829I15512J13126D01*
G01*
X922528D02*
G03*
X940171Y532067I1J20320D01*
G01*
X942848Y542149D02*
G03*
X940419Y551783I-20320J0D01*
G01*
X939834Y531500D02*
G03*
X942848Y542150I-17306J10649D01*
G01*
X922528Y698218D02*
G03*
X906918Y690907I0J-20320D01*
G01*
X940457Y687460D02*
G03*
X922528Y698218I-17930J-9562D01*
G01*
X907016Y664772D02*
G03*
X922528Y657578I15512J13126D01*
G01*
X922528D02*
G03*
X940171Y667816I1J20320D01*
G01*
X942848Y677898D02*
G03*
X940419Y687532I-20320J0D01*
G01*
X939834Y667249D02*
G03*
X942848Y677899I-17306J10649D01*
G01*
X922528Y833967D02*
G03*
X906918Y826656I0J-20320D01*
G01*
X940457Y823208D02*
G03*
X922528Y833967I-17930J-9562D01*
G01*
X907016Y800521D02*
G03*
X922528Y793327I15512J13126D01*
G01*
X922528D02*
G03*
X940171Y803564I1J20320D01*
G01*
X942848Y813647D02*
G03*
X940419Y823281I-20320J0D01*
G01*
X939834Y802998D02*
G03*
X942848Y813648I-17306J10649D01*
G01*
X922528Y969715D02*
G03*
X906918Y962404I0J-20320D01*
G01*
X940457Y958957D02*
G03*
X922528Y969715I-17930J-9562D01*
G01*
X907016Y936270D02*
G03*
X922528Y929075I15512J13126D01*
G01*
X922528D02*
G03*
X940171Y939313I1J20320D01*
G01*
X942848Y949396D02*
G03*
X940419Y959030I-20320J0D01*
G01*
X939834Y938747D02*
G03*
X942848Y949397I-17306J10649D01*
G01*
X922528Y1105464D02*
G03*
X906918Y1098153I0J-20320D01*
G01*
X940457Y1094706D02*
G03*
X922528Y1105464I-17930J-9562D01*
G01*
X907016Y1072019D02*
G03*
X922528Y1064824I15512J13126D01*
G01*
X922528D02*
G03*
X940171Y1075062I1J20320D01*
G01*
X942848Y1085144D02*
G03*
X940419Y1094779I-20320J0D01*
G01*
X939834Y1074495D02*
G03*
X942848Y1085145I-17306J10649D01*
G01*
X922528Y1241213D02*
G03*
X906918Y1233902I0J-20320D01*
G01*
X940457Y1230455D02*
G03*
X922528Y1241213I-17930J-9562D01*
G01*
X907016Y1207767D02*
G03*
X922528Y1200573I15512J13126D01*
G01*
X922528D02*
G03*
X940171Y1210811I1J20320D01*
G01*
X942848Y1220893D02*
G03*
X940419Y1230527I-20320J0D01*
G01*
X939834Y1210244D02*
G03*
X942848Y1220894I-17306J10649D01*
G01*
X922528Y1376962D02*
G03*
X906918Y1369651I0J-20320D01*
G01*
X940457Y1366204D02*
G03*
X922528Y1376962I-17930J-9562D01*
G01*
X907016Y1343516D02*
G03*
X922528Y1336322I15512J13126D01*
G01*
X922528D02*
G03*
X940171Y1346560I1J20320D01*
G01*
X942848Y1356642D02*
G03*
X940419Y1366276I-20320J0D01*
G01*
X939834Y1345993D02*
G03*
X942848Y1356643I-17306J10649D01*
G01*
X922528Y1512711D02*
G03*
X906918Y1505400I0J-20320D01*
G01*
X940457Y1501953D02*
G03*
X922528Y1512711I-17930J-9562D01*
G01*
X907016Y1479265D02*
G03*
X922528Y1472071I15512J13126D01*
G01*
X922528D02*
G03*
X940171Y1482309I1J20320D01*
G01*
X942848Y1492391D02*
G03*
X940419Y1502025I-20320J0D01*
G01*
X939834Y1481742D02*
G03*
X942848Y1492392I-17306J10649D01*
G01*
X922528Y1648460D02*
G03*
X906918Y1641149I0J-20320D01*
G01*
X940457Y1637702D02*
G03*
X922528Y1648460I-17930J-9562D01*
G01*
X907016Y1615014D02*
G03*
X922528Y1607820I15512J13126D01*
G01*
X922528D02*
G03*
X940171Y1618058I1J20320D01*
G01*
X942848Y1628140D02*
G03*
X940419Y1637774I-20320J0D01*
G01*
X939834Y1617491D02*
G03*
X942848Y1628141I-17306J10649D01*
G01*
X1998218Y374650D02*
G03*
X2013828Y381961I0J20320D01*
G01*
X1980289Y385408D02*
G03*
X1998218Y374650I17930J9562D01*
G01*
X2013730Y408096D02*
G03*
X1998218Y415290I-15512J-13126D01*
G01*
X1998218D02*
G03*
X1980575Y405052I-1J-20320D01*
G01*
X1977898Y394970D02*
G03*
X1980327Y385336I20320J0D01*
G01*
X1980912Y405619D02*
G03*
X1977898Y394969I17306J-10649D01*
G01*
X1998218Y510258D02*
G03*
X2013828Y517569I0J20320D01*
G01*
X1980289Y521016D02*
G03*
X1998218Y510258I17930J9562D01*
G01*
X2013730Y543703D02*
G03*
X1998218Y550898I-15512J-13126D01*
G01*
X1998218D02*
G03*
X1980575Y540660I-1J-20320D01*
G01*
X1977898Y530578D02*
G03*
X1980327Y520944I20320J0D01*
G01*
X1980912Y541227D02*
G03*
X1977898Y530577I17306J-10649D01*
G01*
X1998218Y645865D02*
G03*
X2013828Y653177I0J20320D01*
G01*
X1980289Y656624D02*
G03*
X1998218Y645865I17930J9562D01*
G01*
X2013730Y679311D02*
G03*
X1998218Y686506I-15512J-13126D01*
G01*
X1998218D02*
G03*
X1980575Y676268I-1J-20320D01*
G01*
X1977898Y666186D02*
G03*
X1980327Y656551I20320J0D01*
G01*
X1980912Y676834D02*
G03*
X1977898Y666184I17306J-10649D01*
G01*
X1998218Y781473D02*
G03*
X2013828Y788784I0J20320D01*
G01*
X1980289Y792231D02*
G03*
X1998218Y781473I17930J9562D01*
G01*
X2013730Y814919D02*
G03*
X1998218Y822113I-15512J-13126D01*
G01*
X1998218D02*
G03*
X1980575Y811876I-1J-20320D01*
G01*
X1977898Y801793D02*
G03*
X1980327Y792159I20320J0D01*
G01*
X1980912Y812442D02*
G03*
X1977898Y801792I17306J-10649D01*
G01*
X1998218Y917081D02*
G03*
X2013828Y924392I0J20320D01*
G01*
X1980289Y927839D02*
G03*
X1998218Y917081I17930J9562D01*
G01*
X2013730Y950527D02*
G03*
X1998218Y957721I-15512J-13126D01*
G01*
X1998218D02*
G03*
X1980575Y947483I-1J-20320D01*
G01*
X1977898Y937401D02*
G03*
X1980327Y927767I20320J0D01*
G01*
X1980912Y948050D02*
G03*
X1977898Y937400I17306J-10649D01*
G01*
X1998218Y1052689D02*
G03*
X2013828Y1060000I0J20320D01*
G01*
X1980289Y1063447D02*
G03*
X1998218Y1052689I17930J9562D01*
G01*
X2013730Y1086134D02*
G03*
X1998218Y1093329I-15512J-13126D01*
G01*
X1998218D02*
G03*
X1980575Y1083091I-1J-20320D01*
G01*
X1977898Y1073009D02*
G03*
X1980327Y1063375I20320J0D01*
G01*
X1980912Y1083658D02*
G03*
X1977898Y1073008I17306J-10649D01*
G01*
X1998218Y1188297D02*
G03*
X2013828Y1195608I0J20320D01*
G01*
X1980289Y1199055D02*
G03*
X1998218Y1188297I17930J9562D01*
G01*
X2013730Y1221742D02*
G03*
X1998218Y1228936I-15512J-13126D01*
G01*
X1998218D02*
G03*
X1980575Y1218699I-1J-20320D01*
G01*
X1977898Y1208616D02*
G03*
X1980327Y1198982I20320J0D01*
G01*
X1980912Y1219265D02*
G03*
X1977898Y1208615I17306J-10649D01*
G01*
X1998218Y1323904D02*
G03*
X2013828Y1331215I0J20320D01*
G01*
X1980289Y1334662D02*
G03*
X1998218Y1323904I17930J9562D01*
G01*
X2013730Y1357350D02*
G03*
X1998218Y1364544I-15512J-13126D01*
G01*
X1998218D02*
G03*
X1980575Y1354306I-1J-20320D01*
G01*
X1977898Y1344224D02*
G03*
X1980327Y1334590I20320J0D01*
G01*
X1980912Y1354873D02*
G03*
X1977898Y1344223I17306J-10649D01*
G01*
X1998218Y1459512D02*
G03*
X2013828Y1466823I0J20320D01*
G01*
X1980289Y1470270D02*
G03*
X1998218Y1459512I17930J9562D01*
G01*
X2013730Y1492958D02*
G03*
X1998218Y1500152I-15512J-13126D01*
G01*
X1998218D02*
G03*
X1980575Y1489914I-1J-20320D01*
G01*
X1977898Y1479832D02*
G03*
X1980327Y1470198I20320J0D01*
G01*
X1980912Y1490481D02*
G03*
X1977898Y1479831I17306J-10649D01*
G01*
X1998218Y1595120D02*
G03*
X2013828Y1602431I0J20320D01*
G01*
X1980289Y1605878D02*
G03*
X1998218Y1595120I17930J9562D01*
G01*
X2013730Y1628566D02*
G03*
X1998218Y1635760I-15512J-13126D01*
G01*
X1998218D02*
G03*
X1980575Y1625522I-1J-20320D01*
G01*
X1977898Y1615440D02*
G03*
X1980327Y1605806I20320J0D01*
G01*
X1980912Y1626089D02*
G03*
X1977898Y1615439I17306J-10649D01*
G01*
X1639568Y384180D02*
X1279568D01*
Y464180D01*
X1639568D02*
X1279568D01*
X1639568Y384180D02*
Y464180D01*
Y2122810D02*
X1279568D01*
Y2202810D01*
X1639568D02*
X1279568D01*
X1639568Y2122810D02*
Y2202810D01*
X766318Y1611503D02*
X686181D01*
Y1713103D01*
X787781Y1611503D02*
Y1713103D01*
X787748Y1713230D02*
X777748D01*
X776318Y1600200D02*
X766318D01*
Y1600360D02*
Y1611503D01*
X776478Y1701800D02*
X766318D01*
X776478D02*
Y1713230D01*
X766445Y1713103D02*
X686181D01*
X766318Y1701800D02*
Y1712976D01*
X787781Y1611503D02*
X779145D01*
X776605D01*
X776318Y1600200D02*
Y1611216D01*
X766318Y1509903D02*
X686181D01*
Y1611503D01*
X787781Y1509903D02*
Y1611503D01*
X787748Y1611630D02*
X777748D01*
X776318Y1498600D02*
X766318D01*
Y1498760D02*
Y1509903D01*
X776478Y1600200D02*
X766318D01*
X776478D02*
Y1611630D01*
X766445Y1611503D02*
X686181D01*
X766318Y1600200D02*
Y1611376D01*
X787781Y1509903D02*
X779145D01*
X776605D01*
X776318Y1498600D02*
Y1509616D01*
X2235835Y1713357D02*
X2155698D01*
X2235835Y1611757D02*
Y1713357D01*
X2134235Y1611757D02*
Y1713357D01*
X2144268Y1611630D02*
X2134268D01*
X2155698Y1724660D02*
X2145698D01*
X2155698Y1713357D02*
Y1724500D01*
Y1623060D02*
X2145538D01*
Y1611630D02*
Y1623060D01*
X2235835Y1611757D02*
X2155571D01*
X2155698Y1611884D02*
Y1623060D01*
X2142871Y1713357D02*
X2134235D01*
X2145411D02*
X2142871D01*
X2145698Y1713644D02*
Y1724660D01*
X2235835Y1611757D02*
X2155698D01*
X2235835Y1510157D02*
Y1611757D01*
X2134235Y1510157D02*
Y1611757D01*
X2144268Y1510030D02*
X2134268D01*
X2155698Y1623060D02*
X2145698D01*
X2155698Y1611757D02*
Y1622900D01*
Y1521460D02*
X2145538D01*
Y1510030D02*
Y1521460D01*
X2235835Y1510157D02*
X2155571D01*
X2155698Y1510284D02*
Y1521460D01*
X2142871Y1611757D02*
X2134235D01*
X2145411D02*
X2142871D01*
X2145698Y1612044D02*
Y1623060D01*
X906780Y1751330D02*
Y1776730D01*
Y1887220D02*
Y1912620D01*
Y2023110D02*
Y2048510D01*
Y2159000D02*
Y2184400D01*
X2013966Y1738630D02*
Y1764030D01*
Y1874520D02*
Y1899920D01*
Y2010410D02*
Y2035810D01*
Y2146300D02*
Y2171700D01*
X906780Y393700D02*
Y419100D01*
Y529449D02*
Y554849D01*
Y665198D02*
Y690598D01*
Y800947D02*
Y826347D01*
Y936695D02*
Y962095D01*
Y1072444D02*
Y1097844D01*
Y1208193D02*
Y1233593D01*
Y1343942D02*
Y1369342D01*
Y1479691D02*
Y1505091D01*
Y1615440D02*
Y1640840D01*
X2013966Y382270D02*
Y407670D01*
Y517878D02*
Y543278D01*
Y653485D02*
Y678885D01*
Y789093D02*
Y814493D01*
Y924701D02*
Y950101D01*
Y1060309D02*
Y1085709D01*
Y1195917D02*
Y1221317D01*
Y1331524D02*
Y1356924D01*
Y1467132D02*
Y1492532D01*
Y1602740D02*
Y1628140D01*
X2145698Y559214D02*
Y570230D01*
X2145411Y558927D02*
X2142871D01*
X2134235D01*
X2155698Y457454D02*
Y468630D01*
X2235835Y457327D02*
X2155571D01*
X2145538Y457200D02*
Y468630D01*
X2155698D02*
X2145538D01*
X2155698Y558927D02*
Y570070D01*
Y570230D02*
X2145698D01*
X2144268Y457200D02*
X2134268D01*
X2134235Y457327D02*
Y558927D01*
X2235835Y457327D02*
Y558927D01*
X2155698D01*
X2145698Y660814D02*
Y671830D01*
X2145411Y660527D02*
X2142871D01*
X2134235D01*
X2155698Y559054D02*
Y570230D01*
X2235835Y558927D02*
X2155571D01*
X2145538Y558800D02*
Y570230D01*
X2155698D02*
X2145538D01*
X2155698Y660527D02*
Y671670D01*
Y671830D02*
X2145698D01*
X2144268Y558800D02*
X2134268D01*
X2134235Y558927D02*
Y660527D01*
X2235835Y558927D02*
Y660527D01*
X2155698D01*
X2145698Y762414D02*
Y773430D01*
X2145411Y762127D02*
X2142871D01*
X2134235D01*
X2155698Y660654D02*
Y671830D01*
X2235835Y660527D02*
X2155571D01*
X2145538Y660400D02*
Y671830D01*
X2155698D02*
X2145538D01*
X2155698Y762127D02*
Y773270D01*
Y773430D02*
X2145698D01*
X2144268Y660400D02*
X2134268D01*
X2134235Y660527D02*
Y762127D01*
X2235835Y660527D02*
Y762127D01*
X2155698D01*
X2145698Y864014D02*
Y875030D01*
X2145411Y863727D02*
X2142871D01*
X2134235D01*
X2155698Y762254D02*
Y773430D01*
X2235835Y762127D02*
X2155571D01*
X2145538Y762000D02*
Y773430D01*
X2155698D02*
X2145538D01*
X2155698Y863727D02*
Y874870D01*
Y875030D02*
X2145698D01*
X2144268Y762000D02*
X2134268D01*
X2134235Y762127D02*
Y863727D01*
X2235835Y762127D02*
Y863727D01*
X2155698D01*
X2145698Y965614D02*
Y976630D01*
X2145411Y965327D02*
X2142871D01*
X2134235D01*
X2155698Y863854D02*
Y875030D01*
X2235835Y863727D02*
X2155571D01*
X2145538Y863600D02*
Y875030D01*
X2155698D02*
X2145538D01*
X2155698Y965327D02*
Y976470D01*
Y976630D02*
X2145698D01*
X2144268Y863600D02*
X2134268D01*
X2134235Y863727D02*
Y965327D01*
X2235835Y863727D02*
Y965327D01*
X2155698D01*
X2145698Y1067214D02*
Y1078230D01*
X2145411Y1066927D02*
X2142871D01*
X2134235D01*
X2155698Y965454D02*
Y976630D01*
X2235835Y965327D02*
X2155571D01*
X2145538Y965200D02*
Y976630D01*
X2155698D02*
X2145538D01*
X2155698Y1066927D02*
Y1078070D01*
Y1078230D02*
X2145698D01*
X2144268Y965200D02*
X2134268D01*
X2134235Y965327D02*
Y1066927D01*
X2235835Y965327D02*
Y1066927D01*
X2155698D01*
X2145698Y1168814D02*
Y1179830D01*
X2145411Y1168527D02*
X2142871D01*
X2134235D01*
X2155698Y1067054D02*
Y1078230D01*
X2235835Y1066927D02*
X2155571D01*
X2145538Y1066800D02*
Y1078230D01*
X2155698D02*
X2145538D01*
X2155698Y1168527D02*
Y1179670D01*
Y1179830D02*
X2145698D01*
X2144268Y1066800D02*
X2134268D01*
X2134235Y1066927D02*
Y1168527D01*
X2235835Y1066927D02*
Y1168527D01*
X2155698D01*
X2145698Y1270414D02*
Y1281430D01*
X2145411Y1270127D02*
X2142871D01*
X2134235D01*
X2155698Y1168654D02*
Y1179830D01*
X2235835Y1168527D02*
X2155571D01*
X2145538Y1168400D02*
Y1179830D01*
X2155698D02*
X2145538D01*
X2155698Y1270127D02*
Y1281270D01*
Y1281430D02*
X2145698D01*
X2144268Y1168400D02*
X2134268D01*
X2134235Y1168527D02*
Y1270127D01*
X2235835Y1168527D02*
Y1270127D01*
X2155698D01*
X2145698Y1372014D02*
Y1383030D01*
X2145411Y1371727D02*
X2142871D01*
X2134235D01*
X2155698Y1270254D02*
Y1281430D01*
X2235835Y1270127D02*
X2155571D01*
X2145538Y1270000D02*
Y1281430D01*
X2155698D02*
X2145538D01*
X2155698Y1371727D02*
Y1382870D01*
Y1383030D02*
X2145698D01*
X2144268Y1270000D02*
X2134268D01*
X2134235Y1270127D02*
Y1371727D01*
X2235835Y1270127D02*
Y1371727D01*
X2155698D01*
X2145698Y1473614D02*
Y1484630D01*
X2145411Y1473327D02*
X2142871D01*
X2134235D01*
X2155698Y1371854D02*
Y1383030D01*
X2235835Y1371727D02*
X2155571D01*
X2145538Y1371600D02*
Y1383030D01*
X2155698D02*
X2145538D01*
X2155698Y1473327D02*
Y1484470D01*
Y1484630D02*
X2145698D01*
X2144268Y1371600D02*
X2134268D01*
X2134235Y1371727D02*
Y1473327D01*
X2235835Y1371727D02*
Y1473327D01*
X2155698D01*
X1245898Y357156D02*
Y457156D01*
Y357156D02*
X975898D01*
Y457156D01*
X1245898D02*
X975898D01*
X1245898Y492794D02*
Y592794D01*
Y492794D02*
X975898D01*
Y592794D01*
X1245898D02*
X975898D01*
X1245898Y628432D02*
Y728432D01*
Y628432D02*
X975898D01*
Y728432D01*
X1245898D02*
X975898D01*
X1245898Y764070D02*
Y864070D01*
Y764070D02*
X975898D01*
Y864070D01*
X1245898D02*
X975898D01*
X1245898Y899708D02*
Y999708D01*
Y899708D02*
X975898D01*
Y999708D01*
X1245898D02*
X975898D01*
X776318Y447040D02*
Y458056D01*
X779145Y458343D02*
X776605D01*
X787781D02*
X779145D01*
X766318Y548640D02*
Y559816D01*
X766445Y559943D02*
X686181D01*
X776478Y548640D02*
Y560070D01*
Y548640D02*
X766318D01*
Y447200D02*
Y458343D01*
X776318Y447040D02*
X766318D01*
X787748Y560070D02*
X777748D01*
X787781Y458343D02*
Y559943D01*
X686181Y458343D02*
Y559943D01*
X766318Y458343D02*
X686181D01*
X776318Y548640D02*
Y559656D01*
X779145Y559943D02*
X776605D01*
X787781D02*
X779145D01*
X766318Y650240D02*
Y661416D01*
X766445Y661543D02*
X686181D01*
X776478Y650240D02*
Y661670D01*
Y650240D02*
X766318D01*
Y548800D02*
Y559943D01*
X776318Y548640D02*
X766318D01*
X787748Y661670D02*
X777748D01*
X787781Y559943D02*
Y661543D01*
X686181Y559943D02*
Y661543D01*
X766318Y559943D02*
X686181D01*
X776318Y650240D02*
Y661256D01*
X779145Y661543D02*
X776605D01*
X787781D02*
X779145D01*
X766318Y751840D02*
Y763016D01*
X766445Y763143D02*
X686181D01*
X776478Y751840D02*
Y763270D01*
Y751840D02*
X766318D01*
Y650400D02*
Y661543D01*
X776318Y650240D02*
X766318D01*
X787748Y763270D02*
X777748D01*
X787781Y661543D02*
Y763143D01*
X686181Y661543D02*
Y763143D01*
X766318Y661543D02*
X686181D01*
X776318Y751840D02*
Y762856D01*
X779145Y763143D02*
X776605D01*
X787781D02*
X779145D01*
X766318Y853440D02*
Y864616D01*
X766445Y864743D02*
X686181D01*
X776478Y853440D02*
Y864870D01*
Y853440D02*
X766318D01*
Y752000D02*
Y763143D01*
X776318Y751840D02*
X766318D01*
X787748Y864870D02*
X777748D01*
X787781Y763143D02*
Y864743D01*
X686181Y763143D02*
Y864743D01*
X766318Y763143D02*
X686181D01*
X776318Y853440D02*
Y864456D01*
X779145Y864743D02*
X776605D01*
X787781D02*
X779145D01*
X766318Y955040D02*
Y966216D01*
X766445Y966343D02*
X686181D01*
X776478Y955040D02*
Y966470D01*
Y955040D02*
X766318D01*
Y853600D02*
Y864743D01*
X776318Y853440D02*
X766318D01*
X787748Y966470D02*
X777748D01*
X787781Y864743D02*
Y966343D01*
X686181Y864743D02*
Y966343D01*
X766318Y864743D02*
X686181D01*
X776318Y955040D02*
Y966056D01*
X779145Y966343D02*
X776605D01*
X787781D02*
X779145D01*
X766318Y1056640D02*
Y1067816D01*
X766445Y1067943D02*
X686181D01*
X776478Y1056640D02*
Y1068070D01*
Y1056640D02*
X766318D01*
Y955200D02*
Y966343D01*
X776318Y955040D02*
X766318D01*
X787748Y1068070D02*
X777748D01*
X787781Y966343D02*
Y1067943D01*
X686181Y966343D02*
Y1067943D01*
X766318Y966343D02*
X686181D01*
X776318Y1056640D02*
Y1067656D01*
X779145Y1067943D02*
X776605D01*
X787781D02*
X779145D01*
X766318Y1158240D02*
Y1169416D01*
X766445Y1169543D02*
X686181D01*
X776478Y1158240D02*
Y1169670D01*
Y1158240D02*
X766318D01*
Y1056800D02*
Y1067943D01*
X776318Y1056640D02*
X766318D01*
X787748Y1169670D02*
X777748D01*
X787781Y1067943D02*
Y1169543D01*
X686181Y1067943D02*
Y1169543D01*
X766318Y1067943D02*
X686181D01*
X776318Y1158240D02*
Y1169256D01*
X779145Y1169543D02*
X776605D01*
X787781D02*
X779145D01*
X766318Y1259840D02*
Y1271016D01*
X766445Y1271143D02*
X686181D01*
X776478Y1259840D02*
Y1271270D01*
Y1259840D02*
X766318D01*
Y1158400D02*
Y1169543D01*
X776318Y1158240D02*
X766318D01*
X787748Y1271270D02*
X777748D01*
X787781Y1169543D02*
Y1271143D01*
X686181Y1169543D02*
Y1271143D01*
X766318Y1169543D02*
X686181D01*
X776318Y1259840D02*
Y1270856D01*
X779145Y1271143D02*
X776605D01*
X787781D02*
X779145D01*
X766318Y1361440D02*
Y1372616D01*
X766445Y1372743D02*
X686181D01*
X776478Y1361440D02*
Y1372870D01*
Y1361440D02*
X766318D01*
Y1260000D02*
Y1271143D01*
X776318Y1259840D02*
X766318D01*
X787748Y1372870D02*
X777748D01*
X787781Y1271143D02*
Y1372743D01*
X686181Y1271143D02*
Y1372743D01*
X766318Y1271143D02*
X686181D01*
X776318Y1361440D02*
Y1372456D01*
X779145Y1372743D02*
X776605D01*
X787781D02*
X779145D01*
X766318Y1463040D02*
Y1474216D01*
X766445Y1474343D02*
X686181D01*
X776478Y1463040D02*
Y1474470D01*
Y1463040D02*
X766318D01*
Y1361600D02*
Y1372743D01*
X776318Y1361440D02*
X766318D01*
X787748Y1474470D02*
X777748D01*
X787781Y1372743D02*
Y1474343D01*
X686181Y1372743D02*
Y1474343D01*
X766318Y1372743D02*
X686181D01*
X1245898Y1713535D02*
Y1813535D01*
Y1713535D02*
X975898D01*
Y1813535D01*
X1245898D02*
X975898D01*
X1245898Y1849173D02*
Y1949173D01*
Y1849173D02*
X975898D01*
Y1949173D01*
X1245898D02*
X975898D01*
X1245898Y1984810D02*
Y2084810D01*
Y1984810D02*
X975898D01*
Y2084810D01*
X1245898D02*
X975898D01*
X1245898Y2120448D02*
Y2220448D01*
Y2120448D02*
X975898D01*
Y2220448D01*
X1245898D02*
X975898D01*
X1676118Y1701853D02*
Y1801853D01*
X1946118D02*
X1676118D01*
X1946118Y1701853D02*
Y1801853D01*
Y1701853D02*
X1676118D01*
Y1837491D02*
Y1937491D01*
X1946118D02*
X1676118D01*
X1946118Y1837491D02*
Y1937491D01*
Y1837491D02*
X1676118D01*
Y1973128D02*
Y2073128D01*
X1946118D02*
X1676118D01*
X1946118Y1973128D02*
Y2073128D01*
Y1973128D02*
X1676118D01*
Y2108766D02*
Y2208766D01*
X1946118D02*
X1676118D01*
X1946118Y2108766D02*
Y2208766D01*
Y2108766D02*
X1676118D01*
X776318Y1701800D02*
Y1712816D01*
X779145Y1713103D02*
X776605D01*
X787781D02*
X779145D01*
X766318Y1803400D02*
Y1814576D01*
X766445Y1814703D02*
X686181D01*
X776478Y1803400D02*
Y1814830D01*
Y1803400D02*
X766318D01*
Y1701960D02*
Y1713103D01*
X776318Y1701800D02*
X766318D01*
X787748Y1814830D02*
X777748D01*
X787781Y1713103D02*
Y1814703D01*
X686181Y1713103D02*
Y1814703D01*
X766318Y1713103D02*
X686181D01*
X776318Y1803400D02*
Y1814416D01*
X779145Y1814703D02*
X776605D01*
X787781D02*
X779145D01*
X766318Y1905000D02*
Y1916176D01*
X766445Y1916303D02*
X686181D01*
X776478Y1905000D02*
Y1916430D01*
Y1905000D02*
X766318D01*
Y1803560D02*
Y1814703D01*
X776318Y1803400D02*
X766318D01*
X787748Y1916430D02*
X777748D01*
X787781Y1814703D02*
Y1916303D01*
X686181Y1814703D02*
Y1916303D01*
X766318Y1814703D02*
X686181D01*
X776318Y1905000D02*
Y1916016D01*
X779145Y1916303D02*
X776605D01*
X787781D02*
X779145D01*
X766318Y2006600D02*
Y2017776D01*
X766445Y2017903D02*
X686181D01*
X776478Y2006600D02*
Y2018030D01*
Y2006600D02*
X766318D01*
Y1905160D02*
Y1916303D01*
X776318Y1905000D02*
X766318D01*
X787748Y2018030D02*
X777748D01*
X787781Y1916303D02*
Y2017903D01*
X686181Y1916303D02*
Y2017903D01*
X766318Y1916303D02*
X686181D01*
X776318Y2006600D02*
Y2017616D01*
X779145Y2017903D02*
X776605D01*
X787781D02*
X779145D01*
X766318Y2108200D02*
Y2119376D01*
X766445Y2119503D02*
X686181D01*
X776478Y2108200D02*
Y2119630D01*
Y2108200D02*
X766318D01*
Y2006760D02*
Y2017903D01*
X776318Y2006600D02*
X766318D01*
X787748Y2119630D02*
X777748D01*
X787781Y2017903D02*
Y2119503D01*
X686181Y2017903D02*
Y2119503D01*
X766318Y2017903D02*
X686181D01*
X2145698Y1815244D02*
Y1826260D01*
X2145411Y1814957D02*
X2142871D01*
X2134235D01*
X2155698Y1713484D02*
Y1724660D01*
X2235835Y1713357D02*
X2155571D01*
X2145538Y1713230D02*
Y1724660D01*
X2155698D02*
X2145538D01*
X2155698Y1814957D02*
Y1826100D01*
Y1826260D02*
X2145698D01*
X2144268Y1713230D02*
X2134268D01*
X2134235Y1713357D02*
Y1814957D01*
X2235835Y1713357D02*
Y1814957D01*
X2155698D01*
X2145698Y1916844D02*
Y1927860D01*
X2145411Y1916557D02*
X2142871D01*
X2134235D01*
X2155698Y1815084D02*
Y1826260D01*
X2235835Y1814957D02*
X2155571D01*
X2145538Y1814830D02*
Y1826260D01*
X2155698D02*
X2145538D01*
X2155698Y1916557D02*
Y1927700D01*
Y1927860D02*
X2145698D01*
X2144268Y1814830D02*
X2134268D01*
X2134235Y1814957D02*
Y1916557D01*
X2235835Y1814957D02*
Y1916557D01*
X2155698D01*
X2145698Y2018444D02*
Y2029460D01*
X2145411Y2018157D02*
X2142871D01*
X2134235D01*
X2155698Y1916684D02*
Y1927860D01*
X2235835Y1916557D02*
X2155571D01*
X2145538Y1916430D02*
Y1927860D01*
X2155698D02*
X2145538D01*
X2155698Y2018157D02*
Y2029300D01*
Y2029460D02*
X2145698D01*
X2144268Y1916430D02*
X2134268D01*
X2134235Y1916557D02*
Y2018157D01*
X2235835Y1916557D02*
Y2018157D01*
X2155698D01*
X2145698Y2120044D02*
Y2131060D01*
X2145411Y2119757D02*
X2142871D01*
X2134235D01*
X2155698Y2018284D02*
Y2029460D01*
X2235835Y2018157D02*
X2155571D01*
X2145538Y2018030D02*
Y2029460D01*
X2155698D02*
X2145538D01*
X2155698Y2119757D02*
Y2130900D01*
Y2131060D02*
X2145698D01*
X2144268Y2018030D02*
X2134268D01*
X2134235Y2018157D02*
Y2119757D01*
X2235835Y2018157D02*
Y2119757D01*
X2155698D01*
X1676118Y345474D02*
Y445474D01*
X1946118D02*
X1676118D01*
X1946118Y345474D02*
Y445474D01*
Y345474D02*
X1676118D01*
Y481112D02*
Y581112D01*
X1946118D02*
X1676118D01*
X1946118Y481112D02*
Y581112D01*
Y481112D02*
X1676118D01*
Y616750D02*
Y716750D01*
X1946118D02*
X1676118D01*
X1946118Y616750D02*
Y716750D01*
Y616750D02*
X1676118D01*
Y1294939D02*
Y1394939D01*
X1946118D02*
X1676118D01*
X1946118Y1294939D02*
Y1394939D01*
Y1294939D02*
X1676118D01*
Y1430577D02*
Y1530577D01*
X1946118D02*
X1676118D01*
X1946118Y1430577D02*
Y1530577D01*
Y1430577D02*
X1676118D01*
Y1566215D02*
Y1666215D01*
X1946118D02*
X1676118D01*
X1946118Y1566215D02*
Y1666215D01*
Y1566215D02*
X1676118D01*
X1245898Y1035346D02*
Y1135346D01*
Y1035346D02*
X975898D01*
Y1135346D01*
X1245898D02*
X975898D01*
X1245898Y1170984D02*
Y1270984D01*
Y1170984D02*
X975898D01*
Y1270984D01*
X1245898D02*
X975898D01*
X1245898Y1306621D02*
Y1406621D01*
Y1306621D02*
X975898D01*
Y1406621D01*
X1245898D02*
X975898D01*
X1245898Y1442259D02*
Y1542259D01*
Y1442259D02*
X975898D01*
Y1542259D01*
X1245898D02*
X975898D01*
X1245898Y1577897D02*
Y1677897D01*
Y1577897D02*
X975898D01*
Y1677897D01*
X1245898D02*
X975898D01*
X1676118Y752388D02*
Y852388D01*
X1946118D02*
X1676118D01*
X1946118Y752388D02*
Y852388D01*
Y752388D02*
X1676118D01*
Y888026D02*
Y988026D01*
X1946118D02*
X1676118D01*
X1946118Y888026D02*
Y988026D01*
Y888026D02*
X1676118D01*
Y1023663D02*
Y1123663D01*
X1946118D02*
X1676118D01*
X1946118Y1023663D02*
Y1123663D01*
Y1023663D02*
X1676118D01*
Y1159301D02*
Y1259301D01*
X1946118D02*
X1676118D01*
X1946118Y1159301D02*
Y1259301D01*
Y1159301D02*
X1676118D01*
X1628143Y488183D02*
X1633222D01*
X1630683D01*
Y475487D01*
X1633222Y472948D01*
X1635761D01*
X1638300Y475487D01*
X1623065Y472948D02*
X1617987D01*
X1620526D01*
Y488183D01*
X1623065Y485644D01*
X1628143Y2226813D02*
X1633222D01*
X1630683D01*
Y2214117D01*
X1633222Y2211578D01*
X1635761D01*
X1638300Y2214117D01*
X1612908Y2211578D02*
X1623065D01*
X1612908Y2221735D01*
Y2224274D01*
X1615447Y2226813D01*
X1620526D01*
X1623065Y2224274D01*
X803066Y1621790D02*
Y1628454D01*
X798068Y1631787D02*
Y1635119D01*
Y1633453D01*
X808065D01*
X806399Y1631787D01*
X798068Y1646782D02*
Y1640117D01*
X804733Y1646782D01*
X806399D01*
X808065Y1645116D01*
Y1641784D01*
X806399Y1640117D01*
X796402Y1650114D02*
Y1656779D01*
X808065Y1665109D02*
Y1661777D01*
X806399Y1660111D01*
X799734D01*
X798068Y1661777D01*
Y1665109D01*
X799734Y1666776D01*
X806399D01*
X808065Y1665109D01*
X804733Y1670108D02*
X799734D01*
X798068Y1671774D01*
Y1676772D01*
X804733D01*
X806399Y1681771D02*
X804733D01*
Y1680105D01*
Y1683437D01*
Y1681771D01*
X799734D01*
X798068Y1683437D01*
X796402Y1688435D02*
Y1695100D01*
X806399Y1698432D02*
X808065Y1700098D01*
Y1703430D01*
X806399Y1705096D01*
X804733D01*
X803066Y1703430D01*
Y1701764D01*
Y1703430D01*
X801400Y1705096D01*
X799734D01*
X798068Y1703430D01*
Y1700098D01*
X799734Y1698432D01*
X806876Y1508760D02*
Y1515424D01*
X801878Y1518757D02*
Y1522089D01*
Y1520423D01*
X811875D01*
X810209Y1518757D01*
X801878Y1533752D02*
Y1527087D01*
X808542Y1533752D01*
X810209D01*
X811875Y1532086D01*
Y1528754D01*
X810209Y1527087D01*
X800212Y1537084D02*
Y1543749D01*
X811875Y1552079D02*
Y1548747D01*
X810209Y1547081D01*
X803544D01*
X801878Y1548747D01*
Y1552079D01*
X803544Y1553746D01*
X810209D01*
X811875Y1552079D01*
X808542Y1557078D02*
X803544D01*
X801878Y1558744D01*
Y1563742D01*
X808542D01*
X810209Y1568741D02*
X808542D01*
Y1567074D01*
Y1570407D01*
Y1568741D01*
X803544D01*
X801878Y1570407D01*
X800212Y1575405D02*
Y1582070D01*
X801878Y1590400D02*
X811875D01*
X806876Y1585402D01*
Y1592066D01*
X2112600Y1706880D02*
Y1700215D01*
X2117598Y1696883D02*
Y1693551D01*
Y1695217D01*
X2107601D01*
X2109267Y1696883D01*
X2117598Y1681888D02*
Y1688553D01*
X2110934Y1681888D01*
X2109267D01*
X2107601Y1683554D01*
Y1686886D01*
X2109267Y1688553D01*
X2119264Y1678556D02*
Y1671891D01*
X2107601Y1663561D02*
Y1666893D01*
X2109267Y1668559D01*
X2115932D01*
X2117598Y1666893D01*
Y1663561D01*
X2115932Y1661895D01*
X2109267D01*
X2107601Y1663561D01*
X2110934Y1658562D02*
X2115932D01*
X2117598Y1656896D01*
Y1651898D01*
X2110934D01*
X2109267Y1646899D02*
X2110934D01*
Y1648566D01*
Y1645233D01*
Y1646899D01*
X2115932D01*
X2117598Y1645233D01*
X2119264Y1640235D02*
Y1633570D01*
X2117598Y1630238D02*
Y1626906D01*
Y1628572D01*
X2107601D01*
X2109267Y1630238D01*
X2112600Y1602740D02*
Y1596075D01*
X2117598Y1592743D02*
Y1589411D01*
Y1591077D01*
X2107601D01*
X2109267Y1592743D01*
X2117598Y1577748D02*
Y1584413D01*
X2110934Y1577748D01*
X2109267D01*
X2107601Y1579414D01*
Y1582746D01*
X2109267Y1584413D01*
X2119264Y1574416D02*
Y1567751D01*
X2107601Y1559421D02*
Y1562753D01*
X2109267Y1564419D01*
X2115932D01*
X2117598Y1562753D01*
Y1559421D01*
X2115932Y1557755D01*
X2109267D01*
X2107601Y1559421D01*
X2110934Y1554422D02*
X2115932D01*
X2117598Y1552756D01*
Y1547758D01*
X2110934D01*
X2109267Y1542759D02*
X2110934D01*
Y1544426D01*
Y1541093D01*
Y1542759D01*
X2115932D01*
X2117598Y1541093D01*
X2119264Y1536095D02*
Y1529430D01*
X2117598Y1519433D02*
Y1526098D01*
X2110934Y1519433D01*
X2109267D01*
X2107601Y1521100D01*
Y1524432D01*
X2109267Y1526098D01*
X1944878Y1676654D02*
X1941546D01*
X1943212D01*
Y1686651D01*
X1944878Y1684985D01*
X1936547Y1676654D02*
Y1683318D01*
X1933215Y1686651D01*
X1929883Y1683318D01*
Y1676654D01*
Y1681652D01*
X1936547D01*
X1926551Y1674988D02*
X1919886D01*
X1916554Y1684985D02*
X1914888Y1686651D01*
X1911555D01*
X1909889Y1684985D01*
Y1678320D01*
X1911555Y1676654D01*
X1914888D01*
X1916554Y1678320D01*
Y1684985D01*
X1906557Y1676654D02*
X1903225D01*
X1904891D01*
Y1686651D01*
X1906557Y1684985D01*
X1944878Y1541018D02*
X1941546D01*
X1943212D01*
Y1551015D01*
X1944878Y1549349D01*
X1936547Y1541018D02*
Y1547682D01*
X1933215Y1551015D01*
X1929883Y1547682D01*
Y1541018D01*
Y1546016D01*
X1936547D01*
X1926551Y1539352D02*
X1919886D01*
X1916554Y1549349D02*
X1914888Y1551015D01*
X1911555D01*
X1909889Y1549349D01*
Y1542684D01*
X1911555Y1541018D01*
X1914888D01*
X1916554Y1542684D01*
Y1549349D01*
X1899892Y1541018D02*
X1906557D01*
X1899892Y1547682D01*
Y1549349D01*
X1901559Y1551015D01*
X1904891D01*
X1906557Y1549349D01*
X1944878Y1405382D02*
X1941546D01*
X1943212D01*
Y1415379D01*
X1944878Y1413713D01*
X1936547Y1405382D02*
Y1412047D01*
X1933215Y1415379D01*
X1929883Y1412047D01*
Y1405382D01*
Y1410380D01*
X1936547D01*
X1926551Y1403716D02*
X1919886D01*
X1916554Y1413713D02*
X1914888Y1415379D01*
X1911555D01*
X1909889Y1413713D01*
Y1407048D01*
X1911555Y1405382D01*
X1914888D01*
X1916554Y1407048D01*
Y1413713D01*
X1906557D02*
X1904891Y1415379D01*
X1901559D01*
X1899892Y1413713D01*
Y1412047D01*
X1901559Y1410380D01*
X1903225D01*
X1901559D01*
X1899892Y1408714D01*
Y1407048D01*
X1901559Y1405382D01*
X1904891D01*
X1906557Y1407048D01*
X1938214Y1269746D02*
X1944878D01*
X1938214Y1276411D01*
Y1278077D01*
X1939880Y1279743D01*
X1943212D01*
X1944878Y1278077D01*
X1934881Y1269746D02*
Y1276411D01*
X1931549Y1279743D01*
X1928217Y1276411D01*
Y1269746D01*
Y1274744D01*
X1934881D01*
X1924884Y1268080D02*
X1918220D01*
X1914888Y1278077D02*
X1913221Y1279743D01*
X1909889D01*
X1908223Y1278077D01*
Y1271412D01*
X1909889Y1269746D01*
X1913221D01*
X1914888Y1271412D01*
Y1278077D01*
X1899892Y1269746D02*
Y1279743D01*
X1904891Y1274744D01*
X1898226D01*
X1938214Y1134110D02*
X1944878D01*
X1938214Y1140775D01*
Y1142441D01*
X1939880Y1144107D01*
X1943212D01*
X1944878Y1142441D01*
X1934881Y1134110D02*
Y1140775D01*
X1931549Y1144107D01*
X1928217Y1140775D01*
Y1134110D01*
Y1139108D01*
X1934881D01*
X1924884Y1132444D02*
X1918220D01*
X1914888Y1142441D02*
X1913221Y1144107D01*
X1909889D01*
X1908223Y1142441D01*
Y1135776D01*
X1909889Y1134110D01*
X1913221D01*
X1914888Y1135776D01*
Y1142441D01*
X1898226Y1144107D02*
X1904891D01*
Y1139108D01*
X1901559Y1140775D01*
X1899892D01*
X1898226Y1139108D01*
Y1135776D01*
X1899892Y1134110D01*
X1903225D01*
X1904891Y1135776D01*
X1938214Y998474D02*
X1944878D01*
X1938214Y1005138D01*
Y1006805D01*
X1939880Y1008471D01*
X1943212D01*
X1944878Y1006805D01*
X1934881Y998474D02*
Y1005138D01*
X1931549Y1008471D01*
X1928217Y1005138D01*
Y998474D01*
Y1003472D01*
X1934881D01*
X1924884Y996808D02*
X1918220D01*
X1914888Y1006805D02*
X1913221Y1008471D01*
X1909889D01*
X1908223Y1006805D01*
Y1000140D01*
X1909889Y998474D01*
X1913221D01*
X1914888Y1000140D01*
Y1006805D01*
X1898226Y1008471D02*
X1901559Y1006805D01*
X1904891Y1003472D01*
Y1000140D01*
X1903225Y998474D01*
X1899892D01*
X1898226Y1000140D01*
Y1001806D01*
X1899892Y1003472D01*
X1904891D01*
X1938214Y862838D02*
X1944878D01*
X1938214Y869502D01*
Y871169D01*
X1939880Y872835D01*
X1943212D01*
X1944878Y871169D01*
X1934881Y862838D02*
Y869502D01*
X1931549Y872835D01*
X1928217Y869502D01*
Y862838D01*
Y867836D01*
X1934881D01*
X1924884Y861172D02*
X1918220D01*
X1914888Y871169D02*
X1913221Y872835D01*
X1909889D01*
X1908223Y871169D01*
Y864504D01*
X1909889Y862838D01*
X1913221D01*
X1914888Y864504D01*
Y871169D01*
X1904891Y872835D02*
X1898226D01*
Y871169D01*
X1904891Y864504D01*
Y862838D01*
X1944878Y727202D02*
X1941546D01*
X1943212D01*
Y737199D01*
X1944878Y735533D01*
X1936547Y727202D02*
Y733867D01*
X1933215Y737199D01*
X1929883Y733867D01*
Y727202D01*
Y732200D01*
X1936547D01*
X1926551Y725536D02*
X1919886D01*
X1916554Y735533D02*
X1914888Y737199D01*
X1911555D01*
X1909889Y735533D01*
Y728868D01*
X1911555Y727202D01*
X1914888D01*
X1916554Y728868D01*
Y735533D01*
X1906557D02*
X1904891Y737199D01*
X1901559D01*
X1899892Y735533D01*
Y733867D01*
X1901559Y732200D01*
X1899892Y730534D01*
Y728868D01*
X1901559Y727202D01*
X1904891D01*
X1906557Y728868D01*
Y730534D01*
X1904891Y732200D01*
X1906557Y733867D01*
Y735533D01*
X1904891Y732200D02*
X1901559D01*
X1944878Y591566D02*
X1941546D01*
X1943212D01*
Y601563D01*
X1944878Y599897D01*
X1936547Y591566D02*
Y598231D01*
X1933215Y601563D01*
X1929883Y598231D01*
Y591566D01*
Y596564D01*
X1936547D01*
X1926551Y589900D02*
X1919886D01*
X1916554Y599897D02*
X1914888Y601563D01*
X1911555D01*
X1909889Y599897D01*
Y593232D01*
X1911555Y591566D01*
X1914888D01*
X1916554Y593232D01*
Y599897D01*
X1906557Y593232D02*
X1904891Y591566D01*
X1901559D01*
X1899892Y593232D01*
Y599897D01*
X1901559Y601563D01*
X1904891D01*
X1906557Y599897D01*
Y598231D01*
X1904891Y596564D01*
X1899892D01*
X1944878Y455930D02*
X1941546D01*
X1943212D01*
Y465927D01*
X1944878Y464261D01*
X1936547Y455930D02*
Y462594D01*
X1933215Y465927D01*
X1929883Y462594D01*
Y455930D01*
Y460928D01*
X1936547D01*
X1926551Y454264D02*
X1919886D01*
X1916554Y455930D02*
X1913221D01*
X1914888D01*
Y465927D01*
X1916554Y464261D01*
X1908223D02*
X1906557Y465927D01*
X1903225D01*
X1901559Y464261D01*
Y457596D01*
X1903225Y455930D01*
X1906557D01*
X1908223Y457596D01*
Y464261D01*
X2107601Y2096456D02*
Y2103120D01*
X2112600D01*
X2110934Y2099788D01*
Y2098122D01*
X2112600Y2096456D01*
X2115932D01*
X2117598Y2098122D01*
Y2101454D01*
X2115932Y2103120D01*
X2119264Y2093123D02*
Y2086459D01*
X2107601Y2078128D02*
Y2081460D01*
X2109267Y2083126D01*
X2115932D01*
X2117598Y2081460D01*
Y2078128D01*
X2115932Y2076462D01*
X2109267D01*
X2107601Y2078128D01*
Y2073130D02*
X2115932D01*
X2117598Y2071463D01*
Y2068131D01*
X2115932Y2066465D01*
X2107601D01*
Y2063133D02*
Y2056468D01*
Y2059801D01*
X2117598D01*
X2119264Y2053136D02*
Y2046472D01*
X2117598Y2043139D02*
Y2039807D01*
Y2041473D01*
X2107601D01*
X2109267Y2043139D01*
X2106331Y1996125D02*
Y2002790D01*
X2111330D01*
X2109664Y1999458D01*
Y1997792D01*
X2111330Y1996125D01*
X2114662D01*
X2116328Y1997792D01*
Y2001124D01*
X2114662Y2002790D01*
X2117994Y1992793D02*
Y1986129D01*
X2106331Y1977798D02*
Y1981130D01*
X2107997Y1982796D01*
X2114662D01*
X2116328Y1981130D01*
Y1977798D01*
X2114662Y1976132D01*
X2107997D01*
X2106331Y1977798D01*
Y1972800D02*
X2114662D01*
X2116328Y1971134D01*
Y1967801D01*
X2114662Y1966135D01*
X2106331D01*
Y1962803D02*
Y1956138D01*
Y1959471D01*
X2116328D01*
X2117994Y1952806D02*
Y1946142D01*
X2116328Y1936145D02*
Y1942809D01*
X2109664Y1936145D01*
X2107997D01*
X2106331Y1937811D01*
Y1941143D01*
X2107997Y1942809D01*
X2105061Y1894525D02*
Y1901190D01*
X2110060D01*
X2108394Y1897858D01*
Y1896192D01*
X2110060Y1894525D01*
X2113392D01*
X2115058Y1896192D01*
Y1899524D01*
X2113392Y1901190D01*
X2116724Y1891193D02*
Y1884529D01*
X2105061Y1876198D02*
Y1879530D01*
X2106727Y1881196D01*
X2113392D01*
X2115058Y1879530D01*
Y1876198D01*
X2113392Y1874532D01*
X2106727D01*
X2105061Y1876198D01*
Y1871200D02*
X2113392D01*
X2115058Y1869534D01*
Y1866201D01*
X2113392Y1864535D01*
X2105061D01*
Y1861203D02*
Y1854538D01*
Y1857871D01*
X2115058D01*
X2116724Y1851206D02*
Y1844542D01*
X2106727Y1841209D02*
X2105061Y1839543D01*
Y1836211D01*
X2106727Y1834545D01*
X2108394D01*
X2110060Y1836211D01*
Y1837877D01*
Y1836211D01*
X2111726Y1834545D01*
X2113392D01*
X2115058Y1836211D01*
Y1839543D01*
X2113392Y1841209D01*
X2103791Y1786575D02*
Y1793240D01*
X2108790D01*
X2107124Y1789908D01*
Y1788242D01*
X2108790Y1786575D01*
X2112122D01*
X2113788Y1788242D01*
Y1791574D01*
X2112122Y1793240D01*
X2115454Y1783243D02*
Y1776579D01*
X2103791Y1768248D02*
Y1771580D01*
X2105457Y1773246D01*
X2112122D01*
X2113788Y1771580D01*
Y1768248D01*
X2112122Y1766582D01*
X2105457D01*
X2103791Y1768248D01*
Y1763250D02*
X2112122D01*
X2113788Y1761584D01*
Y1758251D01*
X2112122Y1756585D01*
X2103791D01*
Y1753253D02*
Y1746588D01*
Y1749921D01*
X2113788D01*
X2115454Y1743256D02*
Y1736592D01*
X2113788Y1728261D02*
X2103791D01*
X2108790Y1733259D01*
Y1726595D01*
X806795Y2046284D02*
Y2039620D01*
X801796D01*
X803463Y2042952D01*
Y2044618D01*
X801796Y2046284D01*
X798464D01*
X796798Y2044618D01*
Y2041286D01*
X798464Y2039620D01*
X795132Y2049617D02*
Y2056281D01*
X806795Y2064612D02*
Y2061280D01*
X805129Y2059614D01*
X798464D01*
X796798Y2061280D01*
Y2064612D01*
X798464Y2066278D01*
X805129D01*
X806795Y2064612D01*
Y2069610D02*
X798464D01*
X796798Y2071277D01*
Y2074609D01*
X798464Y2076275D01*
X806795D01*
Y2079607D02*
Y2086272D01*
Y2082939D01*
X796798D01*
X795132Y2089604D02*
Y2096268D01*
X806795Y2106265D02*
Y2099601D01*
X801796D01*
X803463Y2102933D01*
Y2104599D01*
X801796Y2106265D01*
X798464D01*
X796798Y2104599D01*
Y2101267D01*
X798464Y2099601D01*
X806795Y1939604D02*
Y1932940D01*
X801796D01*
X803463Y1936272D01*
Y1937938D01*
X801796Y1939604D01*
X798464D01*
X796798Y1937938D01*
Y1934606D01*
X798464Y1932940D01*
X795132Y1942937D02*
Y1949601D01*
X806795Y1957932D02*
Y1954600D01*
X805129Y1952934D01*
X798464D01*
X796798Y1954600D01*
Y1957932D01*
X798464Y1959598D01*
X805129D01*
X806795Y1957932D01*
Y1962930D02*
X798464D01*
X796798Y1964597D01*
Y1967929D01*
X798464Y1969595D01*
X806795D01*
Y1972927D02*
Y1979592D01*
Y1976259D01*
X796798D01*
X795132Y1982924D02*
Y1989588D01*
X806795Y1999585D02*
X805129Y1996253D01*
X801796Y1992921D01*
X798464D01*
X796798Y1994587D01*
Y1997919D01*
X798464Y1999585D01*
X800130D01*
X801796Y1997919D01*
Y1992921D01*
X806795Y1844355D02*
Y1837690D01*
X801796D01*
X803463Y1841022D01*
Y1842688D01*
X801796Y1844355D01*
X798464D01*
X796798Y1842688D01*
Y1839356D01*
X798464Y1837690D01*
X795132Y1847687D02*
Y1854351D01*
X806795Y1862682D02*
Y1859350D01*
X805129Y1857684D01*
X798464D01*
X796798Y1859350D01*
Y1862682D01*
X798464Y1864348D01*
X805129D01*
X806795Y1862682D01*
Y1867680D02*
X798464D01*
X796798Y1869346D01*
Y1872679D01*
X798464Y1874345D01*
X806795D01*
Y1877677D02*
Y1884342D01*
Y1881009D01*
X796798D01*
X795132Y1887674D02*
Y1894338D01*
X806795Y1897671D02*
Y1904335D01*
X805129D01*
X798464Y1897671D01*
X796798D01*
X809335Y1737675D02*
Y1731010D01*
X804336D01*
X806003Y1734342D01*
Y1736008D01*
X804336Y1737675D01*
X801004D01*
X799338Y1736008D01*
Y1732676D01*
X801004Y1731010D01*
X797672Y1741007D02*
Y1747671D01*
X809335Y1756002D02*
Y1752670D01*
X807669Y1751004D01*
X801004D01*
X799338Y1752670D01*
Y1756002D01*
X801004Y1757668D01*
X807669D01*
X809335Y1756002D01*
Y1761000D02*
X801004D01*
X799338Y1762666D01*
Y1765999D01*
X801004Y1767665D01*
X809335D01*
Y1770997D02*
Y1777662D01*
Y1774329D01*
X799338D01*
X797672Y1780994D02*
Y1787658D01*
X807669Y1790991D02*
X809335Y1792657D01*
Y1795989D01*
X807669Y1797655D01*
X806003D01*
X804336Y1795989D01*
X802670Y1797655D01*
X801004D01*
X799338Y1795989D01*
Y1792657D01*
X801004Y1790991D01*
X802670D01*
X804336Y1792657D01*
X806003Y1790991D01*
X807669D01*
X804336Y1792657D02*
Y1795989D01*
X1938214Y2229195D02*
X1944878D01*
Y2224196D01*
X1941546Y2225862D01*
X1939880D01*
X1938214Y2224196D01*
Y2220864D01*
X1939880Y2219198D01*
X1943212D01*
X1944878Y2220864D01*
X1934881Y2225862D02*
X1931549Y2219198D01*
X1928217Y2225862D01*
X1924884Y2217532D02*
X1918220D01*
X1914888Y2227529D02*
X1913221Y2229195D01*
X1909889D01*
X1908223Y2227529D01*
Y2220864D01*
X1909889Y2219198D01*
X1913221D01*
X1914888Y2220864D01*
Y2227529D01*
X1904891Y2219198D02*
X1901559D01*
X1903225D01*
Y2229195D01*
X1904891Y2227529D01*
X1938214Y2093559D02*
X1944878D01*
Y2088560D01*
X1941546Y2090226D01*
X1939880D01*
X1938214Y2088560D01*
Y2085228D01*
X1939880Y2083562D01*
X1943212D01*
X1944878Y2085228D01*
X1934881Y2090226D02*
X1931549Y2083562D01*
X1928217Y2090226D01*
X1924884Y2081896D02*
X1918220D01*
X1914888Y2091893D02*
X1913221Y2093559D01*
X1909889D01*
X1908223Y2091893D01*
Y2085228D01*
X1909889Y2083562D01*
X1913221D01*
X1914888Y2085228D01*
Y2091893D01*
X1898226Y2083562D02*
X1904891D01*
X1898226Y2090226D01*
Y2091893D01*
X1899892Y2093559D01*
X1903225D01*
X1904891Y2091893D01*
X1938214Y1957923D02*
X1944878D01*
Y1952924D01*
X1941546Y1954590D01*
X1939880D01*
X1938214Y1952924D01*
Y1949592D01*
X1939880Y1947926D01*
X1943212D01*
X1944878Y1949592D01*
X1934881Y1954590D02*
X1931549Y1947926D01*
X1928217Y1954590D01*
X1924884Y1946260D02*
X1918220D01*
X1914888Y1956257D02*
X1913221Y1957923D01*
X1909889D01*
X1908223Y1956257D01*
Y1949592D01*
X1909889Y1947926D01*
X1913221D01*
X1914888Y1949592D01*
Y1956257D01*
X1904891D02*
X1903225Y1957923D01*
X1899892D01*
X1898226Y1956257D01*
Y1954590D01*
X1899892Y1952924D01*
X1901559D01*
X1899892D01*
X1898226Y1951258D01*
Y1949592D01*
X1899892Y1947926D01*
X1903225D01*
X1904891Y1949592D01*
X1938214Y1822287D02*
X1944878D01*
Y1817288D01*
X1941546Y1818954D01*
X1939880D01*
X1938214Y1817288D01*
Y1813956D01*
X1939880Y1812290D01*
X1943212D01*
X1944878Y1813956D01*
X1934881Y1818954D02*
X1931549Y1812290D01*
X1928217Y1818954D01*
X1924884Y1810624D02*
X1918220D01*
X1914888Y1820621D02*
X1913221Y1822287D01*
X1909889D01*
X1908223Y1820621D01*
Y1813956D01*
X1909889Y1812290D01*
X1913221D01*
X1914888Y1813956D01*
Y1820621D01*
X1899892Y1812290D02*
Y1822287D01*
X1904891Y1817288D01*
X1898226D01*
X1237935Y2240879D02*
X1244600D01*
Y2235880D01*
X1241268Y2237547D01*
X1239602D01*
X1237935Y2235880D01*
Y2232548D01*
X1239602Y2230882D01*
X1242934D01*
X1244600Y2232548D01*
X1234603Y2237547D02*
X1231271Y2230882D01*
X1227939Y2237547D01*
X1224606Y2229216D02*
X1217942D01*
X1214610Y2239213D02*
X1212943Y2240879D01*
X1209611D01*
X1207945Y2239213D01*
Y2232548D01*
X1209611Y2230882D01*
X1212943D01*
X1214610Y2232548D01*
Y2239213D01*
X1197948Y2240879D02*
X1204613D01*
Y2235880D01*
X1201281Y2237547D01*
X1199614D01*
X1197948Y2235880D01*
Y2232548D01*
X1199614Y2230882D01*
X1202947D01*
X1204613Y2232548D01*
X1237935Y2105243D02*
X1244600D01*
Y2100244D01*
X1241268Y2101911D01*
X1239602D01*
X1237935Y2100244D01*
Y2096912D01*
X1239602Y2095246D01*
X1242934D01*
X1244600Y2096912D01*
X1234603Y2101911D02*
X1231271Y2095246D01*
X1227939Y2101911D01*
X1224606Y2093580D02*
X1217942D01*
X1214610Y2103577D02*
X1212943Y2105243D01*
X1209611D01*
X1207945Y2103577D01*
Y2096912D01*
X1209611Y2095246D01*
X1212943D01*
X1214610Y2096912D01*
Y2103577D01*
X1197948Y2105243D02*
X1201281Y2103577D01*
X1204613Y2100244D01*
Y2096912D01*
X1202947Y2095246D01*
X1199614D01*
X1197948Y2096912D01*
Y2098578D01*
X1199614Y2100244D01*
X1204613D01*
X1237935Y1969607D02*
X1244600D01*
Y1964608D01*
X1241268Y1966275D01*
X1239602D01*
X1237935Y1964608D01*
Y1961276D01*
X1239602Y1959610D01*
X1242934D01*
X1244600Y1961276D01*
X1234603Y1966275D02*
X1231271Y1959610D01*
X1227939Y1966275D01*
X1224606Y1957944D02*
X1217942D01*
X1214610Y1967941D02*
X1212943Y1969607D01*
X1209611D01*
X1207945Y1967941D01*
Y1961276D01*
X1209611Y1959610D01*
X1212943D01*
X1214610Y1961276D01*
Y1967941D01*
X1204613Y1969607D02*
X1197948D01*
Y1967941D01*
X1204613Y1961276D01*
Y1959610D01*
X1237935Y1833971D02*
X1244600D01*
Y1828972D01*
X1241268Y1830638D01*
X1239602D01*
X1237935Y1828972D01*
Y1825640D01*
X1239602Y1823974D01*
X1242934D01*
X1244600Y1825640D01*
X1234603Y1830638D02*
X1231271Y1823974D01*
X1227939Y1830638D01*
X1224606Y1822308D02*
X1217942D01*
X1214610Y1832305D02*
X1212943Y1833971D01*
X1209611D01*
X1207945Y1832305D01*
Y1825640D01*
X1209611Y1823974D01*
X1212943D01*
X1214610Y1825640D01*
Y1832305D01*
X1204613D02*
X1202947Y1833971D01*
X1199614D01*
X1197948Y1832305D01*
Y1830638D01*
X1199614Y1828972D01*
X1197948Y1827306D01*
Y1825640D01*
X1199614Y1823974D01*
X1202947D01*
X1204613Y1825640D01*
Y1827306D01*
X1202947Y1828972D01*
X1204613Y1830638D01*
Y1832305D01*
X1202947Y1828972D02*
X1199614D01*
X801878Y1389380D02*
Y1392712D01*
Y1391046D01*
X811875D01*
X810209Y1389380D01*
X801878Y1404375D02*
Y1397711D01*
X808542Y1404375D01*
X810209D01*
X811875Y1402709D01*
Y1399377D01*
X810209Y1397711D01*
X800212Y1407707D02*
Y1414372D01*
X811875Y1422703D02*
Y1419370D01*
X810209Y1417704D01*
X803544D01*
X801878Y1419370D01*
Y1422703D01*
X803544Y1424369D01*
X810209D01*
X811875Y1422703D01*
Y1427701D02*
X803544D01*
X801878Y1429367D01*
Y1432699D01*
X803544Y1434366D01*
X811875D01*
Y1437698D02*
Y1444362D01*
Y1441030D01*
X801878D01*
X800212Y1447695D02*
Y1454359D01*
X801878Y1457691D02*
Y1461024D01*
Y1459357D01*
X811875D01*
X810209Y1457691D01*
X801878Y1285240D02*
Y1288572D01*
Y1286906D01*
X811875D01*
X810209Y1285240D01*
X801878Y1300235D02*
Y1293571D01*
X808542Y1300235D01*
X810209D01*
X811875Y1298569D01*
Y1295237D01*
X810209Y1293571D01*
X800212Y1303567D02*
Y1310232D01*
X811875Y1318563D02*
Y1315230D01*
X810209Y1313564D01*
X803544D01*
X801878Y1315230D01*
Y1318563D01*
X803544Y1320229D01*
X810209D01*
X811875Y1318563D01*
Y1323561D02*
X803544D01*
X801878Y1325227D01*
Y1328559D01*
X803544Y1330226D01*
X811875D01*
Y1333558D02*
Y1340222D01*
Y1336890D01*
X801878D01*
X800212Y1343555D02*
Y1350219D01*
X801878Y1360216D02*
Y1353551D01*
X808542Y1360216D01*
X810209D01*
X811875Y1358550D01*
Y1355217D01*
X810209Y1353551D01*
X801878Y1182370D02*
Y1185702D01*
Y1184036D01*
X811875D01*
X810209Y1182370D01*
X801878Y1197365D02*
Y1190701D01*
X808542Y1197365D01*
X810209D01*
X811875Y1195699D01*
Y1192367D01*
X810209Y1190701D01*
X800212Y1200697D02*
Y1207362D01*
X811875Y1215693D02*
Y1212360D01*
X810209Y1210694D01*
X803544D01*
X801878Y1212360D01*
Y1215693D01*
X803544Y1217359D01*
X810209D01*
X811875Y1215693D01*
Y1220691D02*
X803544D01*
X801878Y1222357D01*
Y1225689D01*
X803544Y1227355D01*
X811875D01*
Y1230688D02*
Y1237352D01*
Y1234020D01*
X801878D01*
X800212Y1240685D02*
Y1247349D01*
X810209Y1250681D02*
X811875Y1252347D01*
Y1255680D01*
X810209Y1257346D01*
X808542D01*
X806876Y1255680D01*
Y1254014D01*
Y1255680D01*
X805210Y1257346D01*
X803544D01*
X801878Y1255680D01*
Y1252347D01*
X803544Y1250681D01*
X801878Y1084580D02*
Y1087912D01*
Y1086246D01*
X811875D01*
X810209Y1084580D01*
X801878Y1099575D02*
Y1092911D01*
X808542Y1099575D01*
X810209D01*
X811875Y1097909D01*
Y1094577D01*
X810209Y1092911D01*
X800212Y1102907D02*
Y1109572D01*
X811875Y1117903D02*
Y1114570D01*
X810209Y1112904D01*
X803544D01*
X801878Y1114570D01*
Y1117903D01*
X803544Y1119569D01*
X810209D01*
X811875Y1117903D01*
Y1122901D02*
X803544D01*
X801878Y1124567D01*
Y1127899D01*
X803544Y1129566D01*
X811875D01*
Y1132898D02*
Y1139562D01*
Y1136230D01*
X801878D01*
X800212Y1142895D02*
Y1149559D01*
X801878Y1157890D02*
X811875D01*
X806876Y1152891D01*
Y1159556D01*
X801878Y984250D02*
Y987582D01*
Y985916D01*
X811875D01*
X810209Y984250D01*
X801878Y999245D02*
Y992581D01*
X808542Y999245D01*
X810209D01*
X811875Y997579D01*
Y994247D01*
X810209Y992581D01*
X800212Y1002577D02*
Y1009242D01*
X811875Y1017573D02*
Y1014240D01*
X810209Y1012574D01*
X803544D01*
X801878Y1014240D01*
Y1017573D01*
X803544Y1019239D01*
X810209D01*
X811875Y1017573D01*
Y1022571D02*
X803544D01*
X801878Y1024237D01*
Y1027569D01*
X803544Y1029236D01*
X811875D01*
Y1032568D02*
Y1039232D01*
Y1035900D01*
X801878D01*
X800212Y1042564D02*
Y1049229D01*
X811875Y1059226D02*
Y1052561D01*
X806876D01*
X808542Y1055894D01*
Y1057560D01*
X806876Y1059226D01*
X803544D01*
X801878Y1057560D01*
Y1054228D01*
X803544Y1052561D01*
X803148Y881380D02*
Y884712D01*
Y883046D01*
X813145D01*
X811479Y881380D01*
X803148Y896375D02*
Y889711D01*
X809812Y896375D01*
X811479D01*
X813145Y894709D01*
Y891377D01*
X811479Y889711D01*
X801482Y899707D02*
Y906372D01*
X813145Y914703D02*
Y911370D01*
X811479Y909704D01*
X804814D01*
X803148Y911370D01*
Y914703D01*
X804814Y916369D01*
X811479D01*
X813145Y914703D01*
Y919701D02*
X804814D01*
X803148Y921367D01*
Y924699D01*
X804814Y926366D01*
X813145D01*
Y929698D02*
Y936362D01*
Y933030D01*
X803148D01*
X801482Y939695D02*
Y946359D01*
X813145Y956356D02*
X811479Y953024D01*
X808146Y949691D01*
X804814D01*
X803148Y951357D01*
Y954690D01*
X804814Y956356D01*
X806480D01*
X808146Y954690D01*
Y949691D01*
X805688Y781050D02*
Y784382D01*
Y782716D01*
X815685D01*
X814019Y781050D01*
X805688Y796045D02*
Y789381D01*
X812353Y796045D01*
X814019D01*
X815685Y794379D01*
Y791047D01*
X814019Y789381D01*
X804022Y799377D02*
Y806042D01*
X815685Y814373D02*
Y811040D01*
X814019Y809374D01*
X807354D01*
X805688Y811040D01*
Y814373D01*
X807354Y816039D01*
X814019D01*
X815685Y814373D01*
Y819371D02*
X807354D01*
X805688Y821037D01*
Y824369D01*
X807354Y826036D01*
X815685D01*
Y829368D02*
Y836032D01*
Y832700D01*
X805688D01*
X804022Y839364D02*
Y846029D01*
X815685Y849361D02*
Y856026D01*
X814019D01*
X807354Y849361D01*
X805688D01*
X804418Y680720D02*
Y684052D01*
Y682386D01*
X814415D01*
X812749Y680720D01*
X804418Y695715D02*
Y689051D01*
X811083Y695715D01*
X812749D01*
X814415Y694049D01*
Y690717D01*
X812749Y689051D01*
X802752Y699047D02*
Y705712D01*
X814415Y714043D02*
Y710710D01*
X812749Y709044D01*
X806084D01*
X804418Y710710D01*
Y714043D01*
X806084Y715709D01*
X812749D01*
X814415Y714043D01*
Y719041D02*
X806084D01*
X804418Y720707D01*
Y724039D01*
X806084Y725705D01*
X814415D01*
Y729038D02*
Y735702D01*
Y732370D01*
X804418D01*
X802752Y739035D02*
Y745699D01*
X812749Y749031D02*
X814415Y750697D01*
Y754030D01*
X812749Y755696D01*
X811083D01*
X809416Y754030D01*
X807750Y755696D01*
X806084D01*
X804418Y754030D01*
Y750697D01*
X806084Y749031D01*
X807750D01*
X809416Y750697D01*
X811083Y749031D01*
X812749D01*
X809416Y750697D02*
Y754030D01*
X803148Y579120D02*
Y582452D01*
Y580786D01*
X813145D01*
X811479Y579120D01*
X803148Y594115D02*
Y587451D01*
X809812Y594115D01*
X811479D01*
X813145Y592449D01*
Y589117D01*
X811479Y587451D01*
X801482Y597447D02*
Y604112D01*
X813145Y612443D02*
Y609110D01*
X811479Y607444D01*
X804814D01*
X803148Y609110D01*
Y612443D01*
X804814Y614109D01*
X811479D01*
X813145Y612443D01*
Y617441D02*
X804814D01*
X803148Y619107D01*
Y622439D01*
X804814Y624105D01*
X813145D01*
Y627438D02*
Y634102D01*
Y630770D01*
X803148D01*
X801482Y637435D02*
Y644099D01*
X804814Y647431D02*
X803148Y649098D01*
Y652430D01*
X804814Y654096D01*
X811479D01*
X813145Y652430D01*
Y649098D01*
X811479Y647431D01*
X809812D01*
X808146Y649098D01*
Y654096D01*
X801878Y472440D02*
Y475772D01*
Y474106D01*
X811875D01*
X810209Y472440D01*
X801878Y487435D02*
Y480771D01*
X808542Y487435D01*
X810209D01*
X811875Y485769D01*
Y482437D01*
X810209Y480771D01*
X800212Y490767D02*
Y497432D01*
X811875Y505763D02*
Y502430D01*
X810209Y500764D01*
X803544D01*
X801878Y502430D01*
Y505763D01*
X803544Y507429D01*
X810209D01*
X811875Y505763D01*
Y510761D02*
X803544D01*
X801878Y512427D01*
Y515759D01*
X803544Y517425D01*
X811875D01*
Y520758D02*
Y527422D01*
Y524090D01*
X801878D01*
X800212Y530755D02*
Y537419D01*
X801878Y540751D02*
Y544084D01*
Y542417D01*
X811875D01*
X810209Y540751D01*
Y549082D02*
X811875Y550748D01*
Y554080D01*
X810209Y555746D01*
X803544D01*
X801878Y554080D01*
Y550748D01*
X803544Y549082D01*
X810209D01*
X1244600Y1688338D02*
X1241268D01*
X1242934D01*
Y1698335D01*
X1244600Y1696669D01*
X1229605Y1688338D02*
X1236269D01*
X1229605Y1695002D01*
Y1696669D01*
X1231271Y1698335D01*
X1234603D01*
X1236269Y1696669D01*
X1226273Y1695002D02*
X1222940Y1688338D01*
X1219608Y1695002D01*
X1216276Y1686672D02*
X1209611D01*
X1199614Y1688338D02*
X1206279D01*
X1199614Y1695002D01*
Y1696669D01*
X1201281Y1698335D01*
X1204613D01*
X1206279Y1696669D01*
X1196282Y1688338D02*
Y1695002D01*
X1192950Y1698335D01*
X1189618Y1695002D01*
Y1688338D01*
Y1693336D01*
X1196282D01*
X1244600Y1552702D02*
X1241268D01*
X1242934D01*
Y1562699D01*
X1244600Y1561033D01*
X1229605Y1552702D02*
X1236269D01*
X1229605Y1559366D01*
Y1561033D01*
X1231271Y1562699D01*
X1234603D01*
X1236269Y1561033D01*
X1226273Y1559366D02*
X1222940Y1552702D01*
X1219608Y1559366D01*
X1216276Y1551036D02*
X1209611D01*
X1206279Y1561033D02*
X1204613Y1562699D01*
X1201281D01*
X1199614Y1561033D01*
Y1554368D01*
X1201281Y1552702D01*
X1204613D01*
X1206279Y1554368D01*
Y1561033D01*
X1196282Y1552702D02*
Y1554368D01*
X1194616D01*
Y1552702D01*
X1196282D01*
X1187952Y1562699D02*
X1181287D01*
Y1561033D01*
X1187952Y1554368D01*
Y1552702D01*
X1171290Y1562699D02*
X1177955D01*
Y1557700D01*
X1174623Y1559366D01*
X1172956D01*
X1171290Y1557700D01*
Y1554368D01*
X1172956Y1552702D01*
X1176289D01*
X1177955Y1554368D01*
X1167958Y1552702D02*
Y1559366D01*
X1164626Y1562699D01*
X1161293Y1559366D01*
Y1552702D01*
Y1557700D01*
X1167958D01*
X1244600Y1417066D02*
X1241268D01*
X1242934D01*
Y1427063D01*
X1244600Y1425397D01*
X1229605Y1417066D02*
X1236269D01*
X1229605Y1423730D01*
Y1425397D01*
X1231271Y1427063D01*
X1234603D01*
X1236269Y1425397D01*
X1226273Y1423730D02*
X1222940Y1417066D01*
X1219608Y1423730D01*
X1216276Y1415400D02*
X1209611D01*
X1206279Y1425397D02*
X1204613Y1427063D01*
X1201281D01*
X1199614Y1425397D01*
Y1418732D01*
X1201281Y1417066D01*
X1204613D01*
X1206279Y1418732D01*
Y1425397D01*
X1196282Y1417066D02*
Y1418732D01*
X1194616D01*
Y1417066D01*
X1196282D01*
X1181287Y1427063D02*
X1187952D01*
Y1422064D01*
X1184619Y1423730D01*
X1182953D01*
X1181287Y1422064D01*
Y1418732D01*
X1182953Y1417066D01*
X1186285D01*
X1187952Y1418732D01*
X1177955Y1417066D02*
Y1423730D01*
X1174623Y1427063D01*
X1171290Y1423730D01*
Y1417066D01*
Y1422064D01*
X1177955D01*
X1244600Y1288237D02*
X1242934Y1289903D01*
X1239602D01*
X1237935Y1288237D01*
Y1281572D01*
X1239602Y1279906D01*
X1242934D01*
X1244600Y1281572D01*
Y1288237D01*
X1234603Y1279906D02*
Y1281572D01*
X1232937D01*
Y1279906D01*
X1234603D01*
X1219608Y1289903D02*
X1226273D01*
Y1284904D01*
X1222940Y1286570D01*
X1221274D01*
X1219608Y1284904D01*
Y1281572D01*
X1221274Y1279906D01*
X1224606D01*
X1226273Y1281572D01*
X1216276Y1279906D02*
Y1286570D01*
X1212943Y1289903D01*
X1209611Y1286570D01*
Y1279906D01*
Y1284904D01*
X1216276D01*
X1244600Y1145794D02*
X1241268D01*
X1242934D01*
Y1155791D01*
X1244600Y1154125D01*
X1229605Y1145794D02*
X1236269D01*
X1229605Y1152458D01*
Y1154125D01*
X1231271Y1155791D01*
X1234603D01*
X1236269Y1154125D01*
X1226273Y1152458D02*
X1222940Y1145794D01*
X1219608Y1152458D01*
X1216276Y1144128D02*
X1209611D01*
X1206279Y1145794D02*
X1202947D01*
X1204613D01*
Y1155791D01*
X1206279Y1154125D01*
X1197948Y1145794D02*
Y1152458D01*
X1194616Y1155791D01*
X1191284Y1152458D01*
Y1145794D01*
Y1150792D01*
X1197948D01*
X1244600Y1010158D02*
X1241268D01*
X1242934D01*
Y1020155D01*
X1244600Y1018489D01*
X1229605Y1010158D02*
X1236269D01*
X1229605Y1016823D01*
Y1018489D01*
X1231271Y1020155D01*
X1234603D01*
X1236269Y1018489D01*
X1226273Y1016823D02*
X1222940Y1010158D01*
X1219608Y1016823D01*
X1216276Y1008492D02*
X1209611D01*
X1206279Y1018489D02*
X1204613Y1020155D01*
X1201281D01*
X1199614Y1018489D01*
Y1011824D01*
X1201281Y1010158D01*
X1204613D01*
X1206279Y1011824D01*
Y1018489D01*
X1189618Y1020155D02*
X1192950Y1018489D01*
X1196282Y1015156D01*
Y1011824D01*
X1194616Y1010158D01*
X1191284D01*
X1189618Y1011824D01*
Y1013490D01*
X1191284Y1015156D01*
X1196282D01*
X1244600Y874522D02*
X1241268D01*
X1242934D01*
Y884519D01*
X1244600Y882853D01*
X1229605Y874522D02*
X1236269D01*
X1229605Y881187D01*
Y882853D01*
X1231271Y884519D01*
X1234603D01*
X1236269Y882853D01*
X1226273Y881187D02*
X1222940Y874522D01*
X1219608Y881187D01*
X1216276Y872856D02*
X1209611D01*
X1206279Y882853D02*
X1204613Y884519D01*
X1201281D01*
X1199614Y882853D01*
Y876188D01*
X1201281Y874522D01*
X1204613D01*
X1206279Y876188D01*
Y882853D01*
X1196282Y884519D02*
X1189618D01*
Y882853D01*
X1196282Y876188D01*
Y874522D01*
X1244600Y738886D02*
X1241268D01*
X1242934D01*
Y748883D01*
X1244600Y747217D01*
X1229605Y738886D02*
X1236269D01*
X1229605Y745551D01*
Y747217D01*
X1231271Y748883D01*
X1234603D01*
X1236269Y747217D01*
X1226273Y745551D02*
X1222940Y738886D01*
X1219608Y745551D01*
X1216276Y737220D02*
X1209611D01*
X1206279Y747217D02*
X1204613Y748883D01*
X1201281D01*
X1199614Y747217D01*
Y740552D01*
X1201281Y738886D01*
X1204613D01*
X1206279Y740552D01*
Y747217D01*
X1196282D02*
X1194616Y748883D01*
X1191284D01*
X1189618Y747217D01*
Y745551D01*
X1191284Y743884D01*
X1189618Y742218D01*
Y740552D01*
X1191284Y738886D01*
X1194616D01*
X1196282Y740552D01*
Y742218D01*
X1194616Y743884D01*
X1196282Y745551D01*
Y747217D01*
X1194616Y743884D02*
X1191284D01*
X1240028Y603754D02*
X1236696D01*
X1238362D01*
Y613751D01*
X1240028Y612085D01*
X1225033Y603754D02*
X1231697D01*
X1225033Y610419D01*
Y612085D01*
X1226699Y613751D01*
X1230031D01*
X1231697Y612085D01*
X1221701Y610419D02*
X1218368Y603754D01*
X1215036Y610419D01*
X1211704Y602088D02*
X1205039D01*
X1201707Y612085D02*
X1200041Y613751D01*
X1196709D01*
X1195042Y612085D01*
Y605420D01*
X1196709Y603754D01*
X1200041D01*
X1201707Y605420D01*
Y612085D01*
X1191710Y605420D02*
X1190044Y603754D01*
X1186712D01*
X1185046Y605420D01*
Y612085D01*
X1186712Y613751D01*
X1190044D01*
X1191710Y612085D01*
Y610419D01*
X1190044Y608753D01*
X1185046D01*
X1244600Y467614D02*
X1241268D01*
X1242934D01*
Y477611D01*
X1244600Y475945D01*
X1229605Y467614D02*
X1236269D01*
X1229605Y474278D01*
Y475945D01*
X1231271Y477611D01*
X1234603D01*
X1236269Y475945D01*
X1226273Y474278D02*
X1222940Y467614D01*
X1219608Y474278D01*
X1216276Y465948D02*
X1209611D01*
X1206279Y467614D02*
X1202947D01*
X1204613D01*
Y477611D01*
X1206279Y475945D01*
X1197948D02*
X1196282Y477611D01*
X1192950D01*
X1191284Y475945D01*
Y469280D01*
X1192950Y467614D01*
X1196282D01*
X1197948Y469280D01*
Y475945D01*
X2117598Y1456375D02*
Y1463040D01*
X2110934Y1456375D01*
X2109267D01*
X2107601Y1458042D01*
Y1461374D01*
X2109267Y1463040D01*
X2117598Y1448045D02*
X2107601D01*
X2112600Y1453043D01*
Y1446379D01*
X2119264Y1443046D02*
Y1436382D01*
X2107601Y1428051D02*
Y1431384D01*
X2109267Y1433050D01*
X2115932D01*
X2117598Y1431384D01*
Y1428051D01*
X2115932Y1426385D01*
X2109267D01*
X2107601Y1428051D01*
Y1423053D02*
X2115932D01*
X2117598Y1421387D01*
Y1418055D01*
X2115932Y1416388D01*
X2107601D01*
Y1413056D02*
Y1406392D01*
Y1409724D01*
X2117598D01*
X2119264Y1403059D02*
Y1396395D01*
X2117598Y1393062D02*
Y1389730D01*
Y1391396D01*
X2107601D01*
X2109267Y1393062D01*
X2120138Y1353506D02*
Y1360170D01*
X2113474Y1353506D01*
X2111807D01*
X2110141Y1355172D01*
Y1358504D01*
X2111807Y1360170D01*
X2120138Y1345175D02*
X2110141D01*
X2115140Y1350173D01*
Y1343509D01*
X2121804Y1340176D02*
Y1333512D01*
X2110141Y1325181D02*
Y1328513D01*
X2111807Y1330180D01*
X2118472D01*
X2120138Y1328513D01*
Y1325181D01*
X2118472Y1323515D01*
X2111807D01*
X2110141Y1325181D01*
Y1320183D02*
X2118472D01*
X2120138Y1318517D01*
Y1315184D01*
X2118472Y1313518D01*
X2110141D01*
Y1310186D02*
Y1303522D01*
Y1306854D01*
X2120138D01*
X2121804Y1300189D02*
Y1293525D01*
X2120138Y1283528D02*
Y1290193D01*
X2113474Y1283528D01*
X2111807D01*
X2110141Y1285194D01*
Y1288526D01*
X2111807Y1290193D01*
X2120138Y1250636D02*
Y1257300D01*
X2113474Y1250636D01*
X2111807D01*
X2110141Y1252302D01*
Y1255634D01*
X2111807Y1257300D01*
X2120138Y1242305D02*
X2110141D01*
X2115140Y1247303D01*
Y1240639D01*
X2121804Y1237306D02*
Y1230642D01*
X2110141Y1222311D02*
Y1225643D01*
X2111807Y1227310D01*
X2118472D01*
X2120138Y1225643D01*
Y1222311D01*
X2118472Y1220645D01*
X2111807D01*
X2110141Y1222311D01*
Y1217313D02*
X2118472D01*
X2120138Y1215647D01*
Y1212315D01*
X2118472Y1210648D01*
X2110141D01*
Y1207316D02*
Y1200652D01*
Y1203984D01*
X2120138D01*
X2121804Y1197319D02*
Y1190655D01*
X2111807Y1187322D02*
X2110141Y1185656D01*
Y1182324D01*
X2111807Y1180658D01*
X2113474D01*
X2115140Y1182324D01*
Y1183990D01*
Y1182324D01*
X2116806Y1180658D01*
X2118472D01*
X2120138Y1182324D01*
Y1185656D01*
X2118472Y1187322D01*
X2120138Y1150305D02*
Y1156970D01*
X2113474Y1150305D01*
X2111807D01*
X2110141Y1151972D01*
Y1155304D01*
X2111807Y1156970D01*
X2120138Y1141975D02*
X2110141D01*
X2115140Y1146973D01*
Y1140309D01*
X2121804Y1136976D02*
Y1130312D01*
X2110141Y1121981D02*
Y1125313D01*
X2111807Y1126980D01*
X2118472D01*
X2120138Y1125313D01*
Y1121981D01*
X2118472Y1120315D01*
X2111807D01*
X2110141Y1121981D01*
Y1116983D02*
X2118472D01*
X2120138Y1115317D01*
Y1111984D01*
X2118472Y1110318D01*
X2110141D01*
Y1106986D02*
Y1100322D01*
Y1103654D01*
X2120138D01*
X2121804Y1096989D02*
Y1090325D01*
X2120138Y1081994D02*
X2110141D01*
X2115140Y1086992D01*
Y1080328D01*
X2120138Y1047436D02*
Y1054100D01*
X2113474Y1047436D01*
X2111807D01*
X2110141Y1049102D01*
Y1052434D01*
X2111807Y1054100D01*
X2120138Y1039105D02*
X2110141D01*
X2115140Y1044103D01*
Y1037439D01*
X2121804Y1034106D02*
Y1027442D01*
X2110141Y1019111D02*
Y1022443D01*
X2111807Y1024110D01*
X2118472D01*
X2120138Y1022443D01*
Y1019111D01*
X2118472Y1017445D01*
X2111807D01*
X2110141Y1019111D01*
Y1014113D02*
X2118472D01*
X2120138Y1012447D01*
Y1009115D01*
X2118472Y1007448D01*
X2110141D01*
Y1004116D02*
Y997452D01*
Y1000784D01*
X2120138D01*
X2121804Y994119D02*
Y987455D01*
X2110141Y977458D02*
Y984122D01*
X2115140D01*
X2113474Y980790D01*
Y979124D01*
X2115140Y977458D01*
X2118472D01*
X2120138Y979124D01*
Y982456D01*
X2118472Y984122D01*
X2118868Y948375D02*
Y955040D01*
X2112204Y948375D01*
X2110537D01*
X2108871Y950042D01*
Y953374D01*
X2110537Y955040D01*
X2118868Y940045D02*
X2108871D01*
X2113870Y945043D01*
Y938379D01*
X2120534Y935046D02*
Y928382D01*
X2108871Y920051D02*
Y923383D01*
X2110537Y925050D01*
X2117202D01*
X2118868Y923383D01*
Y920051D01*
X2117202Y918385D01*
X2110537D01*
X2108871Y920051D01*
Y915053D02*
X2117202D01*
X2118868Y913387D01*
Y910054D01*
X2117202Y908388D01*
X2108871D01*
Y905056D02*
Y898392D01*
Y901724D01*
X2118868D01*
X2120534Y895059D02*
Y888395D01*
X2108871Y878398D02*
X2110537Y881730D01*
X2113870Y885062D01*
X2117202D01*
X2118868Y883396D01*
Y880064D01*
X2117202Y878398D01*
X2115536D01*
X2113870Y880064D01*
Y885062D01*
X2117598Y845506D02*
Y852170D01*
X2110934Y845506D01*
X2109267D01*
X2107601Y847172D01*
Y850504D01*
X2109267Y852170D01*
X2117598Y837175D02*
X2107601D01*
X2112600Y842173D01*
Y835509D01*
X2119264Y832176D02*
Y825512D01*
X2107601Y817181D02*
Y820514D01*
X2109267Y822180D01*
X2115932D01*
X2117598Y820514D01*
Y817181D01*
X2115932Y815515D01*
X2109267D01*
X2107601Y817181D01*
Y812183D02*
X2115932D01*
X2117598Y810517D01*
Y807185D01*
X2115932Y805518D01*
X2107601D01*
Y802186D02*
Y795522D01*
Y798854D01*
X2117598D01*
X2119264Y792189D02*
Y785525D01*
X2107601Y782193D02*
Y775528D01*
X2109267D01*
X2115932Y782193D01*
X2117598D01*
Y747716D02*
Y754380D01*
X2110934Y747716D01*
X2109267D01*
X2107601Y749382D01*
Y752714D01*
X2109267Y754380D01*
X2117598Y739385D02*
X2107601D01*
X2112600Y744383D01*
Y737719D01*
X2119264Y734386D02*
Y727722D01*
X2107601Y719391D02*
Y722723D01*
X2109267Y724390D01*
X2115932D01*
X2117598Y722723D01*
Y719391D01*
X2115932Y717725D01*
X2109267D01*
X2107601Y719391D01*
Y714393D02*
X2115932D01*
X2117598Y712727D01*
Y709395D01*
X2115932Y707728D01*
X2107601D01*
Y704396D02*
Y697732D01*
Y701064D01*
X2117598D01*
X2119264Y694399D02*
Y687735D01*
X2109267Y684402D02*
X2107601Y682736D01*
Y679404D01*
X2109267Y677738D01*
X2110934D01*
X2112600Y679404D01*
X2114266Y677738D01*
X2115932D01*
X2117598Y679404D01*
Y682736D01*
X2115932Y684402D01*
X2114266D01*
X2112600Y682736D01*
X2110934Y684402D01*
X2109267D01*
X2112600Y682736D02*
Y679404D01*
X2118868Y644846D02*
Y651510D01*
X2112204Y644846D01*
X2110537D01*
X2108871Y646512D01*
Y649844D01*
X2110537Y651510D01*
X2118868Y636515D02*
X2108871D01*
X2113870Y641513D01*
Y634849D01*
X2120534Y631516D02*
Y624852D01*
X2108871Y616521D02*
Y619854D01*
X2110537Y621520D01*
X2117202D01*
X2118868Y619854D01*
Y616521D01*
X2117202Y614855D01*
X2110537D01*
X2108871Y616521D01*
Y611523D02*
X2117202D01*
X2118868Y609857D01*
Y606525D01*
X2117202Y604858D01*
X2108871D01*
Y601526D02*
Y594862D01*
Y598194D01*
X2118868D01*
X2120534Y591529D02*
Y584865D01*
X2117202Y581533D02*
X2118868Y579866D01*
Y576534D01*
X2117202Y574868D01*
X2110537D01*
X2108871Y576534D01*
Y579866D01*
X2110537Y581533D01*
X2112204D01*
X2113870Y579866D01*
Y574868D01*
X2118868Y543246D02*
Y549910D01*
X2112204Y543246D01*
X2110537D01*
X2108871Y544912D01*
Y548244D01*
X2110537Y549910D01*
X2118868Y534915D02*
X2108871D01*
X2113870Y539913D01*
Y533249D01*
X2120534Y529916D02*
Y523252D01*
X2108871Y514921D02*
Y518254D01*
X2110537Y519920D01*
X2117202D01*
X2118868Y518254D01*
Y514921D01*
X2117202Y513255D01*
X2110537D01*
X2108871Y514921D01*
Y509923D02*
X2117202D01*
X2118868Y508257D01*
Y504925D01*
X2117202Y503258D01*
X2108871D01*
Y499926D02*
Y493262D01*
Y496594D01*
X2118868D01*
X2120534Y489929D02*
Y483265D01*
X2118868Y479933D02*
Y476600D01*
Y478266D01*
X2108871D01*
X2110537Y479933D01*
Y471602D02*
X2108871Y469936D01*
Y466604D01*
X2110537Y464937D01*
X2117202D01*
X2118868Y466604D01*
Y469936D01*
X2117202Y471602D01*
X2110537D01*
X2017014Y1654647D02*
Y1644650D01*
X2012016D01*
X2010349Y1646316D01*
Y1652981D01*
X2012016Y1654647D01*
X2017014D01*
X2007017Y1644650D02*
X2003685D01*
X2005351D01*
Y1654647D01*
X2007017Y1652981D01*
X2017014Y1519011D02*
Y1509014D01*
X2012016D01*
X2010349Y1510680D01*
Y1517345D01*
X2012016Y1519011D01*
X2017014D01*
X2000353Y1509014D02*
X2007017D01*
X2000353Y1515679D01*
Y1517345D01*
X2002019Y1519011D01*
X2005351D01*
X2007017Y1517345D01*
X2017014Y1383375D02*
Y1373378D01*
X2012016D01*
X2010349Y1375044D01*
Y1381709D01*
X2012016Y1383375D01*
X2017014D01*
X2007017Y1381709D02*
X2005351Y1383375D01*
X2002019D01*
X2000353Y1381709D01*
Y1380043D01*
X2002019Y1378376D01*
X2003685D01*
X2002019D01*
X2000353Y1376710D01*
Y1375044D01*
X2002019Y1373378D01*
X2005351D01*
X2007017Y1375044D01*
X2017014Y1247739D02*
Y1237742D01*
X2012016D01*
X2010349Y1239408D01*
Y1246073D01*
X2012016Y1247739D01*
X2017014D01*
X2002019Y1237742D02*
Y1247739D01*
X2007017Y1242740D01*
X2000353D01*
X2017014Y1112103D02*
Y1102106D01*
X2012016D01*
X2010349Y1103772D01*
Y1110437D01*
X2012016Y1112103D01*
X2017014D01*
X2000353D02*
X2007017D01*
Y1107104D01*
X2003685Y1108771D01*
X2002019D01*
X2000353Y1107104D01*
Y1103772D01*
X2002019Y1102106D01*
X2005351D01*
X2007017Y1103772D01*
X2017014Y976721D02*
Y966724D01*
X2012016D01*
X2010349Y968390D01*
Y975055D01*
X2012016Y976721D01*
X2017014D01*
X2000353D02*
X2003685Y975055D01*
X2007017Y971722D01*
Y968390D01*
X2005351Y966724D01*
X2002019D01*
X2000353Y968390D01*
Y970056D01*
X2002019Y971722D01*
X2007017D01*
X2017014Y841085D02*
Y831088D01*
X2012016D01*
X2010349Y832754D01*
Y839419D01*
X2012016Y841085D01*
X2017014D01*
X2007017D02*
X2000353D01*
Y839419D01*
X2007017Y832754D01*
Y831088D01*
X2017014Y705449D02*
Y695452D01*
X2012016D01*
X2010349Y697118D01*
Y703783D01*
X2012016Y705449D01*
X2017014D01*
X2007017Y703783D02*
X2005351Y705449D01*
X2002019D01*
X2000353Y703783D01*
Y702116D01*
X2002019Y700450D01*
X2000353Y698784D01*
Y697118D01*
X2002019Y695452D01*
X2005351D01*
X2007017Y697118D01*
Y698784D01*
X2005351Y700450D01*
X2007017Y702116D01*
Y703783D01*
X2005351Y700450D02*
X2002019D01*
X2017014Y569813D02*
Y559816D01*
X2012016D01*
X2010349Y561482D01*
Y568147D01*
X2012016Y569813D01*
X2017014D01*
X2007017Y561482D02*
X2005351Y559816D01*
X2002019D01*
X2000353Y561482D01*
Y568147D01*
X2002019Y569813D01*
X2005351D01*
X2007017Y568147D01*
Y566480D01*
X2005351Y564814D01*
X2000353D01*
X2017014Y434177D02*
Y424180D01*
X2012016D01*
X2010349Y425846D01*
Y432511D01*
X2012016Y434177D01*
X2017014D01*
X2007017Y424180D02*
X2003685D01*
X2005351D01*
Y434177D01*
X2007017Y432511D01*
X1998687D02*
X1997020Y434177D01*
X1993688D01*
X1992022Y432511D01*
Y425846D01*
X1993688Y424180D01*
X1997020D01*
X1998687Y425846D01*
Y432511D01*
X941578Y1667347D02*
Y1657350D01*
X936580D01*
X934913Y1659016D01*
Y1665681D01*
X936580Y1667347D01*
X941578D01*
X931581Y1657350D02*
X928249D01*
X929915D01*
Y1667347D01*
X931581Y1665681D01*
X923251Y1657350D02*
X919918D01*
X921584D01*
Y1667347D01*
X923251Y1665681D01*
X941578Y1531711D02*
Y1521714D01*
X936580D01*
X934913Y1523380D01*
Y1530045D01*
X936580Y1531711D01*
X941578D01*
X931581Y1521714D02*
X928249D01*
X929915D01*
Y1531711D01*
X931581Y1530045D01*
X916586Y1521714D02*
X923251D01*
X916586Y1528378D01*
Y1530045D01*
X918252Y1531711D01*
X921584D01*
X923251Y1530045D01*
X941578Y1395821D02*
Y1385824D01*
X936580D01*
X934913Y1387490D01*
Y1394155D01*
X936580Y1395821D01*
X941578D01*
X931581Y1385824D02*
X928249D01*
X929915D01*
Y1395821D01*
X931581Y1394155D01*
X923251D02*
X921584Y1395821D01*
X918252D01*
X916586Y1394155D01*
Y1392489D01*
X918252Y1390822D01*
X919918D01*
X918252D01*
X916586Y1389156D01*
Y1387490D01*
X918252Y1385824D01*
X921584D01*
X923251Y1387490D01*
X941578Y1260185D02*
Y1250188D01*
X936580D01*
X934913Y1251854D01*
Y1258519D01*
X936580Y1260185D01*
X941578D01*
X931581Y1250188D02*
X928249D01*
X929915D01*
Y1260185D01*
X931581Y1258519D01*
X918252Y1250188D02*
Y1260185D01*
X923251Y1255186D01*
X916586D01*
X941578Y1124295D02*
Y1114298D01*
X936580D01*
X934913Y1115964D01*
Y1122629D01*
X936580Y1124295D01*
X941578D01*
X931581Y1114298D02*
X928249D01*
X929915D01*
Y1124295D01*
X931581Y1122629D01*
X916586Y1124295D02*
X923251D01*
Y1119296D01*
X919918Y1120963D01*
X918252D01*
X916586Y1119296D01*
Y1115964D01*
X918252Y1114298D01*
X921584D01*
X923251Y1115964D01*
X941578Y988659D02*
Y978662D01*
X936580D01*
X934913Y980328D01*
Y986993D01*
X936580Y988659D01*
X941578D01*
X931581Y978662D02*
X928249D01*
X929915D01*
Y988659D01*
X931581Y986993D01*
X916586Y988659D02*
X919918Y986993D01*
X923251Y983660D01*
Y980328D01*
X921584Y978662D01*
X918252D01*
X916586Y980328D01*
Y981994D01*
X918252Y983660D01*
X923251D01*
X941578Y852769D02*
Y842772D01*
X936580D01*
X934913Y844438D01*
Y851103D01*
X936580Y852769D01*
X941578D01*
X931581Y842772D02*
X928249D01*
X929915D01*
Y852769D01*
X931581Y851103D01*
X923251Y852769D02*
X916586D01*
Y851103D01*
X923251Y844438D01*
Y842772D01*
X941578Y717133D02*
Y707136D01*
X936580D01*
X934913Y708802D01*
Y715467D01*
X936580Y717133D01*
X941578D01*
X931581Y707136D02*
X928249D01*
X929915D01*
Y717133D01*
X931581Y715467D01*
X923251D02*
X921584Y717133D01*
X918252D01*
X916586Y715467D01*
Y713801D01*
X918252Y712134D01*
X916586Y710468D01*
Y708802D01*
X918252Y707136D01*
X921584D01*
X923251Y708802D01*
Y710468D01*
X921584Y712134D01*
X923251Y713801D01*
Y715467D01*
X921584Y712134D02*
X918252D01*
X941578Y581243D02*
Y571246D01*
X936580D01*
X934913Y572912D01*
Y579577D01*
X936580Y581243D01*
X941578D01*
X931581Y571246D02*
X928249D01*
X929915D01*
Y581243D01*
X931581Y579577D01*
X923251Y572912D02*
X921584Y571246D01*
X918252D01*
X916586Y572912D01*
Y579577D01*
X918252Y581243D01*
X921584D01*
X923251Y579577D01*
Y577910D01*
X921584Y576244D01*
X916586D01*
X941578Y445607D02*
Y435610D01*
X936580D01*
X934913Y437276D01*
Y443941D01*
X936580Y445607D01*
X941578D01*
X924917Y435610D02*
X931581D01*
X924917Y442275D01*
Y443941D01*
X926583Y445607D01*
X929915D01*
X931581Y443941D01*
X921584D02*
X919918Y445607D01*
X916586D01*
X914920Y443941D01*
Y437276D01*
X916586Y435610D01*
X919918D01*
X921584Y437276D01*
Y443941D01*
X2017014Y2198207D02*
Y2188210D01*
X2012016D01*
X2010349Y2189876D01*
Y2196541D01*
X2012016Y2198207D01*
X2017014D01*
X2000353Y2188210D02*
X2007017D01*
X2000353Y2194875D01*
Y2196541D01*
X2002019Y2198207D01*
X2005351D01*
X2007017Y2196541D01*
X1997020Y2188210D02*
X1993688D01*
X1995354D01*
Y2198207D01*
X1997020Y2196541D01*
X2017014Y2062317D02*
Y2052320D01*
X2012016D01*
X2010349Y2053986D01*
Y2060651D01*
X2012016Y2062317D01*
X2017014D01*
X2000353Y2052320D02*
X2007017D01*
X2000353Y2058985D01*
Y2060651D01*
X2002019Y2062317D01*
X2005351D01*
X2007017Y2060651D01*
X1990356Y2052320D02*
X1997020D01*
X1990356Y2058985D01*
Y2060651D01*
X1992022Y2062317D01*
X1995354D01*
X1997020Y2060651D01*
X2017014Y1926427D02*
Y1916430D01*
X2012016D01*
X2010349Y1918096D01*
Y1924761D01*
X2012016Y1926427D01*
X2017014D01*
X2000353Y1916430D02*
X2007017D01*
X2000353Y1923094D01*
Y1924761D01*
X2002019Y1926427D01*
X2005351D01*
X2007017Y1924761D01*
X1997020D02*
X1995354Y1926427D01*
X1992022D01*
X1990356Y1924761D01*
Y1923094D01*
X1992022Y1921428D01*
X1993688D01*
X1992022D01*
X1990356Y1919762D01*
Y1918096D01*
X1992022Y1916430D01*
X1995354D01*
X1997020Y1918096D01*
X2017014Y1790537D02*
Y1780540D01*
X2012016D01*
X2010349Y1782206D01*
Y1788871D01*
X2012016Y1790537D01*
X2017014D01*
X2000353Y1780540D02*
X2007017D01*
X2000353Y1787204D01*
Y1788871D01*
X2002019Y1790537D01*
X2005351D01*
X2007017Y1788871D01*
X1992022Y1780540D02*
Y1790537D01*
X1997020Y1785538D01*
X1990356D01*
X941578Y2210907D02*
Y2200910D01*
X936580D01*
X934913Y2202576D01*
Y2209241D01*
X936580Y2210907D01*
X941578D01*
X924917Y2200910D02*
X931581D01*
X924917Y2207574D01*
Y2209241D01*
X926583Y2210907D01*
X929915D01*
X931581Y2209241D01*
X914920Y2210907D02*
X921584D01*
Y2205908D01*
X918252Y2207574D01*
X916586D01*
X914920Y2205908D01*
Y2202576D01*
X916586Y2200910D01*
X919918D01*
X921584Y2202576D01*
X941578Y2075017D02*
Y2065020D01*
X936580D01*
X934913Y2066686D01*
Y2073351D01*
X936580Y2075017D01*
X941578D01*
X924917Y2065020D02*
X931581D01*
X924917Y2071685D01*
Y2073351D01*
X926583Y2075017D01*
X929915D01*
X931581Y2073351D01*
X914920Y2075017D02*
X918252Y2073351D01*
X921584Y2070018D01*
Y2066686D01*
X919918Y2065020D01*
X916586D01*
X914920Y2066686D01*
Y2068352D01*
X916586Y2070018D01*
X921584D01*
X941578Y1939127D02*
Y1929130D01*
X936580D01*
X934913Y1930796D01*
Y1937461D01*
X936580Y1939127D01*
X941578D01*
X924917Y1929130D02*
X931581D01*
X924917Y1935795D01*
Y1937461D01*
X926583Y1939127D01*
X929915D01*
X931581Y1937461D01*
X921584Y1939127D02*
X914920D01*
Y1937461D01*
X921584Y1930796D01*
Y1929130D01*
X941578Y1803237D02*
Y1793240D01*
X936580D01*
X934913Y1794906D01*
Y1801571D01*
X936580Y1803237D01*
X941578D01*
X924917Y1793240D02*
X931581D01*
X924917Y1799904D01*
Y1801571D01*
X926583Y1803237D01*
X929915D01*
X931581Y1801571D01*
X921584D02*
X919918Y1803237D01*
X916586D01*
X914920Y1801571D01*
Y1799904D01*
X916586Y1798238D01*
X914920Y1796572D01*
Y1794906D01*
X916586Y1793240D01*
X919918D01*
X921584Y1794906D01*
Y1796572D01*
X919918Y1798238D01*
X921584Y1799904D01*
Y1801571D01*
X919918Y1798238D02*
X916586D01*
X2071878Y1586544D02*
Y1579880D01*
X2078542Y1586544D01*
X2080209D01*
X2081875Y1584878D01*
Y1581546D01*
X2080209Y1579880D01*
X2071878Y1589877D02*
X2081875D01*
X2075210D02*
X2078542Y1594875D01*
X2075210Y1589877D02*
X2071878Y1594875D01*
Y1604872D02*
X2081875D01*
X2076876Y1599874D01*
Y1606538D01*
X2070212Y1609870D02*
Y1616535D01*
X2080209Y1619867D02*
X2081875Y1621533D01*
Y1624866D01*
X2080209Y1626532D01*
X2073544D01*
X2071878Y1624866D01*
Y1621533D01*
X2073544Y1619867D01*
X2080209D01*
X2071878Y1629864D02*
Y1633196D01*
Y1631530D01*
X2081875D01*
X2080209Y1629864D01*
X2069338Y1460815D02*
Y1454150D01*
X2076003Y1460815D01*
X2077669D01*
X2079335Y1459148D01*
Y1455816D01*
X2077669Y1454150D01*
X2069338Y1464147D02*
X2079335D01*
X2072670D02*
X2076003Y1469145D01*
X2072670Y1464147D02*
X2069338Y1469145D01*
Y1479142D02*
X2079335D01*
X2074336Y1474144D01*
Y1480808D01*
X2067672Y1484140D02*
Y1490805D01*
X2077669Y1494137D02*
X2079335Y1495803D01*
Y1499135D01*
X2077669Y1500802D01*
X2071004D01*
X2069338Y1499135D01*
Y1495803D01*
X2071004Y1494137D01*
X2077669D01*
X2069338Y1510798D02*
Y1504134D01*
X2076003Y1510798D01*
X2077669D01*
X2079335Y1509132D01*
Y1505800D01*
X2077669Y1504134D01*
X2065528Y1326194D02*
Y1319530D01*
X2072193Y1326194D01*
X2073859D01*
X2075525Y1324528D01*
Y1321196D01*
X2073859Y1319530D01*
X2065528Y1329527D02*
X2075525D01*
X2068860D02*
X2072193Y1334525D01*
X2068860Y1329527D02*
X2065528Y1334525D01*
Y1344522D02*
X2075525D01*
X2070526Y1339524D01*
Y1346188D01*
X2063862Y1349520D02*
Y1356185D01*
X2073859Y1359517D02*
X2075525Y1361183D01*
Y1364516D01*
X2073859Y1366182D01*
X2067194D01*
X2065528Y1364516D01*
Y1361183D01*
X2067194Y1359517D01*
X2073859D01*
Y1369514D02*
X2075525Y1371180D01*
Y1374512D01*
X2073859Y1376178D01*
X2072193D01*
X2070526Y1374512D01*
Y1372846D01*
Y1374512D01*
X2068860Y1376178D01*
X2067194D01*
X2065528Y1374512D01*
Y1371180D01*
X2067194Y1369514D01*
X2066798Y1186495D02*
Y1179830D01*
X2073463Y1186495D01*
X2075129D01*
X2076795Y1184828D01*
Y1181496D01*
X2075129Y1179830D01*
X2066798Y1189827D02*
X2076795D01*
X2070130D02*
X2073463Y1194825D01*
X2070130Y1189827D02*
X2066798Y1194825D01*
Y1204822D02*
X2076795D01*
X2071796Y1199824D01*
Y1206488D01*
X2065132Y1209820D02*
Y1216485D01*
X2075129Y1219817D02*
X2076795Y1221483D01*
Y1224816D01*
X2075129Y1226482D01*
X2068464D01*
X2066798Y1224816D01*
Y1221483D01*
X2068464Y1219817D01*
X2075129D01*
X2066798Y1234812D02*
X2076795D01*
X2071796Y1229814D01*
Y1236478D01*
X2064258Y1050604D02*
Y1043940D01*
X2070923Y1050604D01*
X2072589D01*
X2074255Y1048938D01*
Y1045606D01*
X2072589Y1043940D01*
X2064258Y1053937D02*
X2074255D01*
X2067590D02*
X2070923Y1058935D01*
X2067590Y1053937D02*
X2064258Y1058935D01*
Y1068932D02*
X2074255D01*
X2069256Y1063934D01*
Y1070598D01*
X2062592Y1073930D02*
Y1080595D01*
X2072589Y1083927D02*
X2074255Y1085593D01*
Y1088925D01*
X2072589Y1090592D01*
X2065924D01*
X2064258Y1088925D01*
Y1085593D01*
X2065924Y1083927D01*
X2072589D01*
X2074255Y1100588D02*
Y1093924D01*
X2069256D01*
X2070923Y1097256D01*
Y1098922D01*
X2069256Y1100588D01*
X2065924D01*
X2064258Y1098922D01*
Y1095590D01*
X2065924Y1093924D01*
X2069338Y923605D02*
Y916940D01*
X2076003Y923605D01*
X2077669D01*
X2079335Y921938D01*
Y918606D01*
X2077669Y916940D01*
X2069338Y926937D02*
X2079335D01*
X2072670D02*
X2076003Y931935D01*
X2072670Y926937D02*
X2069338Y931935D01*
Y941932D02*
X2079335D01*
X2074336Y936934D01*
Y943598D01*
X2067672Y946930D02*
Y953595D01*
X2077669Y956927D02*
X2079335Y958593D01*
Y961926D01*
X2077669Y963592D01*
X2071004D01*
X2069338Y961926D01*
Y958593D01*
X2071004Y956927D01*
X2077669D01*
X2079335Y973588D02*
X2077669Y970256D01*
X2074336Y966924D01*
X2071004D01*
X2069338Y968590D01*
Y971922D01*
X2071004Y973588D01*
X2072670D01*
X2074336Y971922D01*
Y966924D01*
X2066798Y780095D02*
Y773430D01*
X2073463Y780095D01*
X2075129D01*
X2076795Y778428D01*
Y775096D01*
X2075129Y773430D01*
X2066798Y783427D02*
X2076795D01*
X2070130D02*
X2073463Y788425D01*
X2070130Y783427D02*
X2066798Y788425D01*
Y798422D02*
X2076795D01*
X2071796Y793424D01*
Y800088D01*
X2065132Y803420D02*
Y810085D01*
X2075129Y813417D02*
X2076795Y815083D01*
Y818416D01*
X2075129Y820082D01*
X2068464D01*
X2066798Y818416D01*
Y815083D01*
X2068464Y813417D01*
X2075129D01*
X2076795Y823414D02*
Y830078D01*
X2075129D01*
X2068464Y823414D01*
X2066798D01*
X2068068Y645474D02*
Y638810D01*
X2074733Y645474D01*
X2076399D01*
X2078065Y643808D01*
Y640476D01*
X2076399Y638810D01*
X2068068Y648807D02*
X2078065D01*
X2071400D02*
X2074733Y653805D01*
X2071400Y648807D02*
X2068068Y653805D01*
Y663802D02*
X2078065D01*
X2073066Y658804D01*
Y665468D01*
X2066402Y668800D02*
Y675465D01*
X2076399Y678797D02*
X2078065Y680463D01*
Y683795D01*
X2076399Y685462D01*
X2069734D01*
X2068068Y683795D01*
Y680463D01*
X2069734Y678797D01*
X2076399D01*
Y688794D02*
X2078065Y690460D01*
Y693792D01*
X2076399Y695458D01*
X2074733D01*
X2073066Y693792D01*
X2071400Y695458D01*
X2069734D01*
X2068068Y693792D01*
Y690460D01*
X2069734Y688794D01*
X2071400D01*
X2073066Y690460D01*
X2074733Y688794D01*
X2076399D01*
X2073066Y690460D02*
Y693792D01*
X2068068Y509585D02*
Y502920D01*
X2074733Y509585D01*
X2076399D01*
X2078065Y507918D01*
Y504586D01*
X2076399Y502920D01*
X2068068Y512917D02*
X2078065D01*
X2071400D02*
X2074733Y517915D01*
X2071400Y512917D02*
X2068068Y517915D01*
Y527912D02*
X2078065D01*
X2073066Y522914D01*
Y529578D01*
X2066402Y532910D02*
Y539575D01*
X2076399Y542907D02*
X2078065Y544573D01*
Y547906D01*
X2076399Y549572D01*
X2069734D01*
X2068068Y547906D01*
Y544573D01*
X2069734Y542907D01*
X2076399D01*
X2069734Y552904D02*
X2068068Y554570D01*
Y557902D01*
X2069734Y559568D01*
X2076399D01*
X2078065Y557902D01*
Y554570D01*
X2076399Y552904D01*
X2074733D01*
X2073066Y554570D01*
Y559568D01*
X2066798Y378774D02*
Y372110D01*
X2073463Y378774D01*
X2075129D01*
X2076795Y377108D01*
Y373776D01*
X2075129Y372110D01*
X2066798Y382107D02*
X2076795D01*
X2070130D02*
X2073463Y387105D01*
X2070130Y382107D02*
X2066798Y387105D01*
Y397102D02*
X2076795D01*
X2071796Y392104D01*
Y398768D01*
X2065132Y402100D02*
Y408765D01*
X2066798Y412097D02*
Y415429D01*
Y413763D01*
X2076795D01*
X2075129Y412097D01*
Y420428D02*
X2076795Y422094D01*
Y425426D01*
X2075129Y427092D01*
X2068464D01*
X2066798Y425426D01*
Y422094D01*
X2068464Y420428D01*
X2075129D01*
X846328Y1651000D02*
Y1647668D01*
Y1649334D01*
X836331D01*
X837997Y1651000D01*
X846328Y1642669D02*
X836331D01*
X842996D02*
X839663Y1637671D01*
X842996Y1642669D02*
X846328Y1637671D01*
Y1626008D02*
Y1632673D01*
X839663Y1626008D01*
X837997D01*
X836331Y1627674D01*
Y1631006D01*
X837997Y1632673D01*
X847994Y1622676D02*
Y1616011D01*
X837997Y1612679D02*
X836331Y1611013D01*
Y1607681D01*
X837997Y1606015D01*
X844662D01*
X846328Y1607681D01*
Y1611013D01*
X844662Y1612679D01*
X837997D01*
X846328Y1602682D02*
Y1599350D01*
Y1601016D01*
X836331D01*
X837997Y1602682D01*
X845058Y1518920D02*
Y1515588D01*
Y1517254D01*
X835061D01*
X836727Y1518920D01*
X845058Y1510589D02*
X835061D01*
X841726D02*
X838393Y1505591D01*
X841726Y1510589D02*
X845058Y1505591D01*
Y1493928D02*
Y1500593D01*
X838393Y1493928D01*
X836727D01*
X835061Y1495594D01*
Y1498926D01*
X836727Y1500593D01*
X846724Y1490596D02*
Y1483931D01*
X836727Y1480599D02*
X835061Y1478933D01*
Y1475601D01*
X836727Y1473934D01*
X843392D01*
X845058Y1475601D01*
Y1478933D01*
X843392Y1480599D01*
X836727D01*
X845058Y1463938D02*
Y1470602D01*
X838393Y1463938D01*
X836727D01*
X835061Y1465604D01*
Y1468936D01*
X836727Y1470602D01*
X842518Y1381760D02*
Y1378428D01*
Y1380094D01*
X832521D01*
X834187Y1381760D01*
X842518Y1373429D02*
X832521D01*
X839186D02*
X835854Y1368431D01*
X839186Y1373429D02*
X842518Y1368431D01*
Y1356768D02*
Y1363433D01*
X835854Y1356768D01*
X834187D01*
X832521Y1358434D01*
Y1361766D01*
X834187Y1363433D01*
X844184Y1353436D02*
Y1346771D01*
X834187Y1343439D02*
X832521Y1341773D01*
Y1338441D01*
X834187Y1336774D01*
X840852D01*
X842518Y1338441D01*
Y1341773D01*
X840852Y1343439D01*
X834187D01*
Y1333442D02*
X832521Y1331776D01*
Y1328444D01*
X834187Y1326778D01*
X835854D01*
X837520Y1328444D01*
Y1330110D01*
Y1328444D01*
X839186Y1326778D01*
X840852D01*
X842518Y1328444D01*
Y1331776D01*
X840852Y1333442D01*
X842518Y1249680D02*
Y1246348D01*
Y1248014D01*
X832521D01*
X834187Y1249680D01*
X842518Y1241349D02*
X832521D01*
X839186D02*
X835854Y1236351D01*
X839186Y1241349D02*
X842518Y1236351D01*
Y1224688D02*
Y1231353D01*
X835854Y1224688D01*
X834187D01*
X832521Y1226354D01*
Y1229686D01*
X834187Y1231353D01*
X844184Y1221356D02*
Y1214691D01*
X834187Y1211359D02*
X832521Y1209693D01*
Y1206361D01*
X834187Y1204695D01*
X840852D01*
X842518Y1206361D01*
Y1209693D01*
X840852Y1211359D01*
X834187D01*
X842518Y1196364D02*
X832521D01*
X837520Y1201362D01*
Y1194698D01*
X839978Y1113790D02*
Y1110458D01*
Y1112124D01*
X829981D01*
X831647Y1113790D01*
X839978Y1105459D02*
X829981D01*
X836646D02*
X833314Y1100461D01*
X836646Y1105459D02*
X839978Y1100461D01*
Y1088798D02*
Y1095463D01*
X833314Y1088798D01*
X831647D01*
X829981Y1090464D01*
Y1093796D01*
X831647Y1095463D01*
X841644Y1085466D02*
Y1078801D01*
X831647Y1075469D02*
X829981Y1073803D01*
Y1070471D01*
X831647Y1068804D01*
X838312D01*
X839978Y1070471D01*
Y1073803D01*
X838312Y1075469D01*
X831647D01*
X829981Y1058808D02*
Y1065472D01*
X834980D01*
X833314Y1062140D01*
Y1060474D01*
X834980Y1058808D01*
X838312D01*
X839978Y1060474D01*
Y1063806D01*
X838312Y1065472D01*
X845058Y976630D02*
Y973298D01*
Y974964D01*
X835061D01*
X836727Y976630D01*
X845058Y968299D02*
X835061D01*
X841726D02*
X838393Y963301D01*
X841726Y968299D02*
X845058Y963301D01*
Y951638D02*
Y958303D01*
X838393Y951638D01*
X836727D01*
X835061Y953304D01*
Y956636D01*
X836727Y958303D01*
X846724Y948306D02*
Y941641D01*
X836727Y938309D02*
X835061Y936643D01*
Y933311D01*
X836727Y931645D01*
X843392D01*
X845058Y933311D01*
Y936643D01*
X843392Y938309D01*
X836727D01*
X835061Y921648D02*
X836727Y924980D01*
X840060Y928312D01*
X843392D01*
X845058Y926646D01*
Y923314D01*
X843392Y921648D01*
X841726D01*
X840060Y923314D01*
Y928312D01*
X842518Y842010D02*
Y838678D01*
Y840344D01*
X832521D01*
X834187Y842010D01*
X842518Y833679D02*
X832521D01*
X839186D02*
X835854Y828681D01*
X839186Y833679D02*
X842518Y828681D01*
Y817018D02*
Y823683D01*
X835854Y817018D01*
X834187D01*
X832521Y818684D01*
Y822016D01*
X834187Y823683D01*
X844184Y813686D02*
Y807021D01*
X834187Y803689D02*
X832521Y802023D01*
Y798691D01*
X834187Y797025D01*
X840852D01*
X842518Y798691D01*
Y802023D01*
X840852Y803689D01*
X834187D01*
X832521Y793692D02*
Y787028D01*
X834187D01*
X840852Y793692D01*
X842518D01*
X845058Y706120D02*
Y702788D01*
Y704454D01*
X835061D01*
X836727Y706120D01*
X845058Y697789D02*
X835061D01*
X841726D02*
X838393Y692791D01*
X841726Y697789D02*
X845058Y692791D01*
Y681128D02*
Y687793D01*
X838393Y681128D01*
X836727D01*
X835061Y682794D01*
Y686126D01*
X836727Y687793D01*
X846724Y677796D02*
Y671131D01*
X836727Y667799D02*
X835061Y666133D01*
Y662801D01*
X836727Y661134D01*
X843392D01*
X845058Y662801D01*
Y666133D01*
X843392Y667799D01*
X836727D01*
Y657802D02*
X835061Y656136D01*
Y652804D01*
X836727Y651138D01*
X838393D01*
X840060Y652804D01*
X841726Y651138D01*
X843392D01*
X845058Y652804D01*
Y656136D01*
X843392Y657802D01*
X841726D01*
X840060Y656136D01*
X838393Y657802D01*
X836727D01*
X840060Y656136D02*
Y652804D01*
X842518Y566420D02*
Y563088D01*
Y564754D01*
X832521D01*
X834187Y566420D01*
X842518Y558089D02*
X832521D01*
X839186D02*
X835854Y553091D01*
X839186Y558089D02*
X842518Y553091D01*
Y541428D02*
Y548093D01*
X835854Y541428D01*
X834187D01*
X832521Y543094D01*
Y546426D01*
X834187Y548093D01*
X844184Y538096D02*
Y531431D01*
X834187Y528099D02*
X832521Y526433D01*
Y523101D01*
X834187Y521435D01*
X840852D01*
X842518Y523101D01*
Y526433D01*
X840852Y528099D01*
X834187D01*
X840852Y518102D02*
X842518Y516436D01*
Y513104D01*
X840852Y511438D01*
X834187D01*
X832521Y513104D01*
Y516436D01*
X834187Y518102D01*
X835854D01*
X837520Y516436D01*
Y511438D01*
X842518Y429260D02*
Y425928D01*
Y427594D01*
X832521D01*
X834187Y429260D01*
X842518Y420929D02*
X832521D01*
X839186D02*
X835854Y415931D01*
X839186Y420929D02*
X842518Y415931D01*
Y404268D02*
Y410933D01*
X835854Y404268D01*
X834187D01*
X832521Y405934D01*
Y409266D01*
X834187Y410933D01*
X844184Y400936D02*
Y394271D01*
X842518Y390939D02*
Y387607D01*
Y389273D01*
X832521D01*
X834187Y390939D01*
Y382608D02*
X832521Y380942D01*
Y377610D01*
X834187Y375944D01*
X840852D01*
X842518Y377610D01*
Y380942D01*
X840852Y382608D01*
X834187D01*
X2055114Y2216658D02*
Y2226655D01*
X2050116D01*
X2048450Y2224989D01*
Y2221656D01*
X2050116Y2219990D01*
X2055114D01*
X2051782D02*
X2048450Y2216658D01*
X2038453D02*
X2045117D01*
X2038453Y2223322D01*
Y2224989D01*
X2040119Y2226655D01*
X2043451D01*
X2045117Y2224989D01*
X2035120Y2216658D02*
X2031788D01*
X2033454D01*
Y2226655D01*
X2035120Y2224989D01*
X2055114Y2078228D02*
Y2088225D01*
X2050116D01*
X2048450Y2086559D01*
Y2083226D01*
X2050116Y2081560D01*
X2055114D01*
X2051782D02*
X2048450Y2078228D01*
X2038453D02*
X2045117D01*
X2038453Y2084892D01*
Y2086559D01*
X2040119Y2088225D01*
X2043451D01*
X2045117Y2086559D01*
X2028456Y2078228D02*
X2035120D01*
X2028456Y2084892D01*
Y2086559D01*
X2030122Y2088225D01*
X2033454D01*
X2035120Y2086559D01*
X2055114Y1939798D02*
Y1949795D01*
X2050116D01*
X2048450Y1948129D01*
Y1944796D01*
X2050116Y1943130D01*
X2055114D01*
X2051782D02*
X2048450Y1939798D01*
X2038453D02*
X2045117D01*
X2038453Y1946463D01*
Y1948129D01*
X2040119Y1949795D01*
X2043451D01*
X2045117Y1948129D01*
X2035120D02*
X2033454Y1949795D01*
X2030122D01*
X2028456Y1948129D01*
Y1946463D01*
X2030122Y1944796D01*
X2031788D01*
X2030122D01*
X2028456Y1943130D01*
Y1941464D01*
X2030122Y1939798D01*
X2033454D01*
X2035120Y1941464D01*
X2055114Y1801368D02*
Y1811365D01*
X2050116D01*
X2048450Y1809699D01*
Y1806366D01*
X2050116Y1804700D01*
X2055114D01*
X2051782D02*
X2048450Y1801368D01*
X2038453D02*
X2045117D01*
X2038453Y1808033D01*
Y1809699D01*
X2040119Y1811365D01*
X2043451D01*
X2045117Y1809699D01*
X2030122Y1801368D02*
Y1811365D01*
X2035120Y1806366D01*
X2028456D01*
X871474Y2226818D02*
Y2236815D01*
X866476D01*
X864809Y2235149D01*
Y2231816D01*
X866476Y2230150D01*
X871474D01*
X868142D02*
X864809Y2226818D01*
X854813D02*
X861477D01*
X854813Y2233483D01*
Y2235149D01*
X856479Y2236815D01*
X859811D01*
X861477Y2235149D01*
X844816Y2236815D02*
X851480D01*
Y2231816D01*
X848148Y2233483D01*
X846482D01*
X844816Y2231816D01*
Y2228484D01*
X846482Y2226818D01*
X849814D01*
X851480Y2228484D01*
X871474Y2090420D02*
Y2100417D01*
X866476D01*
X864809Y2098751D01*
Y2095418D01*
X866476Y2093752D01*
X871474D01*
X868142D02*
X864809Y2090420D01*
X854813D02*
X861477D01*
X854813Y2097085D01*
Y2098751D01*
X856479Y2100417D01*
X859811D01*
X861477Y2098751D01*
X844816Y2100417D02*
X848148Y2098751D01*
X851480Y2095418D01*
Y2092086D01*
X849814Y2090420D01*
X846482D01*
X844816Y2092086D01*
Y2093752D01*
X846482Y2095418D01*
X851480D01*
X871474Y1954022D02*
Y1964019D01*
X866476D01*
X864809Y1962353D01*
Y1959020D01*
X866476Y1957354D01*
X871474D01*
X868142D02*
X864809Y1954022D01*
X854813D02*
X861477D01*
X854813Y1960686D01*
Y1962353D01*
X856479Y1964019D01*
X859811D01*
X861477Y1962353D01*
X851480Y1964019D02*
X844816D01*
Y1962353D01*
X851480Y1955688D01*
Y1954022D01*
X871474Y1817878D02*
Y1827875D01*
X866476D01*
X864809Y1826209D01*
Y1822876D01*
X866476Y1821210D01*
X871474D01*
X868142D02*
X864809Y1817878D01*
X854813D02*
X861477D01*
X854813Y1824543D01*
Y1826209D01*
X856479Y1827875D01*
X859811D01*
X861477Y1826209D01*
X851480D02*
X849814Y1827875D01*
X846482D01*
X844816Y1826209D01*
Y1824543D01*
X846482Y1822876D01*
X844816Y1821210D01*
Y1819544D01*
X846482Y1817878D01*
X849814D01*
X851480Y1819544D01*
Y1821210D01*
X849814Y1822876D01*
X851480Y1824543D01*
Y1826209D01*
X849814Y1822876D02*
X846482D01*
D23*
X865378Y430530D02*
Y432816D01*
Y377444D02*
Y379730D01*
Y430530D02*
X857758D01*
Y379730D02*
Y430530D01*
X872998Y379730D02*
X857758D01*
X872998D02*
Y430530D01*
X865378D01*
Y566420D02*
Y568706D01*
Y513334D02*
Y515620D01*
Y566420D02*
X857758D01*
Y515620D02*
Y566420D01*
X872998Y515620D02*
X857758D01*
X872998D02*
Y566420D01*
X865378D01*
Y702310D02*
Y704596D01*
Y649224D02*
Y651510D01*
Y702310D02*
X857758D01*
Y651510D02*
Y702310D01*
X872998Y651510D02*
X857758D01*
X872998D02*
Y702310D01*
X865378D01*
Y838200D02*
Y840486D01*
Y785114D02*
Y787400D01*
Y838200D02*
X857758D01*
Y787400D02*
Y838200D01*
X872998Y787400D02*
X857758D01*
X872998D02*
Y838200D01*
X865378D01*
Y974090D02*
Y976376D01*
Y921004D02*
Y923290D01*
Y974090D02*
X857758D01*
Y923290D02*
Y974090D01*
X872998Y923290D02*
X857758D01*
X872998D02*
Y974090D01*
X865378D01*
Y1109980D02*
Y1112266D01*
Y1056894D02*
Y1059180D01*
Y1109980D02*
X857758D01*
Y1059180D02*
Y1109980D01*
X872998Y1059180D02*
X857758D01*
X872998D02*
Y1109980D01*
X865378D01*
Y1245870D02*
Y1248156D01*
Y1192784D02*
Y1195070D01*
Y1245870D02*
X857758D01*
Y1195070D02*
Y1245870D01*
X872998Y1195070D02*
X857758D01*
X872998D02*
Y1245870D01*
X865378D01*
Y1381760D02*
Y1384046D01*
Y1328674D02*
Y1330960D01*
Y1381760D02*
X857758D01*
Y1330960D02*
Y1381760D01*
X872998Y1330960D02*
X857758D01*
X872998D02*
Y1381760D01*
X865378D01*
Y1517650D02*
Y1519936D01*
Y1464564D02*
Y1466850D01*
Y1517650D02*
X857758D01*
Y1466850D02*
Y1517650D01*
X872998Y1466850D02*
X857758D01*
X872998D02*
Y1517650D01*
X865378D01*
Y1600454D02*
Y1602740D01*
Y1653540D02*
Y1655826D01*
X872998Y1602740D02*
X865378D01*
X872998D02*
Y1653540D01*
X857758D01*
Y1602740D02*
Y1653540D01*
X865378Y1602740D02*
X857758D01*
X2049018Y424180D02*
Y426466D01*
Y371094D02*
Y373380D01*
Y424180D02*
X2041398D01*
Y373380D02*
Y424180D01*
X2056638Y373380D02*
X2041398D01*
X2056638D02*
Y424180D01*
X2049018D01*
Y559223D02*
Y561509D01*
Y506137D02*
Y508423D01*
Y559223D02*
X2041398D01*
Y508423D02*
Y559223D01*
X2056638Y508423D02*
X2041398D01*
X2056638D02*
Y559223D01*
X2049018D01*
Y694267D02*
Y696553D01*
Y641181D02*
Y643467D01*
Y694267D02*
X2041398D01*
Y643467D02*
Y694267D01*
X2056638Y643467D02*
X2041398D01*
X2056638D02*
Y694267D01*
X2049018D01*
Y829310D02*
Y831596D01*
Y776224D02*
Y778510D01*
Y829310D02*
X2041398D01*
Y778510D02*
Y829310D01*
X2056638Y778510D02*
X2041398D01*
X2056638D02*
Y829310D01*
X2049018D01*
Y964353D02*
Y966639D01*
Y911267D02*
Y913553D01*
Y964353D02*
X2041398D01*
Y913553D02*
Y964353D01*
X2056638Y913553D02*
X2041398D01*
X2056638D02*
Y964353D01*
X2049018D01*
Y1099397D02*
Y1101683D01*
Y1046311D02*
Y1048597D01*
Y1099397D02*
X2041398D01*
Y1048597D02*
Y1099397D01*
X2056638Y1048597D02*
X2041398D01*
X2056638D02*
Y1099397D01*
X2049018D01*
Y1234440D02*
Y1236726D01*
Y1181354D02*
Y1183640D01*
Y1234440D02*
X2041398D01*
Y1183640D02*
Y1234440D01*
X2056638Y1183640D02*
X2041398D01*
X2056638D02*
Y1234440D01*
X2049018D01*
Y1369483D02*
Y1371769D01*
Y1316397D02*
Y1318683D01*
Y1369483D02*
X2041398D01*
Y1318683D02*
Y1369483D01*
X2056638Y1318683D02*
X2041398D01*
X2056638D02*
Y1369483D01*
X2049018D01*
Y1504527D02*
Y1506812D01*
Y1451440D02*
Y1453727D01*
Y1504527D02*
X2041398D01*
Y1453727D02*
Y1504527D01*
X2056638Y1453727D02*
X2041398D01*
X2056638D02*
Y1504527D01*
X2049018D01*
Y1582674D02*
Y1584960D01*
Y1635760D02*
Y1638046D01*
X2056638Y1584960D02*
X2049018D01*
X2056638D02*
Y1635760D01*
X2041398D01*
Y1584960D02*
Y1635760D01*
X2049018Y1584960D02*
X2041398D01*
X865378Y1789430D02*
Y1791716D01*
Y1736344D02*
Y1738630D01*
Y1789430D02*
X857758D01*
Y1738630D02*
Y1789430D01*
X872998Y1738630D02*
X857758D01*
X872998D02*
Y1789430D01*
X865378D01*
Y1872657D02*
Y1874943D01*
Y1925743D02*
Y1928029D01*
X872998Y1874943D02*
X865378D01*
X872998D02*
Y1925743D01*
X857758D01*
Y1874943D02*
Y1925743D01*
X865378Y1874943D02*
X857758D01*
X865378Y2008971D02*
Y2011257D01*
Y2062057D02*
Y2064343D01*
X872998Y2011257D02*
X865378D01*
X872998D02*
Y2062057D01*
X857758D01*
Y2011257D02*
Y2062057D01*
X865378Y2011257D02*
X857758D01*
X865378Y2145284D02*
Y2147570D01*
Y2198370D02*
Y2200656D01*
X872998Y2147570D02*
X865378D01*
X872998D02*
Y2198370D01*
X857758D01*
Y2147570D02*
Y2198370D01*
X865378Y2147570D02*
X857758D01*
X2049018Y1772920D02*
Y1775206D01*
Y1719834D02*
Y1722120D01*
Y1772920D02*
X2041398D01*
Y1722120D02*
Y1772920D01*
X2056638Y1722120D02*
X2041398D01*
X2056638D02*
Y1772920D01*
X2049018D01*
Y1858264D02*
Y1860550D01*
Y1911350D02*
Y1913636D01*
X2056638Y1860550D02*
X2049018D01*
X2056638D02*
Y1911350D01*
X2041398D01*
Y1860550D02*
Y1911350D01*
X2049018Y1860550D02*
X2041398D01*
X2049018Y1996694D02*
Y1998980D01*
Y2049780D02*
Y2052066D01*
X2056638Y1998980D02*
X2049018D01*
X2056638D02*
Y2049780D01*
X2041398D01*
Y1998980D02*
Y2049780D01*
X2049018Y1998980D02*
X2041398D01*
X2049018Y2135124D02*
Y2137410D01*
Y2188210D02*
Y2190496D01*
X2056638Y2137410D02*
X2049018D01*
X2056638D02*
Y2188210D01*
X2041398D01*
Y2137410D02*
Y2188210D01*
X2049018Y2137410D02*
X2041398D01*
D24*
X1377339Y499739D02*
X1380672Y496407D01*
Y489742D01*
X1377339Y486410D01*
X1364010D01*
X1360678Y489742D01*
Y496407D01*
X1364010Y499739D01*
X1370675D01*
Y493074D01*
X1360678Y506404D02*
X1380672D01*
X1360678Y519733D01*
X1380672D01*
Y526397D02*
X1360678D01*
Y536394D01*
X1364010Y539726D01*
X1377339D01*
X1380672Y536394D01*
Y526397D01*
X1500529Y497199D02*
X1503862Y493867D01*
Y487202D01*
X1500529Y483870D01*
X1487200D01*
X1483868Y487202D01*
Y493867D01*
X1487200Y497199D01*
X1493865D01*
Y490535D01*
X1483868Y503864D02*
X1503862D01*
X1483868Y517193D01*
X1503862D01*
Y523857D02*
X1483868D01*
Y533854D01*
X1487200Y537186D01*
X1500529D01*
X1503862Y533854D01*
Y523857D01*
X1427825Y483870D02*
Y497199D01*
X1434489Y490535D02*
X1421160D01*
X1417828Y503864D02*
Y510528D01*
Y507196D01*
X1437822D01*
X1434489Y503864D01*
X1417828Y533854D02*
Y520525D01*
X1431157Y533854D01*
X1434489D01*
X1437822Y530522D01*
Y523857D01*
X1434489Y520525D01*
X1554825Y482600D02*
Y495929D01*
X1561489Y489264D02*
X1548160D01*
X1544828Y515923D02*
Y502594D01*
X1558157Y515923D01*
X1561489D01*
X1564822Y512590D01*
Y505926D01*
X1561489Y502594D01*
X1544828Y532584D02*
X1564822D01*
X1554825Y522587D01*
Y535916D01*
X1487682Y2103123D02*
X1485143Y2105663D01*
Y2110741D01*
X1487682Y2113280D01*
X1497839D01*
X1500378Y2110741D01*
Y2105663D01*
X1497839Y2103123D01*
X1492760D01*
Y2108202D01*
X1500378Y2098045D02*
X1485143D01*
X1500378Y2087888D01*
X1485143D01*
Y2082810D02*
X1500378D01*
Y2075192D01*
X1497839Y2072653D01*
X1487682D01*
X1485143Y2075192D01*
Y2082810D01*
X1361952Y2103123D02*
X1359413Y2105663D01*
Y2110741D01*
X1361952Y2113280D01*
X1372109D01*
X1374648Y2110741D01*
Y2105663D01*
X1372109Y2103123D01*
X1367030D01*
Y2108202D01*
X1374648Y2098045D02*
X1359413D01*
X1374648Y2087888D01*
X1359413D01*
Y2082810D02*
X1374648D01*
Y2075192D01*
X1372109Y2072653D01*
X1361952D01*
X1359413Y2075192D01*
Y2082810D01*
X1429421Y2113280D02*
Y2099951D01*
X1439418Y2093286D02*
Y2086622D01*
Y2089954D01*
X1419424D01*
X1422757Y2093286D01*
X1439418Y2063296D02*
Y2076625D01*
X1426089Y2063296D01*
X1422757D01*
X1419424Y2066628D01*
Y2073293D01*
X1422757Y2076625D01*
X1551341Y2110740D02*
Y2097411D01*
X1544677Y2104075D02*
X1558006D01*
X1541344Y2077417D02*
Y2090746D01*
X1551341D01*
X1548009Y2084082D01*
Y2080750D01*
X1551341Y2077417D01*
X1558006D01*
X1561338Y2080750D01*
Y2087414D01*
X1558006Y2090746D01*
M02*
