%FSLAX44Y44*%
%MOMM*%
G71*
G01*
G75*
G04 Layer_Color=2752767*
%ADD10P,3.2472X8X22.5*%
%ADD11C,2.0000*%
%ADD12C,3.0480*%
%ADD13P,3.2992X8X112.5*%
%ADD14C,1.4000*%
%ADD15C,1.5240*%
%ADD16P,1.6496X8X202.5*%
%ADD17C,3.0000*%
%ADD18P,4.3296X8X202.5*%
%ADD19C,1.0000*%
%ADD20C,2.0000*%
%ADD21C,0.1524*%
%ADD22C,0.2540*%
%ADD23C,0.2000*%
%ADD24C,0.3000*%
%ADD25P,3.4671X8X22.5*%
%ADD26C,2.2032*%
%ADD27C,3.2512*%
%ADD28P,3.5191X8X112.5*%
%ADD29C,1.6032*%
%ADD30C,1.7272*%
%ADD31P,1.8695X8X202.5*%
%ADD32C,3.2032*%
%ADD33P,4.5495X8X202.5*%
%ADD34C,0.1270*%
%ADD35C,0.1693*%
D34*
X1534470Y419100D02*
Y429260D01*
X1544630D01*
Y419100D01*
X1534470D01*
X1234470D02*
Y429260D01*
X1244630D01*
Y419100D01*
X1234470D01*
X1534470Y2157730D02*
Y2167890D01*
X1544630D01*
Y2157730D01*
X1534470D01*
X1234470D02*
Y2167890D01*
X1244630D01*
Y2157730D01*
X1234470D01*
X2112137Y1682623D02*
X2107057Y1692783D01*
X2117217D01*
X2112137Y1682623D01*
Y1631823D02*
X2107057Y1641983D01*
X2117217D01*
X2112137Y1631823D01*
Y1581023D02*
X2107057Y1591183D01*
X2117217D01*
X2112137Y1581023D01*
Y1530223D02*
X2107057Y1540383D01*
X2117217D01*
X2112137Y1530223D01*
X664083Y1632077D02*
X659003Y1642237D01*
X669163D01*
X664083Y1632077D01*
Y1682877D02*
X659003Y1693037D01*
X669163D01*
X664083Y1682877D01*
Y1530477D02*
X659003Y1540637D01*
X669163D01*
X664083Y1530477D01*
Y1581277D02*
X659003Y1591437D01*
X669163D01*
X664083Y1581277D01*
X1983740Y361950D02*
X1986280Y364490D01*
X1988820D01*
X1986280Y367030D01*
X1988820Y369570D01*
X1986280D01*
X1983740Y372110D01*
X1981200Y369570D01*
X1978660D01*
X1981200Y367030D01*
X1978660Y364490D01*
X1981200D01*
X1983740Y361950D01*
Y438150D02*
X1986280Y440690D01*
X1988820D01*
X1986280Y443230D01*
X1988820Y445770D01*
X1986280D01*
X1983740Y448310D01*
X1981200Y445770D01*
X1978660D01*
X1981200Y443230D01*
X1978660Y440690D01*
X1981200D01*
X1983740Y438150D01*
Y497840D02*
X1986280Y500380D01*
X1988820D01*
X1986280Y502920D01*
X1988820Y505460D01*
X1986280D01*
X1983740Y508000D01*
X1981200Y505460D01*
X1978660D01*
X1981200Y502920D01*
X1978660Y500380D01*
X1981200D01*
X1983740Y497840D01*
Y574040D02*
X1986280Y576580D01*
X1988820D01*
X1986280Y579120D01*
X1988820Y581660D01*
X1986280D01*
X1983740Y584200D01*
X1981200Y581660D01*
X1978660D01*
X1981200Y579120D01*
X1978660Y576580D01*
X1981200D01*
X1983740Y574040D01*
Y633730D02*
X1986280Y636270D01*
X1988820D01*
X1986280Y638810D01*
X1988820Y641350D01*
X1986280D01*
X1983740Y643890D01*
X1981200Y641350D01*
X1978660D01*
X1981200Y638810D01*
X1978660Y636270D01*
X1981200D01*
X1983740Y633730D01*
Y709930D02*
X1986280Y712470D01*
X1988820D01*
X1986280Y715010D01*
X1988820Y717550D01*
X1986280D01*
X1983740Y720090D01*
X1981200Y717550D01*
X1978660D01*
X1981200Y715010D01*
X1978660Y712470D01*
X1981200D01*
X1983740Y709930D01*
Y769620D02*
X1986280Y772160D01*
X1988820D01*
X1986280Y774700D01*
X1988820Y777240D01*
X1986280D01*
X1983740Y779780D01*
X1981200Y777240D01*
X1978660D01*
X1981200Y774700D01*
X1978660Y772160D01*
X1981200D01*
X1983740Y769620D01*
Y845820D02*
X1986280Y848360D01*
X1988820D01*
X1986280Y850900D01*
X1988820Y853440D01*
X1986280D01*
X1983740Y855980D01*
X1981200Y853440D01*
X1978660D01*
X1981200Y850900D01*
X1978660Y848360D01*
X1981200D01*
X1983740Y845820D01*
Y905510D02*
X1986280Y908050D01*
X1988820D01*
X1986280Y910590D01*
X1988820Y913130D01*
X1986280D01*
X1983740Y915670D01*
X1981200Y913130D01*
X1978660D01*
X1981200Y910590D01*
X1978660Y908050D01*
X1981200D01*
X1983740Y905510D01*
Y981710D02*
X1986280Y984250D01*
X1988820D01*
X1986280Y986790D01*
X1988820Y989330D01*
X1986280D01*
X1983740Y991870D01*
X1981200Y989330D01*
X1978660D01*
X1981200Y986790D01*
X1978660Y984250D01*
X1981200D01*
X1983740Y981710D01*
Y1041400D02*
X1986280Y1043940D01*
X1988820D01*
X1986280Y1046480D01*
X1988820Y1049020D01*
X1986280D01*
X1983740Y1051560D01*
X1981200Y1049020D01*
X1978660D01*
X1981200Y1046480D01*
X1978660Y1043940D01*
X1981200D01*
X1983740Y1041400D01*
Y1117600D02*
X1986280Y1120140D01*
X1988820D01*
X1986280Y1122680D01*
X1988820Y1125220D01*
X1986280D01*
X1983740Y1127760D01*
X1981200Y1125220D01*
X1978660D01*
X1981200Y1122680D01*
X1978660Y1120140D01*
X1981200D01*
X1983740Y1117600D01*
Y1177290D02*
X1986280Y1179830D01*
X1988820D01*
X1986280Y1182370D01*
X1988820Y1184910D01*
X1986280D01*
X1983740Y1187450D01*
X1981200Y1184910D01*
X1978660D01*
X1981200Y1182370D01*
X1978660Y1179830D01*
X1981200D01*
X1983740Y1177290D01*
Y1253490D02*
X1986280Y1256030D01*
X1988820D01*
X1986280Y1258570D01*
X1988820Y1261110D01*
X1986280D01*
X1983740Y1263650D01*
X1981200Y1261110D01*
X1978660D01*
X1981200Y1258570D01*
X1978660Y1256030D01*
X1981200D01*
X1983740Y1253490D01*
Y1313180D02*
X1986280Y1315720D01*
X1988820D01*
X1986280Y1318260D01*
X1988820Y1320800D01*
X1986280D01*
X1983740Y1323340D01*
X1981200Y1320800D01*
X1978660D01*
X1981200Y1318260D01*
X1978660Y1315720D01*
X1981200D01*
X1983740Y1313180D01*
Y1389380D02*
X1986280Y1391920D01*
X1988820D01*
X1986280Y1394460D01*
X1988820Y1397000D01*
X1986280D01*
X1983740Y1399540D01*
X1981200Y1397000D01*
X1978660D01*
X1981200Y1394460D01*
X1978660Y1391920D01*
X1981200D01*
X1983740Y1389380D01*
Y1449070D02*
X1986280Y1451610D01*
X1988820D01*
X1986280Y1454150D01*
X1988820Y1456690D01*
X1986280D01*
X1983740Y1459230D01*
X1981200Y1456690D01*
X1978660D01*
X1981200Y1454150D01*
X1978660Y1451610D01*
X1981200D01*
X1983740Y1449070D01*
Y1525270D02*
X1986280Y1527810D01*
X1988820D01*
X1986280Y1530350D01*
X1988820Y1532890D01*
X1986280D01*
X1983740Y1535430D01*
X1981200Y1532890D01*
X1978660D01*
X1981200Y1530350D01*
X1978660Y1527810D01*
X1981200D01*
X1983740Y1525270D01*
Y1661160D02*
X1986280Y1663700D01*
X1988820D01*
X1986280Y1666240D01*
X1988820Y1668780D01*
X1986280D01*
X1983740Y1671320D01*
X1981200Y1668780D01*
X1978660D01*
X1981200Y1666240D01*
X1978660Y1663700D01*
X1981200D01*
X1983740Y1661160D01*
Y1584960D02*
X1986280Y1587500D01*
X1988820D01*
X1986280Y1590040D01*
X1988820Y1592580D01*
X1986280D01*
X1983740Y1595120D01*
X1981200Y1592580D01*
X1978660D01*
X1981200Y1590040D01*
X1978660Y1587500D01*
X1981200D01*
X1983740Y1584960D01*
X800100Y355600D02*
X802640Y358140D01*
X805180D01*
X802640Y360680D01*
X805180Y363220D01*
X802640D01*
X800100Y365760D01*
X797560Y363220D01*
X795020D01*
X797560Y360680D01*
X795020Y358140D01*
X797560D01*
X800100Y355600D01*
Y431800D02*
X802640Y434340D01*
X805180D01*
X802640Y436880D01*
X805180Y439420D01*
X802640D01*
X800100Y441960D01*
X797560Y439420D01*
X795020D01*
X797560Y436880D01*
X795020Y434340D01*
X797560D01*
X800100Y431800D01*
Y490643D02*
X802640Y493183D01*
X805180D01*
X802640Y495723D01*
X805180Y498263D01*
X802640D01*
X800100Y500803D01*
X797560Y498263D01*
X795020D01*
X797560Y495723D01*
X795020Y493183D01*
X797560D01*
X800100Y490643D01*
Y566843D02*
X802640Y569383D01*
X805180D01*
X802640Y571923D01*
X805180Y574463D01*
X802640D01*
X800100Y577003D01*
X797560Y574463D01*
X795020D01*
X797560Y571923D01*
X795020Y569383D01*
X797560D01*
X800100Y566843D01*
Y625687D02*
X802640Y628227D01*
X805180D01*
X802640Y630767D01*
X805180Y633307D01*
X802640D01*
X800100Y635847D01*
X797560Y633307D01*
X795020D01*
X797560Y630767D01*
X795020Y628227D01*
X797560D01*
X800100Y625687D01*
Y701887D02*
X802640Y704427D01*
X805180D01*
X802640Y706967D01*
X805180Y709507D01*
X802640D01*
X800100Y712047D01*
X797560Y709507D01*
X795020D01*
X797560Y706967D01*
X795020Y704427D01*
X797560D01*
X800100Y701887D01*
Y760730D02*
X802640Y763270D01*
X805180D01*
X802640Y765810D01*
X805180Y768350D01*
X802640D01*
X800100Y770890D01*
X797560Y768350D01*
X795020D01*
X797560Y765810D01*
X795020Y763270D01*
X797560D01*
X800100Y760730D01*
Y836930D02*
X802640Y839470D01*
X805180D01*
X802640Y842010D01*
X805180Y844550D01*
X802640D01*
X800100Y847090D01*
X797560Y844550D01*
X795020D01*
X797560Y842010D01*
X795020Y839470D01*
X797560D01*
X800100Y836930D01*
Y895773D02*
X802640Y898313D01*
X805180D01*
X802640Y900853D01*
X805180Y903393D01*
X802640D01*
X800100Y905933D01*
X797560Y903393D01*
X795020D01*
X797560Y900853D01*
X795020Y898313D01*
X797560D01*
X800100Y895773D01*
Y971973D02*
X802640Y974513D01*
X805180D01*
X802640Y977053D01*
X805180Y979593D01*
X802640D01*
X800100Y982133D01*
X797560Y979593D01*
X795020D01*
X797560Y977053D01*
X795020Y974513D01*
X797560D01*
X800100Y971973D01*
Y1030817D02*
X802640Y1033357D01*
X805180D01*
X802640Y1035897D01*
X805180Y1038437D01*
X802640D01*
X800100Y1040977D01*
X797560Y1038437D01*
X795020D01*
X797560Y1035897D01*
X795020Y1033357D01*
X797560D01*
X800100Y1030817D01*
Y1107017D02*
X802640Y1109557D01*
X805180D01*
X802640Y1112097D01*
X805180Y1114637D01*
X802640D01*
X800100Y1117177D01*
X797560Y1114637D01*
X795020D01*
X797560Y1112097D01*
X795020Y1109557D01*
X797560D01*
X800100Y1107017D01*
Y1165860D02*
X802640Y1168400D01*
X805180D01*
X802640Y1170940D01*
X805180Y1173480D01*
X802640D01*
X800100Y1176020D01*
X797560Y1173480D01*
X795020D01*
X797560Y1170940D01*
X795020Y1168400D01*
X797560D01*
X800100Y1165860D01*
Y1242060D02*
X802640Y1244600D01*
X805180D01*
X802640Y1247140D01*
X805180Y1249680D01*
X802640D01*
X800100Y1252220D01*
X797560Y1249680D01*
X795020D01*
X797560Y1247140D01*
X795020Y1244600D01*
X797560D01*
X800100Y1242060D01*
Y1300903D02*
X802640Y1303443D01*
X805180D01*
X802640Y1305983D01*
X805180Y1308523D01*
X802640D01*
X800100Y1311063D01*
X797560Y1308523D01*
X795020D01*
X797560Y1305983D01*
X795020Y1303443D01*
X797560D01*
X800100Y1300903D01*
Y1377103D02*
X802640Y1379643D01*
X805180D01*
X802640Y1382183D01*
X805180Y1384723D01*
X802640D01*
X800100Y1387263D01*
X797560Y1384723D01*
X795020D01*
X797560Y1382183D01*
X795020Y1379643D01*
X797560D01*
X800100Y1377103D01*
Y1435947D02*
X802640Y1438486D01*
X805180D01*
X802640Y1441026D01*
X805180Y1443566D01*
X802640D01*
X800100Y1446107D01*
X797560Y1443566D01*
X795020D01*
X797560Y1441026D01*
X795020Y1438486D01*
X797560D01*
X800100Y1435947D01*
Y1512146D02*
X802640Y1514686D01*
X805180D01*
X802640Y1517227D01*
X805180Y1519767D01*
X802640D01*
X800100Y1522307D01*
X797560Y1519767D01*
X795020D01*
X797560Y1517227D01*
X795020Y1514686D01*
X797560D01*
X800100Y1512146D01*
Y1643380D02*
X802640Y1645920D01*
X805180D01*
X802640Y1648460D01*
X805180Y1651000D01*
X802640D01*
X800100Y1653540D01*
X797560Y1651000D01*
X795020D01*
X797560Y1648460D01*
X795020Y1645920D01*
X797560D01*
X800100Y1643380D01*
Y1567180D02*
X802640Y1569720D01*
X805180D01*
X802640Y1572260D01*
X805180Y1574800D01*
X802640D01*
X800100Y1577340D01*
X797560Y1574800D01*
X795020D01*
X797560Y1572260D01*
X795020Y1569720D01*
X797560D01*
X800100Y1567180D01*
X1983740Y1720850D02*
X1986280Y1723390D01*
X1988820D01*
X1986280Y1725930D01*
X1988820Y1728470D01*
X1986280D01*
X1983740Y1731010D01*
X1981200Y1728470D01*
X1978660D01*
X1981200Y1725930D01*
X1978660Y1723390D01*
X1981200D01*
X1983740Y1720850D01*
Y1797050D02*
X1986280Y1799590D01*
X1988820D01*
X1986280Y1802130D01*
X1988820Y1804670D01*
X1986280D01*
X1983740Y1807210D01*
X1981200Y1804670D01*
X1978660D01*
X1981200Y1802130D01*
X1978660Y1799590D01*
X1981200D01*
X1983740Y1797050D01*
Y1933363D02*
X1986280Y1935903D01*
X1988820D01*
X1986280Y1938443D01*
X1988820Y1940983D01*
X1986280D01*
X1983740Y1943523D01*
X1981200Y1940983D01*
X1978660D01*
X1981200Y1938443D01*
X1978660Y1935903D01*
X1981200D01*
X1983740Y1933363D01*
Y1857163D02*
X1986280Y1859703D01*
X1988820D01*
X1986280Y1862243D01*
X1988820Y1864783D01*
X1986280D01*
X1983740Y1867323D01*
X1981200Y1864783D01*
X1978660D01*
X1981200Y1862243D01*
X1978660Y1859703D01*
X1981200D01*
X1983740Y1857163D01*
Y2069677D02*
X1986280Y2072217D01*
X1988820D01*
X1986280Y2074757D01*
X1988820Y2077297D01*
X1986280D01*
X1983740Y2079837D01*
X1981200Y2077297D01*
X1978660D01*
X1981200Y2074757D01*
X1978660Y2072217D01*
X1981200D01*
X1983740Y2069677D01*
Y1993477D02*
X1986280Y1996017D01*
X1988820D01*
X1986280Y1998557D01*
X1988820Y2001097D01*
X1986280D01*
X1983740Y2003637D01*
X1981200Y2001097D01*
X1978660D01*
X1981200Y1998557D01*
X1978660Y1996017D01*
X1981200D01*
X1983740Y1993477D01*
Y2205990D02*
X1986280Y2208530D01*
X1988820D01*
X1986280Y2211070D01*
X1988820Y2213610D01*
X1986280D01*
X1983740Y2216150D01*
X1981200Y2213610D01*
X1978660D01*
X1981200Y2211070D01*
X1978660Y2208530D01*
X1981200D01*
X1983740Y2205990D01*
Y2129790D02*
X1986280Y2132330D01*
X1988820D01*
X1986280Y2134870D01*
X1988820Y2137410D01*
X1986280D01*
X1983740Y2139950D01*
X1981200Y2137410D01*
X1978660D01*
X1981200Y2134870D01*
X1978660Y2132330D01*
X1981200D01*
X1983740Y2129790D01*
X800100Y1704340D02*
X802640Y1706880D01*
X805180D01*
X802640Y1709420D01*
X805180Y1711960D01*
X802640D01*
X800100Y1714500D01*
X797560Y1711960D01*
X795020D01*
X797560Y1709420D01*
X795020Y1706880D01*
X797560D01*
X800100Y1704340D01*
Y1780540D02*
X802640Y1783080D01*
X805180D01*
X802640Y1785620D01*
X805180Y1788160D01*
X802640D01*
X800100Y1790700D01*
X797560Y1788160D01*
X795020D01*
X797560Y1785620D01*
X795020Y1783080D01*
X797560D01*
X800100Y1780540D01*
Y1918970D02*
X802640Y1921510D01*
X805180D01*
X802640Y1924050D01*
X805180Y1926590D01*
X802640D01*
X800100Y1929130D01*
X797560Y1926590D01*
X795020D01*
X797560Y1924050D01*
X795020Y1921510D01*
X797560D01*
X800100Y1918970D01*
Y1842770D02*
X802640Y1845310D01*
X805180D01*
X802640Y1847850D01*
X805180Y1850390D01*
X802640D01*
X800100Y1852930D01*
X797560Y1850390D01*
X795020D01*
X797560Y1847850D01*
X795020Y1845310D01*
X797560D01*
X800100Y1842770D01*
Y2057400D02*
X802640Y2059940D01*
X805180D01*
X802640Y2062480D01*
X805180Y2065020D01*
X802640D01*
X800100Y2067560D01*
X797560Y2065020D01*
X795020D01*
X797560Y2062480D01*
X795020Y2059940D01*
X797560D01*
X800100Y2057400D01*
Y1981200D02*
X802640Y1983740D01*
X805180D01*
X802640Y1986280D01*
X805180Y1988820D01*
X802640D01*
X800100Y1991360D01*
X797560Y1988820D01*
X795020D01*
X797560Y1986280D01*
X795020Y1983740D01*
X797560D01*
X800100Y1981200D01*
Y2195830D02*
X802640Y2198370D01*
X805180D01*
X802640Y2200910D01*
X805180Y2203450D01*
X802640D01*
X800100Y2205990D01*
X797560Y2203450D01*
X795020D01*
X797560Y2200910D01*
X795020Y2198370D01*
X797560D01*
X800100Y2195830D01*
Y2119630D02*
X802640Y2122170D01*
X805180D01*
X802640Y2124710D01*
X805180Y2127250D01*
X802640D01*
X800100Y2129790D01*
X797560Y2127250D01*
X795020D01*
X797560Y2124710D01*
X795020Y2122170D01*
X797560D01*
X800100Y2119630D01*
X1908810Y1758950D02*
X1911350Y1764030D01*
X1908810Y1769110D01*
X1913890Y1766570D01*
X1918970Y1769110D01*
X1916430Y1764030D01*
X1918970Y1758950D01*
X1913890Y1761490D01*
X1908810Y1758950D01*
X1934210D02*
X1936750Y1764030D01*
X1934210Y1769110D01*
X1939290Y1766570D01*
X1944370Y1769110D01*
X1941830Y1764030D01*
X1944370Y1758950D01*
X1939290Y1761490D01*
X1934210Y1758950D01*
X1908810Y1894840D02*
X1911350Y1899920D01*
X1908810Y1905000D01*
X1913890Y1902460D01*
X1918970Y1905000D01*
X1916430Y1899920D01*
X1918970Y1894840D01*
X1913890Y1897380D01*
X1908810Y1894840D01*
X1934210D02*
X1936750Y1899920D01*
X1934210Y1905000D01*
X1939290Y1902460D01*
X1944370Y1905000D01*
X1941830Y1899920D01*
X1944370Y1894840D01*
X1939290Y1897380D01*
X1934210Y1894840D01*
X1908810Y2030730D02*
X1911350Y2035810D01*
X1908810Y2040890D01*
X1913890Y2038350D01*
X1918970Y2040890D01*
X1916430Y2035810D01*
X1918970Y2030730D01*
X1913890Y2033270D01*
X1908810Y2030730D01*
X1934210D02*
X1936750Y2035810D01*
X1934210Y2040890D01*
X1939290Y2038350D01*
X1944370Y2040890D01*
X1941830Y2035810D01*
X1944370Y2030730D01*
X1939290Y2033270D01*
X1934210Y2030730D01*
X1908810Y2166620D02*
X1911350Y2171700D01*
X1908810Y2176780D01*
X1913890Y2174240D01*
X1918970Y2176780D01*
X1916430Y2171700D01*
X1918970Y2166620D01*
X1913890Y2169160D01*
X1908810Y2166620D01*
X1934210D02*
X1936750Y2171700D01*
X1934210Y2176780D01*
X1939290Y2174240D01*
X1944370Y2176780D01*
X1941830Y2171700D01*
X1944370Y2166620D01*
X1939290Y2169160D01*
X1934210Y2166620D01*
X858520Y1746250D02*
X861060Y1751330D01*
X858520Y1756410D01*
X863600Y1753870D01*
X868680Y1756410D01*
X866140Y1751330D01*
X868680Y1746250D01*
X863600Y1748790D01*
X858520Y1746250D01*
X833120D02*
X835660Y1751330D01*
X833120Y1756410D01*
X838200Y1753870D01*
X843280Y1756410D01*
X840740Y1751330D01*
X843280Y1746250D01*
X838200Y1748790D01*
X833120Y1746250D01*
X858520Y1882140D02*
X861060Y1887220D01*
X858520Y1892300D01*
X863600Y1889760D01*
X868680Y1892300D01*
X866140Y1887220D01*
X868680Y1882140D01*
X863600Y1884680D01*
X858520Y1882140D01*
X833120D02*
X835660Y1887220D01*
X833120Y1892300D01*
X838200Y1889760D01*
X843280Y1892300D01*
X840740Y1887220D01*
X843280Y1882140D01*
X838200Y1884680D01*
X833120Y1882140D01*
X858520Y2018030D02*
X861060Y2023110D01*
X858520Y2028190D01*
X863600Y2025650D01*
X868680Y2028190D01*
X866140Y2023110D01*
X868680Y2018030D01*
X863600Y2020570D01*
X858520Y2018030D01*
X833120D02*
X835660Y2023110D01*
X833120Y2028190D01*
X838200Y2025650D01*
X843280Y2028190D01*
X840740Y2023110D01*
X843280Y2018030D01*
X838200Y2020570D01*
X833120Y2018030D01*
X858520Y2153920D02*
X861060Y2159000D01*
X858520Y2164080D01*
X863600Y2161540D01*
X868680Y2164080D01*
X866140Y2159000D01*
X868680Y2153920D01*
X863600Y2156460D01*
X858520Y2153920D01*
X833120D02*
X835660Y2159000D01*
X833120Y2164080D01*
X838200Y2161540D01*
X843280Y2164080D01*
X840740Y2159000D01*
X843280Y2153920D01*
X838200Y2156460D01*
X833120Y2153920D01*
X1908810Y401320D02*
X1911350Y406400D01*
X1908810Y411480D01*
X1913890Y408940D01*
X1918970Y411480D01*
X1916430Y406400D01*
X1918970Y401320D01*
X1913890Y403860D01*
X1908810Y401320D01*
X1934210D02*
X1936750Y406400D01*
X1934210Y411480D01*
X1939290Y408940D01*
X1944370Y411480D01*
X1941830Y406400D01*
X1944370Y401320D01*
X1939290Y403860D01*
X1934210Y401320D01*
X1908810Y537069D02*
X1911350Y542149D01*
X1908810Y547229D01*
X1913890Y544689D01*
X1918970Y547229D01*
X1916430Y542149D01*
X1918970Y537069D01*
X1913890Y539609D01*
X1908810Y537069D01*
X1934210D02*
X1936750Y542149D01*
X1934210Y547229D01*
X1939290Y544689D01*
X1944370Y547229D01*
X1941830Y542149D01*
X1944370Y537069D01*
X1939290Y539609D01*
X1934210Y537069D01*
X1908810Y672818D02*
X1911350Y677898D01*
X1908810Y682978D01*
X1913890Y680438D01*
X1918970Y682978D01*
X1916430Y677898D01*
X1918970Y672818D01*
X1913890Y675358D01*
X1908810Y672818D01*
X1934210D02*
X1936750Y677898D01*
X1934210Y682978D01*
X1939290Y680438D01*
X1944370Y682978D01*
X1941830Y677898D01*
X1944370Y672818D01*
X1939290Y675358D01*
X1934210Y672818D01*
X1908810Y808567D02*
X1911350Y813647D01*
X1908810Y818727D01*
X1913890Y816187D01*
X1918970Y818727D01*
X1916430Y813647D01*
X1918970Y808567D01*
X1913890Y811107D01*
X1908810Y808567D01*
X1934210D02*
X1936750Y813647D01*
X1934210Y818727D01*
X1939290Y816187D01*
X1944370Y818727D01*
X1941830Y813647D01*
X1944370Y808567D01*
X1939290Y811107D01*
X1934210Y808567D01*
X1908810Y944315D02*
X1911350Y949396D01*
X1908810Y954475D01*
X1913890Y951936D01*
X1918970Y954475D01*
X1916430Y949396D01*
X1918970Y944315D01*
X1913890Y946855D01*
X1908810Y944315D01*
X1934210D02*
X1936750Y949396D01*
X1934210Y954475D01*
X1939290Y951936D01*
X1944370Y954475D01*
X1941830Y949396D01*
X1944370Y944315D01*
X1939290Y946855D01*
X1934210Y944315D01*
X1908810Y1080064D02*
X1911350Y1085144D01*
X1908810Y1090224D01*
X1913890Y1087684D01*
X1918970Y1090224D01*
X1916430Y1085144D01*
X1918970Y1080064D01*
X1913890Y1082604D01*
X1908810Y1080064D01*
X1934210D02*
X1936750Y1085144D01*
X1934210Y1090224D01*
X1939290Y1087684D01*
X1944370Y1090224D01*
X1941830Y1085144D01*
X1944370Y1080064D01*
X1939290Y1082604D01*
X1934210Y1080064D01*
X1908810Y1215813D02*
X1911350Y1220893D01*
X1908810Y1225973D01*
X1913890Y1223433D01*
X1918970Y1225973D01*
X1916430Y1220893D01*
X1918970Y1215813D01*
X1913890Y1218353D01*
X1908810Y1215813D01*
X1934210D02*
X1936750Y1220893D01*
X1934210Y1225973D01*
X1939290Y1223433D01*
X1944370Y1225973D01*
X1941830Y1220893D01*
X1944370Y1215813D01*
X1939290Y1218353D01*
X1934210Y1215813D01*
X1908810Y1351562D02*
X1911350Y1356642D01*
X1908810Y1361722D01*
X1913890Y1359182D01*
X1918970Y1361722D01*
X1916430Y1356642D01*
X1918970Y1351562D01*
X1913890Y1354102D01*
X1908810Y1351562D01*
X1934210D02*
X1936750Y1356642D01*
X1934210Y1361722D01*
X1939290Y1359182D01*
X1944370Y1361722D01*
X1941830Y1356642D01*
X1944370Y1351562D01*
X1939290Y1354102D01*
X1934210Y1351562D01*
X1908810Y1487311D02*
X1911350Y1492391D01*
X1908810Y1497471D01*
X1913890Y1494931D01*
X1918970Y1497471D01*
X1916430Y1492391D01*
X1918970Y1487311D01*
X1913890Y1489851D01*
X1908810Y1487311D01*
X1934210D02*
X1936750Y1492391D01*
X1934210Y1497471D01*
X1939290Y1494931D01*
X1944370Y1497471D01*
X1941830Y1492391D01*
X1944370Y1487311D01*
X1939290Y1489851D01*
X1934210Y1487311D01*
X1908810Y1623060D02*
X1911350Y1628140D01*
X1908810Y1633220D01*
X1913890Y1630680D01*
X1918970Y1633220D01*
X1916430Y1628140D01*
X1918970Y1623060D01*
X1913890Y1625600D01*
X1908810Y1623060D01*
X1934210D02*
X1936750Y1628140D01*
X1934210Y1633220D01*
X1939290Y1630680D01*
X1944370Y1633220D01*
X1941830Y1628140D01*
X1944370Y1623060D01*
X1939290Y1625600D01*
X1934210Y1623060D01*
X858520Y389890D02*
X861060Y394970D01*
X858520Y400050D01*
X863600Y397510D01*
X868680Y400050D01*
X866140Y394970D01*
X868680Y389890D01*
X863600Y392430D01*
X858520Y389890D01*
X833120D02*
X835660Y394970D01*
X833120Y400050D01*
X838200Y397510D01*
X843280Y400050D01*
X840740Y394970D01*
X843280Y389890D01*
X838200Y392430D01*
X833120Y389890D01*
X858520Y525498D02*
X861060Y530578D01*
X858520Y535658D01*
X863600Y533118D01*
X868680Y535658D01*
X866140Y530578D01*
X868680Y525498D01*
X863600Y528038D01*
X858520Y525498D01*
X833120D02*
X835660Y530578D01*
X833120Y535658D01*
X838200Y533118D01*
X843280Y535658D01*
X840740Y530578D01*
X843280Y525498D01*
X838200Y528038D01*
X833120Y525498D01*
X858520Y661105D02*
X861060Y666186D01*
X858520Y671265D01*
X863600Y668726D01*
X868680Y671265D01*
X866140Y666186D01*
X868680Y661105D01*
X863600Y663645D01*
X858520Y661105D01*
X833120D02*
X835660Y666186D01*
X833120Y671265D01*
X838200Y668726D01*
X843280Y671265D01*
X840740Y666186D01*
X843280Y661105D01*
X838200Y663645D01*
X833120Y661105D01*
X858520Y796713D02*
X861060Y801793D01*
X858520Y806873D01*
X863600Y804333D01*
X868680Y806873D01*
X866140Y801793D01*
X868680Y796713D01*
X863600Y799253D01*
X858520Y796713D01*
X833120D02*
X835660Y801793D01*
X833120Y806873D01*
X838200Y804333D01*
X843280Y806873D01*
X840740Y801793D01*
X843280Y796713D01*
X838200Y799253D01*
X833120Y796713D01*
X858520Y932321D02*
X861060Y937401D01*
X858520Y942481D01*
X863600Y939941D01*
X868680Y942481D01*
X866140Y937401D01*
X868680Y932321D01*
X863600Y934861D01*
X858520Y932321D01*
X833120D02*
X835660Y937401D01*
X833120Y942481D01*
X838200Y939941D01*
X843280Y942481D01*
X840740Y937401D01*
X843280Y932321D01*
X838200Y934861D01*
X833120Y932321D01*
X858520Y1067929D02*
X861060Y1073009D01*
X858520Y1078089D01*
X863600Y1075549D01*
X868680Y1078089D01*
X866140Y1073009D01*
X868680Y1067929D01*
X863600Y1070469D01*
X858520Y1067929D01*
X833120D02*
X835660Y1073009D01*
X833120Y1078089D01*
X838200Y1075549D01*
X843280Y1078089D01*
X840740Y1073009D01*
X843280Y1067929D01*
X838200Y1070469D01*
X833120Y1067929D01*
X858520Y1203537D02*
X861060Y1208616D01*
X858520Y1213697D01*
X863600Y1211156D01*
X868680Y1213697D01*
X866140Y1208616D01*
X868680Y1203537D01*
X863600Y1206077D01*
X858520Y1203537D01*
X833120D02*
X835660Y1208616D01*
X833120Y1213697D01*
X838200Y1211156D01*
X843280Y1213697D01*
X840740Y1208616D01*
X843280Y1203537D01*
X838200Y1206077D01*
X833120Y1203537D01*
X858520Y1339144D02*
X861060Y1344224D01*
X858520Y1349304D01*
X863600Y1346764D01*
X868680Y1349304D01*
X866140Y1344224D01*
X868680Y1339144D01*
X863600Y1341684D01*
X858520Y1339144D01*
X833120D02*
X835660Y1344224D01*
X833120Y1349304D01*
X838200Y1346764D01*
X843280Y1349304D01*
X840740Y1344224D01*
X843280Y1339144D01*
X838200Y1341684D01*
X833120Y1339144D01*
X858520Y1474752D02*
X861060Y1479832D01*
X858520Y1484912D01*
X863600Y1482372D01*
X868680Y1484912D01*
X866140Y1479832D01*
X868680Y1474752D01*
X863600Y1477292D01*
X858520Y1474752D01*
X833120D02*
X835660Y1479832D01*
X833120Y1484912D01*
X838200Y1482372D01*
X843280Y1484912D01*
X840740Y1479832D01*
X843280Y1474752D01*
X838200Y1477292D01*
X833120Y1474752D01*
X858520Y1610360D02*
X861060Y1615440D01*
X858520Y1620520D01*
X863600Y1617980D01*
X868680Y1620520D01*
X866140Y1615440D01*
X868680Y1610360D01*
X863600Y1612900D01*
X858520Y1610360D01*
X833120D02*
X835660Y1615440D01*
X833120Y1620520D01*
X838200Y1617980D01*
X843280Y1620520D01*
X840740Y1615440D01*
X843280Y1610360D01*
X838200Y1612900D01*
X833120Y1610360D01*
X664083Y528447D02*
X659003Y538607D01*
X669163D01*
X664083Y528447D01*
Y477647D02*
X659003Y487807D01*
X669163D01*
X664083Y477647D01*
Y630047D02*
X659003Y640207D01*
X669163D01*
X664083Y630047D01*
Y579247D02*
X659003Y589407D01*
X669163D01*
X664083Y579247D01*
Y731647D02*
X659003Y741807D01*
X669163D01*
X664083Y731647D01*
Y680847D02*
X659003Y691007D01*
X669163D01*
X664083Y680847D01*
Y833247D02*
X659003Y843407D01*
X669163D01*
X664083Y833247D01*
Y782447D02*
X659003Y792607D01*
X669163D01*
X664083Y782447D01*
Y934847D02*
X659003Y945007D01*
X669163D01*
X664083Y934847D01*
Y884047D02*
X659003Y894207D01*
X669163D01*
X664083Y884047D01*
Y1036447D02*
X659003Y1046607D01*
X669163D01*
X664083Y1036447D01*
Y985647D02*
X659003Y995807D01*
X669163D01*
X664083Y985647D01*
Y1138047D02*
X659003Y1148207D01*
X669163D01*
X664083Y1138047D01*
Y1087247D02*
X659003Y1097407D01*
X669163D01*
X664083Y1087247D01*
Y1239647D02*
X659003Y1249807D01*
X669163D01*
X664083Y1239647D01*
Y1188847D02*
X659003Y1199007D01*
X669163D01*
X664083Y1188847D01*
Y1341247D02*
X659003Y1351407D01*
X669163D01*
X664083Y1341247D01*
Y1290447D02*
X659003Y1300607D01*
X669163D01*
X664083Y1290447D01*
Y1442847D02*
X659003Y1453007D01*
X669163D01*
X664083Y1442847D01*
Y1392047D02*
X659003Y1402207D01*
X669163D01*
X664083Y1392047D01*
X1630680Y404617D02*
Y402076D01*
X1635760D01*
Y404617D01*
X1638300D01*
Y409697D01*
X1635760D01*
Y412237D01*
X1630680D01*
Y409697D01*
X1628140D01*
Y404617D01*
X1630680D01*
X1840680D02*
Y402076D01*
X1845760D01*
Y404617D01*
X1848300D01*
Y409697D01*
X1845760D01*
Y412237D01*
X1840680D01*
Y409697D01*
X1838140D01*
Y404617D01*
X1840680D01*
X1630680Y540254D02*
Y537714D01*
X1635760D01*
Y540254D01*
X1638300D01*
Y545334D01*
X1635760D01*
Y547874D01*
X1630680D01*
Y545334D01*
X1628140D01*
Y540254D01*
X1630680D01*
X1840680D02*
Y537714D01*
X1845760D01*
Y540254D01*
X1848300D01*
Y545334D01*
X1845760D01*
Y547874D01*
X1840680D01*
Y545334D01*
X1838140D01*
Y540254D01*
X1840680D01*
X1630680Y675892D02*
Y673352D01*
X1635760D01*
Y675892D01*
X1638300D01*
Y680972D01*
X1635760D01*
Y683512D01*
X1630680D01*
Y680972D01*
X1628140D01*
Y675892D01*
X1630680D01*
X1840680D02*
Y673352D01*
X1845760D01*
Y675892D01*
X1848300D01*
Y680972D01*
X1845760D01*
Y683512D01*
X1840680D01*
Y680972D01*
X1838140D01*
Y675892D01*
X1840680D01*
X1630680Y811530D02*
Y808990D01*
X1635760D01*
Y811530D01*
X1638300D01*
Y816610D01*
X1635760D01*
Y819150D01*
X1630680D01*
Y816610D01*
X1628140D01*
Y811530D01*
X1630680D01*
X1840680D02*
Y808990D01*
X1845760D01*
Y811530D01*
X1848300D01*
Y816610D01*
X1845760D01*
Y819150D01*
X1840680D01*
Y816610D01*
X1838140D01*
Y811530D01*
X1840680D01*
X1630680Y947168D02*
Y944628D01*
X1635760D01*
Y947168D01*
X1638300D01*
Y952248D01*
X1635760D01*
Y954788D01*
X1630680D01*
Y952248D01*
X1628140D01*
Y947168D01*
X1630680D01*
X1840680D02*
Y944628D01*
X1845760D01*
Y947168D01*
X1848300D01*
Y952248D01*
X1845760D01*
Y954788D01*
X1840680D01*
Y952248D01*
X1838140D01*
Y947168D01*
X1840680D01*
X2112137Y478663D02*
X2107057Y488823D01*
X2117217D01*
X2112137Y478663D01*
Y529463D02*
X2107057Y539623D01*
X2117217D01*
X2112137Y529463D01*
Y580263D02*
X2107057Y590423D01*
X2117217D01*
X2112137Y580263D01*
Y631063D02*
X2107057Y641223D01*
X2117217D01*
X2112137Y631063D01*
Y681863D02*
X2107057Y692023D01*
X2117217D01*
X2112137Y681863D01*
Y732663D02*
X2107057Y742823D01*
X2117217D01*
X2112137Y732663D01*
Y783463D02*
X2107057Y793623D01*
X2117217D01*
X2112137Y783463D01*
Y834263D02*
X2107057Y844423D01*
X2117217D01*
X2112137Y834263D01*
Y885063D02*
X2107057Y895223D01*
X2117217D01*
X2112137Y885063D01*
Y935863D02*
X2107057Y946023D01*
X2117217D01*
X2112137Y935863D01*
Y986663D02*
X2107057Y996823D01*
X2117217D01*
X2112137Y986663D01*
Y1037463D02*
X2107057Y1047623D01*
X2117217D01*
X2112137Y1037463D01*
Y1088263D02*
X2107057Y1098423D01*
X2117217D01*
X2112137Y1088263D01*
Y1139063D02*
X2107057Y1149223D01*
X2117217D01*
X2112137Y1139063D01*
Y1189863D02*
X2107057Y1200023D01*
X2117217D01*
X2112137Y1189863D01*
Y1240663D02*
X2107057Y1250823D01*
X2117217D01*
X2112137Y1240663D01*
Y1291463D02*
X2107057Y1301623D01*
X2117217D01*
X2112137Y1291463D01*
Y1342263D02*
X2107057Y1352423D01*
X2117217D01*
X2112137Y1342263D01*
Y1393063D02*
X2107057Y1403223D01*
X2117217D01*
X2112137Y1393063D01*
Y1443863D02*
X2107057Y1454023D01*
X2117217D01*
X2112137Y1443863D01*
X1630680Y1760995D02*
Y1758455D01*
X1635760D01*
Y1760995D01*
X1638300D01*
Y1766075D01*
X1635760D01*
Y1768615D01*
X1630680D01*
Y1766075D01*
X1628140D01*
Y1760995D01*
X1630680D01*
X1840680D02*
Y1758455D01*
X1845760D01*
Y1760995D01*
X1848300D01*
Y1766075D01*
X1845760D01*
Y1768615D01*
X1840680D01*
Y1766075D01*
X1838140D01*
Y1760995D01*
X1840680D01*
X1630680Y1896633D02*
Y1894093D01*
X1635760D01*
Y1896633D01*
X1638300D01*
Y1901713D01*
X1635760D01*
Y1904253D01*
X1630680D01*
Y1901713D01*
X1628140D01*
Y1896633D01*
X1630680D01*
X1840680D02*
Y1894093D01*
X1845760D01*
Y1896633D01*
X1848300D01*
Y1901713D01*
X1845760D01*
Y1904253D01*
X1840680D01*
Y1901713D01*
X1838140D01*
Y1896633D01*
X1840680D01*
X1630680Y2032271D02*
Y2029731D01*
X1635760D01*
Y2032271D01*
X1638300D01*
Y2037350D01*
X1635760D01*
Y2039890D01*
X1630680D01*
Y2037350D01*
X1628140D01*
Y2032271D01*
X1630680D01*
X1840680D02*
Y2029731D01*
X1845760D01*
Y2032271D01*
X1848300D01*
Y2037350D01*
X1845760D01*
Y2039890D01*
X1840680D01*
Y2037350D01*
X1838140D01*
Y2032271D01*
X1840680D01*
X1630680Y2167908D02*
Y2165368D01*
X1635760D01*
Y2167908D01*
X1638300D01*
Y2172988D01*
X1635760D01*
Y2175528D01*
X1630680D01*
Y2172988D01*
X1628140D01*
Y2167908D01*
X1630680D01*
X1840680D02*
Y2165368D01*
X1845760D01*
Y2167908D01*
X1848300D01*
Y2172988D01*
X1845760D01*
Y2175528D01*
X1840680D01*
Y2172988D01*
X1838140D01*
Y2167908D01*
X1840680D01*
X1140460Y1749313D02*
Y1746773D01*
X1145540D01*
Y1749313D01*
X1148080D01*
Y1754393D01*
X1145540D01*
Y1756933D01*
X1140460D01*
Y1754393D01*
X1137920D01*
Y1749313D01*
X1140460D01*
X930460D02*
Y1746773D01*
X935540D01*
Y1749313D01*
X938080D01*
Y1754393D01*
X935540D01*
Y1756933D01*
X930460D01*
Y1754393D01*
X927920D01*
Y1749313D01*
X930460D01*
X1140460Y1884951D02*
Y1882410D01*
X1145540D01*
Y1884951D01*
X1148080D01*
Y1890031D01*
X1145540D01*
Y1892570D01*
X1140460D01*
Y1890031D01*
X1137920D01*
Y1884951D01*
X1140460D01*
X930460D02*
Y1882410D01*
X935540D01*
Y1884951D01*
X938080D01*
Y1890031D01*
X935540D01*
Y1892570D01*
X930460D01*
Y1890031D01*
X927920D01*
Y1884951D01*
X930460D01*
X1140460Y2020588D02*
Y2018048D01*
X1145540D01*
Y2020588D01*
X1148080D01*
Y2025668D01*
X1145540D01*
Y2028208D01*
X1140460D01*
Y2025668D01*
X1137920D01*
Y2020588D01*
X1140460D01*
X930460D02*
Y2018048D01*
X935540D01*
Y2020588D01*
X938080D01*
Y2025668D01*
X935540D01*
Y2028208D01*
X930460D01*
Y2025668D01*
X927920D01*
Y2020588D01*
X930460D01*
X1140460Y2156226D02*
Y2153686D01*
X1145540D01*
Y2156226D01*
X1148080D01*
Y2161306D01*
X1145540D01*
Y2163846D01*
X1140460D01*
Y2161306D01*
X1137920D01*
Y2156226D01*
X1140460D01*
X930460D02*
Y2153686D01*
X935540D01*
Y2156226D01*
X938080D01*
Y2161306D01*
X935540D01*
Y2163846D01*
X930460D01*
Y2161306D01*
X927920D01*
Y2156226D01*
X930460D01*
X2112137Y1733423D02*
X2107057Y1743583D01*
X2117217D01*
X2112137Y1733423D01*
Y1784223D02*
X2107057Y1794383D01*
X2117217D01*
X2112137Y1784223D01*
Y1835023D02*
X2107057Y1845183D01*
X2117217D01*
X2112137Y1835023D01*
Y1885823D02*
X2107057Y1895983D01*
X2117217D01*
X2112137Y1885823D01*
Y1936623D02*
X2107057Y1946783D01*
X2117217D01*
X2112137Y1936623D01*
Y1987423D02*
X2107057Y1997583D01*
X2117217D01*
X2112137Y1987423D01*
Y2038223D02*
X2107057Y2048383D01*
X2117217D01*
X2112137Y2038223D01*
Y2089023D02*
X2107057Y2099183D01*
X2117217D01*
X2112137Y2089023D01*
X664083Y1784477D02*
X659003Y1794637D01*
X669163D01*
X664083Y1784477D01*
Y1733677D02*
X659003Y1743837D01*
X669163D01*
X664083Y1733677D01*
Y1886077D02*
X659003Y1896237D01*
X669163D01*
X664083Y1886077D01*
Y1835277D02*
X659003Y1845437D01*
X669163D01*
X664083Y1835277D01*
Y1987677D02*
X659003Y1997837D01*
X669163D01*
X664083Y1987677D01*
Y1936877D02*
X659003Y1947037D01*
X669163D01*
X664083Y1936877D01*
Y2089277D02*
X659003Y2099437D01*
X669163D01*
X664083Y2089277D01*
Y2038477D02*
X659003Y2048637D01*
X669163D01*
X664083Y2038477D01*
X1140460Y392934D02*
Y390394D01*
X1145540D01*
Y392934D01*
X1148080D01*
Y398014D01*
X1145540D01*
Y400554D01*
X1140460D01*
Y398014D01*
X1137920D01*
Y392934D01*
X1140460D01*
X930460D02*
Y390394D01*
X935540D01*
Y392934D01*
X938080D01*
Y398014D01*
X935540D01*
Y400554D01*
X930460D01*
Y398014D01*
X927920D01*
Y392934D01*
X930460D01*
X1140460Y528572D02*
Y526032D01*
X1145540D01*
Y528572D01*
X1148080D01*
Y533652D01*
X1145540D01*
Y536192D01*
X1140460D01*
Y533652D01*
X1137920D01*
Y528572D01*
X1140460D01*
X930460D02*
Y526032D01*
X935540D01*
Y528572D01*
X938080D01*
Y533652D01*
X935540D01*
Y536192D01*
X930460D01*
Y533652D01*
X927920D01*
Y528572D01*
X930460D01*
X1140460Y664210D02*
Y661670D01*
X1145540D01*
Y664210D01*
X1148080D01*
Y669290D01*
X1145540D01*
Y671830D01*
X1140460D01*
Y669290D01*
X1137920D01*
Y664210D01*
X1140460D01*
X930460D02*
Y661670D01*
X935540D01*
Y664210D01*
X938080D01*
Y669290D01*
X935540D01*
Y671830D01*
X930460D01*
Y669290D01*
X927920D01*
Y664210D01*
X930460D01*
X1140460Y1342399D02*
Y1339859D01*
X1145540D01*
Y1342399D01*
X1148080D01*
Y1347479D01*
X1145540D01*
Y1350019D01*
X1140460D01*
Y1347479D01*
X1137920D01*
Y1342399D01*
X1140460D01*
X930460D02*
Y1339859D01*
X935540D01*
Y1342399D01*
X938080D01*
Y1347479D01*
X935540D01*
Y1350019D01*
X930460D01*
Y1347479D01*
X927920D01*
Y1342399D01*
X930460D01*
X1140460Y1478037D02*
Y1475497D01*
X1145540D01*
Y1478037D01*
X1148080D01*
Y1483117D01*
X1145540D01*
Y1485657D01*
X1140460D01*
Y1483117D01*
X1137920D01*
Y1478037D01*
X1140460D01*
X930460D02*
Y1475497D01*
X935540D01*
Y1478037D01*
X938080D01*
Y1483117D01*
X935540D01*
Y1485657D01*
X930460D01*
Y1483117D01*
X927920D01*
Y1478037D01*
X930460D01*
X1140460Y1613675D02*
Y1611135D01*
X1145540D01*
Y1613675D01*
X1148080D01*
Y1618755D01*
X1145540D01*
Y1621295D01*
X1140460D01*
Y1618755D01*
X1137920D01*
Y1613675D01*
X1140460D01*
X930460D02*
Y1611135D01*
X935540D01*
Y1613675D01*
X938080D01*
Y1618755D01*
X935540D01*
Y1621295D01*
X930460D01*
Y1618755D01*
X927920D01*
Y1613675D01*
X930460D01*
X1630680Y1082806D02*
Y1080266D01*
X1635760D01*
Y1082806D01*
X1638300D01*
Y1087886D01*
X1635760D01*
Y1090426D01*
X1630680D01*
Y1087886D01*
X1628140D01*
Y1082806D01*
X1630680D01*
X1840680D02*
Y1080266D01*
X1845760D01*
Y1082806D01*
X1848300D01*
Y1087886D01*
X1845760D01*
Y1090426D01*
X1840680D01*
Y1087886D01*
X1838140D01*
Y1082806D01*
X1840680D01*
X1630680Y1218444D02*
Y1215903D01*
X1635760D01*
Y1218444D01*
X1638300D01*
Y1223523D01*
X1635760D01*
Y1226064D01*
X1630680D01*
Y1223523D01*
X1628140D01*
Y1218444D01*
X1630680D01*
X1840680D02*
Y1215903D01*
X1845760D01*
Y1218444D01*
X1848300D01*
Y1223523D01*
X1845760D01*
Y1226064D01*
X1840680D01*
Y1223523D01*
X1838140D01*
Y1218444D01*
X1840680D01*
X1630680Y1354081D02*
Y1351541D01*
X1635760D01*
Y1354081D01*
X1638300D01*
Y1359161D01*
X1635760D01*
Y1361701D01*
X1630680D01*
Y1359161D01*
X1628140D01*
Y1354081D01*
X1630680D01*
X1840680D02*
Y1351541D01*
X1845760D01*
Y1354081D01*
X1848300D01*
Y1359161D01*
X1845760D01*
Y1361701D01*
X1840680D01*
Y1359161D01*
X1838140D01*
Y1354081D01*
X1840680D01*
X1630680Y1489719D02*
Y1487179D01*
X1635760D01*
Y1489719D01*
X1638300D01*
Y1494799D01*
X1635760D01*
Y1497339D01*
X1630680D01*
Y1494799D01*
X1628140D01*
Y1489719D01*
X1630680D01*
X1840680D02*
Y1487179D01*
X1845760D01*
Y1489719D01*
X1848300D01*
Y1494799D01*
X1845760D01*
Y1497339D01*
X1840680D01*
Y1494799D01*
X1838140D01*
Y1489719D01*
X1840680D01*
X1630680Y1625357D02*
Y1622817D01*
X1635760D01*
Y1625357D01*
X1638300D01*
Y1630437D01*
X1635760D01*
Y1632977D01*
X1630680D01*
Y1630437D01*
X1628140D01*
Y1625357D01*
X1630680D01*
X1840680D02*
Y1622817D01*
X1845760D01*
Y1625357D01*
X1848300D01*
Y1630437D01*
X1845760D01*
Y1632977D01*
X1840680D01*
Y1630437D01*
X1838140D01*
Y1625357D01*
X1840680D01*
X1140460Y799848D02*
Y797308D01*
X1145540D01*
Y799848D01*
X1148080D01*
Y804928D01*
X1145540D01*
Y807468D01*
X1140460D01*
Y804928D01*
X1137920D01*
Y799848D01*
X1140460D01*
X930460D02*
Y797308D01*
X935540D01*
Y799848D01*
X938080D01*
Y804928D01*
X935540D01*
Y807468D01*
X930460D01*
Y804928D01*
X927920D01*
Y799848D01*
X930460D01*
X1140460Y935486D02*
Y932946D01*
X1145540D01*
Y935486D01*
X1148080D01*
Y940566D01*
X1145540D01*
Y943106D01*
X1140460D01*
Y940566D01*
X1137920D01*
Y935486D01*
X1140460D01*
X930460D02*
Y932946D01*
X935540D01*
Y935486D01*
X938080D01*
Y940566D01*
X935540D01*
Y943106D01*
X930460D01*
Y940566D01*
X927920D01*
Y935486D01*
X930460D01*
X1140460Y1071124D02*
Y1068584D01*
X1145540D01*
Y1071124D01*
X1148080D01*
Y1076204D01*
X1145540D01*
Y1078744D01*
X1140460D01*
Y1076204D01*
X1137920D01*
Y1071124D01*
X1140460D01*
X930460D02*
Y1068584D01*
X935540D01*
Y1071124D01*
X938080D01*
Y1076204D01*
X935540D01*
Y1078744D01*
X930460D01*
Y1076204D01*
X927920D01*
Y1071124D01*
X930460D01*
X1140460Y1206761D02*
Y1204221D01*
X1145540D01*
Y1206761D01*
X1148080D01*
Y1211841D01*
X1145540D01*
Y1214381D01*
X1140460D01*
Y1211841D01*
X1137920D01*
Y1206761D01*
X1140460D01*
X930460D02*
Y1204221D01*
X935540D01*
Y1206761D01*
X938080D01*
Y1211841D01*
X935540D01*
Y1214381D01*
X930460D01*
Y1211841D01*
X927920D01*
Y1206761D01*
X930460D01*
X588010Y2197100D02*
X590550D01*
X593090Y2199640D01*
X595630Y2197100D01*
X598170D01*
Y2199640D01*
X595630Y2202180D01*
X598170Y2204720D01*
Y2207260D01*
X595630D01*
X593090Y2204720D01*
X590550Y2207260D01*
X588010D01*
Y2204720D01*
X590550Y2202180D01*
X588010Y2199640D01*
Y2197100D01*
Y379730D02*
X590550D01*
X593090Y382270D01*
X595630Y379730D01*
X598170D01*
Y382270D01*
X595630Y384810D01*
X598170Y387350D01*
Y389890D01*
X595630D01*
X593090Y387350D01*
X590550Y389890D01*
X588010D01*
Y387350D01*
X590550Y384810D01*
X588010Y382270D01*
Y379730D01*
X2178050Y2197100D02*
X2180590D01*
X2183130Y2199640D01*
X2185670Y2197100D01*
X2188210D01*
Y2199640D01*
X2185670Y2202180D01*
X2188210Y2204720D01*
Y2207260D01*
X2185670D01*
X2183130Y2204720D01*
X2180590Y2207260D01*
X2178050D01*
Y2204720D01*
X2180590Y2202180D01*
X2178050Y2199640D01*
Y2197100D01*
Y379730D02*
X2180590D01*
X2183130Y382270D01*
X2185670Y379730D01*
X2188210D01*
Y382270D01*
X2185670Y384810D01*
X2188210Y387350D01*
Y389890D01*
X2185670D01*
X2183130Y387350D01*
X2180590Y389890D01*
X2178050D01*
Y387350D01*
X2180590Y384810D01*
X2178050Y382270D01*
Y379730D01*
D35*
X1484630Y424180D02*
G03*
X1484630Y424180I-5080J0D01*
G01*
X1424630D02*
G03*
X1424630Y424180I-5080J0D01*
G01*
X1364630D02*
G03*
X1364630Y424180I-5080J0D01*
G01*
X1304630D02*
G03*
X1304630Y424180I-5080J0D01*
G01*
X1484630Y2162810D02*
G03*
X1484630Y2162810I-5080J0D01*
G01*
X1424630D02*
G03*
X1424630Y2162810I-5080J0D01*
G01*
X1364630D02*
G03*
X1364630Y2162810I-5080J0D01*
G01*
X1304630D02*
G03*
X1304630Y2162810I-5080J0D01*
G01*
M02*
