%FSLAX44Y44*%
%MOMM*%
G71*
G01*
G75*
G04 Layer_Color=32896*
%ADD10P,3.2472X8X22.5*%
%ADD11C,2.0000*%
%ADD12C,3.0480*%
%ADD13P,3.2992X8X112.5*%
%ADD14C,1.4000*%
%ADD15C,1.5240*%
%ADD16P,1.6496X8X202.5*%
%ADD17C,3.0000*%
%ADD18P,4.3296X8X202.5*%
%ADD19C,1.0000*%
%ADD20C,2.0000*%
%ADD21C,0.1524*%
%ADD22C,0.2540*%
%ADD23C,0.2000*%
%ADD24C,0.3000*%
%ADD25P,3.4671X8X22.5*%
%ADD26C,2.2032*%
%ADD27C,3.2512*%
%ADD28P,3.5191X8X112.5*%
%ADD29C,1.6032*%
%ADD30C,1.7272*%
%ADD31P,1.8695X8X202.5*%
%ADD32C,3.2032*%
%ADD33P,4.5495X8X202.5*%
D24*
X2184397Y2045966D02*
X2181857Y2048505D01*
X2176779D01*
X2174240Y2045966D01*
Y2035809D01*
X2176779Y2033270D01*
X2181857D01*
X2184397Y2035809D01*
Y2040887D01*
X2179318D01*
X2189475Y2033270D02*
Y2048505D01*
X2199632Y2033270D01*
Y2048505D01*
X2204710D02*
Y2033270D01*
X2212328D01*
X2214867Y2035809D01*
Y2045966D01*
X2212328Y2048505D01*
X2204710D01*
X2184397Y1943096D02*
X2181857Y1945635D01*
X2176779D01*
X2174240Y1943096D01*
Y1932939D01*
X2176779Y1930400D01*
X2181857D01*
X2184397Y1932939D01*
Y1938017D01*
X2179318D01*
X2189475Y1930400D02*
Y1945635D01*
X2199632Y1930400D01*
Y1945635D01*
X2204710D02*
Y1930400D01*
X2212328D01*
X2214867Y1932939D01*
Y1943096D01*
X2212328Y1945635D01*
X2204710D01*
X2181857Y1844036D02*
X2179317Y1846575D01*
X2174239D01*
X2171700Y1844036D01*
Y1833879D01*
X2174239Y1831340D01*
X2179317D01*
X2181857Y1833879D01*
Y1838958D01*
X2176778D01*
X2186935Y1831340D02*
Y1846575D01*
X2197092Y1831340D01*
Y1846575D01*
X2202170D02*
Y1831340D01*
X2209788D01*
X2212327Y1833879D01*
Y1844036D01*
X2209788Y1846575D01*
X2202170D01*
X2184397Y1742436D02*
X2181857Y1744975D01*
X2176779D01*
X2174240Y1742436D01*
Y1732279D01*
X2176779Y1729740D01*
X2181857D01*
X2184397Y1732279D01*
Y1737357D01*
X2179318D01*
X2189475Y1729740D02*
Y1744975D01*
X2199632Y1729740D01*
Y1744975D01*
X2204710D02*
Y1729740D01*
X2212328D01*
X2214867Y1732279D01*
Y1742436D01*
X2212328Y1744975D01*
X2204710D01*
X2183127Y1637026D02*
X2180587Y1639565D01*
X2175509D01*
X2172970Y1637026D01*
Y1626869D01*
X2175509Y1624330D01*
X2180587D01*
X2183127Y1626869D01*
Y1631947D01*
X2178048D01*
X2188205Y1624330D02*
Y1639565D01*
X2198362Y1624330D01*
Y1639565D01*
X2203440D02*
Y1624330D01*
X2211058D01*
X2213597Y1626869D01*
Y1637026D01*
X2211058Y1639565D01*
X2203440D01*
X2184397Y1536696D02*
X2181857Y1539235D01*
X2176779D01*
X2174240Y1536696D01*
Y1526539D01*
X2176779Y1524000D01*
X2181857D01*
X2184397Y1526539D01*
Y1531617D01*
X2179318D01*
X2189475Y1524000D02*
Y1539235D01*
X2199632Y1524000D01*
Y1539235D01*
X2204710D02*
Y1524000D01*
X2212328D01*
X2214867Y1526539D01*
Y1536696D01*
X2212328Y1539235D01*
X2204710D01*
X2183127Y1398266D02*
X2180587Y1400805D01*
X2175509D01*
X2172970Y1398266D01*
Y1388109D01*
X2175509Y1385570D01*
X2180587D01*
X2183127Y1388109D01*
Y1393188D01*
X2178048D01*
X2188205Y1385570D02*
Y1400805D01*
X2198362Y1385570D01*
Y1400805D01*
X2203440D02*
Y1385570D01*
X2211058D01*
X2213597Y1388109D01*
Y1398266D01*
X2211058Y1400805D01*
X2203440D01*
X2193287Y1297936D02*
X2190748Y1300475D01*
X2185669D01*
X2183130Y1297936D01*
Y1287779D01*
X2185669Y1285240D01*
X2190748D01*
X2193287Y1287779D01*
Y1292858D01*
X2188208D01*
X2198365Y1285240D02*
Y1300475D01*
X2208522Y1285240D01*
Y1300475D01*
X2213600D02*
Y1285240D01*
X2221218D01*
X2223757Y1287779D01*
Y1297936D01*
X2221218Y1300475D01*
X2213600D01*
X2189477Y1197606D02*
X2186938Y1200145D01*
X2181859D01*
X2179320Y1197606D01*
Y1187449D01*
X2181859Y1184910D01*
X2186938D01*
X2189477Y1187449D01*
Y1192527D01*
X2184398D01*
X2194555Y1184910D02*
Y1200145D01*
X2204712Y1184910D01*
Y1200145D01*
X2209790D02*
Y1184910D01*
X2217408D01*
X2219947Y1187449D01*
Y1197606D01*
X2217408Y1200145D01*
X2209790D01*
X2184397Y1093466D02*
X2181857Y1096005D01*
X2176779D01*
X2174240Y1093466D01*
Y1083309D01*
X2176779Y1080770D01*
X2181857D01*
X2184397Y1083309D01*
Y1088388D01*
X2179318D01*
X2189475Y1080770D02*
Y1096005D01*
X2199632Y1080770D01*
Y1096005D01*
X2204710D02*
Y1080770D01*
X2212328D01*
X2214867Y1083309D01*
Y1093466D01*
X2212328Y1096005D01*
X2204710D01*
X2190747Y996946D02*
X2188208Y999485D01*
X2183129D01*
X2180590Y996946D01*
Y986789D01*
X2183129Y984250D01*
X2188208D01*
X2190747Y986789D01*
Y991868D01*
X2185668D01*
X2195825Y984250D02*
Y999485D01*
X2205982Y984250D01*
Y999485D01*
X2211060D02*
Y984250D01*
X2218678D01*
X2221217Y986789D01*
Y996946D01*
X2218678Y999485D01*
X2211060D01*
X2181857Y892806D02*
X2179317Y895345D01*
X2174239D01*
X2171700Y892806D01*
Y882649D01*
X2174239Y880110D01*
X2179317D01*
X2181857Y882649D01*
Y887728D01*
X2176778D01*
X2186935Y880110D02*
Y895345D01*
X2197092Y880110D01*
Y895345D01*
X2202170D02*
Y880110D01*
X2209788D01*
X2212327Y882649D01*
Y892806D01*
X2209788Y895345D01*
X2202170D01*
X2186937Y791206D02*
X2184397Y793745D01*
X2179319D01*
X2176780Y791206D01*
Y781049D01*
X2179319Y778510D01*
X2184397D01*
X2186937Y781049D01*
Y786127D01*
X2181858D01*
X2192015Y778510D02*
Y793745D01*
X2202172Y778510D01*
Y793745D01*
X2207250D02*
Y778510D01*
X2214868D01*
X2217407Y781049D01*
Y791206D01*
X2214868Y793745D01*
X2207250D01*
X2186937Y688336D02*
X2184397Y690875D01*
X2179319D01*
X2176780Y688336D01*
Y678179D01*
X2179319Y675640D01*
X2184397D01*
X2186937Y678179D01*
Y683258D01*
X2181858D01*
X2192015Y675640D02*
Y690875D01*
X2202172Y675640D01*
Y690875D01*
X2207250D02*
Y675640D01*
X2214868D01*
X2217407Y678179D01*
Y688336D01*
X2214868Y690875D01*
X2207250D01*
X2183127Y585466D02*
X2180587Y588005D01*
X2175509D01*
X2172970Y585466D01*
Y575309D01*
X2175509Y572770D01*
X2180587D01*
X2183127Y575309D01*
Y580387D01*
X2178048D01*
X2188205Y572770D02*
Y588005D01*
X2198362Y572770D01*
Y588005D01*
X2203440D02*
Y572770D01*
X2211058D01*
X2213597Y575309D01*
Y585466D01*
X2211058Y588005D01*
X2203440D01*
X2183127Y487676D02*
X2180587Y490215D01*
X2175509D01*
X2172970Y487676D01*
Y477519D01*
X2175509Y474980D01*
X2180587D01*
X2183127Y477519D01*
Y482598D01*
X2178048D01*
X2188205Y474980D02*
Y490215D01*
X2198362Y474980D01*
Y490215D01*
X2203440D02*
Y474980D01*
X2211058D01*
X2213597Y477519D01*
Y487676D01*
X2211058Y490215D01*
X2203440D01*
X565147Y486406D02*
X562607Y488945D01*
X557529D01*
X554990Y486406D01*
Y476249D01*
X557529Y473710D01*
X562607D01*
X565147Y476249D01*
Y481328D01*
X560068D01*
X570225Y473710D02*
Y488945D01*
X580382Y473710D01*
Y488945D01*
X585460D02*
Y473710D01*
X593078D01*
X595617Y476249D01*
Y486406D01*
X593078Y488945D01*
X585460D01*
X565147Y589276D02*
X562607Y591815D01*
X557529D01*
X554990Y589276D01*
Y579119D01*
X557529Y576580D01*
X562607D01*
X565147Y579119D01*
Y584198D01*
X560068D01*
X570225Y576580D02*
Y591815D01*
X580382Y576580D01*
Y591815D01*
X585460D02*
Y576580D01*
X593078D01*
X595617Y579119D01*
Y589276D01*
X593078Y591815D01*
X585460D01*
X565147Y694686D02*
X562607Y697225D01*
X557529D01*
X554990Y694686D01*
Y684529D01*
X557529Y681990D01*
X562607D01*
X565147Y684529D01*
Y689607D01*
X560068D01*
X570225Y681990D02*
Y697225D01*
X580382Y681990D01*
Y697225D01*
X585460D02*
Y681990D01*
X593078D01*
X595617Y684529D01*
Y694686D01*
X593078Y697225D01*
X585460D01*
X568957Y792476D02*
X566418Y795015D01*
X561339D01*
X558800Y792476D01*
Y782319D01*
X561339Y779780D01*
X566418D01*
X568957Y782319D01*
Y787398D01*
X563878D01*
X574035Y779780D02*
Y795015D01*
X584192Y779780D01*
Y795015D01*
X589270D02*
Y779780D01*
X596888D01*
X599427Y782319D01*
Y792476D01*
X596888Y795015D01*
X589270D01*
X567687Y892806D02*
X565148Y895345D01*
X560069D01*
X557530Y892806D01*
Y882649D01*
X560069Y880110D01*
X565148D01*
X567687Y882649D01*
Y887728D01*
X562608D01*
X572765Y880110D02*
Y895345D01*
X582922Y880110D01*
Y895345D01*
X588000D02*
Y880110D01*
X595618D01*
X598157Y882649D01*
Y892806D01*
X595618Y895345D01*
X588000D01*
X568957Y993136D02*
X566418Y995675D01*
X561339D01*
X558800Y993136D01*
Y982979D01*
X561339Y980440D01*
X566418D01*
X568957Y982979D01*
Y988057D01*
X563878D01*
X574035Y980440D02*
Y995675D01*
X584192Y980440D01*
Y995675D01*
X589270D02*
Y980440D01*
X596888D01*
X599427Y982979D01*
Y993136D01*
X596888Y995675D01*
X589270D01*
X563877Y1097276D02*
X561338Y1099815D01*
X556259D01*
X553720Y1097276D01*
Y1087119D01*
X556259Y1084580D01*
X561338D01*
X563877Y1087119D01*
Y1092197D01*
X558798D01*
X568955Y1084580D02*
Y1099815D01*
X579112Y1084580D01*
Y1099815D01*
X584190D02*
Y1084580D01*
X591808D01*
X594347Y1087119D01*
Y1097276D01*
X591808Y1099815D01*
X584190D01*
X567687Y1200146D02*
X565148Y1202685D01*
X560069D01*
X557530Y1200146D01*
Y1189989D01*
X560069Y1187450D01*
X565148D01*
X567687Y1189989D01*
Y1195068D01*
X562608D01*
X572765Y1187450D02*
Y1202685D01*
X582922Y1187450D01*
Y1202685D01*
X588000D02*
Y1187450D01*
X595618D01*
X598157Y1189989D01*
Y1200146D01*
X595618Y1202685D01*
X588000D01*
X565147Y1303016D02*
X562607Y1305555D01*
X557529D01*
X554990Y1303016D01*
Y1292859D01*
X557529Y1290320D01*
X562607D01*
X565147Y1292859D01*
Y1297937D01*
X560068D01*
X570225Y1290320D02*
Y1305555D01*
X580382Y1290320D01*
Y1305555D01*
X585460D02*
Y1290320D01*
X593078D01*
X595617Y1292859D01*
Y1303016D01*
X593078Y1305555D01*
X585460D01*
X567687Y1400806D02*
X565148Y1403345D01*
X560069D01*
X557530Y1400806D01*
Y1390649D01*
X560069Y1388110D01*
X565148D01*
X567687Y1390649D01*
Y1395728D01*
X562608D01*
X572765Y1388110D02*
Y1403345D01*
X582922Y1388110D01*
Y1403345D01*
X588000D02*
Y1388110D01*
X595618D01*
X598157Y1390649D01*
Y1400806D01*
X595618Y1403345D01*
X588000D01*
X565147Y1537966D02*
X562607Y1540505D01*
X557529D01*
X554990Y1537966D01*
Y1527809D01*
X557529Y1525270D01*
X562607D01*
X565147Y1527809D01*
Y1532888D01*
X560068D01*
X570225Y1525270D02*
Y1540505D01*
X580382Y1525270D01*
Y1540505D01*
X585460D02*
Y1525270D01*
X593078D01*
X595617Y1527809D01*
Y1537966D01*
X593078Y1540505D01*
X585460D01*
X567687Y1642106D02*
X565148Y1644645D01*
X560069D01*
X557530Y1642106D01*
Y1631949D01*
X560069Y1629410D01*
X565148D01*
X567687Y1631949D01*
Y1637027D01*
X562608D01*
X572765Y1629410D02*
Y1644645D01*
X582922Y1629410D01*
Y1644645D01*
X588000D02*
Y1629410D01*
X595618D01*
X598157Y1631949D01*
Y1642106D01*
X595618Y1644645D01*
X588000D01*
X570227Y1743706D02*
X567687Y1746245D01*
X562609D01*
X560070Y1743706D01*
Y1733549D01*
X562609Y1731010D01*
X567687D01*
X570227Y1733549D01*
Y1738627D01*
X565148D01*
X575305Y1731010D02*
Y1746245D01*
X585462Y1731010D01*
Y1746245D01*
X590540D02*
Y1731010D01*
X598158D01*
X600697Y1733549D01*
Y1743706D01*
X598158Y1746245D01*
X590540D01*
X571497Y1838956D02*
X568957Y1841495D01*
X563879D01*
X561340Y1838956D01*
Y1828799D01*
X563879Y1826260D01*
X568957D01*
X571497Y1828799D01*
Y1833878D01*
X566418D01*
X576575Y1826260D02*
Y1841495D01*
X586732Y1826260D01*
Y1841495D01*
X591810D02*
Y1826260D01*
X599428D01*
X601967Y1828799D01*
Y1838956D01*
X599428Y1841495D01*
X591810D01*
X571497Y1946906D02*
X568957Y1949445D01*
X563879D01*
X561340Y1946906D01*
Y1936749D01*
X563879Y1934210D01*
X568957D01*
X571497Y1936749D01*
Y1941828D01*
X566418D01*
X576575Y1934210D02*
Y1949445D01*
X586732Y1934210D01*
Y1949445D01*
X591810D02*
Y1934210D01*
X599428D01*
X601967Y1936749D01*
Y1946906D01*
X599428Y1949445D01*
X591810D01*
X571497Y2047236D02*
X568957Y2049775D01*
X563879D01*
X561340Y2047236D01*
Y2037079D01*
X563879Y2034540D01*
X568957D01*
X571497Y2037079D01*
Y2042157D01*
X566418D01*
X576575Y2034540D02*
Y2049775D01*
X586732Y2034540D01*
Y2049775D01*
X591810D02*
Y2034540D01*
X599428D01*
X601967Y2037079D01*
Y2047236D01*
X599428Y2049775D01*
X591810D01*
M02*
